<?xml version="1.0" encoding="utf-8"?>
<svg xmlns="http://www.w3.org/2000/svg" xmlns:xlink="http://www.w3.org/1999/xlink" width="600" height="400" viewBox="0 0 2400 1600">
<defs>
  <clipPath id="clip460">
    <rect x="0" y="0" width="2400" height="1600"/>
  </clipPath>
</defs>
<path clip-path="url(#clip460)" d="M0 1600 L2400 1600 L2400 0 L0 0  Z" fill="#ffffff" fill-rule="evenodd" fill-opacity="1"/>
<defs>
  <clipPath id="clip461">
    <rect x="480" y="0" width="1681" height="1600"/>
  </clipPath>
</defs>
<path clip-path="url(#clip460)" d="M485.358 1552.76 L1914.64 1552.76 L1914.64 123.472 L485.358 123.472  Z" fill="#ffffff" fill-rule="evenodd" fill-opacity="1"/>
<defs>
  <clipPath id="clip462">
    <rect x="485" y="123" width="1430" height="1430"/>
  </clipPath>
</defs>
<path clip-path="url(#clip460)" d="M1113.47 20.1573 L1102.37 50.2555 L1124.61 50.2555 L1113.47 20.1573 M1108.85 12.096 L1118.13 12.096 L1141.18 72.576 L1132.67 72.576 L1127.16 57.061 L1099.9 57.061 L1094.39 72.576 L1085.76 72.576 L1108.85 12.096 Z" fill="#000000" fill-rule="nonzero" fill-opacity="1" /><path clip-path="url(#clip460)" d="M1158.19 43.6931 L1158.19 65.8515 L1171.32 65.8515 Q1177.92 65.8515 1181.08 63.1374 Q1184.28 60.3828 1184.28 54.752 Q1184.28 49.0808 1181.08 46.4072 Q1177.92 43.6931 1171.32 43.6931 L1158.19 43.6931 M1158.19 18.8205 L1158.19 37.0496 L1170.31 37.0496 Q1176.3 37.0496 1179.22 34.8216 Q1182.18 32.5531 1182.18 27.935 Q1182.18 23.3575 1179.22 21.089 Q1176.3 18.8205 1170.31 18.8205 L1158.19 18.8205 M1150.01 12.096 L1170.91 12.096 Q1180.27 12.096 1185.34 15.9849 Q1190.4 19.8737 1190.4 27.0438 Q1190.4 32.5936 1187.81 35.8748 Q1185.21 39.156 1180.19 39.9662 Q1186.23 41.2625 1189.55 45.3944 Q1192.91 49.4858 1192.91 55.6432 Q1192.91 63.745 1187.4 68.1605 Q1181.89 72.576 1171.72 72.576 L1150.01 72.576 L1150.01 12.096 Z" fill="#000000" fill-rule="nonzero" fill-opacity="1" /><path clip-path="url(#clip460)" d="M1250.76 16.7545 L1250.76 25.383 Q1246.63 21.5346 1241.93 19.6307 Q1237.27 17.7268 1232 17.7268 Q1221.63 17.7268 1216.12 24.0867 Q1210.61 30.4061 1210.61 42.3968 Q1210.61 54.3469 1216.12 60.7069 Q1221.63 67.0263 1232 67.0263 Q1237.27 67.0263 1241.93 65.1223 Q1246.63 63.2184 1250.76 59.3701 L1250.76 67.9175 Q1246.46 70.8341 1241.64 72.2924 Q1236.86 73.7508 1231.52 73.7508 Q1217.78 73.7508 1209.88 65.3654 Q1201.98 56.9395 1201.98 42.3968 Q1201.98 27.8135 1209.88 19.4281 Q1217.78 11.0023 1231.52 11.0023 Q1236.94 11.0023 1241.72 12.4606 Q1246.54 13.8784 1250.76 16.7545 Z" fill="#000000" fill-rule="nonzero" fill-opacity="1" /><path clip-path="url(#clip460)" d="M1271.58 18.8205 L1271.58 65.8515 L1281.46 65.8515 Q1293.98 65.8515 1299.77 60.1802 Q1305.61 54.509 1305.61 42.2752 Q1305.61 30.1225 1299.77 24.4918 Q1293.98 18.8205 1281.46 18.8205 L1271.58 18.8205 M1263.4 12.096 L1280.21 12.096 Q1297.79 12.096 1306.01 19.4281 Q1314.24 26.7198 1314.24 42.2752 Q1314.24 57.9117 1305.97 65.2439 Q1297.71 72.576 1280.21 72.576 L1263.4 72.576 L1263.4 12.096 Z" fill="#000000" fill-rule="nonzero" fill-opacity="1" /><polyline clip-path="url(#clip462)" style="stroke:#000000; stroke-linecap:round; stroke-linejoin:round; stroke-width:4; stroke-opacity:1; fill:none" points="1143.62,1192.69 1147.66,1038.36 "/>
<polyline clip-path="url(#clip462)" style="stroke:#000000; stroke-linecap:round; stroke-linejoin:round; stroke-width:4; stroke-opacity:1; fill:none" points="1128.72,1073.88 1147.66,1038.36 1164.71,1074.82 "/>
<polyline clip-path="url(#clip462)" style="stroke:#000000; stroke-linecap:round; stroke-linejoin:round; stroke-width:4; stroke-opacity:1; fill:none" points="1147.66,1038.36 1143.62,1192.69 "/>
<polyline clip-path="url(#clip462)" style="stroke:#000000; stroke-linecap:round; stroke-linejoin:round; stroke-width:4; stroke-opacity:1; fill:none" points="1156.7,1348.57 1126.82,1223.85 "/>
<polyline clip-path="url(#clip462)" style="stroke:#000000; stroke-linecap:round; stroke-linejoin:round; stroke-width:4; stroke-opacity:1; fill:none" points="1117.7,1263.06 1126.82,1223.85 1152.71,1254.67 "/>
<polyline clip-path="url(#clip462)" style="stroke:#000000; stroke-linecap:round; stroke-linejoin:round; stroke-width:4; stroke-opacity:1; fill:none" points="1126.82,1223.85 1156.7,1348.57 "/>
<polyline clip-path="url(#clip462)" style="stroke:#000000; stroke-linecap:round; stroke-linejoin:round; stroke-width:4; stroke-opacity:1; fill:none" points="1139.69,1026.01 1360.54,966.702 "/>
<polyline clip-path="url(#clip462)" style="stroke:#000000; stroke-linecap:round; stroke-linejoin:round; stroke-width:4; stroke-opacity:1; fill:none" points="1321.1,958.654 1360.54,966.702 1330.44,993.422 "/>
<polyline clip-path="url(#clip462)" style="stroke:#000000; stroke-linecap:round; stroke-linejoin:round; stroke-width:4; stroke-opacity:1; fill:none" points="1360.54,966.702 1139.69,1026.01 "/>
<polyline clip-path="url(#clip462)" style="stroke:#000000; stroke-linecap:round; stroke-linejoin:round; stroke-width:4; stroke-opacity:1; fill:none" points="1522.12,830.249 1393.09,946.356 "/>
<polyline clip-path="url(#clip462)" style="stroke:#000000; stroke-linecap:round; stroke-linejoin:round; stroke-width:4; stroke-opacity:1; fill:none" points="1431.89,935.656 1393.09,946.356 1407.81,908.896 "/>
<polyline clip-path="url(#clip462)" style="stroke:#000000; stroke-linecap:round; stroke-linejoin:round; stroke-width:4; stroke-opacity:1; fill:none" points="1393.09,946.356 1522.12,830.249 "/>
<polyline clip-path="url(#clip462)" style="stroke:#000000; stroke-linecap:round; stroke-linejoin:round; stroke-width:4; stroke-opacity:1; fill:none" points="910.983,751.484 1012.99,601.717 "/>
<polyline clip-path="url(#clip462)" style="stroke:#000000; stroke-linecap:round; stroke-linejoin:round; stroke-width:4; stroke-opacity:1; fill:none" points="977.848,621.338 1012.99,601.717 1007.6,641.603 "/>
<polyline clip-path="url(#clip462)" style="stroke:#000000; stroke-linecap:round; stroke-linejoin:round; stroke-width:4; stroke-opacity:1; fill:none" points="1012.99,601.717 910.983,751.484 "/>
<polyline clip-path="url(#clip462)" style="stroke:#000000; stroke-linecap:round; stroke-linejoin:round; stroke-width:4; stroke-opacity:1; fill:none" points="1280.96,568.22 1039.23,588.455 "/>
<polyline clip-path="url(#clip462)" style="stroke:#000000; stroke-linecap:round; stroke-linejoin:round; stroke-width:4; stroke-opacity:1; fill:none" points="1076.6,603.389 1039.23,588.455 1073.6,567.514 "/>
<polyline clip-path="url(#clip462)" style="stroke:#000000; stroke-linecap:round; stroke-linejoin:round; stroke-width:4; stroke-opacity:1; fill:none" points="1039.23,588.455 1280.96,568.22 "/>
<polyline clip-path="url(#clip462)" style="stroke:#000000; stroke-linecap:round; stroke-linejoin:round; stroke-width:4; stroke-opacity:1; fill:none" points="1026.22,595.311 912.933,465.61 "/>
<polyline clip-path="url(#clip462)" style="stroke:#000000; stroke-linecap:round; stroke-linejoin:round; stroke-width:4; stroke-opacity:1; fill:none" points="923.059,504.565 912.933,465.61 950.173,480.882 "/>
<polyline clip-path="url(#clip462)" style="stroke:#000000; stroke-linecap:round; stroke-linejoin:round; stroke-width:4; stroke-opacity:1; fill:none" points="912.933,465.61 1026.22,595.311 "/>
<polyline clip-path="url(#clip462)" style="stroke:#000000; stroke-linecap:round; stroke-linejoin:round; stroke-width:4; stroke-opacity:1; fill:none" points="763.22,327.656 882.116,433.248 "/>
<polyline clip-path="url(#clip462)" style="stroke:#000000; stroke-linecap:round; stroke-linejoin:round; stroke-width:4; stroke-opacity:1; fill:none" points="867.152,395.884 882.116,433.248 843.246,422.801 "/>
<polyline clip-path="url(#clip462)" style="stroke:#000000; stroke-linecap:round; stroke-linejoin:round; stroke-width:4; stroke-opacity:1; fill:none" points="882.116,433.248 763.22,327.656 "/>
<polyline clip-path="url(#clip462)" style="stroke:#000000; stroke-linecap:round; stroke-linejoin:round; stroke-width:4; stroke-opacity:1; fill:none" points="921.866,924.529 1129.85,1015.08 "/>
<polyline clip-path="url(#clip462)" style="stroke:#000000; stroke-linecap:round; stroke-linejoin:round; stroke-width:4; stroke-opacity:1; fill:none" points="1104.03,984.208 1129.85,1015.08 1089.66,1017.22 "/>
<polyline clip-path="url(#clip462)" style="stroke:#000000; stroke-linecap:round; stroke-linejoin:round; stroke-width:4; stroke-opacity:1; fill:none" points="1129.85,1015.08 921.866,924.529 "/>
<polyline clip-path="url(#clip462)" style="stroke:#000000; stroke-linecap:round; stroke-linejoin:round; stroke-width:4; stroke-opacity:1; fill:none" points="689.542,982.596 910.144,933.402 "/>
<polyline clip-path="url(#clip462)" style="stroke:#000000; stroke-linecap:round; stroke-linejoin:round; stroke-width:4; stroke-opacity:1; fill:none" points="871.09,923.669 910.144,933.402 878.925,958.806 "/>
<polyline clip-path="url(#clip462)" style="stroke:#000000; stroke-linecap:round; stroke-linejoin:round; stroke-width:4; stroke-opacity:1; fill:none" points="910.144,933.402 689.542,982.596 "/>
<polyline clip-path="url(#clip462)" style="stroke:#000000; stroke-linecap:round; stroke-linejoin:round; stroke-width:4; stroke-opacity:1; fill:none" points="921.866,924.529 930.826,780.804 "/>
<polyline clip-path="url(#clip462)" style="stroke:#000000; stroke-linecap:round; stroke-linejoin:round; stroke-width:4; stroke-opacity:1; fill:none" points="910.621,815.615 930.826,780.804 946.551,817.854 "/>
<polyline clip-path="url(#clip462)" style="stroke:#000000; stroke-linecap:round; stroke-linejoin:round; stroke-width:4; stroke-opacity:1; fill:none" points="930.826,780.804 921.866,924.529 "/>
<polyline clip-path="url(#clip462)" style="stroke:#000000; stroke-linecap:round; stroke-linejoin:round; stroke-width:4; stroke-opacity:1; fill:none" points="1499.55,656.722 1535.87,797.623 "/>
<polyline clip-path="url(#clip462)" style="stroke:#000000; stroke-linecap:round; stroke-linejoin:round; stroke-width:4; stroke-opacity:1; fill:none" points="1544.31,758.27 1535.87,797.623 1509.45,767.255 "/>
<polyline clip-path="url(#clip462)" style="stroke:#000000; stroke-linecap:round; stroke-linejoin:round; stroke-width:4; stroke-opacity:1; fill:none" points="1535.87,797.623 1499.55,656.722 "/>
<polyline clip-path="url(#clip462)" style="stroke:#000000; stroke-linecap:round; stroke-linejoin:round; stroke-width:4; stroke-opacity:1; fill:none" points="1710.46,576.047 1514.23,657.592 "/>
<polyline clip-path="url(#clip462)" style="stroke:#000000; stroke-linecap:round; stroke-linejoin:round; stroke-width:4; stroke-opacity:1; fill:none" points="1554.38,660.4 1514.23,657.592 1540.56,627.156 "/>
<polyline clip-path="url(#clip462)" style="stroke:#000000; stroke-linecap:round; stroke-linejoin:round; stroke-width:4; stroke-opacity:1; fill:none" points="1514.23,657.592 1710.46,576.047 "/>
<polyline clip-path="url(#clip462)" style="stroke:#000000; stroke-linecap:round; stroke-linejoin:round; stroke-width:4; stroke-opacity:1; fill:none" points="1499.55,656.722 1316.35,567.375 "/>
<polyline clip-path="url(#clip462)" style="stroke:#000000; stroke-linecap:round; stroke-linejoin:round; stroke-width:4; stroke-opacity:1; fill:none" points="1340.82,599.334 1316.35,567.375 1356.6,566.977 "/>
<polyline clip-path="url(#clip462)" style="stroke:#000000; stroke-linecap:round; stroke-linejoin:round; stroke-width:4; stroke-opacity:1; fill:none" points="1316.35,567.375 1499.55,656.722 "/>
<path clip-path="url(#clip462)" d="M1411.38 970.888 L1411.3 968.855 L1411.06 966.834 L1410.66 964.839 L1410.1 962.882 L1409.39 960.976 L1408.52 959.132 L1407.52 957.363 L1406.37 955.679 L1405.1 954.091 L1403.71 952.61 L1402.2 951.244 L1400.58 950.003 L1398.88 948.893 L1397.09 947.922 L1395.23 947.097 L1393.31 946.422 L1391.34 945.902 L1389.34 945.54 L1387.31 945.338 L1385.28 945.297 L1383.25 945.418 L1381.23 945.701 L1379.24 946.142 L1377.3 946.741 L1375.41 947.491 L1373.58 948.39 L1371.83 949.431 L1370.17 950.607 L1368.61 951.912 L1367.16 953.337 L1365.82 954.873 L1364.61 956.51 L1363.54 958.237 L1362.6 960.045 L1361.81 961.922 L1361.18 963.855 L1360.7 965.832 L1360.37 967.842 L1360.21 969.871 L1360.21 971.906 L1360.37 973.935 L1360.7 975.944 L1361.18 977.922 L1361.81 979.855 L1362.6 981.731 L1363.54 983.539 L1364.61 985.267 L1365.82 986.904 L1367.16 988.44 L1368.61 989.865 L1370.17 991.169 L1371.83 992.346 L1373.58 993.387 L1375.41 994.286 L1377.3 995.036 L1379.24 995.634 L1381.23 996.076 L1383.25 996.358 L1385.28 996.48 L1387.31 996.439 L1389.34 996.237 L1391.34 995.875 L1393.31 995.355 L1395.23 994.68 L1397.09 993.854 L1398.88 992.884 L1400.58 991.774 L1402.2 990.533 L1403.71 989.167 L1405.1 987.685 L1406.37 986.098 L1407.52 984.414 L1408.52 982.645 L1409.39 980.801 L1410.1 978.895 L1410.66 976.938 L1411.06 974.943 L1411.3 972.922 L1411.38 970.888 L1411.38 970.888  Z" fill="#ff7f50" fill-rule="evenodd" fill-opacity="1"/>
<polyline clip-path="url(#clip462)" style="stroke:#000000; stroke-linecap:round; stroke-linejoin:round; stroke-width:4; stroke-opacity:1; fill:none" points="1411.38,970.888 1411.3,968.855 1411.06,966.834 1410.66,964.839 1410.1,962.882 1409.39,960.976 1408.52,959.132 1407.52,957.363 1406.37,955.679 1405.1,954.091 1403.71,952.61 1402.2,951.244 1400.58,950.003 1398.88,948.893 1397.09,947.922 1395.23,947.097 1393.31,946.422 1391.34,945.902 1389.34,945.54 1387.31,945.338 1385.28,945.297 1383.25,945.418 1381.23,945.701 1379.24,946.142 1377.3,946.741 1375.41,947.491 1373.58,948.39 1371.83,949.431 1370.17,950.607 1368.61,951.912 1367.16,953.337 1365.82,954.873 1364.61,956.51 1363.54,958.237 1362.6,960.045 1361.81,961.922 1361.18,963.855 1360.7,965.832 1360.37,967.842 1360.21,969.871 1360.21,971.906 1360.37,973.935 1360.7,975.944 1361.18,977.922 1361.81,979.855 1362.6,981.731 1363.54,983.539 1364.61,985.267 1365.82,986.904 1367.16,988.44 1368.61,989.865 1370.17,991.169 1371.83,992.346 1373.58,993.387 1375.41,994.286 1377.3,995.036 1379.24,995.634 1381.23,996.076 1383.25,996.358 1385.28,996.48 1387.31,996.439 1389.34,996.237 1391.34,995.875 1393.31,995.355 1395.23,994.68 1397.09,993.854 1398.88,992.884 1400.58,991.774 1402.2,990.533 1403.71,989.167 1405.1,987.685 1406.37,986.098 1407.52,984.414 1408.52,982.645 1409.39,980.801 1410.1,978.895 1410.66,976.938 1411.06,974.943 1411.3,972.922 1411.38,970.888 "/>
<path clip-path="url(#clip462)" d="M1154.39 1026.01 L1154.34 1024.84 L1154.2 1023.68 L1153.97 1022.53 L1153.65 1021.41 L1153.24 1020.31 L1152.74 1019.26 L1152.17 1018.24 L1151.51 1017.27 L1150.78 1016.36 L1149.98 1015.51 L1149.11 1014.73 L1148.18 1014.01 L1147.2 1013.37 L1146.18 1012.82 L1145.11 1012.34 L1144.01 1011.96 L1142.88 1011.66 L1141.72 1011.45 L1140.56 1011.33 L1139.39 1011.31 L1138.23 1011.38 L1137.07 1011.54 L1135.93 1011.79 L1134.81 1012.14 L1133.72 1012.57 L1132.67 1013.09 L1131.67 1013.68 L1130.72 1014.36 L1129.82 1015.11 L1128.98 1015.93 L1128.22 1016.81 L1127.52 1017.75 L1126.91 1018.74 L1126.37 1019.78 L1125.92 1020.86 L1125.55 1021.97 L1125.27 1023.1 L1125.09 1024.26 L1125 1025.42 L1125 1026.59 L1125.09 1027.76 L1125.27 1028.91 L1125.55 1030.05 L1125.92 1031.16 L1126.37 1032.24 L1126.91 1033.27 L1127.52 1034.27 L1128.22 1035.21 L1128.98 1036.09 L1129.82 1036.91 L1130.72 1037.66 L1131.67 1038.33 L1132.67 1038.93 L1133.72 1039.45 L1134.81 1039.88 L1135.93 1040.22 L1137.07 1040.47 L1138.23 1040.64 L1139.39 1040.71 L1140.56 1040.68 L1141.72 1040.57 L1142.88 1040.36 L1144.01 1040.06 L1145.11 1039.67 L1146.18 1039.2 L1147.2 1038.64 L1148.18 1038 L1149.11 1037.29 L1149.98 1036.51 L1150.78 1035.66 L1151.51 1034.74 L1152.17 1033.78 L1152.74 1032.76 L1153.24 1031.7 L1153.65 1030.61 L1153.97 1029.48 L1154.2 1028.34 L1154.34 1027.18 L1154.39 1026.01 L1154.39 1026.01  Z" fill="#ffffff" fill-rule="evenodd" fill-opacity="1"/>
<polyline clip-path="url(#clip462)" style="stroke:#000000; stroke-linecap:round; stroke-linejoin:round; stroke-width:4; stroke-opacity:1; fill:none" points="1154.39,1026.01 1154.34,1024.84 1154.2,1023.68 1153.97,1022.53 1153.65,1021.41 1153.24,1020.31 1152.74,1019.26 1152.17,1018.24 1151.51,1017.27 1150.78,1016.36 1149.98,1015.51 1149.11,1014.73 1148.18,1014.01 1147.2,1013.37 1146.18,1012.82 1145.11,1012.34 1144.01,1011.96 1142.88,1011.66 1141.72,1011.45 1140.56,1011.33 1139.39,1011.31 1138.23,1011.38 1137.07,1011.54 1135.93,1011.79 1134.81,1012.14 1133.72,1012.57 1132.67,1013.09 1131.67,1013.68 1130.72,1014.36 1129.82,1015.11 1128.98,1015.93 1128.22,1016.81 1127.52,1017.75 1126.91,1018.74 1126.37,1019.78 1125.92,1020.86 1125.55,1021.97 1125.27,1023.1 1125.09,1024.26 1125,1025.42 1125,1026.59 1125.09,1027.76 1125.27,1028.91 1125.55,1030.05 1125.92,1031.16 1126.37,1032.24 1126.91,1033.27 1127.52,1034.27 1128.22,1035.21 1128.98,1036.09 1129.82,1036.91 1130.72,1037.66 1131.67,1038.33 1132.67,1038.93 1133.72,1039.45 1134.81,1039.88 1135.93,1040.22 1137.07,1040.47 1138.23,1040.64 1139.39,1040.71 1140.56,1040.68 1141.72,1040.57 1142.88,1040.36 1144.01,1040.06 1145.11,1039.67 1146.18,1039.2 1147.2,1038.64 1148.18,1038 1149.11,1037.29 1149.98,1036.51 1150.78,1035.66 1151.51,1034.74 1152.17,1033.78 1152.74,1032.76 1153.24,1031.7 1153.65,1030.61 1153.97,1029.48 1154.2,1028.34 1154.34,1027.18 1154.39,1026.01 "/>
<path clip-path="url(#clip462)" d="M704.243 982.596 L704.196 981.428 L704.057 980.268 L703.826 979.122 L703.505 977.998 L703.096 976.903 L702.6 975.844 L702.023 974.828 L701.366 973.861 L700.635 972.949 L699.833 972.098 L698.966 971.314 L698.04 970.601 L697.06 969.963 L696.033 969.406 L694.964 968.932 L693.861 968.544 L692.731 968.245 L691.581 968.037 L690.418 967.921 L689.249 967.898 L688.082 967.968 L686.925 968.13 L685.784 968.384 L684.666 968.727 L683.58 969.158 L682.531 969.674 L681.526 970.272 L680.573 970.948 L679.676 971.697 L678.841 972.516 L678.074 973.398 L677.379 974.338 L676.761 975.33 L676.225 976.369 L675.772 977.446 L675.406 978.557 L675.13 979.692 L674.945 980.847 L674.852 982.012 L674.852 983.181 L674.945 984.346 L675.13 985.5 L675.406 986.636 L675.772 987.746 L676.225 988.824 L676.761 989.862 L677.379 990.855 L678.074 991.795 L678.841 992.677 L679.676 993.495 L680.573 994.245 L681.526 994.92 L682.531 995.518 L683.58 996.034 L684.666 996.466 L685.784 996.809 L686.925 997.063 L688.082 997.225 L689.249 997.295 L690.418 997.271 L691.581 997.155 L692.731 996.947 L693.861 996.648 L694.964 996.261 L696.033 995.787 L697.06 995.229 L698.04 994.592 L698.966 993.879 L699.833 993.094 L700.635 992.244 L701.366 991.332 L702.023 990.365 L702.6 989.349 L703.096 988.29 L703.505 987.195 L703.826 986.071 L704.057 984.925 L704.196 983.764 L704.243 982.596 L704.243 982.596  Z" fill="#add8e6" fill-rule="evenodd" fill-opacity="1"/>
<polyline clip-path="url(#clip462)" style="stroke:#000000; stroke-linecap:round; stroke-linejoin:round; stroke-width:4; stroke-opacity:1; fill:none" points="704.243,982.596 704.196,981.428 704.057,980.268 703.826,979.122 703.505,977.998 703.096,976.903 702.6,975.844 702.023,974.828 701.366,973.861 700.635,972.949 699.833,972.098 698.966,971.314 698.04,970.601 697.06,969.963 696.033,969.406 694.964,968.932 693.861,968.544 692.731,968.245 691.581,968.037 690.418,967.921 689.249,967.898 688.082,967.968 686.925,968.13 685.784,968.384 684.666,968.727 683.58,969.158 682.531,969.674 681.526,970.272 680.573,970.948 679.676,971.697 678.841,972.516 678.074,973.398 677.379,974.338 676.761,975.33 676.225,976.369 675.772,977.446 675.406,978.557 675.13,979.692 674.945,980.847 674.852,982.012 674.852,983.181 674.945,984.346 675.13,985.5 675.406,986.636 675.772,987.746 676.225,988.824 676.761,989.862 677.379,990.855 678.074,991.795 678.841,992.677 679.676,993.495 680.573,994.245 681.526,994.92 682.531,995.518 683.58,996.034 684.666,996.466 685.784,996.809 686.925,997.063 688.082,997.225 689.249,997.295 690.418,997.271 691.581,997.155 692.731,996.947 693.861,996.648 694.964,996.261 696.033,995.787 697.06,995.229 698.04,994.592 698.966,993.879 699.833,993.094 700.635,992.244 701.366,991.332 702.023,990.365 702.6,989.349 703.096,988.29 703.505,987.195 703.826,986.071 704.057,984.925 704.196,983.764 704.243,982.596 "/>
<path clip-path="url(#clip462)" d="M1171.4 1348.57 L1171.35 1347.4 L1171.21 1346.24 L1170.98 1345.1 L1170.66 1343.97 L1170.25 1342.88 L1169.76 1341.82 L1169.18 1340.8 L1168.52 1339.84 L1167.79 1338.93 L1166.99 1338.07 L1166.12 1337.29 L1165.2 1336.58 L1164.22 1335.94 L1163.19 1335.38 L1162.12 1334.91 L1161.02 1334.52 L1159.89 1334.22 L1158.74 1334.01 L1157.57 1333.9 L1156.41 1333.87 L1155.24 1333.94 L1154.08 1334.11 L1152.94 1334.36 L1151.82 1334.7 L1150.74 1335.13 L1149.69 1335.65 L1148.68 1336.25 L1147.73 1336.92 L1146.83 1337.67 L1146 1338.49 L1145.23 1339.37 L1144.53 1340.31 L1143.92 1341.31 L1143.38 1342.34 L1142.93 1343.42 L1142.56 1344.53 L1142.29 1345.67 L1142.1 1346.82 L1142.01 1347.99 L1142.01 1349.16 L1142.1 1350.32 L1142.29 1351.48 L1142.56 1352.61 L1142.93 1353.72 L1143.38 1354.8 L1143.92 1355.84 L1144.53 1356.83 L1145.23 1357.77 L1146 1358.65 L1146.83 1359.47 L1147.73 1360.22 L1148.68 1360.9 L1149.69 1361.49 L1150.74 1362.01 L1151.82 1362.44 L1152.94 1362.79 L1154.08 1363.04 L1155.24 1363.2 L1156.41 1363.27 L1157.57 1363.25 L1158.74 1363.13 L1159.89 1362.92 L1161.02 1362.62 L1162.12 1362.24 L1163.19 1361.76 L1164.22 1361.21 L1165.2 1360.57 L1166.12 1359.86 L1166.99 1359.07 L1167.79 1358.22 L1168.52 1357.31 L1169.18 1356.34 L1169.76 1355.32 L1170.25 1354.27 L1170.66 1353.17 L1170.98 1352.05 L1171.21 1350.9 L1171.35 1349.74 L1171.4 1348.57 L1171.4 1348.57  Z" fill="#add8e6" fill-rule="evenodd" fill-opacity="1"/>
<polyline clip-path="url(#clip462)" style="stroke:#000000; stroke-linecap:round; stroke-linejoin:round; stroke-width:4; stroke-opacity:1; fill:none" points="1171.4,1348.57 1171.35,1347.4 1171.21,1346.24 1170.98,1345.1 1170.66,1343.97 1170.25,1342.88 1169.76,1341.82 1169.18,1340.8 1168.52,1339.84 1167.79,1338.93 1166.99,1338.07 1166.12,1337.29 1165.2,1336.58 1164.22,1335.94 1163.19,1335.38 1162.12,1334.91 1161.02,1334.52 1159.89,1334.22 1158.74,1334.01 1157.57,1333.9 1156.41,1333.87 1155.24,1333.94 1154.08,1334.11 1152.94,1334.36 1151.82,1334.7 1150.74,1335.13 1149.69,1335.65 1148.68,1336.25 1147.73,1336.92 1146.83,1337.67 1146,1338.49 1145.23,1339.37 1144.53,1340.31 1143.92,1341.31 1143.38,1342.34 1142.93,1343.42 1142.56,1344.53 1142.29,1345.67 1142.1,1346.82 1142.01,1347.99 1142.01,1349.16 1142.1,1350.32 1142.29,1351.48 1142.56,1352.61 1142.93,1353.72 1143.38,1354.8 1143.92,1355.84 1144.53,1356.83 1145.23,1357.77 1146,1358.65 1146.83,1359.47 1147.73,1360.22 1148.68,1360.9 1149.69,1361.49 1150.74,1362.01 1151.82,1362.44 1152.94,1362.79 1154.08,1363.04 1155.24,1363.2 1156.41,1363.27 1157.57,1363.25 1158.74,1363.13 1159.89,1362.92 1161.02,1362.62 1162.12,1362.24 1163.19,1361.76 1164.22,1361.21 1165.2,1360.57 1166.12,1359.86 1166.99,1359.07 1167.79,1358.22 1168.52,1357.31 1169.18,1356.34 1169.76,1355.32 1170.25,1354.27 1170.66,1353.17 1170.98,1352.05 1171.21,1350.9 1171.35,1349.74 1171.4,1348.57 "/>
<path clip-path="url(#clip462)" d="M1179.02 1192.69 L1178.91 1189.88 L1178.58 1187.08 L1178.02 1184.33 L1177.25 1181.62 L1176.26 1178.98 L1175.07 1176.43 L1173.68 1173.98 L1172.1 1171.66 L1170.33 1169.46 L1168.4 1167.41 L1166.32 1165.52 L1164.09 1163.8 L1161.73 1162.27 L1159.25 1160.93 L1156.68 1159.79 L1154.02 1158.85 L1151.3 1158.13 L1148.53 1157.63 L1145.73 1157.35 L1142.92 1157.3 L1140.11 1157.46 L1137.32 1157.85 L1134.57 1158.47 L1131.88 1159.29 L1129.26 1160.33 L1126.74 1161.57 L1124.32 1163.01 L1122.02 1164.64 L1119.86 1166.45 L1117.85 1168.42 L1116 1170.54 L1114.33 1172.8 L1112.84 1175.19 L1111.55 1177.69 L1110.46 1180.29 L1109.58 1182.96 L1108.91 1185.7 L1108.47 1188.48 L1108.24 1191.29 L1108.24 1194.1 L1108.47 1196.91 L1108.91 1199.69 L1109.58 1202.42 L1110.46 1205.09 L1111.55 1207.69 L1112.84 1210.19 L1114.33 1212.58 L1116 1214.85 L1117.85 1216.97 L1119.86 1218.94 L1122.02 1220.74 L1124.32 1222.37 L1126.74 1223.81 L1129.26 1225.05 L1131.88 1226.09 L1134.57 1226.92 L1137.32 1227.53 L1140.11 1227.92 L1142.92 1228.09 L1145.73 1228.03 L1148.53 1227.75 L1151.3 1227.25 L1154.02 1226.53 L1156.68 1225.6 L1159.25 1224.46 L1161.73 1223.12 L1164.09 1221.58 L1166.32 1219.86 L1168.4 1217.97 L1170.33 1215.93 L1172.1 1213.73 L1173.68 1211.4 L1175.07 1208.95 L1176.26 1206.4 L1177.25 1203.77 L1178.02 1201.06 L1178.58 1198.3 L1178.91 1195.51 L1179.02 1192.69 L1179.02 1192.69  Z" fill="#ff7f50" fill-rule="evenodd" fill-opacity="1"/>
<polyline clip-path="url(#clip462)" style="stroke:#000000; stroke-linecap:round; stroke-linejoin:round; stroke-width:4; stroke-opacity:1; fill:none" points="1179.02,1192.69 1178.91,1189.88 1178.58,1187.08 1178.02,1184.33 1177.25,1181.62 1176.26,1178.98 1175.07,1176.43 1173.68,1173.98 1172.1,1171.66 1170.33,1169.46 1168.4,1167.41 1166.32,1165.52 1164.09,1163.8 1161.73,1162.27 1159.25,1160.93 1156.68,1159.79 1154.02,1158.85 1151.3,1158.13 1148.53,1157.63 1145.73,1157.35 1142.92,1157.3 1140.11,1157.46 1137.32,1157.85 1134.57,1158.47 1131.88,1159.29 1129.26,1160.33 1126.74,1161.57 1124.32,1163.01 1122.02,1164.64 1119.86,1166.45 1117.85,1168.42 1116,1170.54 1114.33,1172.8 1112.84,1175.19 1111.55,1177.69 1110.46,1180.29 1109.58,1182.96 1108.91,1185.7 1108.47,1188.48 1108.24,1191.29 1108.24,1194.1 1108.47,1196.91 1108.91,1199.69 1109.58,1202.42 1110.46,1205.09 1111.55,1207.69 1112.84,1210.19 1114.33,1212.58 1116,1214.85 1117.85,1216.97 1119.86,1218.94 1122.02,1220.74 1124.32,1222.37 1126.74,1223.81 1129.26,1225.05 1131.88,1226.09 1134.57,1226.92 1137.32,1227.53 1140.11,1227.92 1142.92,1228.09 1145.73,1228.03 1148.53,1227.75 1151.3,1227.25 1154.02,1226.53 1156.68,1225.6 1159.25,1224.46 1161.73,1223.12 1164.09,1221.58 1166.32,1219.86 1168.4,1217.97 1170.33,1215.93 1172.1,1213.73 1173.68,1211.4 1175.07,1208.95 1176.26,1206.4 1177.25,1203.77 1178.02,1201.06 1178.58,1198.3 1178.91,1195.51 1179.02,1192.69 "/>
<path clip-path="url(#clip462)" d="M1725.16 576.047 L1725.11 574.879 L1724.97 573.718 L1724.74 572.572 L1724.42 571.448 L1724.01 570.354 L1723.52 569.295 L1722.94 568.278 L1722.28 567.311 L1721.55 566.4 L1720.75 565.549 L1719.88 564.764 L1718.96 564.051 L1717.98 563.414 L1716.95 562.856 L1715.88 562.382 L1714.78 561.995 L1713.65 561.696 L1712.5 561.488 L1711.33 561.372 L1710.17 561.349 L1709 561.418 L1707.84 561.58 L1706.7 561.834 L1705.58 562.178 L1704.5 562.609 L1703.45 563.125 L1702.44 563.723 L1701.49 564.398 L1700.59 565.148 L1699.76 565.966 L1698.99 566.848 L1698.3 567.788 L1697.68 568.781 L1697.14 569.819 L1696.69 570.897 L1696.32 572.007 L1696.05 573.143 L1695.86 574.297 L1695.77 575.462 L1695.77 576.631 L1695.86 577.797 L1696.05 578.951 L1696.32 580.087 L1696.69 581.197 L1697.14 582.275 L1697.68 583.313 L1698.3 584.305 L1698.99 585.246 L1699.76 586.128 L1700.59 586.946 L1701.49 587.695 L1702.44 588.371 L1703.45 588.969 L1704.5 589.485 L1705.58 589.916 L1706.7 590.26 L1707.84 590.513 L1709 590.675 L1710.17 590.745 L1711.33 590.722 L1712.5 590.606 L1713.65 590.398 L1714.78 590.099 L1715.88 589.711 L1716.95 589.237 L1717.98 588.68 L1718.96 588.043 L1719.88 587.33 L1720.75 586.545 L1721.55 585.694 L1722.28 584.782 L1722.94 583.815 L1723.52 582.799 L1724.01 581.74 L1724.42 580.645 L1724.74 579.521 L1724.97 578.376 L1725.11 577.215 L1725.16 576.047 L1725.16 576.047  Z" fill="#add8e6" fill-rule="evenodd" fill-opacity="1"/>
<polyline clip-path="url(#clip462)" style="stroke:#000000; stroke-linecap:round; stroke-linejoin:round; stroke-width:4; stroke-opacity:1; fill:none" points="1725.16,576.047 1725.11,574.879 1724.97,573.718 1724.74,572.572 1724.42,571.448 1724.01,570.354 1723.52,569.295 1722.94,568.278 1722.28,567.311 1721.55,566.4 1720.75,565.549 1719.88,564.764 1718.96,564.051 1717.98,563.414 1716.95,562.856 1715.88,562.382 1714.78,561.995 1713.65,561.696 1712.5,561.488 1711.33,561.372 1710.17,561.349 1709,561.418 1707.84,561.58 1706.7,561.834 1705.58,562.178 1704.5,562.609 1703.45,563.125 1702.44,563.723 1701.49,564.398 1700.59,565.148 1699.76,565.966 1698.99,566.848 1698.3,567.788 1697.68,568.781 1697.14,569.819 1696.69,570.897 1696.32,572.007 1696.05,573.143 1695.86,574.297 1695.77,575.462 1695.77,576.631 1695.86,577.797 1696.05,578.951 1696.32,580.087 1696.69,581.197 1697.14,582.275 1697.68,583.313 1698.3,584.305 1698.99,585.246 1699.76,586.128 1700.59,586.946 1701.49,587.695 1702.44,588.371 1703.45,588.969 1704.5,589.485 1705.58,589.916 1706.7,590.26 1707.84,590.513 1709,590.675 1710.17,590.745 1711.33,590.722 1712.5,590.606 1713.65,590.398 1714.78,590.099 1715.88,589.711 1716.95,589.237 1717.98,588.68 1718.96,588.043 1719.88,587.33 1720.75,586.545 1721.55,585.694 1722.28,584.782 1722.94,583.815 1723.52,582.799 1724.01,581.74 1724.42,580.645 1724.74,579.521 1724.97,578.376 1725.11,577.215 1725.16,576.047 "/>
<path clip-path="url(#clip462)" d="M1557.53 830.249 L1557.42 827.436 L1557.08 824.641 L1556.52 821.881 L1555.75 819.175 L1554.76 816.538 L1553.57 813.988 L1552.18 811.541 L1550.6 809.212 L1548.84 807.016 L1546.91 804.967 L1544.82 803.078 L1542.59 801.36 L1540.23 799.826 L1537.76 798.483 L1535.18 797.342 L1532.53 796.408 L1529.81 795.689 L1527.03 795.187 L1524.23 794.908 L1521.42 794.852 L1518.61 795.02 L1515.82 795.41 L1513.07 796.021 L1510.38 796.848 L1507.77 797.887 L1505.24 799.13 L1502.82 800.57 L1500.52 802.197 L1498.36 804.002 L1496.35 805.972 L1494.51 808.096 L1492.83 810.361 L1491.35 812.751 L1490.05 815.251 L1488.96 817.847 L1488.08 820.52 L1487.42 823.256 L1486.97 826.035 L1486.75 828.841 L1486.75 831.656 L1486.97 834.463 L1487.42 837.242 L1488.08 839.977 L1488.96 842.651 L1490.05 845.247 L1491.35 847.747 L1492.83 850.137 L1494.51 852.401 L1496.35 854.525 L1498.36 856.496 L1500.52 858.301 L1502.82 859.928 L1505.24 861.368 L1507.77 862.611 L1510.38 863.649 L1513.07 864.476 L1515.82 865.087 L1518.61 865.478 L1521.42 865.646 L1524.23 865.59 L1527.03 865.31 L1529.81 864.809 L1532.53 864.09 L1535.18 863.156 L1537.76 862.015 L1540.23 860.672 L1542.59 859.137 L1544.82 857.42 L1546.91 855.531 L1548.84 853.482 L1550.6 851.286 L1552.18 848.957 L1553.57 846.51 L1554.76 843.96 L1555.75 841.323 L1556.52 838.616 L1557.08 835.857 L1557.42 833.062 L1557.53 830.249 L1557.53 830.249  Z" fill="#ff7f50" fill-rule="evenodd" fill-opacity="1"/>
<polyline clip-path="url(#clip462)" style="stroke:#000000; stroke-linecap:round; stroke-linejoin:round; stroke-width:4; stroke-opacity:1; fill:none" points="1557.53,830.249 1557.42,827.436 1557.08,824.641 1556.52,821.881 1555.75,819.175 1554.76,816.538 1553.57,813.988 1552.18,811.541 1550.6,809.212 1548.84,807.016 1546.91,804.967 1544.82,803.078 1542.59,801.36 1540.23,799.826 1537.76,798.483 1535.18,797.342 1532.53,796.408 1529.81,795.689 1527.03,795.187 1524.23,794.908 1521.42,794.852 1518.61,795.02 1515.82,795.41 1513.07,796.021 1510.38,796.848 1507.77,797.887 1505.24,799.13 1502.82,800.57 1500.52,802.197 1498.36,804.002 1496.35,805.972 1494.51,808.096 1492.83,810.361 1491.35,812.751 1490.05,815.251 1488.96,817.847 1488.08,820.52 1487.42,823.256 1486.97,826.035 1486.75,828.841 1486.75,831.656 1486.97,834.463 1487.42,837.242 1488.08,839.977 1488.96,842.651 1490.05,845.247 1491.35,847.747 1492.83,850.137 1494.51,852.401 1496.35,854.525 1498.36,856.496 1500.52,858.301 1502.82,859.928 1505.24,861.368 1507.77,862.611 1510.38,863.649 1513.07,864.476 1515.82,865.087 1518.61,865.478 1521.42,865.646 1524.23,865.59 1527.03,865.31 1529.81,864.809 1532.53,864.09 1535.18,863.156 1537.76,862.015 1540.23,860.672 1542.59,859.137 1544.82,857.42 1546.91,855.531 1548.84,853.482 1550.6,851.286 1552.18,848.957 1553.57,846.51 1554.76,843.96 1555.75,841.323 1556.52,838.616 1557.08,835.857 1557.42,833.062 1557.53,830.249 "/>
<path clip-path="url(#clip462)" d="M914.078 458.04 L913.997 456.006 L913.755 453.986 L913.353 451.991 L912.794 450.034 L912.081 448.127 L911.219 446.284 L910.213 444.515 L909.07 442.831 L907.796 441.243 L906.4 439.762 L904.892 438.396 L903.279 437.154 L901.573 436.045 L899.784 435.074 L897.924 434.249 L896.003 433.574 L894.036 433.054 L892.033 432.691 L890.008 432.489 L887.973 432.449 L885.941 432.57 L883.926 432.853 L881.939 433.294 L879.994 433.892 L878.102 434.643 L876.276 435.542 L874.527 436.582 L872.866 437.759 L871.304 439.064 L869.851 440.489 L868.515 442.024 L867.306 443.661 L866.231 445.389 L865.296 447.197 L864.508 449.073 L863.871 451.007 L863.39 452.984 L863.068 454.994 L862.906 457.022 L862.906 459.058 L863.068 461.087 L863.39 463.096 L863.871 465.074 L864.508 467.007 L865.296 468.883 L866.231 470.691 L867.306 472.419 L868.515 474.056 L869.851 475.592 L871.304 477.016 L872.866 478.321 L874.527 479.498 L876.276 480.539 L878.102 481.437 L879.994 482.188 L881.939 482.786 L883.926 483.228 L885.941 483.51 L887.973 483.631 L890.008 483.591 L892.033 483.389 L894.036 483.027 L896.003 482.506 L897.924 481.831 L899.784 481.006 L901.573 480.036 L903.279 478.926 L904.892 477.684 L906.4 476.318 L907.796 474.837 L909.07 473.249 L910.213 471.566 L911.219 469.796 L912.081 467.953 L912.794 466.047 L913.353 464.09 L913.755 462.094 L913.997 460.074 L914.078 458.04 L914.078 458.04  Z" fill="#ff7f50" fill-rule="evenodd" fill-opacity="1"/>
<polyline clip-path="url(#clip462)" style="stroke:#000000; stroke-linecap:round; stroke-linejoin:round; stroke-width:4; stroke-opacity:1; fill:none" points="914.078,458.04 913.997,456.006 913.755,453.986 913.353,451.991 912.794,450.034 912.081,448.127 911.219,446.284 910.213,444.515 909.07,442.831 907.796,441.243 906.4,439.762 904.892,438.396 903.279,437.154 901.573,436.045 899.784,435.074 897.924,434.249 896.003,433.574 894.036,433.054 892.033,432.691 890.008,432.489 887.973,432.449 885.941,432.57 883.926,432.853 881.939,433.294 879.994,433.892 878.102,434.643 876.276,435.542 874.527,436.582 872.866,437.759 871.304,439.064 869.851,440.489 868.515,442.024 867.306,443.661 866.231,445.389 865.296,447.197 864.508,449.073 863.871,451.007 863.39,452.984 863.068,454.994 862.906,457.022 862.906,459.058 863.068,461.087 863.39,463.096 863.871,465.074 864.508,467.007 865.296,468.883 866.231,470.691 867.306,472.419 868.515,474.056 869.851,475.592 871.304,477.016 872.866,478.321 874.527,479.498 876.276,480.539 878.102,481.437 879.994,482.188 881.939,482.786 883.926,483.228 885.941,483.51 887.973,483.631 890.008,483.591 892.033,483.389 894.036,483.027 896.003,482.506 897.924,481.831 899.784,481.006 901.573,480.036 903.279,478.926 904.892,477.684 906.4,476.318 907.796,474.837 909.07,473.249 910.213,471.566 911.219,469.796 912.081,467.953 912.794,466.047 913.353,464.09 913.755,462.094 913.997,460.074 914.078,458.04 "/>
<path clip-path="url(#clip462)" d="M1040.92 595.311 L1040.88 594.143 L1040.74 592.982 L1040.51 591.836 L1040.19 590.712 L1039.78 589.618 L1039.28 588.559 L1038.7 587.542 L1038.05 586.575 L1037.32 585.664 L1036.51 584.813 L1035.65 584.028 L1034.72 583.315 L1033.74 582.678 L1032.71 582.12 L1031.65 581.646 L1030.54 581.259 L1029.41 580.96 L1028.26 580.752 L1027.1 580.636 L1025.93 580.613 L1024.76 580.682 L1023.61 580.844 L1022.47 581.098 L1021.35 581.442 L1020.26 581.873 L1019.21 582.389 L1018.21 582.987 L1017.25 583.662 L1016.36 584.412 L1015.52 585.23 L1014.76 586.112 L1014.06 587.052 L1013.44 588.045 L1012.91 589.083 L1012.45 590.161 L1012.09 591.271 L1011.81 592.407 L1011.63 593.561 L1011.53 594.726 L1011.53 595.895 L1011.63 597.061 L1011.81 598.215 L1012.09 599.351 L1012.45 600.461 L1012.91 601.539 L1013.44 602.577 L1014.06 603.569 L1014.76 604.51 L1015.52 605.392 L1016.36 606.21 L1017.25 606.959 L1018.21 607.635 L1019.21 608.233 L1020.26 608.749 L1021.35 609.18 L1022.47 609.524 L1023.61 609.777 L1024.76 609.94 L1025.93 610.009 L1027.1 609.986 L1028.26 609.87 L1029.41 609.662 L1030.54 609.363 L1031.65 608.975 L1032.71 608.501 L1033.74 607.944 L1034.72 607.307 L1035.65 606.594 L1036.51 605.809 L1037.32 604.958 L1038.05 604.046 L1038.7 603.079 L1039.28 602.063 L1039.78 601.004 L1040.19 599.909 L1040.51 598.785 L1040.74 597.64 L1040.88 596.479 L1040.92 595.311 L1040.92 595.311  Z" fill="#ffffff" fill-rule="evenodd" fill-opacity="1"/>
<polyline clip-path="url(#clip462)" style="stroke:#000000; stroke-linecap:round; stroke-linejoin:round; stroke-width:4; stroke-opacity:1; fill:none" points="1040.92,595.311 1040.88,594.143 1040.74,592.982 1040.51,591.836 1040.19,590.712 1039.78,589.618 1039.28,588.559 1038.7,587.542 1038.05,586.575 1037.32,585.664 1036.51,584.813 1035.65,584.028 1034.72,583.315 1033.74,582.678 1032.71,582.12 1031.65,581.646 1030.54,581.259 1029.41,580.96 1028.26,580.752 1027.1,580.636 1025.93,580.613 1024.76,580.682 1023.61,580.844 1022.47,581.098 1021.35,581.442 1020.26,581.873 1019.21,582.389 1018.21,582.987 1017.25,583.662 1016.36,584.412 1015.52,585.23 1014.76,586.112 1014.06,587.052 1013.44,588.045 1012.91,589.083 1012.45,590.161 1012.09,591.271 1011.81,592.407 1011.63,593.561 1011.53,594.726 1011.53,595.895 1011.63,597.061 1011.81,598.215 1012.09,599.351 1012.45,600.461 1012.91,601.539 1013.44,602.577 1014.06,603.569 1014.76,604.51 1015.52,605.392 1016.36,606.21 1017.25,606.959 1018.21,607.635 1019.21,608.233 1020.26,608.749 1021.35,609.18 1022.47,609.524 1023.61,609.777 1024.76,609.94 1025.93,610.009 1027.1,609.986 1028.26,609.87 1029.41,609.662 1030.54,609.363 1031.65,608.975 1032.71,608.501 1033.74,607.944 1034.72,607.307 1035.65,606.594 1036.51,605.809 1037.32,604.958 1038.05,604.046 1038.7,603.079 1039.28,602.063 1039.78,601.004 1040.19,599.909 1040.51,598.785 1040.74,597.64 1040.88,596.479 1040.92,595.311 "/>
<path clip-path="url(#clip462)" d="M946.387 751.484 L946.275 748.671 L945.94 745.876 L945.384 743.116 L944.61 740.41 L943.624 737.773 L942.431 735.223 L941.04 732.776 L939.459 730.447 L937.697 728.251 L935.767 726.202 L933.68 724.313 L931.45 722.595 L929.09 721.061 L926.615 719.718 L924.042 718.577 L921.386 717.643 L918.665 716.924 L915.895 716.422 L913.093 716.143 L910.279 716.087 L907.469 716.255 L904.681 716.645 L901.933 717.256 L899.242 718.083 L896.626 719.122 L894.1 720.365 L891.681 721.805 L889.384 723.432 L887.223 725.237 L885.213 727.207 L883.366 729.331 L881.693 731.596 L880.206 733.986 L878.913 736.486 L877.822 739.082 L876.942 741.755 L876.277 744.491 L875.831 747.27 L875.607 750.076 L875.607 752.891 L875.831 755.698 L876.277 758.477 L876.942 761.212 L877.822 763.886 L878.913 766.482 L880.206 768.982 L881.693 771.372 L883.366 773.636 L885.213 775.761 L887.223 777.731 L889.384 779.536 L891.681 781.163 L894.1 782.603 L896.626 783.846 L899.242 784.884 L901.933 785.712 L904.681 786.322 L907.469 786.713 L910.279 786.881 L913.093 786.825 L915.895 786.545 L918.665 786.044 L921.386 785.325 L924.042 784.391 L926.615 783.25 L929.09 781.907 L931.45 780.372 L933.68 778.655 L935.767 776.766 L937.697 774.717 L939.459 772.521 L941.04 770.192 L942.431 767.745 L943.624 765.195 L944.61 762.558 L945.384 759.851 L945.94 757.092 L946.275 754.297 L946.387 751.484 L946.387 751.484  Z" fill="#ff7f50" fill-rule="evenodd" fill-opacity="1"/>
<polyline clip-path="url(#clip462)" style="stroke:#000000; stroke-linecap:round; stroke-linejoin:round; stroke-width:4; stroke-opacity:1; fill:none" points="946.387,751.484 946.275,748.671 945.94,745.876 945.384,743.116 944.61,740.41 943.624,737.773 942.431,735.223 941.04,732.776 939.459,730.447 937.697,728.251 935.767,726.202 933.68,724.313 931.45,722.595 929.09,721.061 926.615,719.718 924.042,718.577 921.386,717.643 918.665,716.924 915.895,716.422 913.093,716.143 910.279,716.087 907.469,716.255 904.681,716.645 901.933,717.256 899.242,718.083 896.626,719.122 894.1,720.365 891.681,721.805 889.384,723.432 887.223,725.237 885.213,727.207 883.366,729.331 881.693,731.596 880.206,733.986 878.913,736.486 877.822,739.082 876.942,741.755 876.277,744.491 875.831,747.27 875.607,750.076 875.607,752.891 875.831,755.698 876.277,758.477 876.942,761.212 877.822,763.886 878.913,766.482 880.206,768.982 881.693,771.372 883.366,773.636 885.213,775.761 887.223,777.731 889.384,779.536 891.681,781.163 894.1,782.603 896.626,783.846 899.242,784.884 901.933,785.712 904.681,786.322 907.469,786.713 910.279,786.881 913.093,786.825 915.895,786.545 918.665,786.044 921.386,785.325 924.042,784.391 926.615,783.25 929.09,781.907 931.45,780.372 933.68,778.655 935.767,776.766 937.697,774.717 939.459,772.521 941.04,770.192 942.431,767.745 943.624,765.195 944.61,762.558 945.384,759.851 945.94,757.092 946.275,754.297 946.387,751.484 "/>
<path clip-path="url(#clip462)" d="M1316.36 568.22 L1316.25 565.407 L1315.91 562.612 L1315.36 559.852 L1314.58 557.145 L1313.6 554.509 L1312.41 551.959 L1311.01 549.511 L1309.43 547.183 L1307.67 544.987 L1305.74 542.938 L1303.65 541.048 L1301.42 539.331 L1299.06 537.796 L1296.59 536.454 L1294.02 535.312 L1291.36 534.379 L1288.64 533.659 L1285.87 533.158 L1283.07 532.879 L1280.25 532.823 L1277.44 532.991 L1274.66 533.381 L1271.91 533.992 L1269.22 534.819 L1266.6 535.857 L1264.07 537.1 L1261.65 538.54 L1259.36 540.168 L1257.2 541.972 L1255.19 543.943 L1253.34 546.067 L1251.67 548.331 L1250.18 550.721 L1248.89 553.222 L1247.8 555.817 L1246.92 558.491 L1246.25 561.226 L1245.8 564.006 L1245.58 566.812 L1245.58 569.627 L1245.8 572.433 L1246.25 575.213 L1246.92 577.948 L1247.8 580.622 L1248.89 583.217 L1250.18 585.718 L1251.67 588.108 L1253.34 590.372 L1255.19 592.496 L1257.2 594.467 L1259.36 596.271 L1261.65 597.899 L1264.07 599.339 L1266.6 600.582 L1269.22 601.62 L1271.91 602.447 L1274.66 603.058 L1277.44 603.449 L1280.25 603.616 L1283.07 603.56 L1285.87 603.281 L1288.64 602.78 L1291.36 602.06 L1294.02 601.127 L1296.59 599.985 L1299.06 598.643 L1301.42 597.108 L1303.65 595.391 L1305.74 593.501 L1307.67 591.452 L1309.43 589.256 L1311.01 586.928 L1312.41 584.48 L1313.6 581.93 L1314.58 579.294 L1315.36 576.587 L1315.91 573.827 L1316.25 571.032 L1316.36 568.22 L1316.36 568.22  Z" fill="#ff7f50" fill-rule="evenodd" fill-opacity="1"/>
<polyline clip-path="url(#clip462)" style="stroke:#000000; stroke-linecap:round; stroke-linejoin:round; stroke-width:4; stroke-opacity:1; fill:none" points="1316.36,568.22 1316.25,565.407 1315.91,562.612 1315.36,559.852 1314.58,557.145 1313.6,554.509 1312.41,551.959 1311.01,549.511 1309.43,547.183 1307.67,544.987 1305.74,542.938 1303.65,541.048 1301.42,539.331 1299.06,537.796 1296.59,536.454 1294.02,535.312 1291.36,534.379 1288.64,533.659 1285.87,533.158 1283.07,532.879 1280.25,532.823 1277.44,532.991 1274.66,533.381 1271.91,533.992 1269.22,534.819 1266.6,535.857 1264.07,537.1 1261.65,538.54 1259.36,540.168 1257.2,541.972 1255.19,543.943 1253.34,546.067 1251.67,548.331 1250.18,550.721 1248.89,553.222 1247.8,555.817 1246.92,558.491 1246.25,561.226 1245.8,564.006 1245.58,566.812 1245.58,569.627 1245.8,572.433 1246.25,575.213 1246.92,577.948 1247.8,580.622 1248.89,583.217 1250.18,585.718 1251.67,588.108 1253.34,590.372 1255.19,592.496 1257.2,594.467 1259.36,596.271 1261.65,597.899 1264.07,599.339 1266.6,600.582 1269.22,601.62 1271.91,602.447 1274.66,603.058 1277.44,603.449 1280.25,603.616 1283.07,603.56 1285.87,603.281 1288.64,602.78 1291.36,602.06 1294.02,601.127 1296.59,599.985 1299.06,598.643 1301.42,597.108 1303.65,595.391 1305.74,593.501 1307.67,591.452 1309.43,589.256 1311.01,586.928 1312.41,584.48 1313.6,581.93 1314.58,579.294 1315.36,576.587 1315.91,573.827 1316.25,571.032 1316.36,568.22 "/>
<path clip-path="url(#clip462)" d="M777.921 327.656 L777.874 326.488 L777.735 325.327 L777.504 324.181 L777.183 323.057 L776.774 321.962 L776.279 320.903 L775.701 319.887 L775.044 318.92 L774.313 318.008 L773.511 317.157 L772.645 316.373 L771.718 315.66 L770.738 315.022 L769.711 314.465 L768.642 313.991 L767.54 313.603 L766.41 313.305 L765.259 313.096 L764.096 312.98 L762.927 312.957 L761.761 313.027 L760.603 313.189 L759.462 313.443 L758.345 313.786 L757.258 314.217 L756.209 314.734 L755.205 315.331 L754.251 316.007 L753.354 316.757 L752.519 317.575 L751.752 318.457 L751.057 319.397 L750.44 320.389 L749.903 321.428 L749.45 322.506 L749.084 323.616 L748.808 324.752 L748.623 325.906 L748.53 327.071 L748.53 328.24 L748.623 329.405 L748.808 330.559 L749.084 331.695 L749.45 332.806 L749.903 333.883 L750.44 334.922 L751.057 335.914 L751.752 336.854 L752.519 337.736 L753.354 338.555 L754.251 339.304 L755.205 339.98 L756.209 340.578 L757.258 341.094 L758.345 341.525 L759.462 341.868 L760.603 342.122 L761.761 342.284 L762.927 342.354 L764.096 342.331 L765.259 342.215 L766.41 342.006 L767.54 341.708 L768.642 341.32 L769.711 340.846 L770.738 340.289 L771.718 339.651 L772.645 338.938 L773.511 338.154 L774.313 337.303 L775.044 336.391 L775.701 335.424 L776.279 334.408 L776.774 333.349 L777.183 332.254 L777.504 331.13 L777.735 329.984 L777.874 328.824 L777.921 327.656 L777.921 327.656  Z" fill="#add8e6" fill-rule="evenodd" fill-opacity="1"/>
<polyline clip-path="url(#clip462)" style="stroke:#000000; stroke-linecap:round; stroke-linejoin:round; stroke-width:4; stroke-opacity:1; fill:none" points="777.921,327.656 777.874,326.488 777.735,325.327 777.504,324.181 777.183,323.057 776.774,321.962 776.279,320.903 775.701,319.887 775.044,318.92 774.313,318.008 773.511,317.157 772.645,316.373 771.718,315.66 770.738,315.022 769.711,314.465 768.642,313.991 767.54,313.603 766.41,313.305 765.259,313.096 764.096,312.98 762.927,312.957 761.761,313.027 760.603,313.189 759.462,313.443 758.345,313.786 757.258,314.217 756.209,314.734 755.205,315.331 754.251,316.007 753.354,316.757 752.519,317.575 751.752,318.457 751.057,319.397 750.44,320.389 749.903,321.428 749.45,322.506 749.084,323.616 748.808,324.752 748.623,325.906 748.53,327.071 748.53,328.24 748.623,329.405 748.808,330.559 749.084,331.695 749.45,332.806 749.903,333.883 750.44,334.922 751.057,335.914 751.752,336.854 752.519,337.736 753.354,338.555 754.251,339.304 755.205,339.98 756.209,340.578 757.258,341.094 758.345,341.525 759.462,341.868 760.603,342.122 761.761,342.284 762.927,342.354 764.096,342.331 765.259,342.215 766.41,342.006 767.54,341.708 768.642,341.32 769.711,340.846 770.738,340.289 771.718,339.651 772.645,338.938 773.511,338.154 774.313,337.303 775.044,336.391 775.701,335.424 776.279,334.408 776.774,333.349 777.183,332.254 777.504,331.13 777.735,329.984 777.874,328.824 777.921,327.656 "/>
<path clip-path="url(#clip462)" d="M936.568 924.529 L936.521 923.361 L936.382 922.201 L936.151 921.055 L935.83 919.931 L935.42 918.836 L934.925 917.777 L934.347 916.761 L933.691 915.794 L932.959 914.882 L932.158 914.031 L931.291 913.247 L930.365 912.534 L929.385 911.896 L928.358 911.339 L927.289 910.865 L926.186 910.477 L925.056 910.178 L923.906 909.97 L922.743 909.854 L921.574 909.831 L920.407 909.901 L919.25 910.063 L918.108 910.317 L916.991 910.66 L915.905 911.091 L914.856 911.607 L913.851 912.205 L912.897 912.881 L912 913.63 L911.166 914.449 L910.399 915.331 L909.704 916.271 L909.086 917.263 L908.549 918.302 L908.097 919.379 L907.731 920.49 L907.455 921.626 L907.27 922.78 L907.177 923.945 L907.177 925.114 L907.27 926.279 L907.455 927.433 L907.731 928.569 L908.097 929.679 L908.549 930.757 L909.086 931.796 L909.704 932.788 L910.399 933.728 L911.166 934.61 L912 935.428 L912.897 936.178 L913.851 936.854 L914.856 937.451 L915.905 937.968 L916.991 938.399 L918.108 938.742 L919.25 938.996 L920.407 939.158 L921.574 939.228 L922.743 939.205 L923.906 939.089 L925.056 938.88 L926.186 938.582 L927.289 938.194 L928.358 937.72 L929.385 937.163 L930.365 936.525 L931.291 935.812 L932.158 935.028 L932.959 934.177 L933.691 933.265 L934.347 932.298 L934.925 931.282 L935.42 930.223 L935.83 929.128 L936.151 928.004 L936.382 926.858 L936.521 925.697 L936.568 924.529 L936.568 924.529  Z" fill="#ffffff" fill-rule="evenodd" fill-opacity="1"/>
<polyline clip-path="url(#clip462)" style="stroke:#000000; stroke-linecap:round; stroke-linejoin:round; stroke-width:4; stroke-opacity:1; fill:none" points="936.568,924.529 936.521,923.361 936.382,922.201 936.151,921.055 935.83,919.931 935.42,918.836 934.925,917.777 934.347,916.761 933.691,915.794 932.959,914.882 932.158,914.031 931.291,913.247 930.365,912.534 929.385,911.896 928.358,911.339 927.289,910.865 926.186,910.477 925.056,910.178 923.906,909.97 922.743,909.854 921.574,909.831 920.407,909.901 919.25,910.063 918.108,910.317 916.991,910.66 915.905,911.091 914.856,911.607 913.851,912.205 912.897,912.881 912,913.63 911.166,914.449 910.399,915.331 909.704,916.271 909.086,917.263 908.549,918.302 908.097,919.379 907.731,920.49 907.455,921.626 907.27,922.78 907.177,923.945 907.177,925.114 907.27,926.279 907.455,927.433 907.731,928.569 908.097,929.679 908.549,930.757 909.086,931.796 909.704,932.788 910.399,933.728 911.166,934.61 912,935.428 912.897,936.178 913.851,936.854 914.856,937.451 915.905,937.968 916.991,938.399 918.108,938.742 919.25,938.996 920.407,939.158 921.574,939.228 922.743,939.205 923.906,939.089 925.056,938.88 926.186,938.582 927.289,938.194 928.358,937.72 929.385,937.163 930.365,936.525 931.291,935.812 932.158,935.028 932.959,934.177 933.691,933.265 934.347,932.298 934.925,931.282 935.42,930.223 935.83,929.128 936.151,928.004 936.382,926.858 936.521,925.697 936.568,924.529 "/>
<path clip-path="url(#clip462)" d="M1514.25 656.722 L1514.21 655.554 L1514.07 654.393 L1513.84 653.247 L1513.51 652.123 L1513.1 651.028 L1512.61 649.969 L1512.03 648.953 L1511.37 647.986 L1510.64 647.074 L1509.84 646.223 L1508.98 645.439 L1508.05 644.726 L1507.07 644.088 L1506.04 643.531 L1504.97 643.057 L1503.87 642.669 L1502.74 642.371 L1501.59 642.162 L1500.43 642.046 L1499.26 642.023 L1498.09 642.093 L1496.93 642.255 L1495.79 642.509 L1494.68 642.852 L1493.59 643.283 L1492.54 643.8 L1491.54 644.397 L1490.58 645.073 L1489.68 645.823 L1488.85 646.641 L1488.08 647.523 L1487.39 648.463 L1486.77 649.455 L1486.23 650.494 L1485.78 651.572 L1485.42 652.682 L1485.14 653.818 L1484.95 654.972 L1484.86 656.137 L1484.86 657.306 L1484.95 658.471 L1485.14 659.625 L1485.42 660.761 L1485.78 661.872 L1486.23 662.949 L1486.77 663.988 L1487.39 664.98 L1488.08 665.92 L1488.85 666.802 L1489.68 667.621 L1490.58 668.37 L1491.54 669.046 L1492.54 669.644 L1493.59 670.16 L1494.68 670.591 L1495.79 670.934 L1496.93 671.188 L1498.09 671.35 L1499.26 671.42 L1500.43 671.397 L1501.59 671.281 L1502.74 671.072 L1503.87 670.774 L1504.97 670.386 L1506.04 669.912 L1507.07 669.355 L1508.05 668.717 L1508.98 668.004 L1509.84 667.22 L1510.64 666.369 L1511.37 665.457 L1512.03 664.49 L1512.61 663.474 L1513.1 662.415 L1513.51 661.32 L1513.84 660.196 L1514.07 659.05 L1514.21 657.89 L1514.25 656.722 L1514.25 656.722  Z" fill="#ffffff" fill-rule="evenodd" fill-opacity="1"/>
<polyline clip-path="url(#clip462)" style="stroke:#000000; stroke-linecap:round; stroke-linejoin:round; stroke-width:4; stroke-opacity:1; fill:none" points="1514.25,656.722 1514.21,655.554 1514.07,654.393 1513.84,653.247 1513.51,652.123 1513.1,651.028 1512.61,649.969 1512.03,648.953 1511.37,647.986 1510.64,647.074 1509.84,646.223 1508.98,645.439 1508.05,644.726 1507.07,644.088 1506.04,643.531 1504.97,643.057 1503.87,642.669 1502.74,642.371 1501.59,642.162 1500.43,642.046 1499.26,642.023 1498.09,642.093 1496.93,642.255 1495.79,642.509 1494.68,642.852 1493.59,643.283 1492.54,643.8 1491.54,644.397 1490.58,645.073 1489.68,645.823 1488.85,646.641 1488.08,647.523 1487.39,648.463 1486.77,649.455 1486.23,650.494 1485.78,651.572 1485.42,652.682 1485.14,653.818 1484.95,654.972 1484.86,656.137 1484.86,657.306 1484.95,658.471 1485.14,659.625 1485.42,660.761 1485.78,661.872 1486.23,662.949 1486.77,663.988 1487.39,664.98 1488.08,665.92 1488.85,666.802 1489.68,667.621 1490.58,668.37 1491.54,669.046 1492.54,669.644 1493.59,670.16 1494.68,670.591 1495.79,670.934 1496.93,671.188 1498.09,671.35 1499.26,671.42 1500.43,671.397 1501.59,671.281 1502.74,671.072 1503.87,670.774 1504.97,670.386 1506.04,669.912 1507.07,669.355 1508.05,668.717 1508.98,668.004 1509.84,667.22 1510.64,666.369 1511.37,665.457 1512.03,664.49 1512.61,663.474 1513.1,662.415 1513.51,661.32 1513.84,660.196 1514.07,659.05 1514.21,657.89 1514.25,656.722 "/>
<circle clip-path="url(#clip462)" style="fill:#ff7f50; stroke:none; fill-opacity:0" cx="1385.79" cy="970.888" r="2"/>
<circle clip-path="url(#clip462)" style="fill:#ff7f50; stroke:none; fill-opacity:0" cx="1139.69" cy="1026.01" r="2"/>
<circle clip-path="url(#clip462)" style="fill:#ff7f50; stroke:none; fill-opacity:0" cx="689.542" cy="982.596" r="2"/>
<circle clip-path="url(#clip462)" style="fill:#ff7f50; stroke:none; fill-opacity:0" cx="1156.7" cy="1348.57" r="2"/>
<circle clip-path="url(#clip462)" style="fill:#ff7f50; stroke:none; fill-opacity:0" cx="1143.62" cy="1192.69" r="2"/>
<circle clip-path="url(#clip462)" style="fill:#ff7f50; stroke:none; fill-opacity:0" cx="1710.46" cy="576.047" r="2"/>
<circle clip-path="url(#clip462)" style="fill:#ff7f50; stroke:none; fill-opacity:0" cx="1522.12" cy="830.249" r="2"/>
<circle clip-path="url(#clip462)" style="fill:#ff7f50; stroke:none; fill-opacity:0" cx="888.482" cy="458.04" r="2"/>
<circle clip-path="url(#clip462)" style="fill:#ff7f50; stroke:none; fill-opacity:0" cx="1026.22" cy="595.311" r="2"/>
<circle clip-path="url(#clip462)" style="fill:#ff7f50; stroke:none; fill-opacity:0" cx="910.983" cy="751.484" r="2"/>
<circle clip-path="url(#clip462)" style="fill:#ff7f50; stroke:none; fill-opacity:0" cx="1280.96" cy="568.22" r="2"/>
<circle clip-path="url(#clip462)" style="fill:#ff7f50; stroke:none; fill-opacity:0" cx="763.22" cy="327.656" r="2"/>
<circle clip-path="url(#clip462)" style="fill:#ff7f50; stroke:none; fill-opacity:0" cx="921.866" cy="924.529" r="2"/>
<circle clip-path="url(#clip462)" style="fill:#ff7f50; stroke:none; fill-opacity:0" cx="1499.55" cy="656.722" r="2"/>
<path clip-path="url(#clip460)" d="M1376.47 971.83 Q1377.79 972.276 1379.02 973.734 Q1380.28 975.192 1381.53 977.745 L1385.69 986.008 L1381.29 986.008 L1377.42 978.251 Q1375.92 975.213 1374.51 974.22 Q1373.11 973.228 1370.68 973.228 L1366.22 973.228 L1366.22 986.008 L1362.13 986.008 L1362.13 955.768 L1371.37 955.768 Q1376.55 955.768 1379.1 957.936 Q1381.66 960.103 1381.66 964.478 Q1381.66 967.334 1380.32 969.217 Q1379 971.101 1376.47 971.83 M1366.22 959.131 L1366.22 969.866 L1371.37 969.866 Q1374.32 969.866 1375.82 968.508 Q1377.34 967.131 1377.34 964.478 Q1377.34 961.824 1375.82 960.488 Q1374.32 959.131 1371.37 959.131 L1366.22 959.131 Z" fill="#000000" fill-rule="nonzero" fill-opacity="1" /><path clip-path="url(#clip460)" d="M1392.03 982.565 L1398.71 982.565 L1398.71 959.495 L1391.44 960.954 L1391.44 957.227 L1398.67 955.768 L1402.76 955.768 L1402.76 982.565 L1409.44 982.565 L1409.44 986.008 L1392.03 986.008 L1392.03 982.565 Z" fill="#000000" fill-rule="nonzero" fill-opacity="1" /><path clip-path="url(#clip460)" d="M1131.27 1037.68 L1137.95 1037.68 L1137.95 1014.61 L1130.68 1016.07 L1130.68 1012.35 L1137.91 1010.89 L1142 1010.89 L1142 1037.68 L1148.69 1037.68 L1148.69 1041.13 L1131.27 1041.13 L1131.27 1037.68 Z" fill="#000000" fill-rule="nonzero" fill-opacity="1" /><path clip-path="url(#clip460)" d="M689.542 971.507 L683.992 986.556 L695.112 986.556 L689.542 971.507 M687.232 967.476 L691.871 967.476 L703.396 997.716 L699.142 997.716 L696.388 989.959 L682.756 989.959 L680.002 997.716 L675.687 997.716 L687.232 967.476 Z" fill="#000000" fill-rule="nonzero" fill-opacity="1" /><path clip-path="url(#clip460)" d="M1150.06 1349.25 L1150.06 1360.33 L1156.63 1360.33 Q1159.93 1360.33 1161.51 1358.97 Q1163.11 1357.6 1163.11 1354.78 Q1163.11 1351.94 1161.51 1350.61 Q1159.93 1349.25 1156.63 1349.25 L1150.06 1349.25 M1150.06 1336.81 L1150.06 1345.93 L1156.12 1345.93 Q1159.12 1345.93 1160.58 1344.82 Q1162.05 1343.68 1162.05 1341.37 Q1162.05 1339.08 1160.58 1337.95 Q1159.12 1336.81 1156.12 1336.81 L1150.06 1336.81 M1145.97 1333.45 L1156.42 1333.45 Q1161.1 1333.45 1163.63 1335.4 Q1166.17 1337.34 1166.17 1340.93 Q1166.17 1343.7 1164.87 1345.34 Q1163.57 1346.98 1161.06 1347.39 Q1164.08 1348.04 1165.74 1350.1 Q1167.42 1352.15 1167.42 1355.23 Q1167.42 1359.28 1164.67 1361.48 Q1161.91 1363.69 1156.83 1363.69 L1145.97 1363.69 L1145.97 1333.45 Z" fill="#000000" fill-rule="nonzero" fill-opacity="1" /><path clip-path="url(#clip460)" d="M1123.94 1178.69 L1123.94 1185.13 L1131.62 1185.13 L1131.62 1188.02 L1123.94 1188.02 L1123.94 1200.34 Q1123.94 1203.11 1124.69 1203.9 Q1125.46 1204.69 1127.79 1204.69 L1131.62 1204.69 L1131.62 1207.81 L1127.79 1207.81 Q1123.48 1207.81 1121.84 1206.21 Q1120.2 1204.59 1120.2 1200.34 L1120.2 1188.02 L1117.46 1188.02 L1117.46 1185.13 L1120.2 1185.13 L1120.2 1178.69 L1123.94 1178.69 Z" fill="#000000" fill-rule="nonzero" fill-opacity="1" /><path clip-path="url(#clip460)" d="M1148.01 1176.3 L1148.01 1179.4 L1144.44 1179.4 Q1142.44 1179.4 1141.65 1180.21 Q1140.88 1181.02 1140.88 1183.12 L1140.88 1185.13 L1147.01 1185.13 L1147.01 1188.02 L1140.88 1188.02 L1140.88 1207.81 L1137.13 1207.81 L1137.13 1188.02 L1133.56 1188.02 L1133.56 1185.13 L1137.13 1185.13 L1137.13 1183.55 Q1137.13 1179.76 1138.89 1178.04 Q1140.65 1176.3 1144.48 1176.3 L1148.01 1176.3 Z" fill="#000000" fill-rule="nonzero" fill-opacity="1" /><path clip-path="url(#clip460)" d="M1152.36 1204.37 L1159.04 1204.37 L1159.04 1181.3 L1151.77 1182.76 L1151.77 1179.03 L1159 1177.57 L1163.1 1177.57 L1163.1 1204.37 L1169.78 1204.37 L1169.78 1207.81 L1152.36 1207.81 L1152.36 1204.37 Z" fill="#000000" fill-rule="nonzero" fill-opacity="1" /><path clip-path="url(#clip460)" d="M1722.65 563.256 L1722.65 567.57 Q1720.59 565.646 1718.24 564.694 Q1715.91 563.742 1713.27 563.742 Q1708.09 563.742 1705.33 566.922 Q1702.58 570.082 1702.58 576.077 Q1702.58 582.052 1705.33 585.232 Q1708.09 588.392 1713.27 588.392 Q1715.91 588.392 1718.24 587.44 Q1720.59 586.488 1722.65 584.564 L1722.65 588.838 Q1720.5 590.296 1718.09 591.025 Q1715.7 591.754 1713.03 591.754 Q1706.16 591.754 1702.21 587.562 Q1698.27 583.349 1698.27 576.077 Q1698.27 568.786 1702.21 564.593 Q1706.16 560.38 1713.03 560.38 Q1715.74 560.38 1718.13 561.109 Q1720.55 561.818 1722.65 563.256 Z" fill="#000000" fill-rule="nonzero" fill-opacity="1" /><path clip-path="url(#clip460)" d="M1502.61 816.243 L1502.61 822.684 L1510.28 822.684 L1510.28 825.58 L1502.61 825.58 L1502.61 837.895 Q1502.61 840.67 1503.36 841.46 Q1504.13 842.25 1506.46 842.25 L1510.28 842.25 L1510.28 845.369 L1506.46 845.369 Q1502.14 845.369 1500.5 843.769 Q1498.86 842.148 1498.86 837.895 L1498.86 825.58 L1496.13 825.58 L1496.13 822.684 L1498.86 822.684 L1498.86 816.243 L1502.61 816.243 Z" fill="#000000" fill-rule="nonzero" fill-opacity="1" /><path clip-path="url(#clip460)" d="M1526.67 813.853 L1526.67 816.952 L1523.11 816.952 Q1521.1 816.952 1520.31 817.762 Q1519.54 818.572 1519.54 820.679 L1519.54 822.684 L1525.68 822.684 L1525.68 825.58 L1519.54 825.58 L1519.54 845.369 L1515.79 845.369 L1515.79 825.58 L1512.23 825.58 L1512.23 822.684 L1515.79 822.684 L1515.79 821.104 Q1515.79 817.316 1517.56 815.595 Q1519.32 813.853 1523.15 813.853 L1526.67 813.853 Z" fill="#000000" fill-rule="nonzero" fill-opacity="1" /><path clip-path="url(#clip460)" d="M1533.84 841.926 L1548.12 841.926 L1548.12 845.369 L1528.92 845.369 L1528.92 841.926 Q1531.25 839.515 1535.26 835.464 Q1539.29 831.393 1540.32 830.218 Q1542.29 828.011 1543.06 826.492 Q1543.85 824.952 1543.85 823.474 Q1543.85 821.063 1542.14 819.544 Q1540.46 818.025 1537.75 818.025 Q1535.83 818.025 1533.68 818.694 Q1531.55 819.362 1529.12 820.719 L1529.12 816.587 Q1531.59 815.595 1533.74 815.088 Q1535.89 814.582 1537.67 814.582 Q1542.37 814.582 1545.16 816.932 Q1547.96 819.281 1547.96 823.21 Q1547.96 825.074 1547.25 826.755 Q1546.56 828.416 1544.72 830.684 Q1544.21 831.272 1541.5 834.087 Q1538.78 836.882 1533.84 841.926 Z" fill="#000000" fill-rule="nonzero" fill-opacity="1" /><path clip-path="url(#clip460)" d="M879.327 458.982 Q880.643 459.428 881.879 460.886 Q883.135 462.344 884.391 464.896 L888.543 473.16 L884.148 473.16 L880.279 465.403 Q878.78 462.364 877.362 461.372 Q875.965 460.379 873.534 460.379 L869.078 460.379 L869.078 473.16 L864.987 473.16 L864.987 442.92 L874.223 442.92 Q879.408 442.92 881.96 445.087 Q884.512 447.255 884.512 451.63 Q884.512 454.485 883.175 456.369 Q881.859 458.253 879.327 458.982 M869.078 446.282 L869.078 457.017 L874.223 457.017 Q877.18 457.017 878.679 455.66 Q880.198 454.283 880.198 451.63 Q880.198 448.976 878.679 447.639 Q877.18 446.282 874.223 446.282 L869.078 446.282 Z" fill="#000000" fill-rule="nonzero" fill-opacity="1" /><path clip-path="url(#clip460)" d="M897.698 469.717 L911.977 469.717 L911.977 473.16 L892.776 473.16 L892.776 469.717 Q895.105 467.307 899.116 463.256 Q903.146 459.184 904.179 458.01 Q906.144 455.802 906.914 454.283 Q907.704 452.744 907.704 451.265 Q907.704 448.855 906.002 447.336 Q904.321 445.816 901.607 445.816 Q899.683 445.816 897.536 446.485 Q895.409 447.153 892.978 448.51 L892.978 444.378 Q895.45 443.386 897.597 442.88 Q899.744 442.373 901.526 442.373 Q906.225 442.373 909.02 444.723 Q911.815 447.072 911.815 451.002 Q911.815 452.865 911.106 454.546 Q910.418 456.207 908.574 458.476 Q908.068 459.063 905.354 461.878 Q902.64 464.673 897.698 469.717 Z" fill="#000000" fill-rule="nonzero" fill-opacity="1" /><path clip-path="url(#clip460)" d="M1017.81 606.988 L1024.49 606.988 L1024.49 583.918 L1017.22 585.376 L1017.22 581.649 L1024.45 580.191 L1028.54 580.191 L1028.54 606.988 L1035.23 606.988 L1035.23 610.431 L1017.81 610.431 L1017.81 606.988 Z" fill="#000000" fill-rule="nonzero" fill-opacity="1" /><path clip-path="url(#clip460)" d="M891.052 737.478 L891.052 743.919 L898.729 743.919 L898.729 746.815 L891.052 746.815 L891.052 759.13 Q891.052 761.905 891.802 762.695 Q892.572 763.485 894.901 763.485 L898.729 763.485 L898.729 766.604 L894.901 766.604 Q890.587 766.604 888.946 765.004 Q887.305 763.383 887.305 759.13 L887.305 746.815 L884.571 746.815 L884.571 743.919 L887.305 743.919 L887.305 737.478 L891.052 737.478 Z" fill="#000000" fill-rule="nonzero" fill-opacity="1" /><path clip-path="url(#clip460)" d="M915.115 735.088 L915.115 738.187 L911.55 738.187 Q909.545 738.187 908.755 738.997 Q907.985 739.807 907.985 741.914 L907.985 743.919 L914.122 743.919 L914.122 746.815 L907.985 746.815 L907.985 766.604 L904.238 766.604 L904.238 746.815 L900.673 746.815 L900.673 743.919 L904.238 743.919 L904.238 742.339 Q904.238 738.551 906 736.83 Q907.762 735.088 911.59 735.088 L915.115 735.088 Z" fill="#000000" fill-rule="nonzero" fill-opacity="1" /><path clip-path="url(#clip460)" d="M931.156 750.299 Q934.093 750.927 935.734 752.912 Q937.395 754.897 937.395 757.813 Q937.395 762.29 934.316 764.741 Q931.237 767.191 925.566 767.191 Q923.662 767.191 921.637 766.806 Q919.632 766.442 917.485 765.692 L917.485 761.743 Q919.186 762.735 921.211 763.242 Q923.237 763.748 925.445 763.748 Q929.293 763.748 931.298 762.229 Q933.324 760.71 933.324 757.813 Q933.324 755.14 931.44 753.641 Q929.577 752.122 926.235 752.122 L922.71 752.122 L922.71 748.76 L926.397 748.76 Q929.414 748.76 931.015 747.565 Q932.615 746.349 932.615 744.081 Q932.615 741.752 930.954 740.516 Q929.313 739.26 926.235 739.26 Q924.553 739.26 922.629 739.625 Q920.705 739.989 918.396 740.759 L918.396 737.113 Q920.725 736.465 922.751 736.141 Q924.796 735.817 926.599 735.817 Q931.258 735.817 933.972 737.944 Q936.686 740.05 936.686 743.656 Q936.686 746.167 935.248 747.909 Q933.81 749.631 931.156 750.299 Z" fill="#000000" fill-rule="nonzero" fill-opacity="1" /><path clip-path="url(#clip460)" d="M1260.53 554.214 L1260.53 560.654 L1268.21 560.654 L1268.21 563.551 L1260.53 563.551 L1260.53 575.866 Q1260.53 578.64 1261.28 579.43 Q1262.05 580.22 1264.38 580.22 L1268.21 580.22 L1268.21 583.34 L1264.38 583.34 Q1260.06 583.34 1258.42 581.739 Q1256.78 580.119 1256.78 575.866 L1256.78 563.551 L1254.05 563.551 L1254.05 560.654 L1256.78 560.654 L1256.78 554.214 L1260.53 554.214 Z" fill="#000000" fill-rule="nonzero" fill-opacity="1" /><path clip-path="url(#clip460)" d="M1284.59 551.823 L1284.59 554.922 L1281.03 554.922 Q1279.02 554.922 1278.23 555.733 Q1277.46 556.543 1277.46 558.649 L1277.46 560.654 L1283.6 560.654 L1283.6 563.551 L1277.46 563.551 L1277.46 583.34 L1273.72 583.34 L1273.72 563.551 L1270.15 563.551 L1270.15 560.654 L1273.72 560.654 L1273.72 559.075 Q1273.72 555.287 1275.48 553.565 Q1277.24 551.823 1281.07 551.823 L1284.59 551.823 Z" fill="#000000" fill-rule="nonzero" fill-opacity="1" /><path clip-path="url(#clip460)" d="M1299.48 556.664 L1289.15 572.807 L1299.48 572.807 L1299.48 556.664 M1298.41 553.1 L1303.55 553.1 L1303.55 572.807 L1307.86 572.807 L1307.86 576.21 L1303.55 576.21 L1303.55 583.34 L1299.48 583.34 L1299.48 576.21 L1285.83 576.21 L1285.83 572.26 L1298.41 553.1 Z" fill="#000000" fill-rule="nonzero" fill-opacity="1" /><path clip-path="url(#clip460)" d="M754.601 315.898 L754.601 339.413 L759.544 339.413 Q765.802 339.413 768.699 336.578 Q771.615 333.742 771.615 327.625 Q771.615 321.549 768.699 318.733 Q765.802 315.898 759.544 315.898 L754.601 315.898 M750.51 312.536 L758.916 312.536 Q767.706 312.536 771.818 316.202 Q775.929 319.847 775.929 327.625 Q775.929 335.443 771.798 339.109 Q767.666 342.776 758.916 342.776 L750.51 342.776 L750.51 312.536 Z" fill="#000000" fill-rule="nonzero" fill-opacity="1" /><path clip-path="url(#clip460)" d="M921.866 912.103 Q918.707 912.103 917.107 915.223 Q915.527 918.321 915.527 924.56 Q915.527 930.778 917.107 933.897 Q918.707 936.996 921.866 936.996 Q925.046 936.996 926.626 933.897 Q928.226 930.778 928.226 924.56 Q928.226 918.321 926.626 915.223 Q925.046 912.103 921.866 912.103 M921.866 908.863 Q926.95 908.863 929.624 912.893 Q932.318 916.904 932.318 924.56 Q932.318 932.196 929.624 936.226 Q926.95 940.237 921.866 940.237 Q916.782 940.237 914.089 936.226 Q911.415 932.196 911.415 924.56 Q911.415 916.904 914.089 912.893 Q916.782 908.863 921.866 908.863 Z" fill="#000000" fill-rule="nonzero" fill-opacity="1" /><path clip-path="url(#clip460)" d="M1499.55 644.295 Q1496.39 644.295 1494.79 647.415 Q1493.21 650.514 1493.21 656.752 Q1493.21 662.97 1494.79 666.089 Q1496.39 669.188 1499.55 669.188 Q1502.73 669.188 1504.31 666.089 Q1505.91 662.97 1505.91 656.752 Q1505.91 650.514 1504.31 647.415 Q1502.73 644.295 1499.55 644.295 M1499.55 641.055 Q1504.63 641.055 1507.31 645.085 Q1510 649.096 1510 656.752 Q1510 664.388 1507.31 668.419 Q1504.63 672.429 1499.55 672.429 Q1494.47 672.429 1491.77 668.419 Q1489.1 664.388 1489.1 656.752 Q1489.1 649.096 1491.77 645.085 Q1494.47 641.055 1499.55 641.055 Z" fill="#000000" fill-rule="nonzero" fill-opacity="1" /></svg>
