<?xml version="1.0" encoding="utf-8"?>
<svg xmlns="http://www.w3.org/2000/svg" xmlns:xlink="http://www.w3.org/1999/xlink" width="600" height="400" viewBox="0 0 2400 1600">
<defs>
  <clipPath id="clip940">
    <rect x="0" y="0" width="2400" height="1600"/>
  </clipPath>
</defs>
<path clip-path="url(#clip940)" d="M0 1600 L2400 1600 L2400 0 L0 0  Z" fill="#ffffff" fill-rule="evenodd" fill-opacity="1"/>
<defs>
  <clipPath id="clip941">
    <rect x="480" y="0" width="1681" height="1600"/>
  </clipPath>
</defs>
<path clip-path="url(#clip940)" d="M485.358 1552.76 L1914.64 1552.76 L1914.64 123.472 L485.358 123.472  Z" fill="#ffffff" fill-rule="evenodd" fill-opacity="1"/>
<defs>
  <clipPath id="clip942">
    <rect x="485" y="123" width="1430" height="1430"/>
  </clipPath>
</defs>
<path clip-path="url(#clip940)" d="M866.246 12.096 L904.487 12.096 L904.487 18.9825 L874.429 18.9825 L874.429 36.8875 L903.231 36.8875 L903.231 43.7741 L874.429 43.7741 L874.429 65.6895 L905.216 65.6895 L905.216 72.576 L866.246 72.576 L866.246 12.096 Z" fill="#000000" fill-rule="nonzero" fill-opacity="1" /><path clip-path="url(#clip940)" d="M956.055 45.1919 L956.055 72.576 L948.601 72.576 L948.601 45.4349 Q948.601 38.994 946.089 35.7938 Q943.578 32.5936 938.555 32.5936 Q932.519 32.5936 929.035 36.4419 Q925.551 40.2903 925.551 46.9338 L925.551 72.576 L918.057 72.576 L918.057 27.2059 L925.551 27.2059 L925.551 34.2544 Q928.225 30.163 931.83 28.1376 Q935.476 26.1121 940.216 26.1121 Q948.034 26.1121 952.044 30.9732 Q956.055 35.7938 956.055 45.1919 Z" fill="#000000" fill-rule="nonzero" fill-opacity="1" /><path clip-path="url(#clip940)" d="M967.681 27.2059 L1003.09 27.2059 L1003.09 34.0114 L975.053 66.6212 L1003.09 66.6212 L1003.09 72.576 L966.668 72.576 L966.668 65.7705 L994.7 33.1607 L967.681 33.1607 L967.681 27.2059 Z" fill="#000000" fill-rule="nonzero" fill-opacity="1" /><path clip-path="url(#clip940)" d="M1033.35 76.7889 Q1030.19 84.8907 1027.19 87.3618 Q1024.19 89.8329 1019.17 89.8329 L1013.21 89.8329 L1013.21 83.5945 L1017.59 83.5945 Q1020.67 83.5945 1022.37 82.1361 Q1024.07 80.6778 1026.14 75.2496 L1027.47 71.8468 L1009.12 27.2059 L1017.02 27.2059 L1031.2 62.6918 L1045.38 27.2059 L1053.28 27.2059 L1033.35 76.7889 Z" fill="#000000" fill-rule="nonzero" fill-opacity="1" /><path clip-path="url(#clip940)" d="M1098.89 35.9153 Q1101.68 30.8922 1105.57 28.5022 Q1109.46 26.1121 1114.73 26.1121 Q1121.82 26.1121 1125.67 31.0947 Q1129.51 36.0368 1129.51 45.1919 L1129.51 72.576 L1122.02 72.576 L1122.02 45.4349 Q1122.02 38.913 1119.71 35.7533 Q1117.4 32.5936 1112.66 32.5936 Q1106.87 32.5936 1103.51 36.4419 Q1100.15 40.2903 1100.15 46.9338 L1100.15 72.576 L1092.65 72.576 L1092.65 45.4349 Q1092.65 38.8725 1090.34 35.7533 Q1088.03 32.5936 1083.21 32.5936 Q1077.5 32.5936 1074.14 36.4824 Q1070.78 40.3308 1070.78 46.9338 L1070.78 72.576 L1063.28 72.576 L1063.28 27.2059 L1070.78 27.2059 L1070.78 34.2544 Q1073.33 30.082 1076.89 28.0971 Q1080.46 26.1121 1085.36 26.1121 Q1090.3 26.1121 1093.74 28.6237 Q1097.23 31.1352 1098.89 35.9153 Z" fill="#000000" fill-rule="nonzero" fill-opacity="1" /><path clip-path="url(#clip940)" d="M1183.19 48.0275 L1183.19 51.6733 L1148.92 51.6733 Q1149.4 59.3701 1153.54 63.421 Q1157.71 67.4314 1165.12 67.4314 Q1169.42 67.4314 1173.43 66.3781 Q1177.48 65.3249 1181.45 63.2184 L1181.45 70.267 Q1177.44 71.9684 1173.22 72.8596 Q1169.01 73.7508 1164.68 73.7508 Q1153.82 73.7508 1147.46 67.4314 Q1141.14 61.1119 1141.14 50.3365 Q1141.14 39.1965 1147.14 32.6746 Q1153.17 26.1121 1163.38 26.1121 Q1172.53 26.1121 1177.84 32.0264 Q1183.19 37.9003 1183.19 48.0275 M1175.74 45.84 Q1175.65 39.7232 1172.29 36.0774 Q1168.97 32.4315 1163.46 32.4315 Q1157.22 32.4315 1153.46 35.9558 Q1149.73 39.4801 1149.16 45.8805 L1175.74 45.84 Z" fill="#000000" fill-rule="nonzero" fill-opacity="1" /><path clip-path="url(#clip940)" d="M1195.75 12.096 L1206.77 12.096 L1233.58 62.6918 L1233.58 12.096 L1241.52 12.096 L1241.52 72.576 L1230.5 72.576 L1203.69 21.9802 L1203.69 72.576 L1195.75 72.576 L1195.75 12.096 Z" fill="#000000" fill-rule="nonzero" fill-opacity="1" /><path clip-path="url(#clip940)" d="M1296.29 48.0275 L1296.29 51.6733 L1262.02 51.6733 Q1262.51 59.3701 1266.64 63.421 Q1270.81 67.4314 1278.22 67.4314 Q1282.52 67.4314 1286.53 66.3781 Q1290.58 65.3249 1294.55 63.2184 L1294.55 70.267 Q1290.54 71.9684 1286.32 72.8596 Q1282.11 73.7508 1277.78 73.7508 Q1266.92 73.7508 1260.56 67.4314 Q1254.24 61.1119 1254.24 50.3365 Q1254.24 39.1965 1260.24 32.6746 Q1266.27 26.1121 1276.48 26.1121 Q1285.64 26.1121 1290.94 32.0264 Q1296.29 37.9003 1296.29 48.0275 M1288.84 45.84 Q1288.76 39.7232 1285.39 36.0774 Q1282.07 32.4315 1276.56 32.4315 Q1270.32 32.4315 1266.56 35.9558 Q1262.83 39.4801 1262.26 45.8805 L1288.84 45.84 Z" fill="#000000" fill-rule="nonzero" fill-opacity="1" /><path clip-path="url(#clip940)" d="M1315.9 14.324 L1315.9 27.2059 L1331.25 27.2059 L1331.25 32.9987 L1315.9 32.9987 L1315.9 57.6282 Q1315.9 63.1779 1317.4 64.7578 Q1318.93 66.3376 1323.59 66.3376 L1331.25 66.3376 L1331.25 72.576 L1323.59 72.576 Q1314.96 72.576 1311.68 69.3758 Q1308.4 66.1351 1308.4 57.6282 L1308.4 32.9987 L1302.93 32.9987 L1302.93 27.2059 L1308.4 27.2059 L1308.4 14.324 L1315.9 14.324 Z" fill="#000000" fill-rule="nonzero" fill-opacity="1" /><path clip-path="url(#clip940)" d="M1336.72 27.2059 L1344.17 27.2059 L1353.49 62.6108 L1362.77 27.2059 L1371.56 27.2059 L1380.87 62.6108 L1390.15 27.2059 L1397.6 27.2059 L1385.73 72.576 L1376.94 72.576 L1367.18 35.3887 L1357.38 72.576 L1348.59 72.576 L1336.72 27.2059 Z" fill="#000000" fill-rule="nonzero" fill-opacity="1" /><path clip-path="url(#clip940)" d="M1426.49 32.4315 Q1420.49 32.4315 1417.01 37.1306 Q1413.52 41.7891 1413.52 49.9314 Q1413.52 58.0738 1416.97 62.7728 Q1420.45 67.4314 1426.49 67.4314 Q1432.44 67.4314 1435.92 62.7323 Q1439.41 58.0333 1439.41 49.9314 Q1439.41 41.8701 1435.92 37.1711 Q1432.44 32.4315 1426.49 32.4315 M1426.49 26.1121 Q1436.21 26.1121 1441.76 32.4315 Q1447.31 38.7509 1447.31 49.9314 Q1447.31 61.0714 1441.76 67.4314 Q1436.21 73.7508 1426.49 73.7508 Q1416.72 73.7508 1411.17 67.4314 Q1405.66 61.0714 1405.66 49.9314 Q1405.66 38.7509 1411.17 32.4315 Q1416.72 26.1121 1426.49 26.1121 Z" fill="#000000" fill-rule="nonzero" fill-opacity="1" /><path clip-path="url(#clip940)" d="M1485.95 34.1734 Q1484.7 33.4443 1483.2 33.1202 Q1481.74 32.7556 1479.96 32.7556 Q1473.64 32.7556 1470.24 36.8875 Q1466.87 40.9789 1466.87 48.6757 L1466.87 72.576 L1459.38 72.576 L1459.38 27.2059 L1466.87 27.2059 L1466.87 34.2544 Q1469.22 30.1225 1472.99 28.1376 Q1476.76 26.1121 1482.15 26.1121 Q1482.92 26.1121 1483.85 26.2337 Q1484.78 26.3147 1485.91 26.5172 L1485.95 34.1734 Z" fill="#000000" fill-rule="nonzero" fill-opacity="1" /><path clip-path="url(#clip940)" d="M1493.49 9.54393 L1500.98 9.54393 L1500.98 46.7717 L1523.22 27.2059 L1532.74 27.2059 L1508.68 48.4326 L1533.75 72.576 L1524.03 72.576 L1500.98 50.4176 L1500.98 72.576 L1493.49 72.576 L1493.49 9.54393 Z" fill="#000000" fill-rule="nonzero" fill-opacity="1" /><polyline clip-path="url(#clip942)" style="stroke:#000000; stroke-linecap:round; stroke-linejoin:round; stroke-width:4; stroke-opacity:1; fill:none" points="689.542,991.439 1107.81,917.237 "/>
<polyline clip-path="url(#clip942)" style="stroke:#000000; stroke-linecap:round; stroke-linejoin:round; stroke-width:4; stroke-opacity:1; fill:none" points="1069.22,905.802 1107.81,917.237 1075.51,941.249 "/>
<polyline clip-path="url(#clip942)" style="stroke:#000000; stroke-linecap:round; stroke-linejoin:round; stroke-width:4; stroke-opacity:1; fill:none" points="1107.81,917.237 689.542,991.439 "/>
<polyline clip-path="url(#clip942)" style="stroke:#000000; stroke-linecap:round; stroke-linejoin:round; stroke-width:4; stroke-opacity:1; fill:none" points="1284.34,327.656 1249.14,564.603 "/>
<polyline clip-path="url(#clip942)" style="stroke:#000000; stroke-linecap:round; stroke-linejoin:round; stroke-width:4; stroke-opacity:1; fill:none" points="1272.24,531.638 1249.14,564.603 1236.63,526.349 "/>
<polyline clip-path="url(#clip942)" style="stroke:#000000; stroke-linecap:round; stroke-linejoin:round; stroke-width:4; stroke-opacity:1; fill:none" points="1249.14,564.603 1284.34,327.656 "/>
<polyline clip-path="url(#clip942)" style="stroke:#000000; stroke-linecap:round; stroke-linejoin:round; stroke-width:4; stroke-opacity:1; fill:none" points="1128.77,908.078 1220.93,666.287 "/>
<polyline clip-path="url(#clip942)" style="stroke:#000000; stroke-linecap:round; stroke-linejoin:round; stroke-width:4; stroke-opacity:1; fill:none" points="1191.29,693.514 1220.93,666.287 1224.93,706.337 "/>
<polyline clip-path="url(#clip942)" style="stroke:#000000; stroke-linecap:round; stroke-linejoin:round; stroke-width:4; stroke-opacity:1; fill:none" points="1220.93,666.287 1128.77,908.078 "/>
<polyline clip-path="url(#clip942)" style="stroke:#000000; stroke-linecap:round; stroke-linejoin:round; stroke-width:4; stroke-opacity:1; fill:none" points="1710.46,1348.57 1467.8,1174.34 "/>
<polyline clip-path="url(#clip942)" style="stroke:#000000; stroke-linecap:round; stroke-linejoin:round; stroke-width:4; stroke-opacity:1; fill:none" points="1486.54,1209.96 1467.8,1174.34 1507.54,1180.72 "/>
<polyline clip-path="url(#clip942)" style="stroke:#000000; stroke-linecap:round; stroke-linejoin:round; stroke-width:4; stroke-opacity:1; fill:none" points="1467.8,1174.34 1710.46,1348.57 "/>
<polyline clip-path="url(#clip942)" style="stroke:#000000; stroke-linecap:round; stroke-linejoin:round; stroke-width:4; stroke-opacity:1; fill:none" points="1128.77,908.078 1384.55,1109.89 "/>
<polyline clip-path="url(#clip942)" style="stroke:#000000; stroke-linecap:round; stroke-linejoin:round; stroke-width:4; stroke-opacity:1; fill:none" points="1367.43,1073.46 1384.55,1109.89 1345.14,1101.72 "/>
<polyline clip-path="url(#clip942)" style="stroke:#000000; stroke-linecap:round; stroke-linejoin:round; stroke-width:4; stroke-opacity:1; fill:none" points="1384.55,1109.89 1128.77,908.078 "/>
<path clip-path="url(#clip942)" d="M1307.21 327.656 L1307.14 325.839 L1306.92 324.033 L1306.56 322.251 L1306.06 320.502 L1305.43 318.799 L1304.65 317.152 L1303.76 315.571 L1302.73 314.067 L1301.6 312.649 L1300.35 311.325 L1299 310.105 L1297.56 308.995 L1296.04 308.004 L1294.44 307.137 L1292.78 306.4 L1291.06 305.797 L1289.3 305.332 L1287.51 305.008 L1285.7 304.828 L1283.89 304.792 L1282.07 304.9 L1280.27 305.152 L1278.5 305.547 L1276.76 306.081 L1275.07 306.752 L1273.44 307.555 L1271.87 308.485 L1270.39 309.536 L1268.99 310.702 L1267.7 311.974 L1266.5 313.346 L1265.42 314.809 L1264.46 316.353 L1263.63 317.968 L1262.92 319.644 L1262.35 321.372 L1261.92 323.138 L1261.64 324.934 L1261.49 326.746 L1261.49 328.565 L1261.64 330.377 L1261.92 332.173 L1262.35 333.94 L1262.92 335.667 L1263.63 337.343 L1264.46 338.958 L1265.42 340.502 L1266.5 341.965 L1267.7 343.337 L1268.99 344.61 L1270.39 345.775 L1271.87 346.826 L1273.44 347.756 L1275.07 348.559 L1276.76 349.23 L1278.5 349.764 L1280.27 350.159 L1282.07 350.411 L1283.89 350.52 L1285.7 350.483 L1287.51 350.303 L1289.3 349.979 L1291.06 349.514 L1292.78 348.911 L1294.44 348.174 L1296.04 347.307 L1297.56 346.316 L1299 345.206 L1300.35 343.986 L1301.6 342.662 L1302.73 341.244 L1303.76 339.74 L1304.65 338.159 L1305.43 336.512 L1306.06 334.809 L1306.56 333.06 L1306.92 331.278 L1307.14 329.472 L1307.21 327.656 L1307.21 327.656  Z" fill="#add8e6" fill-rule="evenodd" fill-opacity="1"/>
<polyline clip-path="url(#clip942)" style="stroke:#000000; stroke-linecap:round; stroke-linejoin:round; stroke-width:4; stroke-opacity:1; fill:none" points="1307.21,327.656 1307.14,325.839 1306.92,324.033 1306.56,322.251 1306.06,320.502 1305.43,318.799 1304.65,317.152 1303.76,315.571 1302.73,314.067 1301.6,312.649 1300.35,311.325 1299,310.105 1297.56,308.995 1296.04,308.004 1294.44,307.137 1292.78,306.4 1291.06,305.797 1289.3,305.332 1287.51,305.008 1285.7,304.828 1283.89,304.792 1282.07,304.9 1280.27,305.152 1278.5,305.547 1276.76,306.081 1275.07,306.752 1273.44,307.555 1271.87,308.485 1270.39,309.536 1268.99,310.702 1267.7,311.974 1266.5,313.346 1265.42,314.809 1264.46,316.353 1263.63,317.968 1262.92,319.644 1262.35,321.372 1261.92,323.138 1261.64,324.934 1261.49,326.746 1261.49,328.565 1261.64,330.377 1261.92,332.173 1262.35,333.94 1262.92,335.667 1263.63,337.343 1264.46,338.958 1265.42,340.502 1266.5,341.965 1267.7,343.337 1268.99,344.61 1270.39,345.775 1271.87,346.826 1273.44,347.756 1275.07,348.559 1276.76,349.23 1278.5,349.764 1280.27,350.159 1282.07,350.411 1283.89,350.52 1285.7,350.483 1287.51,350.303 1289.3,349.979 1291.06,349.514 1292.78,348.911 1294.44,348.174 1296.04,347.307 1297.56,346.316 1299,345.206 1300.35,343.986 1301.6,342.662 1302.73,341.244 1303.76,339.74 1304.65,338.159 1305.43,336.512 1306.06,334.809 1306.56,333.06 1306.92,331.278 1307.14,329.472 1307.21,327.656 "/>
<path clip-path="url(#clip942)" d="M712.41 991.439 L712.338 989.623 L712.121 987.817 L711.762 986.035 L711.263 984.286 L710.626 982.583 L709.855 980.936 L708.957 979.355 L707.935 977.851 L706.797 976.433 L705.55 975.109 L704.202 973.889 L702.762 972.779 L701.237 971.788 L699.639 970.921 L697.977 970.184 L696.261 969.581 L694.503 969.116 L692.714 968.792 L690.905 968.612 L689.087 968.575 L687.272 968.684 L685.471 968.936 L683.696 969.331 L681.958 969.865 L680.268 970.536 L678.636 971.339 L677.074 972.269 L675.59 973.32 L674.194 974.485 L672.896 975.758 L671.703 977.13 L670.622 978.593 L669.661 980.137 L668.826 981.752 L668.122 983.428 L667.553 985.155 L667.124 986.922 L666.836 988.718 L666.691 990.53 L666.691 992.349 L666.836 994.161 L667.124 995.957 L667.553 997.723 L668.122 999.451 L668.826 1001.13 L669.661 1002.74 L670.622 1004.29 L671.703 1005.75 L672.896 1007.12 L674.194 1008.39 L675.59 1009.56 L677.074 1010.61 L678.636 1011.54 L680.268 1012.34 L681.958 1013.01 L683.696 1013.55 L685.471 1013.94 L687.272 1014.2 L689.087 1014.3 L690.905 1014.27 L692.714 1014.09 L694.503 1013.76 L696.261 1013.3 L697.977 1012.7 L699.639 1011.96 L701.237 1011.09 L702.762 1010.1 L704.202 1008.99 L705.55 1007.77 L706.797 1006.45 L707.935 1005.03 L708.957 1003.52 L709.855 1001.94 L710.626 1000.3 L711.263 998.593 L711.762 996.844 L712.121 995.062 L712.338 993.256 L712.41 991.439 L712.41 991.439  Z" fill="#add8e6" fill-rule="evenodd" fill-opacity="1"/>
<polyline clip-path="url(#clip942)" style="stroke:#000000; stroke-linecap:round; stroke-linejoin:round; stroke-width:4; stroke-opacity:1; fill:none" points="712.41,991.439 712.338,989.623 712.121,987.817 711.762,986.035 711.263,984.286 710.626,982.583 709.855,980.936 708.957,979.355 707.935,977.851 706.797,976.433 705.55,975.109 704.202,973.889 702.762,972.779 701.237,971.788 699.639,970.921 697.977,970.184 696.261,969.581 694.503,969.116 692.714,968.792 690.905,968.612 689.087,968.575 687.272,968.684 685.471,968.936 683.696,969.331 681.958,969.865 680.268,970.536 678.636,971.339 677.074,972.269 675.59,973.32 674.194,974.485 672.896,975.758 671.703,977.13 670.622,978.593 669.661,980.137 668.826,981.752 668.122,983.428 667.553,985.155 667.124,986.922 666.836,988.718 666.691,990.53 666.691,992.349 666.836,994.161 667.124,995.957 667.553,997.723 668.122,999.451 668.826,1001.13 669.661,1002.74 670.622,1004.29 671.703,1005.75 672.896,1007.12 674.194,1008.39 675.59,1009.56 677.074,1010.61 678.636,1011.54 680.268,1012.34 681.958,1013.01 683.696,1013.55 685.471,1013.94 687.272,1014.2 689.087,1014.3 690.905,1014.27 692.714,1014.09 694.503,1013.76 696.261,1013.3 697.977,1012.7 699.639,1011.96 701.237,1011.09 702.762,1010.1 704.202,1008.99 705.55,1007.77 706.797,1006.45 707.935,1005.03 708.957,1003.52 709.855,1001.94 710.626,1000.3 711.263,998.593 711.762,996.844 712.121,995.062 712.338,993.256 712.41,991.439 "/>
<path clip-path="url(#clip942)" d="M1733.33 1348.57 L1733.25 1346.76 L1733.04 1344.95 L1732.68 1343.17 L1732.18 1341.42 L1731.54 1339.72 L1730.77 1338.07 L1729.87 1336.49 L1728.85 1334.98 L1727.71 1333.57 L1726.47 1332.24 L1725.12 1331.02 L1723.68 1329.91 L1722.15 1328.92 L1720.56 1328.05 L1718.89 1327.32 L1717.18 1326.71 L1715.42 1326.25 L1713.63 1325.93 L1711.82 1325.74 L1710 1325.71 L1708.19 1325.82 L1706.39 1326.07 L1704.61 1326.46 L1702.87 1327 L1701.18 1327.67 L1699.55 1328.47 L1697.99 1329.4 L1696.51 1330.45 L1695.11 1331.62 L1693.81 1332.89 L1692.62 1334.26 L1691.54 1335.73 L1690.58 1337.27 L1689.74 1338.88 L1689.04 1340.56 L1688.47 1342.29 L1688.04 1344.06 L1687.75 1345.85 L1687.61 1347.66 L1687.61 1349.48 L1687.75 1351.29 L1688.04 1353.09 L1688.47 1354.86 L1689.04 1356.58 L1689.74 1358.26 L1690.58 1359.88 L1691.54 1361.42 L1692.62 1362.88 L1693.81 1364.25 L1695.11 1365.53 L1696.51 1366.69 L1697.99 1367.74 L1699.55 1368.67 L1701.18 1369.48 L1702.87 1370.15 L1704.61 1370.68 L1706.39 1371.08 L1708.19 1371.33 L1710 1371.44 L1711.82 1371.4 L1713.63 1371.22 L1715.42 1370.9 L1717.18 1370.43 L1718.89 1369.83 L1720.56 1369.09 L1722.15 1368.22 L1723.68 1367.23 L1725.12 1366.12 L1726.47 1364.9 L1727.71 1363.58 L1728.85 1362.16 L1729.87 1360.66 L1730.77 1359.08 L1731.54 1357.43 L1732.18 1355.73 L1732.68 1353.98 L1733.04 1352.19 L1733.25 1350.39 L1733.33 1348.57 L1733.33 1348.57  Z" fill="#add8e6" fill-rule="evenodd" fill-opacity="1"/>
<polyline clip-path="url(#clip942)" style="stroke:#000000; stroke-linecap:round; stroke-linejoin:round; stroke-width:4; stroke-opacity:1; fill:none" points="1733.33,1348.57 1733.25,1346.76 1733.04,1344.95 1732.68,1343.17 1732.18,1341.42 1731.54,1339.72 1730.77,1338.07 1729.87,1336.49 1728.85,1334.98 1727.71,1333.57 1726.47,1332.24 1725.12,1331.02 1723.68,1329.91 1722.15,1328.92 1720.56,1328.05 1718.89,1327.32 1717.18,1326.71 1715.42,1326.25 1713.63,1325.93 1711.82,1325.74 1710,1325.71 1708.19,1325.82 1706.39,1326.07 1704.61,1326.46 1702.87,1327 1701.18,1327.67 1699.55,1328.47 1697.99,1329.4 1696.51,1330.45 1695.11,1331.62 1693.81,1332.89 1692.62,1334.26 1691.54,1335.73 1690.58,1337.27 1689.74,1338.88 1689.04,1340.56 1688.47,1342.29 1688.04,1344.06 1687.75,1345.85 1687.61,1347.66 1687.61,1349.48 1687.75,1351.29 1688.04,1353.09 1688.47,1354.86 1689.04,1356.58 1689.74,1358.26 1690.58,1359.88 1691.54,1361.42 1692.62,1362.88 1693.81,1364.25 1695.11,1365.53 1696.51,1366.69 1697.99,1367.74 1699.55,1368.67 1701.18,1369.48 1702.87,1370.15 1704.61,1370.68 1706.39,1371.08 1708.19,1371.33 1710,1371.44 1711.82,1371.4 1713.63,1371.22 1715.42,1370.9 1717.18,1370.43 1718.89,1369.83 1720.56,1369.09 1722.15,1368.22 1723.68,1367.23 1725.12,1366.12 1726.47,1364.9 1727.71,1363.58 1728.85,1362.16 1729.87,1360.66 1730.77,1359.08 1731.54,1357.43 1732.18,1355.73 1732.68,1353.98 1733.04,1352.19 1733.25,1350.39 1733.33,1348.57 "/>
<path clip-path="url(#clip942)" d="M1151.63 908.078 L1151.56 906.261 L1151.34 904.456 L1150.99 902.673 L1150.49 900.925 L1149.85 899.222 L1149.08 897.575 L1148.18 895.994 L1147.16 894.49 L1146.02 893.071 L1144.77 891.748 L1143.43 890.527 L1141.99 889.418 L1140.46 888.427 L1138.86 887.559 L1137.2 886.822 L1135.49 886.219 L1133.73 885.754 L1131.94 885.431 L1130.13 885.25 L1128.31 885.214 L1126.5 885.322 L1124.69 885.575 L1122.92 885.969 L1121.18 886.504 L1119.49 887.174 L1117.86 887.977 L1116.3 888.907 L1114.81 889.958 L1113.42 891.124 L1112.12 892.397 L1110.93 893.769 L1109.85 895.232 L1108.89 896.775 L1108.05 898.39 L1107.35 900.067 L1106.78 901.794 L1106.35 903.561 L1106.06 905.356 L1105.91 907.169 L1105.91 908.987 L1106.06 910.8 L1106.35 912.595 L1106.78 914.362 L1107.35 916.089 L1108.05 917.766 L1108.89 919.381 L1109.85 920.925 L1110.93 922.387 L1112.12 923.759 L1113.42 925.032 L1114.81 926.198 L1116.3 927.249 L1117.86 928.179 L1119.49 928.982 L1121.18 929.653 L1122.92 930.187 L1124.69 930.581 L1126.5 930.834 L1128.31 930.942 L1130.13 930.906 L1131.94 930.725 L1133.73 930.402 L1135.49 929.937 L1137.2 929.334 L1138.86 928.597 L1140.46 927.729 L1141.99 926.738 L1143.43 925.629 L1144.77 924.408 L1146.02 923.085 L1147.16 921.667 L1148.18 920.162 L1149.08 918.581 L1149.85 916.934 L1150.49 915.231 L1150.99 913.483 L1151.34 911.7 L1151.56 909.895 L1151.63 908.078 L1151.63 908.078  Z" fill="#ffffff" fill-rule="evenodd" fill-opacity="1"/>
<polyline clip-path="url(#clip942)" style="stroke:#000000; stroke-linecap:round; stroke-linejoin:round; stroke-width:4; stroke-opacity:1; fill:none" points="1151.63,908.078 1151.56,906.261 1151.34,904.456 1150.99,902.673 1150.49,900.925 1149.85,899.222 1149.08,897.575 1148.18,895.994 1147.16,894.49 1146.02,893.071 1144.77,891.748 1143.43,890.527 1141.99,889.418 1140.46,888.427 1138.86,887.559 1137.2,886.822 1135.49,886.219 1133.73,885.754 1131.94,885.431 1130.13,885.25 1128.31,885.214 1126.5,885.322 1124.69,885.575 1122.92,885.969 1121.18,886.504 1119.49,887.174 1117.86,887.977 1116.3,888.907 1114.81,889.958 1113.42,891.124 1112.12,892.397 1110.93,893.769 1109.85,895.232 1108.89,896.775 1108.05,898.39 1107.35,900.067 1106.78,901.794 1106.35,903.561 1106.06,905.356 1105.91,907.169 1105.91,908.987 1106.06,910.8 1106.35,912.595 1106.78,914.362 1107.35,916.089 1108.05,917.766 1108.89,919.381 1109.85,920.925 1110.93,922.387 1112.12,923.759 1113.42,925.032 1114.81,926.198 1116.3,927.249 1117.86,928.179 1119.49,928.982 1121.18,929.653 1122.92,930.187 1124.69,930.581 1126.5,930.834 1128.31,930.942 1130.13,930.906 1131.94,930.725 1133.73,930.402 1135.49,929.937 1137.2,929.334 1138.86,928.597 1140.46,927.729 1141.99,926.738 1143.43,925.629 1144.77,924.408 1146.02,923.085 1147.16,921.667 1148.18,920.162 1149.08,918.581 1149.85,916.934 1150.49,915.231 1150.99,913.483 1151.34,911.7 1151.56,909.895 1151.63,908.078 "/>
<path clip-path="url(#clip942)" d="M1274.9 611.225 L1274.73 606.849 L1274.21 602.502 L1273.34 598.209 L1272.14 593.998 L1270.61 589.897 L1268.75 585.93 L1266.59 582.124 L1264.13 578.501 L1261.39 575.085 L1258.38 571.898 L1255.14 568.959 L1251.67 566.287 L1248 563.9 L1244.15 561.812 L1240.14 560.036 L1236.01 558.584 L1231.78 557.464 L1227.47 556.685 L1223.11 556.25 L1218.74 556.163 L1214.36 556.424 L1210.03 557.032 L1205.75 557.982 L1201.57 559.269 L1197.5 560.884 L1193.57 562.818 L1189.81 565.057 L1186.23 567.589 L1182.87 570.396 L1179.74 573.461 L1176.87 576.766 L1174.27 580.288 L1171.95 584.005 L1169.94 587.895 L1168.25 591.932 L1166.88 596.092 L1165.84 600.347 L1165.15 604.67 L1164.8 609.035 L1164.8 613.414 L1165.15 617.78 L1165.84 622.103 L1166.88 626.358 L1168.25 630.517 L1169.94 634.555 L1171.95 638.445 L1174.27 642.162 L1176.87 645.684 L1179.74 648.989 L1182.87 652.054 L1186.23 654.861 L1189.81 657.393 L1193.57 659.632 L1197.5 661.566 L1201.57 663.181 L1205.75 664.468 L1210.03 665.418 L1214.36 666.026 L1218.74 666.287 L1223.11 666.2 L1227.47 665.765 L1231.78 664.986 L1236.01 663.866 L1240.14 662.414 L1244.15 660.638 L1248 658.55 L1251.67 656.163 L1255.14 653.491 L1258.38 650.552 L1261.39 647.365 L1264.13 643.949 L1266.59 640.326 L1268.75 636.52 L1270.61 632.553 L1272.14 628.451 L1273.34 624.241 L1274.21 619.948 L1274.73 615.6 L1274.9 611.225 L1274.9 611.225  Z" fill="#ff7f50" fill-rule="evenodd" fill-opacity="1"/>
<polyline clip-path="url(#clip942)" style="stroke:#000000; stroke-linecap:round; stroke-linejoin:round; stroke-width:4; stroke-opacity:1; fill:none" points="1274.9,611.225 1274.73,606.849 1274.21,602.502 1273.34,598.209 1272.14,593.998 1270.61,589.897 1268.75,585.93 1266.59,582.124 1264.13,578.501 1261.39,575.085 1258.38,571.898 1255.14,568.959 1251.67,566.287 1248,563.9 1244.15,561.812 1240.14,560.036 1236.01,558.584 1231.78,557.464 1227.47,556.685 1223.11,556.25 1218.74,556.163 1214.36,556.424 1210.03,557.032 1205.75,557.982 1201.57,559.269 1197.5,560.884 1193.57,562.818 1189.81,565.057 1186.23,567.589 1182.87,570.396 1179.74,573.461 1176.87,576.766 1174.27,580.288 1171.95,584.005 1169.94,587.895 1168.25,591.932 1166.88,596.092 1165.84,600.347 1165.15,604.67 1164.8,609.035 1164.8,613.414 1165.15,617.78 1165.84,622.103 1166.88,626.358 1168.25,630.517 1169.94,634.555 1171.95,638.445 1174.27,642.162 1176.87,645.684 1179.74,648.989 1182.87,652.054 1186.23,654.861 1189.81,657.393 1193.57,659.632 1197.5,661.566 1201.57,663.181 1205.75,664.468 1210.03,665.418 1214.36,666.026 1218.74,666.287 1223.11,666.2 1227.47,665.765 1231.78,664.986 1236.01,663.866 1240.14,662.414 1244.15,660.638 1248,658.55 1251.67,656.163 1255.14,653.491 1258.38,650.552 1261.39,647.365 1264.13,643.949 1266.59,640.326 1268.75,636.52 1270.61,632.553 1272.14,628.451 1273.34,624.241 1274.21,619.948 1274.73,615.6 1274.9,611.225 "/>
<path clip-path="url(#clip942)" d="M1491.15 1129.32 L1490.98 1124.95 L1490.46 1120.6 L1489.59 1116.31 L1488.39 1112.1 L1486.85 1107.99 L1485 1104.03 L1482.83 1100.22 L1480.37 1096.6 L1477.63 1093.18 L1474.63 1089.99 L1471.38 1087.06 L1467.91 1084.38 L1464.24 1082 L1460.4 1079.91 L1456.39 1078.13 L1452.26 1076.68 L1448.03 1075.56 L1443.72 1074.78 L1439.36 1074.35 L1434.98 1074.26 L1430.61 1074.52 L1426.28 1075.13 L1422 1076.08 L1417.81 1077.37 L1413.74 1078.98 L1409.82 1080.91 L1406.05 1083.15 L1402.48 1085.69 L1399.12 1088.49 L1395.99 1091.56 L1393.12 1094.86 L1390.52 1098.38 L1388.2 1102.1 L1386.19 1105.99 L1384.5 1110.03 L1383.13 1114.19 L1382.09 1118.44 L1381.4 1122.77 L1381.05 1127.13 L1381.05 1131.51 L1381.4 1135.88 L1382.09 1140.2 L1383.13 1144.46 L1384.5 1148.61 L1386.19 1152.65 L1388.2 1156.54 L1390.52 1160.26 L1393.12 1163.78 L1395.99 1167.09 L1399.12 1170.15 L1402.48 1172.96 L1406.05 1175.49 L1409.82 1177.73 L1413.74 1179.66 L1417.81 1181.28 L1422 1182.56 L1426.28 1183.51 L1430.61 1184.12 L1434.98 1184.38 L1439.36 1184.3 L1443.72 1183.86 L1448.03 1183.08 L1452.26 1181.96 L1456.39 1180.51 L1460.4 1178.74 L1464.24 1176.65 L1467.91 1174.26 L1471.38 1171.59 L1474.63 1168.65 L1477.63 1165.46 L1480.37 1162.05 L1482.83 1158.42 L1485 1154.62 L1486.85 1150.65 L1488.39 1146.55 L1489.59 1142.34 L1490.46 1138.05 L1490.98 1133.7 L1491.15 1129.32 L1491.15 1129.32  Z" fill="#ff7f50" fill-rule="evenodd" fill-opacity="1"/>
<polyline clip-path="url(#clip942)" style="stroke:#000000; stroke-linecap:round; stroke-linejoin:round; stroke-width:4; stroke-opacity:1; fill:none" points="1491.15,1129.32 1490.98,1124.95 1490.46,1120.6 1489.59,1116.31 1488.39,1112.1 1486.85,1107.99 1485,1104.03 1482.83,1100.22 1480.37,1096.6 1477.63,1093.18 1474.63,1089.99 1471.38,1087.06 1467.91,1084.38 1464.24,1082 1460.4,1079.91 1456.39,1078.13 1452.26,1076.68 1448.03,1075.56 1443.72,1074.78 1439.36,1074.35 1434.98,1074.26 1430.61,1074.52 1426.28,1075.13 1422,1076.08 1417.81,1077.37 1413.74,1078.98 1409.82,1080.91 1406.05,1083.15 1402.48,1085.69 1399.12,1088.49 1395.99,1091.56 1393.12,1094.86 1390.52,1098.38 1388.2,1102.1 1386.19,1105.99 1384.5,1110.03 1383.13,1114.19 1382.09,1118.44 1381.4,1122.77 1381.05,1127.13 1381.05,1131.51 1381.4,1135.88 1382.09,1140.2 1383.13,1144.46 1384.5,1148.61 1386.19,1152.65 1388.2,1156.54 1390.52,1160.26 1393.12,1163.78 1395.99,1167.09 1399.12,1170.15 1402.48,1172.96 1406.05,1175.49 1409.82,1177.73 1413.74,1179.66 1417.81,1181.28 1422,1182.56 1426.28,1183.51 1430.61,1184.12 1434.98,1184.38 1439.36,1184.3 1443.72,1183.86 1448.03,1183.08 1452.26,1181.96 1456.39,1180.51 1460.4,1178.74 1464.24,1176.65 1467.91,1174.26 1471.38,1171.59 1474.63,1168.65 1477.63,1165.46 1480.37,1162.05 1482.83,1158.42 1485,1154.62 1486.85,1150.65 1488.39,1146.55 1489.59,1142.34 1490.46,1138.05 1490.98,1133.7 1491.15,1129.32 "/>
<circle clip-path="url(#clip942)" style="fill:#ff7f50; stroke:none; fill-opacity:0" cx="1284.34" cy="327.656" r="2"/>
<circle clip-path="url(#clip942)" style="fill:#ff7f50; stroke:none; fill-opacity:0" cx="689.542" cy="991.439" r="2"/>
<circle clip-path="url(#clip942)" style="fill:#ff7f50; stroke:none; fill-opacity:0" cx="1710.46" cy="1348.57" r="2"/>
<circle clip-path="url(#clip942)" style="fill:#ff7f50; stroke:none; fill-opacity:0" cx="1128.77" cy="908.078" r="2"/>
<circle clip-path="url(#clip942)" style="fill:#ff7f50; stroke:none; fill-opacity:0" cx="1219.83" cy="611.225" r="2"/>
<circle clip-path="url(#clip942)" style="fill:#ff7f50; stroke:none; fill-opacity:0" cx="1436.08" cy="1129.32" r="2"/>
<path clip-path="url(#clip940)" d="M1284.34 316.566 L1278.79 331.615 L1289.91 331.615 L1284.34 316.566 M1282.03 312.536 L1286.67 312.536 L1298.2 342.776 L1293.94 342.776 L1291.19 335.018 L1277.56 335.018 L1274.8 342.776 L1270.49 342.776 L1282.03 312.536 Z" fill="#000000" fill-rule="nonzero" fill-opacity="1" /><path clip-path="url(#clip940)" d="M682.908 992.118 L682.908 1003.2 L689.471 1003.2 Q692.772 1003.2 694.352 1001.84 Q695.952 1000.46 695.952 997.647 Q695.952 994.812 694.352 993.475 Q692.772 992.118 689.471 992.118 L682.908 992.118 M682.908 979.682 L682.908 988.796 L688.964 988.796 Q691.962 988.796 693.42 987.682 Q694.899 986.548 694.899 984.239 Q694.899 981.95 693.42 980.816 Q691.962 979.682 688.964 979.682 L682.908 979.682 M678.817 976.319 L689.268 976.319 Q693.947 976.319 696.479 978.264 Q699.01 980.208 699.01 983.793 Q699.01 986.568 697.714 988.209 Q696.418 989.849 693.906 990.255 Q696.924 990.903 698.585 992.969 Q700.266 995.014 700.266 998.093 Q700.266 1002.14 697.512 1004.35 Q694.757 1006.56 689.673 1006.56 L678.817 1006.56 L678.817 976.319 Z" fill="#000000" fill-rule="nonzero" fill-opacity="1" /><path clip-path="url(#clip940)" d="M1722.65 1335.78 L1722.65 1340.1 Q1720.59 1338.17 1718.24 1337.22 Q1715.91 1336.27 1713.27 1336.27 Q1708.09 1336.27 1705.33 1339.45 Q1702.58 1342.61 1702.58 1348.6 Q1702.58 1354.58 1705.33 1357.76 Q1708.09 1360.92 1713.27 1360.92 Q1715.91 1360.92 1718.24 1359.97 Q1720.59 1359.01 1722.65 1357.09 L1722.65 1361.36 Q1720.5 1362.82 1718.09 1363.55 Q1715.7 1364.28 1713.03 1364.28 Q1706.16 1364.28 1702.21 1360.09 Q1698.27 1355.87 1698.27 1348.6 Q1698.27 1341.31 1702.21 1337.12 Q1706.16 1332.91 1713.03 1332.91 Q1715.74 1332.91 1718.13 1333.63 Q1720.55 1334.34 1722.65 1335.78 Z" fill="#000000" fill-rule="nonzero" fill-opacity="1" /><path clip-path="url(#clip940)" d="M1128.77 895.652 Q1125.61 895.652 1124.01 898.771 Q1122.43 901.87 1122.43 908.108 Q1122.43 914.327 1124.01 917.446 Q1125.61 920.545 1128.77 920.545 Q1131.95 920.545 1133.52 917.446 Q1135.13 914.327 1135.13 908.108 Q1135.13 901.87 1133.52 898.771 Q1131.95 895.652 1128.77 895.652 M1128.77 892.411 Q1133.85 892.411 1136.52 896.442 Q1139.22 900.452 1139.22 908.108 Q1139.22 915.744 1136.52 919.775 Q1133.85 923.785 1128.77 923.785 Q1123.68 923.785 1120.99 919.775 Q1118.31 915.744 1118.31 908.108 Q1118.31 900.452 1120.99 896.442 Q1123.68 892.411 1128.77 892.411 Z" fill="#000000" fill-rule="nonzero" fill-opacity="1" /><path clip-path="url(#clip940)" d="M1174.79 596.105 L1180.89 596.105 L1188.61 616.684 L1196.37 596.105 L1202.46 596.105 L1202.46 626.345 L1198.47 626.345 L1198.47 599.791 L1190.67 620.532 L1186.56 620.532 L1178.76 599.791 L1178.76 626.345 L1174.79 626.345 L1174.79 596.105 Z" fill="#000000" fill-rule="nonzero" fill-opacity="1" /><path clip-path="url(#clip940)" d="M1210.58 596.105 L1216.68 596.105 L1224.4 616.684 L1232.16 596.105 L1238.25 596.105 L1238.25 626.345 L1234.26 626.345 L1234.26 599.791 L1226.46 620.532 L1222.35 620.532 L1214.55 599.791 L1214.55 626.345 L1210.58 626.345 L1210.58 596.105 Z" fill="#000000" fill-rule="nonzero" fill-opacity="1" /><path clip-path="url(#clip940)" d="M1247.45 622.902 L1254.13 622.902 L1254.13 599.832 L1246.86 601.29 L1246.86 597.563 L1254.09 596.105 L1258.18 596.105 L1258.18 622.902 L1264.87 622.902 L1264.87 626.345 L1247.45 626.345 L1247.45 622.902 Z" fill="#000000" fill-rule="nonzero" fill-opacity="1" /><path clip-path="url(#clip940)" d="M1391.2 1114.2 L1397.3 1114.2 L1405.02 1134.78 L1412.78 1114.2 L1418.87 1114.2 L1418.87 1144.44 L1414.88 1144.44 L1414.88 1117.89 L1407.08 1138.63 L1402.97 1138.63 L1395.17 1117.89 L1395.17 1144.44 L1391.2 1144.44 L1391.2 1114.2 Z" fill="#000000" fill-rule="nonzero" fill-opacity="1" /><path clip-path="url(#clip940)" d="M1426.99 1114.2 L1433.09 1114.2 L1440.81 1134.78 L1448.56 1114.2 L1454.66 1114.2 L1454.66 1144.44 L1450.67 1144.44 L1450.67 1117.89 L1442.87 1138.63 L1438.76 1138.63 L1430.96 1117.89 L1430.96 1144.44 L1426.99 1144.44 L1426.99 1114.2 Z" fill="#000000" fill-rule="nonzero" fill-opacity="1" /><path clip-path="url(#clip940)" d="M1466.67 1141 L1480.95 1141 L1480.95 1144.44 L1461.75 1144.44 L1461.75 1141 Q1464.08 1138.59 1468.09 1134.54 Q1472.12 1130.47 1473.15 1129.29 Q1475.12 1127.08 1475.89 1125.56 Q1476.68 1124.03 1476.68 1122.55 Q1476.68 1120.14 1474.98 1118.62 Q1473.3 1117.1 1470.58 1117.1 Q1468.66 1117.1 1466.51 1117.77 Q1464.38 1118.43 1461.95 1119.79 L1461.95 1115.66 Q1464.42 1114.67 1466.57 1114.16 Q1468.72 1113.65 1470.5 1113.65 Q1475.2 1113.65 1477.99 1116 Q1480.79 1118.35 1480.79 1122.28 Q1480.79 1124.15 1480.08 1125.83 Q1479.39 1127.49 1477.55 1129.76 Q1477.04 1130.34 1474.33 1133.16 Q1471.61 1135.96 1466.67 1141 Z" fill="#000000" fill-rule="nonzero" fill-opacity="1" /></svg>
