<?xml version="1.0" encoding="utf-8"?>
<svg xmlns="http://www.w3.org/2000/svg" xmlns:xlink="http://www.w3.org/1999/xlink" width="600" height="400" viewBox="0 0 2400 1600">
<defs>
  <clipPath id="clip400">
    <rect x="0" y="0" width="2400" height="1600"/>
  </clipPath>
</defs>
<path clip-path="url(#clip400)" d="M0 1600 L2400 1600 L2400 0 L0 0  Z" fill="#ffffff" fill-rule="evenodd" fill-opacity="1"/>
<defs>
  <clipPath id="clip401">
    <rect x="480" y="0" width="1681" height="1600"/>
  </clipPath>
</defs>
<path clip-path="url(#clip400)" d="M186.274 1423.18 L2352.76 1423.18 L2352.76 47.2441 L186.274 47.2441  Z" fill="#ffffff" fill-rule="evenodd" fill-opacity="1"/>
<defs>
  <clipPath id="clip402">
    <rect x="186" y="47" width="2167" height="1377"/>
  </clipPath>
</defs>
<polyline clip-path="url(#clip402)" style="stroke:#000000; stroke-linecap:round; stroke-linejoin:round; stroke-width:2; stroke-opacity:0.1; fill:none" points="186.274,1423.18 186.274,47.2441 "/>
<polyline clip-path="url(#clip402)" style="stroke:#000000; stroke-linecap:round; stroke-linejoin:round; stroke-width:2; stroke-opacity:0.1; fill:none" points="727.894,1423.18 727.894,47.2441 "/>
<polyline clip-path="url(#clip402)" style="stroke:#000000; stroke-linecap:round; stroke-linejoin:round; stroke-width:2; stroke-opacity:0.1; fill:none" points="1269.51,1423.18 1269.51,47.2441 "/>
<polyline clip-path="url(#clip402)" style="stroke:#000000; stroke-linecap:round; stroke-linejoin:round; stroke-width:2; stroke-opacity:0.1; fill:none" points="1811.14,1423.18 1811.14,47.2441 "/>
<polyline clip-path="url(#clip402)" style="stroke:#000000; stroke-linecap:round; stroke-linejoin:round; stroke-width:2; stroke-opacity:0.1; fill:none" points="2352.76,1423.18 2352.76,47.2441 "/>
<polyline clip-path="url(#clip402)" style="stroke:#000000; stroke-linecap:round; stroke-linejoin:round; stroke-width:2; stroke-opacity:0.1; fill:none" points="186.274,1384.24 2352.76,1384.24 "/>
<polyline clip-path="url(#clip402)" style="stroke:#000000; stroke-linecap:round; stroke-linejoin:round; stroke-width:2; stroke-opacity:0.1; fill:none" points="186.274,1059.73 2352.76,1059.73 "/>
<polyline clip-path="url(#clip402)" style="stroke:#000000; stroke-linecap:round; stroke-linejoin:round; stroke-width:2; stroke-opacity:0.1; fill:none" points="186.274,735.212 2352.76,735.212 "/>
<polyline clip-path="url(#clip402)" style="stroke:#000000; stroke-linecap:round; stroke-linejoin:round; stroke-width:2; stroke-opacity:0.1; fill:none" points="186.274,410.699 2352.76,410.699 "/>
<polyline clip-path="url(#clip402)" style="stroke:#000000; stroke-linecap:round; stroke-linejoin:round; stroke-width:2; stroke-opacity:0.1; fill:none" points="186.274,86.1857 2352.76,86.1857 "/>
<polyline clip-path="url(#clip400)" style="stroke:#000000; stroke-linecap:round; stroke-linejoin:round; stroke-width:4; stroke-opacity:1; fill:none" points="186.274,1423.18 2352.76,1423.18 "/>
<polyline clip-path="url(#clip400)" style="stroke:#000000; stroke-linecap:round; stroke-linejoin:round; stroke-width:4; stroke-opacity:1; fill:none" points="186.274,1423.18 186.274,1404.28 "/>
<polyline clip-path="url(#clip400)" style="stroke:#000000; stroke-linecap:round; stroke-linejoin:round; stroke-width:4; stroke-opacity:1; fill:none" points="727.894,1423.18 727.894,1404.28 "/>
<polyline clip-path="url(#clip400)" style="stroke:#000000; stroke-linecap:round; stroke-linejoin:round; stroke-width:4; stroke-opacity:1; fill:none" points="1269.51,1423.18 1269.51,1404.28 "/>
<polyline clip-path="url(#clip400)" style="stroke:#000000; stroke-linecap:round; stroke-linejoin:round; stroke-width:4; stroke-opacity:1; fill:none" points="1811.14,1423.18 1811.14,1404.28 "/>
<polyline clip-path="url(#clip400)" style="stroke:#000000; stroke-linecap:round; stroke-linejoin:round; stroke-width:4; stroke-opacity:1; fill:none" points="2352.76,1423.18 2352.76,1404.28 "/>
<path clip-path="url(#clip400)" d="M163.658 1454.1 Q160.047 1454.1 158.219 1457.66 Q156.413 1461.2 156.413 1468.33 Q156.413 1475.44 158.219 1479.01 Q160.047 1482.55 163.658 1482.55 Q167.293 1482.55 169.098 1479.01 Q170.927 1475.44 170.927 1468.33 Q170.927 1461.2 169.098 1457.66 Q167.293 1454.1 163.658 1454.1 M163.658 1450.39 Q169.469 1450.39 172.524 1455 Q175.603 1459.58 175.603 1468.33 Q175.603 1477.06 172.524 1481.67 Q169.469 1486.25 163.658 1486.25 Q157.848 1486.25 154.77 1481.67 Q151.714 1477.06 151.714 1468.33 Q151.714 1459.58 154.77 1455 Q157.848 1450.39 163.658 1450.39 Z" fill="#000000" fill-rule="nonzero" fill-opacity="1" /><path clip-path="url(#clip400)" d="M183.82 1479.7 L188.705 1479.7 L188.705 1485.58 L183.82 1485.58 L183.82 1479.7 Z" fill="#000000" fill-rule="nonzero" fill-opacity="1" /><path clip-path="url(#clip400)" d="M208.89 1454.1 Q205.279 1454.1 203.45 1457.66 Q201.644 1461.2 201.644 1468.33 Q201.644 1475.44 203.45 1479.01 Q205.279 1482.55 208.89 1482.55 Q212.524 1482.55 214.329 1479.01 Q216.158 1475.44 216.158 1468.33 Q216.158 1461.2 214.329 1457.66 Q212.524 1454.1 208.89 1454.1 M208.89 1450.39 Q214.7 1450.39 217.755 1455 Q220.834 1459.58 220.834 1468.33 Q220.834 1477.06 217.755 1481.67 Q214.7 1486.25 208.89 1486.25 Q203.079 1486.25 200.001 1481.67 Q196.945 1477.06 196.945 1468.33 Q196.945 1459.58 200.001 1455 Q203.079 1450.39 208.89 1450.39 Z" fill="#000000" fill-rule="nonzero" fill-opacity="1" /><path clip-path="url(#clip400)" d="M705.777 1454.1 Q702.165 1454.1 700.337 1457.66 Q698.531 1461.2 698.531 1468.33 Q698.531 1475.44 700.337 1479.01 Q702.165 1482.55 705.777 1482.55 Q709.411 1482.55 711.216 1479.01 Q713.045 1475.44 713.045 1468.33 Q713.045 1461.2 711.216 1457.66 Q709.411 1454.1 705.777 1454.1 M705.777 1450.39 Q711.587 1450.39 714.642 1455 Q717.721 1459.58 717.721 1468.33 Q717.721 1477.06 714.642 1481.67 Q711.587 1486.25 705.777 1486.25 Q699.966 1486.25 696.888 1481.67 Q693.832 1477.06 693.832 1468.33 Q693.832 1459.58 696.888 1455 Q699.966 1450.39 705.777 1450.39 Z" fill="#000000" fill-rule="nonzero" fill-opacity="1" /><path clip-path="url(#clip400)" d="M725.938 1479.7 L730.823 1479.7 L730.823 1485.58 L725.938 1485.58 L725.938 1479.7 Z" fill="#000000" fill-rule="nonzero" fill-opacity="1" /><path clip-path="url(#clip400)" d="M741.054 1451.02 L759.411 1451.02 L759.411 1454.96 L745.337 1454.96 L745.337 1463.43 Q746.355 1463.08 747.374 1462.92 Q748.392 1462.73 749.411 1462.73 Q755.198 1462.73 758.577 1465.9 Q761.957 1469.08 761.957 1474.49 Q761.957 1480.07 758.485 1483.17 Q755.012 1486.25 748.693 1486.25 Q746.517 1486.25 744.249 1485.88 Q742.003 1485.51 739.596 1484.77 L739.596 1480.07 Q741.679 1481.2 743.901 1481.76 Q746.124 1482.32 748.6 1482.32 Q752.605 1482.32 754.943 1480.21 Q757.281 1478.1 757.281 1474.49 Q757.281 1470.88 754.943 1468.77 Q752.605 1466.67 748.6 1466.67 Q746.725 1466.67 744.85 1467.08 Q742.999 1467.5 741.054 1468.38 L741.054 1451.02 Z" fill="#000000" fill-rule="nonzero" fill-opacity="1" /><path clip-path="url(#clip400)" d="M1236.67 1481.64 L1244.31 1481.64 L1244.31 1455.28 L1236 1456.95 L1236 1452.69 L1244.26 1451.02 L1248.94 1451.02 L1248.94 1481.64 L1256.58 1481.64 L1256.58 1485.58 L1236.67 1485.58 L1236.67 1481.64 Z" fill="#000000" fill-rule="nonzero" fill-opacity="1" /><path clip-path="url(#clip400)" d="M1266.02 1479.7 L1270.9 1479.7 L1270.9 1485.58 L1266.02 1485.58 L1266.02 1479.7 Z" fill="#000000" fill-rule="nonzero" fill-opacity="1" /><path clip-path="url(#clip400)" d="M1291.09 1454.1 Q1287.48 1454.1 1285.65 1457.66 Q1283.84 1461.2 1283.84 1468.33 Q1283.84 1475.44 1285.65 1479.01 Q1287.48 1482.55 1291.09 1482.55 Q1294.72 1482.55 1296.53 1479.01 Q1298.36 1475.44 1298.36 1468.33 Q1298.36 1461.2 1296.53 1457.66 Q1294.72 1454.1 1291.09 1454.1 M1291.09 1450.39 Q1296.9 1450.39 1299.95 1455 Q1303.03 1459.58 1303.03 1468.33 Q1303.03 1477.06 1299.95 1481.67 Q1296.9 1486.25 1291.09 1486.25 Q1285.28 1486.25 1282.2 1481.67 Q1279.14 1477.06 1279.14 1468.33 Q1279.14 1459.58 1282.2 1455 Q1285.28 1450.39 1291.09 1450.39 Z" fill="#000000" fill-rule="nonzero" fill-opacity="1" /><path clip-path="url(#clip400)" d="M1778.79 1481.64 L1786.42 1481.64 L1786.42 1455.28 L1778.11 1456.95 L1778.11 1452.69 L1786.38 1451.02 L1791.05 1451.02 L1791.05 1481.64 L1798.69 1481.64 L1798.69 1485.58 L1778.79 1485.58 L1778.79 1481.64 Z" fill="#000000" fill-rule="nonzero" fill-opacity="1" /><path clip-path="url(#clip400)" d="M1808.14 1479.7 L1813.02 1479.7 L1813.02 1485.58 L1808.14 1485.58 L1808.14 1479.7 Z" fill="#000000" fill-rule="nonzero" fill-opacity="1" /><path clip-path="url(#clip400)" d="M1823.25 1451.02 L1841.61 1451.02 L1841.61 1454.96 L1827.54 1454.96 L1827.54 1463.43 Q1828.55 1463.08 1829.57 1462.92 Q1830.59 1462.73 1831.61 1462.73 Q1837.4 1462.73 1840.78 1465.9 Q1844.16 1469.08 1844.16 1474.49 Q1844.16 1480.07 1840.68 1483.17 Q1837.21 1486.25 1830.89 1486.25 Q1828.72 1486.25 1826.45 1485.88 Q1824.2 1485.51 1821.8 1484.77 L1821.8 1480.07 Q1823.88 1481.2 1826.1 1481.76 Q1828.32 1482.32 1830.8 1482.32 Q1834.8 1482.32 1837.14 1480.21 Q1839.48 1478.1 1839.48 1474.49 Q1839.48 1470.88 1837.14 1468.77 Q1834.8 1466.67 1830.8 1466.67 Q1828.92 1466.67 1827.05 1467.08 Q1825.2 1467.5 1823.25 1468.38 L1823.25 1451.02 Z" fill="#000000" fill-rule="nonzero" fill-opacity="1" /><path clip-path="url(#clip400)" d="M2323.99 1481.64 L2340.31 1481.64 L2340.31 1485.58 L2318.37 1485.58 L2318.37 1481.64 Q2321.03 1478.89 2325.61 1474.26 Q2330.22 1469.61 2331.4 1468.27 Q2333.65 1465.74 2334.53 1464.01 Q2335.43 1462.25 2335.43 1460.56 Q2335.43 1457.8 2333.49 1456.07 Q2331.56 1454.33 2328.46 1454.33 Q2326.26 1454.33 2323.81 1455.09 Q2321.38 1455.86 2318.6 1457.41 L2318.6 1452.69 Q2321.43 1451.55 2323.88 1450.97 Q2326.33 1450.39 2328.37 1450.39 Q2333.74 1450.39 2336.93 1453.08 Q2340.13 1455.77 2340.13 1460.26 Q2340.13 1462.39 2339.32 1464.31 Q2338.53 1466.2 2336.42 1468.8 Q2335.85 1469.47 2332.74 1472.69 Q2329.64 1475.88 2323.99 1481.64 Z" fill="#000000" fill-rule="nonzero" fill-opacity="1" /><path clip-path="url(#clip400)" d="M2350.13 1479.7 L2355.01 1479.7 L2355.01 1485.58 L2350.13 1485.58 L2350.13 1479.7 Z" fill="#000000" fill-rule="nonzero" fill-opacity="1" /><path clip-path="url(#clip400)" d="M2375.2 1454.1 Q2371.59 1454.1 2369.76 1457.66 Q2367.95 1461.2 2367.95 1468.33 Q2367.95 1475.44 2369.76 1479.01 Q2371.59 1482.55 2375.2 1482.55 Q2378.83 1482.55 2380.64 1479.01 Q2382.47 1475.44 2382.47 1468.33 Q2382.47 1461.2 2380.64 1457.66 Q2378.83 1454.1 2375.2 1454.1 M2375.2 1450.39 Q2381.01 1450.39 2384.06 1455 Q2387.14 1459.58 2387.14 1468.33 Q2387.14 1477.06 2384.06 1481.67 Q2381.01 1486.25 2375.2 1486.25 Q2369.39 1486.25 2366.31 1481.67 Q2363.25 1477.06 2363.25 1468.33 Q2363.25 1459.58 2366.31 1455 Q2369.39 1450.39 2375.2 1450.39 Z" fill="#000000" fill-rule="nonzero" fill-opacity="1" /><path clip-path="url(#clip400)" d="M1268.58 1522.27 L1268.58 1532.4 L1280.64 1532.4 L1280.64 1536.95 L1268.58 1536.95 L1268.58 1556.3 Q1268.58 1560.66 1269.75 1561.9 Q1270.96 1563.14 1274.62 1563.14 L1280.64 1563.14 L1280.64 1568.04 L1274.62 1568.04 Q1267.84 1568.04 1265.27 1565.53 Q1262.69 1562.98 1262.69 1556.3 L1262.69 1536.95 L1258.39 1536.95 L1258.39 1532.4 L1262.69 1532.4 L1262.69 1522.27 L1268.58 1522.27 Z" fill="#000000" fill-rule="nonzero" fill-opacity="1" /><polyline clip-path="url(#clip400)" style="stroke:#000000; stroke-linecap:round; stroke-linejoin:round; stroke-width:4; stroke-opacity:1; fill:none" points="186.274,1423.18 186.274,47.2441 "/>
<polyline clip-path="url(#clip400)" style="stroke:#000000; stroke-linecap:round; stroke-linejoin:round; stroke-width:4; stroke-opacity:1; fill:none" points="186.274,1384.24 205.172,1384.24 "/>
<polyline clip-path="url(#clip400)" style="stroke:#000000; stroke-linecap:round; stroke-linejoin:round; stroke-width:4; stroke-opacity:1; fill:none" points="186.274,1059.73 205.172,1059.73 "/>
<polyline clip-path="url(#clip400)" style="stroke:#000000; stroke-linecap:round; stroke-linejoin:round; stroke-width:4; stroke-opacity:1; fill:none" points="186.274,735.212 205.172,735.212 "/>
<polyline clip-path="url(#clip400)" style="stroke:#000000; stroke-linecap:round; stroke-linejoin:round; stroke-width:4; stroke-opacity:1; fill:none" points="186.274,410.699 205.172,410.699 "/>
<polyline clip-path="url(#clip400)" style="stroke:#000000; stroke-linecap:round; stroke-linejoin:round; stroke-width:4; stroke-opacity:1; fill:none" points="186.274,86.1857 205.172,86.1857 "/>
<path clip-path="url(#clip400)" d="M62.9365 1370.04 Q59.3254 1370.04 57.4967 1373.6 Q55.6912 1377.14 55.6912 1384.27 Q55.6912 1391.38 57.4967 1394.94 Q59.3254 1398.49 62.9365 1398.49 Q66.5707 1398.49 68.3763 1394.94 Q70.205 1391.38 70.205 1384.27 Q70.205 1377.14 68.3763 1373.6 Q66.5707 1370.04 62.9365 1370.04 M62.9365 1366.33 Q68.7467 1366.33 71.8022 1370.94 Q74.8809 1375.52 74.8809 1384.27 Q74.8809 1393 71.8022 1397.61 Q68.7467 1402.19 62.9365 1402.19 Q57.1264 1402.19 54.0477 1397.61 Q50.9921 1393 50.9921 1384.27 Q50.9921 1375.52 54.0477 1370.94 Q57.1264 1366.33 62.9365 1366.33 Z" fill="#000000" fill-rule="nonzero" fill-opacity="1" /><path clip-path="url(#clip400)" d="M83.0984 1395.64 L87.9827 1395.64 L87.9827 1401.52 L83.0984 1401.52 L83.0984 1395.64 Z" fill="#000000" fill-rule="nonzero" fill-opacity="1" /><path clip-path="url(#clip400)" d="M108.168 1370.04 Q104.557 1370.04 102.728 1373.6 Q100.922 1377.14 100.922 1384.27 Q100.922 1391.38 102.728 1394.94 Q104.557 1398.49 108.168 1398.49 Q111.802 1398.49 113.608 1394.94 Q115.436 1391.38 115.436 1384.27 Q115.436 1377.14 113.608 1373.6 Q111.802 1370.04 108.168 1370.04 M108.168 1366.33 Q113.978 1366.33 117.033 1370.94 Q120.112 1375.52 120.112 1384.27 Q120.112 1393 117.033 1397.61 Q113.978 1402.19 108.168 1402.19 Q102.358 1402.19 99.2789 1397.61 Q96.2234 1393 96.2234 1384.27 Q96.2234 1375.52 99.2789 1370.94 Q102.358 1366.33 108.168 1366.33 Z" fill="#000000" fill-rule="nonzero" fill-opacity="1" /><path clip-path="url(#clip400)" d="M138.33 1370.04 Q134.719 1370.04 132.89 1373.6 Q131.084 1377.14 131.084 1384.27 Q131.084 1391.38 132.89 1394.94 Q134.719 1398.49 138.33 1398.49 Q141.964 1398.49 143.769 1394.94 Q145.598 1391.38 145.598 1384.27 Q145.598 1377.14 143.769 1373.6 Q141.964 1370.04 138.33 1370.04 M138.33 1366.33 Q144.14 1366.33 147.195 1370.94 Q150.274 1375.52 150.274 1384.27 Q150.274 1393 147.195 1397.61 Q144.14 1402.19 138.33 1402.19 Q132.519 1402.19 129.441 1397.61 Q126.385 1393 126.385 1384.27 Q126.385 1375.52 129.441 1370.94 Q132.519 1366.33 138.33 1366.33 Z" fill="#000000" fill-rule="nonzero" fill-opacity="1" /><path clip-path="url(#clip400)" d="M63.9319 1045.52 Q60.3208 1045.52 58.4921 1049.09 Q56.6865 1052.63 56.6865 1059.76 Q56.6865 1066.87 58.4921 1070.43 Q60.3208 1073.97 63.9319 1073.97 Q67.5661 1073.97 69.3717 1070.43 Q71.2004 1066.87 71.2004 1059.76 Q71.2004 1052.63 69.3717 1049.09 Q67.5661 1045.52 63.9319 1045.52 M63.9319 1041.82 Q69.742 1041.82 72.7976 1046.43 Q75.8763 1051.01 75.8763 1059.76 Q75.8763 1068.49 72.7976 1073.09 Q69.742 1077.68 63.9319 1077.68 Q58.1217 1077.68 55.043 1073.09 Q51.9875 1068.49 51.9875 1059.76 Q51.9875 1051.01 55.043 1046.43 Q58.1217 1041.82 63.9319 1041.82 Z" fill="#000000" fill-rule="nonzero" fill-opacity="1" /><path clip-path="url(#clip400)" d="M84.0938 1071.13 L88.978 1071.13 L88.978 1077.01 L84.0938 1077.01 L84.0938 1071.13 Z" fill="#000000" fill-rule="nonzero" fill-opacity="1" /><path clip-path="url(#clip400)" d="M103.191 1073.07 L119.51 1073.07 L119.51 1077.01 L97.566 1077.01 L97.566 1073.07 Q100.228 1070.32 104.811 1065.69 Q109.418 1061.03 110.598 1059.69 Q112.844 1057.17 113.723 1055.43 Q114.626 1053.67 114.626 1051.98 Q114.626 1049.23 112.682 1047.49 Q110.76 1045.76 107.658 1045.76 Q105.459 1045.76 103.006 1046.52 Q100.575 1047.28 97.7974 1048.83 L97.7974 1044.11 Q100.621 1042.98 103.075 1042.4 Q105.529 1041.82 107.566 1041.82 Q112.936 1041.82 116.131 1044.51 Q119.325 1047.19 119.325 1051.68 Q119.325 1053.81 118.515 1055.73 Q117.728 1057.63 115.621 1060.22 Q115.043 1060.89 111.941 1064.11 Q108.839 1067.31 103.191 1073.07 Z" fill="#000000" fill-rule="nonzero" fill-opacity="1" /><path clip-path="url(#clip400)" d="M129.371 1042.45 L147.728 1042.45 L147.728 1046.38 L133.654 1046.38 L133.654 1054.85 Q134.672 1054.51 135.691 1054.34 Q136.709 1054.16 137.728 1054.16 Q143.515 1054.16 146.894 1057.33 Q150.274 1060.5 150.274 1065.92 Q150.274 1071.5 146.802 1074.6 Q143.33 1077.68 137.01 1077.68 Q134.834 1077.68 132.566 1077.31 Q130.32 1076.94 127.913 1076.19 L127.913 1071.5 Q129.996 1072.63 132.219 1073.19 Q134.441 1073.74 136.918 1073.74 Q140.922 1073.74 143.26 1071.63 Q145.598 1069.53 145.598 1065.92 Q145.598 1062.31 143.26 1060.2 Q140.922 1058.09 136.918 1058.09 Q135.043 1058.09 133.168 1058.51 Q131.316 1058.93 129.371 1059.81 L129.371 1042.45 Z" fill="#000000" fill-rule="nonzero" fill-opacity="1" /><path clip-path="url(#clip400)" d="M62.9365 721.011 Q59.3254 721.011 57.4967 724.575 Q55.6912 728.117 55.6912 735.247 Q55.6912 742.353 57.4967 745.918 Q59.3254 749.46 62.9365 749.46 Q66.5707 749.46 68.3763 745.918 Q70.205 742.353 70.205 735.247 Q70.205 728.117 68.3763 724.575 Q66.5707 721.011 62.9365 721.011 M62.9365 717.307 Q68.7467 717.307 71.8022 721.913 Q74.8809 726.497 74.8809 735.247 Q74.8809 743.973 71.8022 748.58 Q68.7467 753.163 62.9365 753.163 Q57.1264 753.163 54.0477 748.58 Q50.9921 743.973 50.9921 735.247 Q50.9921 726.497 54.0477 721.913 Q57.1264 717.307 62.9365 717.307 Z" fill="#000000" fill-rule="nonzero" fill-opacity="1" /><path clip-path="url(#clip400)" d="M83.0984 746.612 L87.9827 746.612 L87.9827 752.492 L83.0984 752.492 L83.0984 746.612 Z" fill="#000000" fill-rule="nonzero" fill-opacity="1" /><path clip-path="url(#clip400)" d="M98.2141 717.932 L116.57 717.932 L116.57 721.867 L102.496 721.867 L102.496 730.339 Q103.515 729.992 104.534 729.83 Q105.552 729.645 106.571 729.645 Q112.358 729.645 115.737 732.816 Q119.117 735.987 119.117 741.404 Q119.117 746.983 115.645 750.085 Q112.172 753.163 105.853 753.163 Q103.677 753.163 101.409 752.793 Q99.1632 752.423 96.7558 751.682 L96.7558 746.983 Q98.8391 748.117 101.061 748.673 Q103.284 749.228 105.76 749.228 Q109.765 749.228 112.103 747.122 Q114.441 745.015 114.441 741.404 Q114.441 737.793 112.103 735.687 Q109.765 733.58 105.76 733.58 Q103.885 733.58 102.01 733.997 Q100.159 734.413 98.2141 735.293 L98.2141 717.932 Z" fill="#000000" fill-rule="nonzero" fill-opacity="1" /><path clip-path="url(#clip400)" d="M138.33 721.011 Q134.719 721.011 132.89 724.575 Q131.084 728.117 131.084 735.247 Q131.084 742.353 132.89 745.918 Q134.719 749.46 138.33 749.46 Q141.964 749.46 143.769 745.918 Q145.598 742.353 145.598 735.247 Q145.598 728.117 143.769 724.575 Q141.964 721.011 138.33 721.011 M138.33 717.307 Q144.14 717.307 147.195 721.913 Q150.274 726.497 150.274 735.247 Q150.274 743.973 147.195 748.58 Q144.14 753.163 138.33 753.163 Q132.519 753.163 129.441 748.58 Q126.385 743.973 126.385 735.247 Q126.385 726.497 129.441 721.913 Q132.519 717.307 138.33 717.307 Z" fill="#000000" fill-rule="nonzero" fill-opacity="1" /><path clip-path="url(#clip400)" d="M63.9319 396.498 Q60.3208 396.498 58.4921 400.062 Q56.6865 403.604 56.6865 410.734 Q56.6865 417.84 58.4921 421.405 Q60.3208 424.946 63.9319 424.946 Q67.5661 424.946 69.3717 421.405 Q71.2004 417.84 71.2004 410.734 Q71.2004 403.604 69.3717 400.062 Q67.5661 396.498 63.9319 396.498 M63.9319 392.794 Q69.742 392.794 72.7976 397.4 Q75.8763 401.984 75.8763 410.734 Q75.8763 419.46 72.7976 424.067 Q69.742 428.65 63.9319 428.65 Q58.1217 428.65 55.043 424.067 Q51.9875 419.46 51.9875 410.734 Q51.9875 401.984 55.043 397.4 Q58.1217 392.794 63.9319 392.794 Z" fill="#000000" fill-rule="nonzero" fill-opacity="1" /><path clip-path="url(#clip400)" d="M84.0938 422.099 L88.978 422.099 L88.978 427.979 L84.0938 427.979 L84.0938 422.099 Z" fill="#000000" fill-rule="nonzero" fill-opacity="1" /><path clip-path="url(#clip400)" d="M97.9826 393.419 L120.205 393.419 L120.205 395.41 L107.658 427.979 L102.774 427.979 L114.58 397.354 L97.9826 397.354 L97.9826 393.419 Z" fill="#000000" fill-rule="nonzero" fill-opacity="1" /><path clip-path="url(#clip400)" d="M129.371 393.419 L147.728 393.419 L147.728 397.354 L133.654 397.354 L133.654 405.826 Q134.672 405.479 135.691 405.317 Q136.709 405.132 137.728 405.132 Q143.515 405.132 146.894 408.303 Q150.274 411.474 150.274 416.891 Q150.274 422.47 146.802 425.571 Q143.33 428.65 137.01 428.65 Q134.834 428.65 132.566 428.28 Q130.32 427.909 127.913 427.169 L127.913 422.47 Q129.996 423.604 132.219 424.159 Q134.441 424.715 136.918 424.715 Q140.922 424.715 143.26 422.608 Q145.598 420.502 145.598 416.891 Q145.598 413.28 143.26 411.173 Q140.922 409.067 136.918 409.067 Q135.043 409.067 133.168 409.484 Q131.316 409.9 129.371 410.78 L129.371 393.419 Z" fill="#000000" fill-rule="nonzero" fill-opacity="1" /><path clip-path="url(#clip400)" d="M53.7467 99.5305 L61.3856 99.5305 L61.3856 73.1649 L53.0754 74.8316 L53.0754 70.5723 L61.3393 68.9057 L66.0152 68.9057 L66.0152 99.5305 L73.654 99.5305 L73.654 103.466 L53.7467 103.466 L53.7467 99.5305 Z" fill="#000000" fill-rule="nonzero" fill-opacity="1" /><path clip-path="url(#clip400)" d="M83.0984 97.5861 L87.9827 97.5861 L87.9827 103.466 L83.0984 103.466 L83.0984 97.5861 Z" fill="#000000" fill-rule="nonzero" fill-opacity="1" /><path clip-path="url(#clip400)" d="M108.168 71.9844 Q104.557 71.9844 102.728 75.5492 Q100.922 79.0908 100.922 86.2204 Q100.922 93.3268 102.728 96.8916 Q104.557 100.433 108.168 100.433 Q111.802 100.433 113.608 96.8916 Q115.436 93.3268 115.436 86.2204 Q115.436 79.0908 113.608 75.5492 Q111.802 71.9844 108.168 71.9844 M108.168 68.2807 Q113.978 68.2807 117.033 72.8871 Q120.112 77.4704 120.112 86.2204 Q120.112 94.9472 117.033 99.5537 Q113.978 104.137 108.168 104.137 Q102.358 104.137 99.2789 99.5537 Q96.2234 94.9472 96.2234 86.2204 Q96.2234 77.4704 99.2789 72.8871 Q102.358 68.2807 108.168 68.2807 Z" fill="#000000" fill-rule="nonzero" fill-opacity="1" /><path clip-path="url(#clip400)" d="M138.33 71.9844 Q134.719 71.9844 132.89 75.5492 Q131.084 79.0908 131.084 86.2204 Q131.084 93.3268 132.89 96.8916 Q134.719 100.433 138.33 100.433 Q141.964 100.433 143.769 96.8916 Q145.598 93.3268 145.598 86.2204 Q145.598 79.0908 143.769 75.5492 Q141.964 71.9844 138.33 71.9844 M138.33 68.2807 Q144.14 68.2807 147.195 72.8871 Q150.274 77.4704 150.274 86.2204 Q150.274 94.9472 147.195 99.5537 Q144.14 104.137 138.33 104.137 Q132.519 104.137 129.441 99.5537 Q126.385 94.9472 126.385 86.2204 Q126.385 77.4704 129.441 72.8871 Q132.519 68.2807 138.33 68.2807 Z" fill="#000000" fill-rule="nonzero" fill-opacity="1" /><polyline clip-path="url(#clip402)" style="stroke:#009af9; stroke-linecap:round; stroke-linejoin:round; stroke-width:12; stroke-opacity:1; fill:none" points="186.274,86.1857 188.443,88.7766 190.611,91.352 192.78,93.9121 194.949,96.4568 197.117,98.9865 199.286,101.501 201.455,104.001 203.623,106.485 205.792,108.956 207.961,111.411 210.129,113.852 212.298,116.278 214.466,118.691 216.635,121.089 218.804,123.473 220.972,125.843 223.141,128.199 225.31,130.541 227.478,132.869 229.647,135.184 231.816,137.486 233.984,139.774 236.153,142.048 238.322,144.31 240.49,146.558 242.659,148.793 244.828,151.015 246.996,153.225 249.165,155.421 251.334,157.605 253.502,159.777 255.671,161.935 257.839,164.082 260.008,166.216 262.177,168.338 264.345,170.447 266.514,172.545 268.683,174.63 270.851,176.704 273.02,178.766 275.189,180.816 277.357,182.854 279.526,184.881 281.695,186.896 283.863,188.9 286.032,190.892 288.201,192.874 290.369,194.843 292.538,196.802 294.707,198.75 296.875,200.687 299.044,202.612 301.212,204.527 303.381,206.431 305.55,208.325 307.718,210.208 309.887,212.08 312.056,213.942 314.224,215.793 316.393,217.634 318.562,219.465 320.73,221.285 322.899,223.096 325.068,224.896 327.236,226.686 329.405,228.467 331.574,230.237 333.742,231.998 335.911,233.749 338.08,235.49 340.248,237.221 342.417,238.943 344.585,240.656 346.754,242.359 348.923,244.053 351.091,245.737 353.26,247.412 355.429,249.078 357.597,250.735 359.766,252.382 361.935,254.021 364.103,255.651 366.272,257.272 368.441,258.883 370.609,260.487 372.778,262.081 374.947,263.667 377.115,265.244 379.284,266.812 381.453,268.372 383.621,269.923 385.79,271.466 387.959,273.001 390.127,274.527 392.296,276.046 394.464,277.555 396.633,279.057 398.802,280.551 400.97,282.036 403.139,283.514 405.308,284.984 407.476,286.445 409.645,287.899 411.814,289.345 413.982,290.784 416.151,292.214 418.32,293.637 420.488,295.052 422.657,296.46 424.826,297.86 426.994,299.253 429.163,300.638 431.332,302.016 433.5,303.387 435.669,304.75 437.837,306.106 440.006,307.455 442.175,308.797 444.343,310.131 446.512,311.459 448.681,312.779 450.849,314.093 453.018,315.399 455.187,316.699 457.355,317.992 459.524,319.278 461.693,320.557 463.861,321.829 466.03,323.095 468.199,324.354 470.367,325.607 472.536,326.853 474.705,328.092 476.873,329.325 479.042,330.551 481.21,331.771 483.379,332.985 485.548,334.192 487.716,335.393 489.885,336.588 492.054,337.776 494.222,338.958 496.391,340.134 498.56,341.304 500.728,342.468 502.897,343.626 505.066,344.777 507.234,345.923 509.403,347.063 511.572,348.197 513.74,349.325 515.909,350.447 518.078,351.563 520.246,352.674 522.415,353.779 524.583,354.878 526.752,355.971 528.921,357.059 531.089,358.141 533.258,359.218 535.427,360.289 537.595,361.355 539.764,362.415 541.933,363.469 544.101,364.518 546.27,365.562 548.439,366.601 550.607,367.634 552.776,368.662 554.945,369.684 557.113,370.701 559.282,371.714 561.451,372.721 563.619,373.722 565.788,374.719 567.956,375.711 570.125,376.697 572.294,377.679 574.462,378.655 576.631,379.627 578.8,380.593 580.968,381.555 583.137,382.512 585.306,383.464 587.474,384.411 589.643,385.353 591.812,386.291 593.98,387.224 596.149,388.152 598.318,389.075 600.486,389.994 602.655,390.908 604.824,391.818 606.992,392.722 609.161,393.623 611.33,394.518 613.498,395.41 615.667,396.296 617.835,397.179 620.004,398.057 622.173,398.93 624.341,399.799 626.51,400.664 628.679,401.524 630.847,402.38 633.016,403.232 635.185,404.079 637.353,404.923 639.522,405.762 641.691,406.596 643.859,407.427 646.028,408.253 648.197,409.076 650.365,409.894 652.534,410.708 654.703,411.518 656.871,412.324 659.04,413.126 661.208,413.924 663.377,414.718 665.546,415.508 667.714,416.294 669.883,417.077 672.052,417.855 674.22,418.629 676.389,419.4 678.558,420.167 680.726,420.93 682.895,421.689 685.064,422.444 687.232,423.196 689.401,423.944 691.57,424.688 693.738,425.428 695.907,426.165 698.076,426.899 700.244,427.628 702.413,428.354 704.581,429.077 706.75,429.795 708.919,430.511 711.087,431.222 713.256,431.931 715.425,432.635 717.593,433.337 719.762,434.034 721.931,434.729 724.099,435.42 726.268,436.107 728.437,436.792 730.605,437.472 732.774,438.15 734.943,438.824 737.111,439.495 739.28,440.163 741.449,440.827 743.617,441.488 745.786,442.146 747.954,442.8 750.123,443.452 752.292,444.1 754.46,444.745 756.629,445.387 758.798,446.026 760.966,446.661 763.135,447.294 765.304,447.923 767.472,448.549 769.641,449.173 771.81,449.793 773.978,450.41 776.147,451.025 778.316,451.636 780.484,452.244 782.653,452.85 784.822,453.452 786.99,454.051 789.159,454.648 791.328,455.242 793.496,455.832 795.665,456.42 797.833,457.005 800.002,457.588 802.171,458.167 804.339,458.744 806.508,459.317 808.677,459.888 810.845,460.457 813.014,461.022 815.183,461.585 817.351,462.145 819.52,462.702 821.689,463.257 823.857,463.809 826.026,464.358 828.195,464.905 830.363,465.449 832.532,465.991 834.701,466.53 836.869,467.066 839.038,467.599 841.206,468.13 843.375,468.659 845.544,469.185 847.712,469.708 849.881,470.229 852.05,470.748 854.218,471.264 856.387,471.777 858.556,472.288 860.724,472.797 862.893,473.303 865.062,473.806 867.23,474.308 869.399,474.806 871.568,475.303 873.736,475.797 875.905,476.289 878.074,476.778 880.242,477.265 882.411,477.749 884.579,478.232 886.748,478.712 888.917,479.189 891.085,479.665 893.254,480.138 895.423,480.609 897.591,481.077 899.76,481.544 901.929,482.008 904.097,482.47 906.266,482.93 908.435,483.387 910.603,483.843 912.772,484.296 914.941,484.747 917.109,485.196 919.278,485.642 921.447,486.087 923.615,486.529 925.784,486.97 927.952,487.408 930.121,487.844 932.29,488.278 934.458,488.71 936.627,489.14 938.796,489.568 940.964,489.994 943.133,490.418 945.302,490.84 947.47,491.26 949.639,491.677 951.808,492.093 953.976,492.507 956.145,492.919 958.314,493.329 960.482,493.737 962.651,494.143 964.82,494.547 966.988,494.95 969.157,495.35 971.326,495.749 973.494,496.145 975.663,496.54 977.831,496.933 980,497.324 982.169,497.713 984.337,498.1 986.506,498.486 988.675,498.869 990.843,499.251 993.012,499.631 995.181,500.009 997.349,500.386 999.518,500.761 1001.69,501.133 1003.86,501.505 1006.02,501.874 1008.19,502.242 1010.36,502.608 1012.53,502.972 1014.7,503.334 1016.87,503.695 1019.04,504.054 1021.2,504.412 1023.37,504.768 1025.54,505.122 1027.71,505.474 1029.88,505.825 1032.05,506.174 1034.22,506.521 1036.39,506.867 1038.55,507.212 1040.72,507.554 1042.89,507.895 1045.06,508.235 1047.23,508.572 1049.4,508.909 1051.57,509.243 1053.73,509.576 1055.9,509.908 1058.07,510.238 1060.24,510.566 1062.41,510.893 1064.58,511.219 1066.75,511.542 1068.91,511.865 1071.08,512.186 1073.25,512.505 1075.42,512.823 1077.59,513.139 1079.76,513.454 1081.93,513.768 1084.1,514.079 1086.26,514.39 1088.43,514.699 1090.6,515.007 1092.77,515.313 1094.94,515.618 1097.11,515.921 1099.28,516.223 1101.44,516.523 1103.61,516.822 1105.78,517.12 1107.95,517.416 1110.12,517.711 1112.29,518.005 1114.46,518.297 1116.63,518.588 1118.79,518.877 1120.96,519.165 1123.13,519.452 1125.3,519.738 1127.47,520.022 1129.64,520.304 1131.81,520.586 1133.97,520.866 1136.14,521.145 1138.31,521.422 1140.48,521.699 1142.65,521.973 1144.82,522.247 1146.99,522.52 1149.15,522.791 1151.32,523.06 1153.49,523.329 1155.66,523.596 1157.83,523.863 1160,524.127 1162.17,524.391 1164.34,524.653 1166.5,524.915 1168.67,525.175 1170.84,525.433 1173.01,525.691 1175.18,525.947 1177.35,526.202 1179.52,526.456 1181.68,526.709 1183.85,526.961 1186.02,527.211 1188.19,527.46 1190.36,527.709 1192.53,527.956 1194.7,528.201 1196.87,528.446 1199.03,528.69 1201.2,528.932 1203.37,529.173 1205.54,529.414 1207.71,529.653 1209.88,529.891 1212.05,530.127 1214.21,530.363 1216.38,530.598 1218.55,530.831 1220.72,531.064 1222.89,531.295 1225.06,531.526 1227.23,531.755 1229.39,531.983 1231.56,532.21 1233.73,532.437 1235.9,532.662 1238.07,532.886 1240.24,533.109 1242.41,533.331 1244.58,533.552 1246.74,533.771 1248.91,533.99 1251.08,534.208 1253.25,534.425 1255.42,534.641 1257.59,534.856 1259.76,535.07 1261.92,535.283 1264.09,535.495 1266.26,535.706 1268.43,535.916 1270.6,536.125 1272.77,536.333 1274.94,536.54 1277.11,536.746 1279.27,536.951 1281.44,537.156 1283.61,537.359 1285.78,537.561 1287.95,537.763 1290.12,537.963 1292.29,538.163 1294.45,538.362 1296.62,538.559 1298.79,538.756 1300.96,538.952 1303.13,539.147 1305.3,539.341 1307.47,539.535 1309.63,539.727 1311.8,539.919 1313.97,540.109 1316.14,540.299 1318.31,540.488 1320.48,540.676 1322.65,540.863 1324.82,541.049 1326.98,541.235 1329.15,541.419 1331.32,541.603 1333.49,541.786 1335.66,541.968 1337.83,542.149 1340,542.33 1342.16,542.51 1344.33,542.688 1346.5,542.866 1348.67,543.043 1350.84,543.22 1353.01,543.395 1355.18,543.57 1357.35,543.744 1359.51,543.917 1361.68,544.09 1363.85,544.261 1366.02,544.432 1368.19,544.602 1370.36,544.771 1372.53,544.94 1374.69,545.107 1376.86,545.274 1379.03,545.44 1381.2,545.606 1383.37,545.771 1385.54,545.934 1387.71,546.098 1389.88,546.26 1392.04,546.422 1394.21,546.583 1396.38,546.743 1398.55,546.902 1400.72,547.061 1402.89,547.219 1405.06,547.376 1407.22,547.533 1409.39,547.689 1411.56,547.844 1413.73,547.998 1415.9,548.152 1418.07,548.305 1420.24,548.457 1422.4,548.609 1424.57,548.76 1426.74,548.91 1428.91,549.06 1431.08,549.208 1433.25,549.357 1435.42,549.504 1437.59,549.651 1439.75,549.797 1441.92,549.942 1444.09,550.087 1446.26,550.231 1448.43,550.375 1450.6,550.518 1452.77,550.66 1454.93,550.801 1457.1,550.942 1459.27,551.083 1461.44,551.222 1463.61,551.361 1465.78,551.499 1467.95,551.637 1470.12,551.774 1472.28,551.911 1474.45,552.046 1476.62,552.182 1478.79,552.316 1480.96,552.45 1483.13,552.583 1485.3,552.716 1487.46,552.848 1489.63,552.98 1491.8,553.111 1493.97,553.241 1496.14,553.371 1498.31,553.5 1500.48,553.628 1502.64,553.756 1504.81,553.884 1506.98,554.01 1509.15,554.137 1511.32,554.262 1513.49,554.387 1515.66,554.512 1517.83,554.636 1519.99,554.759 1522.16,554.882 1524.33,555.004 1526.5,555.126 1528.67,555.247 1530.84,555.367 1533.01,555.487 1535.17,555.607 1537.34,555.726 1539.51,555.844 1541.68,555.962 1543.85,556.079 1546.02,556.196 1548.19,556.312 1550.36,556.428 1552.52,556.543 1554.69,556.657 1556.86,556.772 1559.03,556.885 1561.2,556.998 1563.37,557.111 1565.54,557.223 1567.7,557.334 1569.87,557.445 1572.04,557.556 1574.21,557.666 1576.38,557.775 1578.55,557.884 1580.72,557.993 1582.88,558.101 1585.05,558.209 1587.22,558.316 1589.39,558.422 1591.56,558.528 1593.73,558.634 1595.9,558.739 1598.07,558.844 1600.23,558.948 1602.4,559.051 1604.57,559.155 1606.74,559.257 1608.91,559.36 1611.08,559.462 1613.25,559.563 1615.41,559.664 1617.58,559.764 1619.75,559.864 1621.92,559.964 1624.09,560.063 1626.26,560.162 1628.43,560.26 1630.6,560.358 1632.76,560.455 1634.93,560.552 1637.1,560.648 1639.27,560.744 1641.44,560.84 1643.61,560.935 1645.78,561.03 1647.94,561.124 1650.11,561.218 1652.28,561.311 1654.45,561.404 1656.62,561.497 1658.79,561.589 1660.96,561.681 1663.13,561.772 1665.29,561.863 1667.46,561.954 1669.63,562.044 1671.8,562.133 1673.97,562.223 1676.14,562.312 1678.31,562.4 1680.47,562.488 1682.64,562.576 1684.81,562.663 1686.98,562.75 1689.15,562.837 1691.32,562.923 1693.49,563.009 1695.65,563.094 1697.82,563.179 1699.99,563.264 1702.16,563.348 1704.33,563.432 1706.5,563.515 1708.67,563.598 1710.84,563.681 1713,563.764 1715.17,563.846 1717.34,563.927 1719.51,564.008 1721.68,564.089 1723.85,564.17 1726.02,564.25 1728.18,564.33 1730.35,564.409 1732.52,564.489 1734.69,564.567 1736.86,564.646 1739.03,564.724 1741.2,564.801 1743.37,564.879 1745.53,564.956 1747.7,565.032 1749.87,565.109 1752.04,565.185 1754.21,565.26 1756.38,565.336 1758.55,565.411 1760.71,565.485 1762.88,565.559 1765.05,565.633 1767.22,565.707 1769.39,565.78 1771.56,565.853 1773.73,565.926 1775.89,565.998 1778.06,566.07 1780.23,566.142 1782.4,566.213 1784.57,566.284 1786.74,566.354 1788.91,566.425 1791.08,566.495 1793.24,566.564 1795.41,566.634 1797.58,566.703 1799.75,566.772 1801.92,566.84 1804.09,566.908 1806.26,566.976 1808.42,567.044 1810.59,567.111 1812.76,567.178 1814.93,567.244 1817.1,567.311 1819.27,567.377 1821.44,567.442 1823.61,567.508 1825.77,567.573 1827.94,567.638 1830.11,567.702 1832.28,567.766 1834.45,567.83 1836.62,567.894 1838.79,567.957 1840.95,568.02 1843.12,568.083 1845.29,568.146 1847.46,568.208 1849.63,568.27 1851.8,568.331 1853.97,568.393 1856.13,568.454 1858.3,568.514 1860.47,568.575 1862.64,568.635 1864.81,568.695 1866.98,568.755 1869.15,568.814 1871.32,568.874 1873.48,568.932 1875.65,568.991 1877.82,569.049 1879.99,569.108 1882.16,569.165 1884.33,569.223 1886.5,569.28 1888.66,569.337 1890.83,569.394 1893,569.451 1895.17,569.507 1897.34,569.563 1899.51,569.619 1901.68,569.674 1903.85,569.729 1906.01,569.784 1908.18,569.839 1910.35,569.894 1912.52,569.948 1914.69,570.002 1916.86,570.056 1919.03,570.109 1921.19,570.162 1923.36,570.215 1925.53,570.268 1927.7,570.321 1929.87,570.373 1932.04,570.425 1934.21,570.477 1936.37,570.529 1938.54,570.58 1940.71,570.631 1942.88,570.682 1945.05,570.733 1947.22,570.783 1949.39,570.833 1951.56,570.883 1953.72,570.933 1955.89,570.983 1958.06,571.032 1960.23,571.081 1962.4,571.13 1964.57,571.179 1966.74,571.227 1968.9,571.275 1971.07,571.323 1973.24,571.371 1975.41,571.419 1977.58,571.466 1979.75,571.513 1981.92,571.56 1984.09,571.607 1986.25,571.653 1988.42,571.7 1990.59,571.746 1992.76,571.792 1994.93,571.837 1997.1,571.883 1999.27,571.928 2001.43,571.973 2003.6,572.018 2005.77,572.062 2007.94,572.107 2010.11,572.151 2012.28,572.195 2014.45,572.239 2016.62,572.283 2018.78,572.326 2020.95,572.369 2023.12,572.413 2025.29,572.455 2027.46,572.498 2029.63,572.541 2031.8,572.583 2033.96,572.625 2036.13,572.667 2038.3,572.709 2040.47,572.75 2042.64,572.792 2044.81,572.833 2046.98,572.874 2049.14,572.915 2051.31,572.955 2053.48,572.996 2055.65,573.036 2057.82,573.076 2059.99,573.116 2062.16,573.156 2064.33,573.195 2066.49,573.235 2068.66,573.274 2070.83,573.313 2073,573.352 2075.17,573.391 2077.34,573.429 2079.51,573.467 2081.67,573.506 2083.84,573.544 2086.01,573.581 2088.18,573.619 2090.35,573.657 2092.52,573.694 2094.69,573.731 2096.86,573.768 2099.02,573.805 2101.19,573.842 2103.36,573.878 2105.53,573.915 2107.7,573.951 2109.87,573.987 2112.04,574.023 2114.2,574.059 2116.37,574.094 2118.54,574.129 2120.71,574.165 2122.88,574.2 2125.05,574.235 2127.22,574.269 2129.38,574.304 2131.55,574.339 2133.72,574.373 2135.89,574.407 2138.06,574.441 2140.23,574.475 2142.4,574.509 2144.57,574.542 2146.73,574.575 2148.9,574.609 2151.07,574.642 2153.24,574.675 2155.41,574.708 2157.58,574.74 2159.75,574.773 2161.91,574.805 2164.08,574.837 2166.25,574.869 2168.42,574.901 2170.59,574.933 2172.76,574.965 2174.93,574.996 2177.1,575.027 2179.26,575.059 2181.43,575.09 2183.6,575.121 2185.77,575.151 2187.94,575.182 2190.11,575.213 2192.28,575.243 2194.44,575.273 2196.61,575.303 2198.78,575.333 2200.95,575.363 2203.12,575.393 2205.29,575.422 2207.46,575.452 2209.62,575.481 2211.79,575.51 2213.96,575.539 2216.13,575.568 2218.3,575.597 2220.47,575.626 2222.64,575.654 2224.81,575.683 2226.97,575.711 2229.14,575.739 2231.31,575.767 2233.48,575.795 2235.65,575.823 2237.82,575.85 2239.99,575.878 2242.15,575.905 2244.32,575.933 2246.49,575.96 2248.66,575.987 2250.83,576.014 2253,576.04 2255.17,576.067 2257.34,576.094 2259.5,576.12 2261.67,576.146 2263.84,576.173 2266.01,576.199 2268.18,576.225 2270.35,576.25 2272.52,576.276 2274.68,576.302 2276.85,576.327 2279.02,576.353 2281.19,576.378 2283.36,576.403 2285.53,576.428 2287.7,576.453 2289.87,576.478 2292.03,576.502 2294.2,576.527 2296.37,576.551 2298.54,576.576 2300.71,576.6 2302.88,576.624 2305.05,576.648 2307.21,576.672 2309.38,576.696 2311.55,576.72 2313.72,576.743 2315.89,576.767 2318.06,576.79 2320.23,576.814 2322.39,576.837 2324.56,576.86 2326.73,576.883 2328.9,576.906 2331.07,576.929 2333.24,576.951 2335.41,576.974 2337.58,576.996 2339.74,577.019 2341.91,577.041 2344.08,577.063 2346.25,577.085 2348.42,577.107 2350.59,577.129 2352.76,577.151 "/>
<polyline clip-path="url(#clip402)" style="stroke:#e26f46; stroke-linecap:round; stroke-linejoin:round; stroke-width:12; stroke-opacity:1; fill:none" points="186.274,86.1857 188.443,88.7766 190.611,91.352 192.78,93.9121 194.949,96.4568 197.117,98.9865 199.286,101.501 201.455,104.001 203.623,106.485 205.792,108.956 207.961,111.411 210.129,113.852 212.298,116.278 214.466,118.691 216.635,121.089 218.804,123.473 220.972,125.843 223.141,128.199 225.31,130.541 227.478,132.869 229.647,135.184 231.816,137.486 233.984,139.774 236.153,142.048 238.322,144.31 240.49,146.558 242.659,148.793 244.828,151.015 246.996,153.225 249.165,155.421 251.334,157.605 253.502,159.777 255.671,161.935 257.839,164.082 260.008,166.216 262.177,168.338 264.345,170.447 266.514,172.545 268.683,174.63 270.851,176.704 273.02,178.766 275.189,180.816 277.357,182.854 279.526,184.881 281.695,186.896 283.863,188.9 286.032,190.892 288.201,192.874 290.369,194.843 292.538,196.802 294.707,198.75 296.875,200.687 299.044,202.612 301.212,204.527 303.381,206.431 305.55,208.325 307.718,210.208 309.887,212.08 312.056,213.942 314.224,215.793 316.393,217.634 318.562,219.465 320.73,221.285 322.899,223.096 325.068,224.896 327.236,226.686 329.405,228.467 331.574,230.237 333.742,231.998 335.911,233.749 338.08,235.49 340.248,237.221 342.417,238.943 344.585,240.656 346.754,242.359 348.923,244.053 351.091,245.737 353.26,247.412 355.429,249.078 357.597,250.735 359.766,252.382 361.935,254.021 364.103,255.651 366.272,257.272 368.441,258.883 370.609,260.487 372.778,262.081 374.947,263.667 377.115,265.244 379.284,266.812 381.453,268.372 383.621,269.923 385.79,271.466 387.959,273.001 390.127,274.527 392.296,276.046 394.464,277.555 396.633,279.057 398.802,280.551 400.97,282.036 403.139,283.514 405.308,284.984 407.476,286.445 409.645,287.899 411.814,289.345 413.982,290.784 416.151,292.214 418.32,293.637 420.488,295.052 422.657,296.46 424.826,297.86 426.994,299.253 429.163,300.638 431.332,302.016 433.5,303.387 435.669,304.75 437.837,306.106 440.006,307.455 442.175,308.797 444.343,310.131 446.512,311.459 448.681,312.779 450.849,314.093 453.018,315.399 455.187,316.699 457.355,317.992 459.524,319.278 461.693,320.557 463.861,321.829 466.03,323.095 468.199,324.354 470.367,325.607 472.536,326.853 474.705,328.092 476.873,329.325 479.042,330.551 481.21,331.771 483.379,332.985 485.548,334.192 487.716,335.393 489.885,336.588 492.054,337.776 494.222,338.958 496.391,340.134 498.56,341.304 500.728,342.468 502.897,343.626 505.066,344.777 507.234,345.923 509.403,347.063 511.572,348.197 513.74,349.325 515.909,350.447 518.078,351.563 520.246,352.674 522.415,353.779 524.583,354.878 526.752,355.971 528.921,357.059 531.089,358.141 533.258,359.218 535.427,360.289 537.595,361.355 539.764,362.415 541.933,363.469 544.101,364.518 546.27,365.562 548.439,366.601 550.607,367.634 552.776,368.662 554.945,369.684 557.113,370.701 559.282,371.714 561.451,372.721 563.619,373.722 565.788,374.719 567.956,375.711 570.125,376.697 572.294,377.679 574.462,378.655 576.631,379.627 578.8,380.593 580.968,381.555 583.137,382.512 585.306,383.464 587.474,384.411 589.643,385.353 591.812,386.291 593.98,387.224 596.149,388.152 598.318,389.075 600.486,389.994 602.655,390.908 604.824,391.818 606.992,392.722 609.161,393.623 611.33,394.518 613.498,395.41 615.667,396.296 617.835,397.179 620.004,398.057 622.173,398.93 624.341,399.799 626.51,400.664 628.679,401.524 630.847,402.38 633.016,403.232 635.185,404.079 637.353,404.923 639.522,405.762 641.691,406.596 643.859,407.427 646.028,408.253 648.197,409.076 650.365,409.894 652.534,410.708 654.703,411.518 656.871,412.324 659.04,413.126 661.208,413.924 663.377,414.718 665.546,415.508 667.714,416.294 669.883,417.077 672.052,417.855 674.22,418.629 676.389,419.4 678.558,420.167 680.726,420.93 682.895,421.689 685.064,422.444 687.232,423.196 689.401,423.944 691.57,424.688 693.738,425.428 695.907,426.165 698.076,426.899 700.244,427.628 702.413,428.354 704.581,429.077 706.75,429.795 708.919,430.511 711.087,431.222 713.256,431.931 715.425,432.635 717.593,433.337 719.762,434.034 721.931,434.729 724.099,435.42 726.268,436.107 728.437,436.792 730.605,437.472 732.774,438.15 734.943,438.824 737.111,439.495 739.28,440.163 741.449,440.827 743.617,441.488 745.786,442.146 747.954,442.8 750.123,443.452 752.292,444.1 754.46,444.745 756.629,445.387 758.798,446.026 760.966,446.661 763.135,447.294 765.304,447.923 767.472,448.549 769.641,449.173 771.81,449.793 773.978,450.41 776.147,451.025 778.316,451.636 780.484,452.244 782.653,452.85 784.822,453.452 786.99,454.051 789.159,454.648 791.328,455.242 793.496,455.832 795.665,456.42 797.833,457.005 800.002,457.588 802.171,458.167 804.339,458.744 806.508,459.317 808.677,459.888 810.845,460.457 813.014,461.022 815.183,461.585 817.351,462.145 819.52,462.702 821.689,463.257 823.857,463.809 826.026,464.358 828.195,464.905 830.363,465.449 832.532,465.991 834.701,466.53 836.869,467.066 839.038,467.599 841.206,468.13 843.375,468.659 845.544,469.185 847.712,469.708 849.881,470.229 852.05,470.748 854.218,471.264 856.387,471.777 858.556,472.288 860.724,472.797 862.893,473.303 865.062,473.806 867.23,474.308 869.399,474.806 871.568,475.303 873.736,475.797 875.905,476.289 878.074,476.778 880.242,477.265 882.411,477.749 884.579,478.232 886.748,478.712 888.917,479.189 891.085,479.665 893.254,480.138 895.423,480.609 897.591,481.077 899.76,481.544 901.929,482.008 904.097,482.47 906.266,482.93 908.435,483.387 910.603,483.843 912.772,484.296 914.941,484.747 917.109,485.196 919.278,485.642 921.447,486.087 923.615,486.529 925.784,486.97 927.952,487.408 930.121,487.844 932.29,488.278 934.458,488.71 936.627,489.14 938.796,489.568 940.964,489.994 943.133,490.418 945.302,490.84 947.47,491.26 949.639,491.677 951.808,492.093 953.976,492.507 956.145,492.919 958.314,493.329 960.482,493.737 962.651,494.143 964.82,494.547 966.988,494.95 969.157,495.35 971.326,495.749 973.494,496.145 975.663,496.54 977.831,496.933 980,497.324 982.169,497.713 984.337,498.1 986.506,498.486 988.675,498.869 990.843,499.251 993.012,499.631 995.181,500.009 997.349,500.386 999.518,500.761 1001.69,501.133 1003.86,501.505 1006.02,501.874 1008.19,502.242 1010.36,502.608 1012.53,502.972 1014.7,503.334 1016.87,503.695 1019.04,504.054 1021.2,504.412 1023.37,504.768 1025.54,505.122 1027.71,505.474 1029.88,505.825 1032.05,506.174 1034.22,506.521 1036.39,506.867 1038.55,507.212 1040.72,507.554 1042.89,507.895 1045.06,508.235 1047.23,508.572 1049.4,508.909 1051.57,509.243 1053.73,509.576 1055.9,509.908 1058.07,510.238 1060.24,510.566 1062.41,510.893 1064.58,511.219 1066.75,511.542 1068.91,511.865 1071.08,512.186 1073.25,512.505 1075.42,512.823 1077.59,513.139 1079.76,513.454 1081.93,513.768 1084.1,514.079 1086.26,514.39 1088.43,514.699 1090.6,515.007 1092.77,515.313 1094.94,515.618 1097.11,515.921 1099.28,516.223 1101.44,516.523 1103.61,516.822 1105.78,517.12 1107.95,517.416 1110.12,517.711 1112.29,518.005 1114.46,518.297 1116.63,518.588 1118.79,518.877 1120.96,519.165 1123.13,519.452 1125.3,519.738 1127.47,520.022 1129.64,520.304 1131.81,520.586 1133.97,520.866 1136.14,521.145 1138.31,521.422 1140.48,521.699 1142.65,521.973 1144.82,522.247 1146.99,522.52 1149.15,522.791 1151.32,523.06 1153.49,523.329 1155.66,523.596 1157.83,523.863 1160,524.127 1162.17,524.391 1164.34,524.653 1166.5,524.915 1168.67,525.175 1170.84,525.433 1173.01,525.691 1175.18,525.947 1177.35,526.202 1179.52,526.456 1181.68,526.709 1183.85,526.961 1186.02,527.211 1188.19,527.46 1190.36,527.709 1192.53,527.956 1194.7,528.201 1196.87,528.446 1199.03,528.69 1201.2,528.932 1203.37,529.173 1205.54,529.414 1207.71,529.653 1209.88,529.891 1212.05,530.127 1214.21,530.363 1216.38,530.598 1218.55,530.831 1220.72,531.064 1222.89,531.295 1225.06,531.526 1227.23,531.755 1229.39,531.983 1231.56,532.21 1233.73,532.437 1235.9,532.662 1238.07,532.886 1240.24,533.109 1242.41,533.331 1244.58,533.552 1246.74,533.771 1248.91,533.99 1251.08,534.208 1253.25,534.425 1255.42,534.641 1257.59,534.856 1259.76,535.07 1261.92,535.283 1264.09,535.495 1266.26,535.706 1268.43,535.916 1270.6,536.125 1272.77,536.333 1274.94,536.54 1277.11,536.746 1279.27,536.951 1281.44,537.156 1283.61,537.359 1285.78,537.561 1287.95,537.763 1290.12,537.963 1292.29,538.163 1294.45,538.362 1296.62,538.559 1298.79,538.756 1300.96,538.952 1303.13,539.147 1305.3,539.341 1307.47,539.535 1309.63,539.727 1311.8,539.919 1313.97,540.109 1316.14,540.299 1318.31,540.488 1320.48,540.676 1322.65,540.863 1324.82,541.049 1326.98,541.235 1329.15,541.419 1331.32,541.603 1333.49,541.786 1335.66,541.968 1337.83,542.149 1340,542.33 1342.16,542.51 1344.33,542.688 1346.5,542.866 1348.67,543.043 1350.84,543.22 1353.01,543.395 1355.18,543.57 1357.35,543.744 1359.51,543.917 1361.68,544.09 1363.85,544.261 1366.02,544.432 1368.19,544.602 1370.36,544.771 1372.53,544.94 1374.69,545.107 1376.86,545.274 1379.03,545.44 1381.2,545.606 1383.37,545.771 1385.54,545.934 1387.71,546.098 1389.88,546.26 1392.04,546.422 1394.21,546.583 1396.38,546.743 1398.55,546.902 1400.72,547.061 1402.89,547.219 1405.06,547.376 1407.22,547.533 1409.39,547.689 1411.56,547.844 1413.73,547.998 1415.9,548.152 1418.07,548.305 1420.24,548.457 1422.4,548.609 1424.57,548.76 1426.74,548.91 1428.91,549.06 1431.08,549.208 1433.25,549.357 1435.42,549.504 1437.59,549.651 1439.75,549.797 1441.92,549.942 1444.09,550.087 1446.26,550.231 1448.43,550.375 1450.6,550.518 1452.77,550.66 1454.93,550.801 1457.1,550.942 1459.27,551.083 1461.44,551.222 1463.61,551.361 1465.78,551.499 1467.95,551.637 1470.12,551.774 1472.28,551.911 1474.45,552.046 1476.62,552.182 1478.79,552.316 1480.96,552.45 1483.13,552.583 1485.3,552.716 1487.46,552.848 1489.63,552.98 1491.8,553.111 1493.97,553.241 1496.14,553.371 1498.31,553.5 1500.48,553.628 1502.64,553.756 1504.81,553.884 1506.98,554.01 1509.15,554.137 1511.32,554.262 1513.49,554.387 1515.66,554.512 1517.83,554.636 1519.99,554.759 1522.16,554.882 1524.33,555.004 1526.5,555.126 1528.67,555.247 1530.84,555.367 1533.01,555.487 1535.17,555.607 1537.34,555.726 1539.51,555.844 1541.68,555.962 1543.85,556.079 1546.02,556.196 1548.19,556.312 1550.36,556.428 1552.52,556.543 1554.69,556.657 1556.86,556.772 1559.03,556.885 1561.2,556.998 1563.37,557.111 1565.54,557.223 1567.7,557.334 1569.87,557.445 1572.04,557.556 1574.21,557.666 1576.38,557.775 1578.55,557.884 1580.72,557.993 1582.88,558.101 1585.05,558.209 1587.22,558.316 1589.39,558.422 1591.56,558.528 1593.73,558.634 1595.9,558.739 1598.07,558.844 1600.23,558.948 1602.4,559.051 1604.57,559.155 1606.74,559.257 1608.91,559.36 1611.08,559.462 1613.25,559.563 1615.41,559.664 1617.58,559.764 1619.75,559.864 1621.92,559.964 1624.09,560.063 1626.26,560.162 1628.43,560.26 1630.6,560.358 1632.76,560.455 1634.93,560.552 1637.1,560.648 1639.27,560.744 1641.44,560.84 1643.61,560.935 1645.78,561.03 1647.94,561.124 1650.11,561.218 1652.28,561.311 1654.45,561.404 1656.62,561.497 1658.79,561.589 1660.96,561.681 1663.13,561.772 1665.29,561.863 1667.46,561.954 1669.63,562.044 1671.8,562.133 1673.97,562.223 1676.14,562.312 1678.31,562.4 1680.47,562.488 1682.64,562.576 1684.81,562.663 1686.98,562.75 1689.15,562.837 1691.32,562.923 1693.49,563.009 1695.65,563.094 1697.82,563.179 1699.99,563.264 1702.16,563.348 1704.33,563.432 1706.5,563.515 1708.67,563.598 1710.84,563.681 1713,563.764 1715.17,563.846 1717.34,563.927 1719.51,564.008 1721.68,564.089 1723.85,564.17 1726.02,564.25 1728.18,564.33 1730.35,564.409 1732.52,564.489 1734.69,564.567 1736.86,564.646 1739.03,564.724 1741.2,564.801 1743.37,564.879 1745.53,564.956 1747.7,565.032 1749.87,565.109 1752.04,565.185 1754.21,565.26 1756.38,565.336 1758.55,565.411 1760.71,565.485 1762.88,565.559 1765.05,565.633 1767.22,565.707 1769.39,565.78 1771.56,565.853 1773.73,565.926 1775.89,565.998 1778.06,566.07 1780.23,566.142 1782.4,566.213 1784.57,566.284 1786.74,566.354 1788.91,566.425 1791.08,566.495 1793.24,566.564 1795.41,566.634 1797.58,566.703 1799.75,566.772 1801.92,566.84 1804.09,566.908 1806.26,566.976 1808.42,567.044 1810.59,567.111 1812.76,567.178 1814.93,567.244 1817.1,567.311 1819.27,567.377 1821.44,567.442 1823.61,567.508 1825.77,567.573 1827.94,567.638 1830.11,567.702 1832.28,567.766 1834.45,567.83 1836.62,567.894 1838.79,567.957 1840.95,568.02 1843.12,568.083 1845.29,568.146 1847.46,568.208 1849.63,568.27 1851.8,568.331 1853.97,568.393 1856.13,568.454 1858.3,568.514 1860.47,568.575 1862.64,568.635 1864.81,568.695 1866.98,568.755 1869.15,568.814 1871.32,568.874 1873.48,568.932 1875.65,568.991 1877.82,569.049 1879.99,569.108 1882.16,569.165 1884.33,569.223 1886.5,569.28 1888.66,569.337 1890.83,569.394 1893,569.451 1895.17,569.507 1897.34,569.563 1899.51,569.619 1901.68,569.674 1903.85,569.729 1906.01,569.784 1908.18,569.839 1910.35,569.894 1912.52,569.948 1914.69,570.002 1916.86,570.056 1919.03,570.109 1921.19,570.162 1923.36,570.215 1925.53,570.268 1927.7,570.321 1929.87,570.373 1932.04,570.425 1934.21,570.477 1936.37,570.529 1938.54,570.58 1940.71,570.631 1942.88,570.682 1945.05,570.733 1947.22,570.783 1949.39,570.833 1951.56,570.883 1953.72,570.933 1955.89,570.983 1958.06,571.032 1960.23,571.081 1962.4,571.13 1964.57,571.179 1966.74,571.227 1968.9,571.275 1971.07,571.323 1973.24,571.371 1975.41,571.419 1977.58,571.466 1979.75,571.513 1981.92,571.56 1984.09,571.607 1986.25,571.653 1988.42,571.7 1990.59,571.746 1992.76,571.792 1994.93,571.837 1997.1,571.883 1999.27,571.928 2001.43,571.973 2003.6,572.018 2005.77,572.062 2007.94,572.107 2010.11,572.151 2012.28,572.195 2014.45,572.239 2016.62,572.283 2018.78,572.326 2020.95,572.369 2023.12,572.413 2025.29,572.455 2027.46,572.498 2029.63,572.541 2031.8,572.583 2033.96,572.625 2036.13,572.667 2038.3,572.709 2040.47,572.75 2042.64,572.792 2044.81,572.833 2046.98,572.874 2049.14,572.915 2051.31,572.955 2053.48,572.996 2055.65,573.036 2057.82,573.076 2059.99,573.116 2062.16,573.156 2064.33,573.195 2066.49,573.235 2068.66,573.274 2070.83,573.313 2073,573.352 2075.17,573.391 2077.34,573.429 2079.51,573.467 2081.67,573.506 2083.84,573.544 2086.01,573.581 2088.18,573.619 2090.35,573.657 2092.52,573.694 2094.69,573.731 2096.86,573.768 2099.02,573.805 2101.19,573.842 2103.36,573.878 2105.53,573.915 2107.7,573.951 2109.87,573.987 2112.04,574.023 2114.2,574.059 2116.37,574.094 2118.54,574.129 2120.71,574.165 2122.88,574.2 2125.05,574.235 2127.22,574.269 2129.38,574.304 2131.55,574.339 2133.72,574.373 2135.89,574.407 2138.06,574.441 2140.23,574.475 2142.4,574.509 2144.57,574.542 2146.73,574.575 2148.9,574.609 2151.07,574.642 2153.24,574.675 2155.41,574.708 2157.58,574.74 2159.75,574.773 2161.91,574.805 2164.08,574.837 2166.25,574.869 2168.42,574.901 2170.59,574.933 2172.76,574.965 2174.93,574.996 2177.1,575.027 2179.26,575.059 2181.43,575.09 2183.6,575.121 2185.77,575.151 2187.94,575.182 2190.11,575.213 2192.28,575.243 2194.44,575.273 2196.61,575.303 2198.78,575.333 2200.95,575.363 2203.12,575.393 2205.29,575.422 2207.46,575.452 2209.62,575.481 2211.79,575.51 2213.96,575.539 2216.13,575.568 2218.3,575.597 2220.47,575.626 2222.64,575.654 2224.81,575.683 2226.97,575.711 2229.14,575.739 2231.31,575.767 2233.48,575.795 2235.65,575.823 2237.82,575.85 2239.99,575.878 2242.15,575.905 2244.32,575.933 2246.49,575.96 2248.66,575.987 2250.83,576.014 2253,576.04 2255.17,576.067 2257.34,576.094 2259.5,576.12 2261.67,576.146 2263.84,576.173 2266.01,576.199 2268.18,576.225 2270.35,576.25 2272.52,576.276 2274.68,576.302 2276.85,576.327 2279.02,576.353 2281.19,576.378 2283.36,576.403 2285.53,576.428 2287.7,576.453 2289.87,576.478 2292.03,576.502 2294.2,576.527 2296.37,576.551 2298.54,576.576 2300.71,576.6 2302.88,576.624 2305.05,576.648 2307.21,576.672 2309.38,576.696 2311.55,576.72 2313.72,576.743 2315.89,576.767 2318.06,576.79 2320.23,576.814 2322.39,576.837 2324.56,576.86 2326.73,576.883 2328.9,576.906 2331.07,576.929 2333.24,576.951 2335.41,576.974 2337.58,576.996 2339.74,577.019 2341.91,577.041 2344.08,577.063 2346.25,577.085 2348.42,577.107 2350.59,577.129 2352.76,577.151 "/>
<polyline clip-path="url(#clip402)" style="stroke:#3da44d; stroke-linecap:round; stroke-linejoin:round; stroke-width:12; stroke-opacity:1; fill:none" points="186.274,1384.24 188.443,1381.65 190.611,1379.07 192.78,1376.51 194.949,1373.97 197.117,1371.44 199.286,1368.92 201.455,1366.42 203.623,1363.94 205.792,1361.47 207.961,1359.01 210.129,1356.57 212.298,1354.15 214.466,1351.73 216.635,1349.34 218.804,1346.95 220.972,1344.58 223.141,1342.23 225.31,1339.88 227.478,1337.55 229.647,1335.24 231.816,1332.94 233.984,1330.65 236.153,1328.38 238.322,1326.11 240.49,1323.87 242.659,1321.63 244.828,1319.41 246.996,1317.2 249.165,1315 251.334,1312.82 253.502,1310.65 255.671,1308.49 257.839,1306.34 260.008,1304.21 262.177,1302.09 264.345,1299.98 266.514,1297.88 268.683,1295.79 270.851,1293.72 273.02,1291.66 275.189,1289.61 277.357,1287.57 279.526,1285.54 281.695,1283.53 283.863,1281.52 286.032,1279.53 288.201,1277.55 290.369,1275.58 292.538,1273.62 294.707,1271.67 296.875,1269.74 299.044,1267.81 301.212,1265.9 303.381,1263.99 305.55,1262.1 307.718,1260.22 309.887,1258.34 312.056,1256.48 314.224,1254.63 316.393,1252.79 318.562,1250.96 320.73,1249.14 322.899,1247.33 325.068,1245.53 327.236,1243.74 329.405,1241.96 331.574,1240.19 333.742,1238.43 335.911,1236.68 338.08,1234.93 340.248,1233.2 342.417,1231.48 344.585,1229.77 346.754,1228.06 348.923,1226.37 351.091,1224.69 353.26,1223.01 355.429,1221.35 357.597,1219.69 359.766,1218.04 361.935,1216.4 364.103,1214.77 366.272,1213.15 368.441,1211.54 370.609,1209.94 372.778,1208.34 374.947,1206.76 377.115,1205.18 379.284,1203.61 381.453,1202.05 383.621,1200.5 385.79,1198.96 387.959,1197.42 390.127,1195.9 392.296,1194.38 394.464,1192.87 396.633,1191.37 398.802,1189.87 400.97,1188.39 403.139,1186.91 405.308,1185.44 407.476,1183.98 409.645,1182.52 411.814,1181.08 413.982,1179.64 416.151,1178.21 418.32,1176.79 420.488,1175.37 422.657,1173.96 424.826,1172.56 426.994,1171.17 429.163,1169.79 431.332,1168.41 433.5,1167.04 435.669,1165.67 437.837,1164.32 440.006,1162.97 442.175,1161.63 444.343,1160.29 446.512,1158.96 448.681,1157.64 450.849,1156.33 453.018,1155.02 455.187,1153.72 457.355,1152.43 459.524,1151.15 461.693,1149.87 463.861,1148.59 466.03,1147.33 468.199,1146.07 470.367,1144.82 472.536,1143.57 474.705,1142.33 476.873,1141.1 479.042,1139.87 481.21,1138.65 483.379,1137.44 485.548,1136.23 487.716,1135.03 489.885,1133.84 492.054,1132.65 494.222,1131.47 496.391,1130.29 498.56,1129.12 500.728,1127.96 502.897,1126.8 505.066,1125.65 507.234,1124.5 509.403,1123.36 511.572,1122.23 513.74,1121.1 515.909,1119.98 518.078,1118.86 520.246,1117.75 522.415,1116.65 524.583,1115.55 526.752,1114.45 528.921,1113.36 531.089,1112.28 533.258,1111.21 535.427,1110.13 537.595,1109.07 539.764,1108.01 541.933,1106.95 544.101,1105.91 546.27,1104.86 548.439,1103.82 550.607,1102.79 552.776,1101.76 554.945,1100.74 557.113,1099.72 559.282,1098.71 561.451,1097.7 563.619,1096.7 565.788,1095.7 567.956,1094.71 570.125,1093.73 572.294,1092.75 574.462,1091.77 576.631,1090.8 578.8,1089.83 580.968,1088.87 583.137,1087.91 585.306,1086.96 587.474,1086.01 589.643,1085.07 591.812,1084.13 593.98,1083.2 596.149,1082.27 598.318,1081.35 600.486,1080.43 602.655,1079.52 604.824,1078.61 606.992,1077.7 609.161,1076.8 611.33,1075.91 613.498,1075.01 615.667,1074.13 617.835,1073.25 620.004,1072.37 622.173,1071.49 624.341,1070.62 626.51,1069.76 628.679,1068.9 630.847,1068.04 633.016,1067.19 635.185,1066.34 637.353,1065.5 639.522,1064.66 641.691,1063.83 643.859,1063 646.028,1062.17 648.197,1061.35 650.365,1060.53 652.534,1059.72 654.703,1058.91 656.871,1058.1 659.04,1057.3 661.208,1056.5 663.377,1055.71 665.546,1054.92 667.714,1054.13 669.883,1053.35 672.052,1052.57 674.22,1051.79 676.389,1051.02 678.558,1050.26 680.726,1049.49 682.895,1048.74 685.064,1047.98 687.232,1047.23 689.401,1046.48 691.57,1045.74 693.738,1045 695.907,1044.26 698.076,1043.53 700.244,1042.8 702.413,1042.07 704.581,1041.35 706.75,1040.63 708.919,1039.91 711.087,1039.2 713.256,1038.49 715.425,1037.79 717.593,1037.09 719.762,1036.39 721.931,1035.7 724.099,1035 726.268,1034.32 728.437,1033.63 730.605,1032.95 732.774,1032.27 734.943,1031.6 737.111,1030.93 739.28,1030.26 741.449,1029.6 743.617,1028.94 745.786,1028.28 747.954,1027.62 750.123,1026.97 752.292,1026.32 754.46,1025.68 756.629,1025.04 758.798,1024.4 760.966,1023.76 763.135,1023.13 765.304,1022.5 767.472,1021.87 769.641,1021.25 771.81,1020.63 773.978,1020.01 776.147,1019.4 778.316,1018.79 780.484,1018.18 782.653,1017.57 784.822,1016.97 786.99,1016.37 789.159,1015.78 791.328,1015.18 793.496,1014.59 795.665,1014 797.833,1013.42 800.002,1012.84 802.171,1012.26 804.339,1011.68 806.508,1011.11 808.677,1010.54 810.845,1009.97 813.014,1009.4 815.183,1008.84 817.351,1008.28 819.52,1007.72 821.689,1007.17 823.857,1006.61 826.026,1006.07 828.195,1005.52 830.363,1004.97 832.532,1004.43 834.701,1003.89 836.869,1003.36 839.038,1002.82 841.206,1002.29 843.375,1001.76 845.544,1001.24 847.712,1000.72 849.881,1000.19 852.05,999.676 854.218,999.16 856.387,998.647 858.556,998.136 860.724,997.627 862.893,997.121 865.062,996.618 867.23,996.116 869.399,995.618 871.568,995.121 873.736,994.627 875.905,994.135 878.074,993.646 880.242,993.159 882.411,992.674 884.579,992.192 886.748,991.712 888.917,991.234 891.085,990.759 893.254,990.286 895.423,989.815 897.591,989.346 899.76,988.88 901.929,988.416 904.097,987.954 906.266,987.494 908.435,987.037 910.603,986.581 912.772,986.128 914.941,985.677 917.109,985.228 919.278,984.782 921.447,984.337 923.615,983.895 925.784,983.454 927.952,983.016 930.121,982.58 932.29,982.146 934.458,981.714 936.627,981.284 938.796,980.856 940.964,980.43 943.133,980.006 945.302,979.584 947.47,979.164 949.639,978.747 951.808,978.331 953.976,977.917 956.145,977.505 958.314,977.095 960.482,976.687 962.651,976.281 964.82,975.877 966.988,975.474 969.157,975.074 971.326,974.675 973.494,974.279 975.663,973.884 977.831,973.491 980,973.1 982.169,972.711 984.337,972.324 986.506,971.938 988.675,971.555 990.843,971.173 993.012,970.793 995.181,970.415 997.349,970.038 999.518,969.663 1001.69,969.29 1003.86,968.919 1006.02,968.55 1008.19,968.182 1010.36,967.816 1012.53,967.452 1014.7,967.089 1016.87,966.729 1019.04,966.37 1021.2,966.012 1023.37,965.656 1025.54,965.302 1027.71,964.95 1029.88,964.599 1032.05,964.25 1034.22,963.902 1036.39,963.557 1038.55,963.212 1040.72,962.87 1042.89,962.529 1045.06,962.189 1047.23,961.852 1049.4,961.515 1051.57,961.181 1053.73,960.848 1055.9,960.516 1058.07,960.186 1060.24,959.858 1062.41,959.531 1064.58,959.205 1066.75,958.881 1068.91,958.559 1071.08,958.238 1073.25,957.919 1075.42,957.601 1077.59,957.285 1079.76,956.97 1081.93,956.656 1084.1,956.344 1086.26,956.034 1088.43,955.725 1090.6,955.417 1092.77,955.111 1094.94,954.806 1097.11,954.503 1099.28,954.201 1101.44,953.901 1103.61,953.602 1105.78,953.304 1107.95,953.008 1110.12,952.713 1112.29,952.419 1114.46,952.127 1116.63,951.836 1118.79,951.547 1120.96,951.259 1123.13,950.972 1125.3,950.686 1127.47,950.402 1129.64,950.12 1131.81,949.838 1133.97,949.558 1136.14,949.279 1138.31,949.002 1140.48,948.725 1142.65,948.45 1144.82,948.177 1146.99,947.904 1149.15,947.633 1151.32,947.363 1153.49,947.095 1155.66,946.828 1157.83,946.561 1160,946.297 1162.17,946.033 1164.34,945.771 1166.5,945.509 1168.67,945.249 1170.84,944.991 1173.01,944.733 1175.18,944.477 1177.35,944.222 1179.52,943.968 1181.68,943.715 1183.85,943.463 1186.02,943.213 1188.19,942.963 1190.36,942.715 1192.53,942.468 1194.7,942.223 1196.87,941.978 1199.03,941.734 1201.2,941.492 1203.37,941.251 1205.54,941.01 1207.71,940.771 1209.88,940.533 1212.05,940.297 1214.21,940.061 1216.38,939.826 1218.55,939.593 1220.72,939.36 1222.89,939.129 1225.06,938.898 1227.23,938.669 1229.39,938.441 1231.56,938.214 1233.73,937.987 1235.9,937.762 1238.07,937.538 1240.24,937.315 1242.41,937.093 1244.58,936.872 1246.74,936.652 1248.91,936.434 1251.08,936.216 1253.25,935.999 1255.42,935.783 1257.59,935.568 1259.76,935.354 1261.92,935.141 1264.09,934.929 1266.26,934.718 1268.43,934.508 1270.6,934.299 1272.77,934.091 1274.94,933.884 1277.11,933.678 1279.27,933.473 1281.44,933.268 1283.61,933.065 1285.78,932.863 1287.95,932.661 1290.12,932.461 1292.29,932.261 1294.45,932.062 1296.62,931.865 1298.79,931.668 1300.96,931.472 1303.13,931.277 1305.3,931.083 1307.47,930.889 1309.63,930.697 1311.8,930.505 1313.97,930.315 1316.14,930.125 1318.31,929.936 1320.48,929.748 1322.65,929.561 1324.82,929.375 1326.98,929.189 1329.15,929.004 1331.32,928.821 1333.49,928.638 1335.66,928.456 1337.83,928.274 1340,928.094 1342.16,927.914 1344.33,927.736 1346.5,927.558 1348.67,927.381 1350.84,927.204 1353.01,927.029 1355.18,926.854 1357.35,926.68 1359.51,926.507 1361.68,926.334 1363.85,926.163 1366.02,925.992 1368.19,925.822 1370.36,925.653 1372.53,925.484 1374.69,925.317 1376.86,925.15 1379.03,924.983 1381.2,924.818 1383.37,924.653 1385.54,924.49 1387.71,924.326 1389.88,924.164 1392.04,924.002 1394.21,923.841 1396.38,923.681 1398.55,923.522 1400.72,923.363 1402.89,923.205 1405.06,923.048 1407.22,922.891 1409.39,922.735 1411.56,922.58 1413.73,922.426 1415.9,922.272 1418.07,922.119 1420.24,921.967 1422.4,921.815 1424.57,921.664 1426.74,921.514 1428.91,921.364 1431.08,921.216 1433.25,921.067 1435.42,920.92 1437.59,920.773 1439.75,920.627 1441.92,920.481 1444.09,920.337 1446.26,920.192 1448.43,920.049 1450.6,919.906 1452.77,919.764 1454.93,919.622 1457.1,919.482 1459.27,919.341 1461.44,919.202 1463.61,919.063 1465.78,918.924 1467.95,918.787 1470.12,918.65 1472.28,918.513 1474.45,918.378 1476.62,918.242 1478.79,918.108 1480.96,917.974 1483.13,917.841 1485.3,917.708 1487.46,917.576 1489.63,917.444 1491.8,917.313 1493.97,917.183 1496.14,917.053 1498.31,916.924 1500.48,916.796 1502.64,916.668 1504.81,916.54 1506.98,916.414 1509.15,916.287 1511.32,916.162 1513.49,916.037 1515.66,915.912 1517.83,915.788 1519.99,915.665 1522.16,915.542 1524.33,915.42 1526.5,915.298 1528.67,915.177 1530.84,915.057 1533.01,914.937 1535.17,914.817 1537.34,914.698 1539.51,914.58 1541.68,914.462 1543.85,914.345 1546.02,914.228 1548.19,914.112 1550.36,913.996 1552.52,913.881 1554.69,913.767 1556.86,913.652 1559.03,913.539 1561.2,913.426 1563.37,913.313 1565.54,913.201 1567.7,913.09 1569.87,912.979 1572.04,912.868 1574.21,912.758 1576.38,912.649 1578.55,912.54 1580.72,912.431 1582.88,912.323 1585.05,912.215 1587.22,912.108 1589.39,912.002 1591.56,911.896 1593.73,911.79 1595.9,911.685 1598.07,911.58 1600.23,911.476 1602.4,911.372 1604.57,911.269 1606.74,911.166 1608.91,911.064 1611.08,910.962 1613.25,910.861 1615.41,910.76 1617.58,910.66 1619.75,910.56 1621.92,910.46 1624.09,910.361 1626.26,910.262 1628.43,910.164 1630.6,910.066 1632.76,909.969 1634.93,909.872 1637.1,909.776 1639.27,909.68 1641.44,909.584 1643.61,909.489 1645.78,909.394 1647.94,909.3 1650.11,909.206 1652.28,909.113 1654.45,909.02 1656.62,908.927 1658.79,908.835 1660.96,908.743 1663.13,908.652 1665.29,908.561 1667.46,908.47 1669.63,908.38 1671.8,908.291 1673.97,908.201 1676.14,908.112 1678.31,908.024 1680.47,907.936 1682.64,907.848 1684.81,907.761 1686.98,907.674 1689.15,907.587 1691.32,907.501 1693.49,907.415 1695.65,907.33 1697.82,907.245 1699.99,907.16 1702.16,907.076 1704.33,906.992 1706.5,906.909 1708.67,906.825 1710.84,906.743 1713,906.66 1715.17,906.578 1717.34,906.497 1719.51,906.415 1721.68,906.335 1723.85,906.254 1726.02,906.174 1728.18,906.094 1730.35,906.015 1732.52,905.935 1734.69,905.857 1736.86,905.778 1739.03,905.7 1741.2,905.623 1743.37,905.545 1745.53,905.468 1747.7,905.392 1749.87,905.315 1752.04,905.239 1754.21,905.164 1756.38,905.088 1758.55,905.013 1760.71,904.939 1762.88,904.865 1765.05,904.791 1767.22,904.717 1769.39,904.644 1771.56,904.571 1773.73,904.498 1775.89,904.426 1778.06,904.354 1780.23,904.282 1782.4,904.211 1784.57,904.14 1786.74,904.07 1788.91,903.999 1791.08,903.929 1793.24,903.859 1795.41,903.79 1797.58,903.721 1799.75,903.652 1801.92,903.584 1804.09,903.516 1806.26,903.448 1808.42,903.38 1810.59,903.313 1812.76,903.246 1814.93,903.18 1817.1,903.113 1819.27,903.047 1821.44,902.982 1823.61,902.916 1825.77,902.851 1827.94,902.786 1830.11,902.722 1832.28,902.658 1834.45,902.594 1836.62,902.53 1838.79,902.467 1840.95,902.404 1843.12,902.341 1845.29,902.278 1847.46,902.216 1849.63,902.154 1851.8,902.093 1853.97,902.031 1856.13,901.97 1858.3,901.909 1860.47,901.849 1862.64,901.789 1864.81,901.729 1866.98,901.669 1869.15,901.61 1871.32,901.55 1873.48,901.492 1875.65,901.433 1877.82,901.375 1879.99,901.316 1882.16,901.259 1884.33,901.201 1886.5,901.144 1888.66,901.087 1890.83,901.03 1893,900.973 1895.17,900.917 1897.34,900.861 1899.51,900.805 1901.68,900.75 1903.85,900.695 1906.01,900.64 1908.18,900.585 1910.35,900.53 1912.52,900.476 1914.69,900.422 1916.86,900.368 1919.03,900.315 1921.19,900.261 1923.36,900.208 1925.53,900.156 1927.7,900.103 1929.87,900.051 1932.04,899.999 1934.21,899.947 1936.37,899.895 1938.54,899.844 1940.71,899.793 1942.88,899.742 1945.05,899.691 1947.22,899.641 1949.39,899.59 1951.56,899.54 1953.72,899.491 1955.89,899.441 1958.06,899.392 1960.23,899.343 1962.4,899.294 1964.57,899.245 1966.74,899.197 1968.9,899.149 1971.07,899.101 1973.24,899.053 1975.41,899.005 1977.58,898.958 1979.75,898.911 1981.92,898.864 1984.09,898.817 1986.25,898.771 1988.42,898.724 1990.59,898.678 1992.76,898.632 1994.93,898.587 1997.1,898.541 1999.27,898.496 2001.43,898.451 2003.6,898.406 2005.77,898.361 2007.94,898.317 2010.11,898.273 2012.28,898.229 2014.45,898.185 2016.62,898.141 2018.78,898.098 2020.95,898.054 2023.12,898.011 2025.29,897.969 2027.46,897.926 2029.63,897.883 2031.8,897.841 2033.96,897.799 2036.13,897.757 2038.3,897.715 2040.47,897.674 2042.64,897.632 2044.81,897.591 2046.98,897.55 2049.14,897.509 2051.31,897.469 2053.48,897.428 2055.65,897.388 2057.82,897.348 2059.99,897.308 2062.16,897.268 2064.33,897.229 2066.49,897.189 2068.66,897.15 2070.83,897.111 2073,897.072 2075.17,897.033 2077.34,896.995 2079.51,896.957 2081.67,896.918 2083.84,896.88 2086.01,896.842 2088.18,896.805 2090.35,896.767 2092.52,896.73 2094.69,896.693 2096.86,896.656 2099.02,896.619 2101.19,896.582 2103.36,896.546 2105.53,896.509 2107.7,896.473 2109.87,896.437 2112.04,896.401 2114.2,896.365 2116.37,896.33 2118.54,896.294 2120.71,896.259 2122.88,896.224 2125.05,896.189 2127.22,896.154 2129.38,896.12 2131.55,896.085 2133.72,896.051 2135.89,896.017 2138.06,895.983 2140.23,895.949 2142.4,895.915 2144.57,895.882 2146.73,895.848 2148.9,895.815 2151.07,895.782 2153.24,895.749 2155.41,895.716 2157.58,895.684 2159.75,895.651 2161.91,895.619 2164.08,895.587 2166.25,895.555 2168.42,895.523 2170.59,895.491 2172.76,895.459 2174.93,895.428 2177.1,895.396 2179.26,895.365 2181.43,895.334 2183.6,895.303 2185.77,895.272 2187.94,895.242 2190.11,895.211 2192.28,895.181 2194.44,895.151 2196.61,895.121 2198.78,895.091 2200.95,895.061 2203.12,895.031 2205.29,895.001 2207.46,894.972 2209.62,894.943 2211.79,894.914 2213.96,894.885 2216.13,894.856 2218.3,894.827 2220.47,894.798 2222.64,894.77 2224.81,894.741 2226.97,894.713 2229.14,894.685 2231.31,894.657 2233.48,894.629 2235.65,894.601 2237.82,894.574 2239.99,894.546 2242.15,894.519 2244.32,894.491 2246.49,894.464 2248.66,894.437 2250.83,894.41 2253,894.384 2255.17,894.357 2257.34,894.33 2259.5,894.304 2261.67,894.278 2263.84,894.251 2266.01,894.225 2268.18,894.199 2270.35,894.174 2272.52,894.148 2274.68,894.122 2276.85,894.097 2279.02,894.071 2281.19,894.046 2283.36,894.021 2285.53,893.996 2287.7,893.971 2289.87,893.946 2292.03,893.922 2294.2,893.897 2296.37,893.872 2298.54,893.848 2300.71,893.824 2302.88,893.8 2305.05,893.776 2307.21,893.752 2309.38,893.728 2311.55,893.704 2313.72,893.681 2315.89,893.657 2318.06,893.634 2320.23,893.61 2322.39,893.587 2324.56,893.564 2326.73,893.541 2328.9,893.518 2331.07,893.495 2333.24,893.473 2335.41,893.45 2337.58,893.428 2339.74,893.405 2341.91,893.383 2344.08,893.361 2346.25,893.339 2348.42,893.317 2350.59,893.295 2352.76,893.273 "/>
<path clip-path="url(#clip400)" d="M1981.02 300.469 L2280.54 300.469 L2280.54 93.1086 L1981.02 93.1086  Z" fill="#ffffff" fill-rule="evenodd" fill-opacity="1"/>
<polyline clip-path="url(#clip400)" style="stroke:#000000; stroke-linecap:round; stroke-linejoin:round; stroke-width:4; stroke-opacity:1; fill:none" points="1981.02,300.469 2280.54,300.469 2280.54,93.1086 1981.02,93.1086 1981.02,300.469 "/>
<polyline clip-path="url(#clip400)" style="stroke:#009af9; stroke-linecap:round; stroke-linejoin:round; stroke-width:12; stroke-opacity:1; fill:none" points="2005.09,144.949 2149.53,144.949 "/>
<path clip-path="url(#clip400)" d="M2189.43 132.275 L2183.09 149.474 L2195.8 149.474 L2189.43 132.275 M2186.79 127.669 L2192.09 127.669 L2205.26 162.229 L2200.4 162.229 L2197.26 153.363 L2181.68 153.363 L2178.53 162.229 L2173.6 162.229 L2186.79 127.669 Z" fill="#000000" fill-rule="nonzero" fill-opacity="1" /><path clip-path="url(#clip400)" d="M2219.38 145.585 L2219.38 152.807 L2227.51 152.807 L2227.51 155.006 L2219.38 155.006 L2219.38 162.229 L2216.95 162.229 L2216.95 155.006 L2208.83 155.006 L2208.83 152.807 L2216.95 152.807 L2216.95 145.585 L2219.38 145.585 Z" fill="#000000" fill-rule="nonzero" fill-opacity="1" /><path clip-path="url(#clip400)" d="M2237.69 149.289 Q2237.69 153.988 2239.62 156.673 Q2241.56 159.335 2244.94 159.335 Q2248.32 159.335 2250.26 156.673 Q2252.21 153.988 2252.21 149.289 Q2252.21 144.59 2250.26 141.928 Q2248.32 139.243 2244.94 139.243 Q2241.56 139.243 2239.62 141.928 Q2237.69 144.59 2237.69 149.289 M2252.21 158.34 Q2250.87 160.655 2248.81 161.789 Q2246.77 162.9 2243.9 162.9 Q2239.2 162.9 2236.24 159.15 Q2233.3 155.4 2233.3 149.289 Q2233.3 143.178 2236.24 139.428 Q2239.2 135.678 2243.9 135.678 Q2246.77 135.678 2248.81 136.812 Q2250.87 137.923 2252.21 140.238 L2252.21 136.303 L2256.47 136.303 L2256.47 172.09 L2252.21 172.09 L2252.21 158.34 Z" fill="#000000" fill-rule="nonzero" fill-opacity="1" /><polyline clip-path="url(#clip400)" style="stroke:#e26f46; stroke-linecap:round; stroke-linejoin:round; stroke-width:12; stroke-opacity:1; fill:none" points="2005.09,196.789 2149.53,196.789 "/>
<path clip-path="url(#clip400)" d="M2178.27 197.564 L2178.27 210.226 L2185.77 210.226 Q2189.55 210.226 2191.35 208.675 Q2193.18 207.101 2193.18 203.883 Q2193.18 200.643 2191.35 199.115 Q2189.55 197.564 2185.77 197.564 L2178.27 197.564 M2178.27 183.351 L2178.27 193.768 L2185.2 193.768 Q2188.62 193.768 2190.29 192.495 Q2191.98 191.198 2191.98 188.559 Q2191.98 185.944 2190.29 184.647 Q2188.62 183.351 2185.2 183.351 L2178.27 183.351 M2173.6 179.509 L2185.54 179.509 Q2190.89 179.509 2193.78 181.731 Q2196.68 183.953 2196.68 188.05 Q2196.68 191.222 2195.2 193.097 Q2193.71 194.971 2190.84 195.434 Q2194.29 196.175 2196.19 198.536 Q2198.11 200.874 2198.11 204.393 Q2198.11 209.022 2194.96 211.545 Q2191.82 214.069 2186.01 214.069 L2173.6 214.069 L2173.6 179.509 Z" fill="#000000" fill-rule="nonzero" fill-opacity="1" /><path clip-path="url(#clip400)" d="M2215.19 197.425 L2215.19 204.647 L2223.32 204.647 L2223.32 206.846 L2215.19 206.846 L2215.19 214.069 L2212.76 214.069 L2212.76 206.846 L2204.64 206.846 L2204.64 204.647 L2212.76 204.647 L2212.76 197.425 L2215.19 197.425 Z" fill="#000000" fill-rule="nonzero" fill-opacity="1" /><path clip-path="url(#clip400)" d="M2233.5 201.129 Q2233.5 205.828 2235.43 208.513 Q2237.37 211.175 2240.75 211.175 Q2244.13 211.175 2246.07 208.513 Q2248.02 205.828 2248.02 201.129 Q2248.02 196.43 2246.07 193.768 Q2244.13 191.083 2240.75 191.083 Q2237.37 191.083 2235.43 193.768 Q2233.5 196.43 2233.5 201.129 M2248.02 210.18 Q2246.68 212.495 2244.62 213.629 Q2242.58 214.74 2239.71 214.74 Q2235.01 214.74 2232.05 210.99 Q2229.11 207.24 2229.11 201.129 Q2229.11 195.018 2232.05 191.268 Q2235.01 187.518 2239.71 187.518 Q2242.58 187.518 2244.62 188.652 Q2246.68 189.763 2248.02 192.078 L2248.02 188.143 L2252.28 188.143 L2252.28 223.93 L2248.02 223.93 L2248.02 210.18 Z" fill="#000000" fill-rule="nonzero" fill-opacity="1" /><polyline clip-path="url(#clip400)" style="stroke:#3da44d; stroke-linecap:round; stroke-linejoin:round; stroke-width:12; stroke-opacity:1; fill:none" points="2005.09,248.629 2149.53,248.629 "/>
<path clip-path="url(#clip400)" d="M2201.47 234.011 L2201.47 238.941 Q2199.11 236.742 2196.42 235.654 Q2193.76 234.566 2190.75 234.566 Q2184.82 234.566 2181.68 238.2 Q2178.53 241.812 2178.53 248.663 Q2178.53 255.492 2181.68 259.126 Q2184.82 262.737 2190.75 262.737 Q2193.76 262.737 2196.42 261.649 Q2199.11 260.561 2201.47 258.362 L2201.47 263.247 Q2199.01 264.913 2196.26 265.747 Q2193.53 266.58 2190.47 266.58 Q2182.63 266.58 2178.11 261.788 Q2173.6 256.973 2173.6 248.663 Q2173.6 240.33 2178.11 235.538 Q2182.63 230.724 2190.47 230.724 Q2193.57 230.724 2196.31 231.557 Q2199.06 232.367 2201.47 234.011 Z" fill="#000000" fill-rule="nonzero" fill-opacity="1" /><path clip-path="url(#clip400)" d="M2217.76 249.265 L2217.76 256.487 L2225.89 256.487 L2225.89 258.686 L2217.76 258.686 L2217.76 265.909 L2215.33 265.909 L2215.33 258.686 L2207.21 258.686 L2207.21 256.487 L2215.33 256.487 L2215.33 249.265 L2217.76 249.265 Z" fill="#000000" fill-rule="nonzero" fill-opacity="1" /><path clip-path="url(#clip400)" d="M2236.07 252.969 Q2236.07 257.668 2238 260.353 Q2239.94 263.015 2243.32 263.015 Q2246.7 263.015 2248.64 260.353 Q2250.59 257.668 2250.59 252.969 Q2250.59 248.27 2248.64 245.608 Q2246.7 242.923 2243.32 242.923 Q2239.94 242.923 2238 245.608 Q2236.07 248.27 2236.07 252.969 M2250.59 262.02 Q2249.25 264.335 2247.19 265.469 Q2245.15 266.58 2242.28 266.58 Q2237.58 266.58 2234.62 262.83 Q2231.68 259.08 2231.68 252.969 Q2231.68 246.858 2234.62 243.108 Q2237.58 239.358 2242.28 239.358 Q2245.15 239.358 2247.19 240.492 Q2249.25 241.603 2250.59 243.918 L2250.59 239.983 L2254.85 239.983 L2254.85 275.77 L2250.59 275.77 L2250.59 262.02 Z" fill="#000000" fill-rule="nonzero" fill-opacity="1" /></svg>
