<?xml version="1.0" encoding="utf-8"?>
<svg xmlns="http://www.w3.org/2000/svg" xmlns:xlink="http://www.w3.org/1999/xlink" width="600" height="400" viewBox="0 0 2400 1600">
<defs>
  <clipPath id="clip340">
    <rect x="0" y="0" width="2400" height="1600"/>
  </clipPath>
</defs>
<path clip-path="url(#clip340)" d="M0 1600 L2400 1600 L2400 0 L0 0  Z" fill="#ffffff" fill-rule="evenodd" fill-opacity="1"/>
<defs>
  <clipPath id="clip341">
    <rect x="480" y="0" width="1681" height="1600"/>
  </clipPath>
</defs>
<path clip-path="url(#clip340)" d="M485.358 1552.76 L1914.64 1552.76 L1914.64 123.472 L485.358 123.472  Z" fill="#ffffff" fill-rule="evenodd" fill-opacity="1"/>
<defs>
  <clipPath id="clip342">
    <rect x="485" y="123" width="1430" height="1430"/>
  </clipPath>
</defs>
<path clip-path="url(#clip340)" d="M1145.21 20.1573 L1134.11 50.2555 L1156.35 50.2555 L1145.21 20.1573 M1140.59 12.096 L1149.87 12.096 L1172.92 72.576 L1164.41 72.576 L1158.9 57.061 L1131.64 57.061 L1126.13 72.576 L1117.5 72.576 L1140.59 12.096 Z" fill="#000000" fill-rule="nonzero" fill-opacity="1" /><path clip-path="url(#clip340)" d="M1189.93 43.6931 L1189.93 65.8515 L1203.06 65.8515 Q1209.66 65.8515 1212.82 63.1374 Q1216.02 60.3828 1216.02 54.752 Q1216.02 49.0808 1212.82 46.4072 Q1209.66 43.6931 1203.06 43.6931 L1189.93 43.6931 M1189.93 18.8205 L1189.93 37.0496 L1202.05 37.0496 Q1208.04 37.0496 1210.96 34.8216 Q1213.91 32.5531 1213.91 27.935 Q1213.91 23.3575 1210.96 21.089 Q1208.04 18.8205 1202.05 18.8205 L1189.93 18.8205 M1181.75 12.096 L1202.65 12.096 Q1212.01 12.096 1217.07 15.9849 Q1222.14 19.8737 1222.14 27.0438 Q1222.14 32.5936 1219.55 35.8748 Q1216.95 39.156 1211.93 39.9662 Q1217.97 41.2625 1221.29 45.3944 Q1224.65 49.4858 1224.65 55.6432 Q1224.65 63.745 1219.14 68.1605 Q1213.63 72.576 1203.46 72.576 L1181.75 72.576 L1181.75 12.096 Z" fill="#000000" fill-rule="nonzero" fill-opacity="1" /><path clip-path="url(#clip340)" d="M1282.5 16.7545 L1282.5 25.383 Q1278.36 21.5346 1273.67 19.6307 Q1269.01 17.7268 1263.74 17.7268 Q1253.37 17.7268 1247.86 24.0867 Q1242.35 30.4061 1242.35 42.3968 Q1242.35 54.3469 1247.86 60.7069 Q1253.37 67.0263 1263.74 67.0263 Q1269.01 67.0263 1273.67 65.1223 Q1278.36 63.2184 1282.5 59.3701 L1282.5 67.9175 Q1278.2 70.8341 1273.38 72.2924 Q1268.6 73.7508 1263.25 73.7508 Q1249.52 73.7508 1241.62 65.3654 Q1233.72 56.9395 1233.72 42.3968 Q1233.72 27.8135 1241.62 19.4281 Q1249.52 11.0023 1263.25 11.0023 Q1268.68 11.0023 1273.46 12.4606 Q1278.28 13.8784 1282.5 16.7545 Z" fill="#000000" fill-rule="nonzero" fill-opacity="1" /><polyline clip-path="url(#clip342)" style="stroke:#000000; stroke-linecap:round; stroke-linejoin:round; stroke-width:4; stroke-opacity:1; fill:none" points="1232.4,1348.57 1138.04,954.758 "/>
<polyline clip-path="url(#clip342)" style="stroke:#000000; stroke-linecap:round; stroke-linejoin:round; stroke-width:4; stroke-opacity:1; fill:none" points="1128.93,993.961 1138.04,954.758 1163.94,985.573 "/>
<polyline clip-path="url(#clip342)" style="stroke:#000000; stroke-linecap:round; stroke-linejoin:round; stroke-width:4; stroke-opacity:1; fill:none" points="1138.04,954.758 1232.4,1348.57 "/>
<polyline clip-path="url(#clip342)" style="stroke:#000000; stroke-linecap:round; stroke-linejoin:round; stroke-width:4; stroke-opacity:1; fill:none" points="689.542,856.872 1102.37,922.029 "/>
<polyline clip-path="url(#clip342)" style="stroke:#000000; stroke-linecap:round; stroke-linejoin:round; stroke-width:4; stroke-opacity:1; fill:none" points="1069.62,898.637 1102.37,922.029 1064,934.196 "/>
<polyline clip-path="url(#clip342)" style="stroke:#000000; stroke-linecap:round; stroke-linejoin:round; stroke-width:4; stroke-opacity:1; fill:none" points="1102.37,922.029 689.542,856.872 "/>
<polyline clip-path="url(#clip342)" style="stroke:#000000; stroke-linecap:round; stroke-linejoin:round; stroke-width:4; stroke-opacity:1; fill:none" points="1126.1,931.974 1387.53,646.764 "/>
<polyline clip-path="url(#clip342)" style="stroke:#000000; stroke-linecap:round; stroke-linejoin:round; stroke-width:4; stroke-opacity:1; fill:none" points="1349.94,661.139 1387.53,646.764 1376.48,685.465 "/>
<polyline clip-path="url(#clip342)" style="stroke:#000000; stroke-linecap:round; stroke-linejoin:round; stroke-width:4; stroke-opacity:1; fill:none" points="1387.53,646.764 1126.1,931.974 "/>
<polyline clip-path="url(#clip342)" style="stroke:#000000; stroke-linecap:round; stroke-linejoin:round; stroke-width:4; stroke-opacity:1; fill:none" points="1710.46,327.656 1447.7,583.854 "/>
<polyline clip-path="url(#clip342)" style="stroke:#000000; stroke-linecap:round; stroke-linejoin:round; stroke-width:4; stroke-opacity:1; fill:none" points="1486.04,571.609 1447.7,583.854 1460.91,545.834 "/>
<polyline clip-path="url(#clip342)" style="stroke:#000000; stroke-linecap:round; stroke-linejoin:round; stroke-width:4; stroke-opacity:1; fill:none" points="1447.7,583.854 1710.46,327.656 "/>
<path clip-path="url(#clip342)" d="M1470.06 622.622 L1469.92 619.063 L1469.49 615.527 L1468.79 612.035 L1467.81 608.611 L1466.56 605.275 L1465.05 602.048 L1463.29 598.952 L1461.29 596.005 L1459.06 593.227 L1456.62 590.635 L1453.98 588.244 L1451.16 586.072 L1448.17 584.13 L1445.04 582.431 L1441.79 580.987 L1438.43 579.806 L1434.98 578.895 L1431.48 578.261 L1427.94 577.908 L1424.37 577.837 L1420.82 578.049 L1417.29 578.544 L1413.81 579.316 L1410.41 580.363 L1407.1 581.677 L1403.9 583.249 L1400.84 585.071 L1397.94 587.13 L1395.2 589.413 L1392.66 591.907 L1390.32 594.594 L1388.21 597.459 L1386.32 600.483 L1384.69 603.646 L1383.31 606.93 L1382.2 610.313 L1381.35 613.774 L1380.79 617.291 L1380.51 620.841 L1380.51 624.403 L1380.79 627.953 L1381.35 631.47 L1382.2 634.93 L1383.31 638.313 L1384.69 641.597 L1386.32 644.761 L1388.21 647.785 L1390.32 650.649 L1392.66 653.337 L1395.2 655.83 L1397.94 658.114 L1400.84 660.173 L1403.9 661.994 L1407.1 663.567 L1410.41 664.881 L1413.81 665.927 L1417.29 666.7 L1420.82 667.194 L1424.37 667.406 L1427.94 667.336 L1431.48 666.982 L1434.98 666.348 L1438.43 665.438 L1441.79 664.257 L1445.04 662.812 L1448.17 661.114 L1451.16 659.172 L1453.98 656.999 L1456.62 654.609 L1459.06 652.016 L1461.29 649.238 L1463.29 646.292 L1465.05 643.195 L1466.56 639.969 L1467.81 636.633 L1468.79 633.208 L1469.49 629.717 L1469.92 626.181 L1470.06 622.622 L1470.06 622.622  Z" fill="#ff7f50" fill-rule="evenodd" fill-opacity="1"/>
<polyline clip-path="url(#clip342)" style="stroke:#000000; stroke-linecap:round; stroke-linejoin:round; stroke-width:4; stroke-opacity:1; fill:none" points="1470.06,622.622 1469.92,619.063 1469.49,615.527 1468.79,612.035 1467.81,608.611 1466.56,605.275 1465.05,602.048 1463.29,598.952 1461.29,596.005 1459.06,593.227 1456.62,590.635 1453.98,588.244 1451.16,586.072 1448.17,584.13 1445.04,582.431 1441.79,580.987 1438.43,579.806 1434.98,578.895 1431.48,578.261 1427.94,577.908 1424.37,577.837 1420.82,578.049 1417.29,578.544 1413.81,579.316 1410.41,580.363 1407.1,581.677 1403.9,583.249 1400.84,585.071 1397.94,587.13 1395.2,589.413 1392.66,591.907 1390.32,594.594 1388.21,597.459 1386.32,600.483 1384.69,603.646 1383.31,606.93 1382.2,610.313 1381.35,613.774 1380.79,617.291 1380.51,620.841 1380.51,624.403 1380.79,627.953 1381.35,631.47 1382.2,634.93 1383.31,638.313 1384.69,641.597 1386.32,644.761 1388.21,647.785 1390.32,650.649 1392.66,653.337 1395.2,655.83 1397.94,658.114 1400.84,660.173 1403.9,661.994 1407.1,663.567 1410.41,664.881 1413.81,665.927 1417.29,666.7 1420.82,667.194 1424.37,667.406 1427.94,667.336 1431.48,666.982 1434.98,666.348 1438.43,665.438 1441.79,664.257 1445.04,662.812 1448.17,661.114 1451.16,659.172 1453.98,656.999 1456.62,654.609 1459.06,652.016 1461.29,649.238 1463.29,646.292 1465.05,643.195 1466.56,639.969 1467.81,636.633 1468.79,633.208 1469.49,629.717 1469.92,626.181 1470.06,622.622 "/>
<path clip-path="url(#clip342)" d="M1151.82 931.974 L1151.74 929.929 L1151.5 927.898 L1151.09 925.893 L1150.53 923.926 L1149.82 922.01 L1148.95 920.157 L1147.94 918.379 L1146.79 916.686 L1145.51 915.091 L1144.11 913.602 L1142.59 912.229 L1140.97 910.981 L1139.25 909.866 L1137.46 908.89 L1135.59 908.061 L1133.66 907.382 L1131.68 906.859 L1129.67 906.495 L1127.63 906.292 L1125.58 906.251 L1123.54 906.373 L1121.52 906.657 L1119.52 907.101 L1117.56 907.702 L1115.66 908.457 L1113.83 909.36 L1112.07 910.406 L1110.4 911.589 L1108.83 912.9 L1107.37 914.332 L1106.03 915.876 L1104.81 917.521 L1103.73 919.258 L1102.79 921.075 L1102 922.961 L1101.36 924.904 L1100.88 926.892 L1100.55 928.912 L1100.39 930.951 L1100.39 932.996 L1100.55 935.036 L1100.88 937.055 L1101.36 939.043 L1102 940.986 L1102.79 942.872 L1103.73 944.689 L1104.81 946.426 L1106.03 948.071 L1107.37 949.615 L1108.83 951.047 L1110.4 952.358 L1112.07 953.541 L1113.83 954.587 L1115.66 955.49 L1117.56 956.245 L1119.52 956.846 L1121.52 957.29 L1123.54 957.574 L1125.58 957.696 L1127.63 957.655 L1129.67 957.452 L1131.68 957.088 L1133.66 956.565 L1135.59 955.886 L1137.46 955.057 L1139.25 954.081 L1140.97 952.966 L1142.59 951.718 L1144.11 950.345 L1145.51 948.856 L1146.79 947.261 L1147.94 945.568 L1148.95 943.79 L1149.82 941.937 L1150.53 940.021 L1151.09 938.054 L1151.5 936.049 L1151.74 934.018 L1151.82 931.974 L1151.82 931.974  Z" fill="#ffffff" fill-rule="evenodd" fill-opacity="1"/>
<polyline clip-path="url(#clip342)" style="stroke:#000000; stroke-linecap:round; stroke-linejoin:round; stroke-width:4; stroke-opacity:1; fill:none" points="1151.82,931.974 1151.74,929.929 1151.5,927.898 1151.09,925.893 1150.53,923.926 1149.82,922.01 1148.95,920.157 1147.94,918.379 1146.79,916.686 1145.51,915.091 1144.11,913.602 1142.59,912.229 1140.97,910.981 1139.25,909.866 1137.46,908.89 1135.59,908.061 1133.66,907.382 1131.68,906.859 1129.67,906.495 1127.63,906.292 1125.58,906.251 1123.54,906.373 1121.52,906.657 1119.52,907.101 1117.56,907.702 1115.66,908.457 1113.83,909.36 1112.07,910.406 1110.4,911.589 1108.83,912.9 1107.37,914.332 1106.03,915.876 1104.81,917.521 1103.73,919.258 1102.79,921.075 1102,922.961 1101.36,924.904 1100.88,926.892 1100.55,928.912 1100.39,930.951 1100.39,932.996 1100.55,935.036 1100.88,937.055 1101.36,939.043 1102,940.986 1102.79,942.872 1103.73,944.689 1104.81,946.426 1106.03,948.071 1107.37,949.615 1108.83,951.047 1110.4,952.358 1112.07,953.541 1113.83,954.587 1115.66,955.49 1117.56,956.245 1119.52,956.846 1121.52,957.29 1123.54,957.574 1125.58,957.696 1127.63,957.655 1129.67,957.452 1131.68,957.088 1133.66,956.565 1135.59,955.886 1137.46,955.057 1139.25,954.081 1140.97,952.966 1142.59,951.718 1144.11,950.345 1145.51,948.856 1146.79,947.261 1147.94,945.568 1148.95,943.79 1149.82,941.937 1150.53,940.021 1151.09,938.054 1151.5,936.049 1151.74,934.018 1151.82,931.974 "/>
<path clip-path="url(#clip342)" d="M1258.13 1348.57 L1258.05 1346.53 L1257.81 1344.5 L1257.4 1342.49 L1256.84 1340.53 L1256.12 1338.61 L1255.26 1336.76 L1254.25 1334.98 L1253.1 1333.29 L1251.82 1331.69 L1250.41 1330.2 L1248.9 1328.83 L1247.28 1327.58 L1245.56 1326.46 L1243.76 1325.49 L1241.89 1324.66 L1239.96 1323.98 L1237.99 1323.46 L1235.97 1323.09 L1233.94 1322.89 L1231.89 1322.85 L1229.85 1322.97 L1227.82 1323.26 L1225.83 1323.7 L1223.87 1324.3 L1221.97 1325.06 L1220.14 1325.96 L1218.38 1327.01 L1216.71 1328.19 L1215.14 1329.5 L1213.68 1330.93 L1212.33 1332.47 L1211.12 1334.12 L1210.04 1335.86 L1209.1 1337.67 L1208.31 1339.56 L1207.67 1341.5 L1207.18 1343.49 L1206.86 1345.51 L1206.7 1347.55 L1206.7 1349.6 L1206.86 1351.63 L1207.18 1353.65 L1207.67 1355.64 L1208.31 1357.58 L1209.1 1359.47 L1210.04 1361.29 L1211.12 1363.02 L1212.33 1364.67 L1213.68 1366.21 L1215.14 1367.65 L1216.71 1368.96 L1218.38 1370.14 L1220.14 1371.19 L1221.97 1372.09 L1223.87 1372.84 L1225.83 1373.44 L1227.82 1373.89 L1229.85 1374.17 L1231.89 1374.29 L1233.94 1374.25 L1235.97 1374.05 L1237.99 1373.69 L1239.96 1373.16 L1241.89 1372.49 L1243.76 1371.66 L1245.56 1370.68 L1247.28 1369.57 L1248.9 1368.32 L1250.41 1366.94 L1251.82 1365.46 L1253.1 1363.86 L1254.25 1362.17 L1255.26 1360.39 L1256.12 1358.54 L1256.84 1356.62 L1257.4 1354.65 L1257.81 1352.65 L1258.05 1350.62 L1258.13 1348.57 L1258.13 1348.57  Z" fill="#add8e6" fill-rule="evenodd" fill-opacity="1"/>
<polyline clip-path="url(#clip342)" style="stroke:#000000; stroke-linecap:round; stroke-linejoin:round; stroke-width:4; stroke-opacity:1; fill:none" points="1258.13,1348.57 1258.05,1346.53 1257.81,1344.5 1257.4,1342.49 1256.84,1340.53 1256.12,1338.61 1255.26,1336.76 1254.25,1334.98 1253.1,1333.29 1251.82,1331.69 1250.41,1330.2 1248.9,1328.83 1247.28,1327.58 1245.56,1326.46 1243.76,1325.49 1241.89,1324.66 1239.96,1323.98 1237.99,1323.46 1235.97,1323.09 1233.94,1322.89 1231.89,1322.85 1229.85,1322.97 1227.82,1323.26 1225.83,1323.7 1223.87,1324.3 1221.97,1325.06 1220.14,1325.96 1218.38,1327.01 1216.71,1328.19 1215.14,1329.5 1213.68,1330.93 1212.33,1332.47 1211.12,1334.12 1210.04,1335.86 1209.1,1337.67 1208.31,1339.56 1207.67,1341.5 1207.18,1343.49 1206.86,1345.51 1206.7,1347.55 1206.7,1349.6 1206.86,1351.63 1207.18,1353.65 1207.67,1355.64 1208.31,1357.58 1209.1,1359.47 1210.04,1361.29 1211.12,1363.02 1212.33,1364.67 1213.68,1366.21 1215.14,1367.65 1216.71,1368.96 1218.38,1370.14 1220.14,1371.19 1221.97,1372.09 1223.87,1372.84 1225.83,1373.44 1227.82,1373.89 1229.85,1374.17 1231.89,1374.29 1233.94,1374.25 1235.97,1374.05 1237.99,1373.69 1239.96,1373.16 1241.89,1372.49 1243.76,1371.66 1245.56,1370.68 1247.28,1369.57 1248.9,1368.32 1250.41,1366.94 1251.82,1365.46 1253.1,1363.86 1254.25,1362.17 1255.26,1360.39 1256.12,1358.54 1256.84,1356.62 1257.4,1354.65 1257.81,1352.65 1258.05,1350.62 1258.13,1348.57 "/>
<path clip-path="url(#clip342)" d="M715.269 856.872 L715.187 854.828 L714.944 852.797 L714.54 850.792 L713.978 848.825 L713.261 846.909 L712.394 845.056 L711.383 843.278 L710.234 841.585 L708.954 839.989 L707.552 838.501 L706.035 837.128 L704.414 835.88 L702.699 834.764 L700.901 833.789 L699.031 832.959 L697.101 832.281 L695.124 831.758 L693.111 831.394 L691.075 831.191 L689.03 831.15 L686.988 831.272 L684.962 831.556 L682.965 832 L681.01 832.601 L679.109 833.356 L677.273 834.259 L675.515 835.305 L673.846 836.488 L672.276 837.799 L670.815 839.231 L669.473 840.775 L668.257 842.42 L667.176 844.157 L666.237 845.974 L665.445 847.86 L664.805 849.803 L664.321 851.79 L663.997 853.81 L663.835 855.849 L663.835 857.895 L663.997 859.934 L664.321 861.954 L664.805 863.942 L665.445 865.885 L666.237 867.771 L667.176 869.588 L668.257 871.325 L669.473 872.97 L670.815 874.514 L672.276 875.946 L673.846 877.257 L675.515 878.44 L677.273 879.486 L679.109 880.389 L681.01 881.144 L682.965 881.745 L684.962 882.189 L686.988 882.472 L689.03 882.594 L691.075 882.554 L693.111 882.351 L695.124 881.986 L697.101 881.464 L699.031 880.785 L700.901 879.956 L702.699 878.98 L704.414 877.865 L706.035 876.617 L707.552 875.244 L708.954 873.755 L710.234 872.159 L711.383 870.467 L712.394 868.689 L713.261 866.836 L713.978 864.92 L714.54 862.953 L714.944 860.947 L715.187 858.916 L715.269 856.872 L715.269 856.872  Z" fill="#add8e6" fill-rule="evenodd" fill-opacity="1"/>
<polyline clip-path="url(#clip342)" style="stroke:#000000; stroke-linecap:round; stroke-linejoin:round; stroke-width:4; stroke-opacity:1; fill:none" points="715.269,856.872 715.187,854.828 714.944,852.797 714.54,850.792 713.978,848.825 713.261,846.909 712.394,845.056 711.383,843.278 710.234,841.585 708.954,839.989 707.552,838.501 706.035,837.128 704.414,835.88 702.699,834.764 700.901,833.789 699.031,832.959 697.101,832.281 695.124,831.758 693.111,831.394 691.075,831.191 689.03,831.15 686.988,831.272 684.962,831.556 682.965,832 681.01,832.601 679.109,833.356 677.273,834.259 675.515,835.305 673.846,836.488 672.276,837.799 670.815,839.231 669.473,840.775 668.257,842.42 667.176,844.157 666.237,845.974 665.445,847.86 664.805,849.803 664.321,851.79 663.997,853.81 663.835,855.849 663.835,857.895 663.997,859.934 664.321,861.954 664.805,863.942 665.445,865.885 666.237,867.771 667.176,869.588 668.257,871.325 669.473,872.97 670.815,874.514 672.276,875.946 673.846,877.257 675.515,878.44 677.273,879.486 679.109,880.389 681.01,881.144 682.965,881.745 684.962,882.189 686.988,882.472 689.03,882.594 691.075,882.554 693.111,882.351 695.124,881.986 697.101,881.464 699.031,880.785 700.901,879.956 702.699,878.98 704.414,877.865 706.035,876.617 707.552,875.244 708.954,873.755 710.234,872.159 711.383,870.467 712.394,868.689 713.261,866.836 713.978,864.92 714.54,862.953 714.944,860.947 715.187,858.916 715.269,856.872 "/>
<path clip-path="url(#clip342)" d="M1736.19 327.656 L1736.1 325.612 L1735.86 323.58 L1735.46 321.575 L1734.89 319.608 L1734.18 317.692 L1733.31 315.839 L1732.3 314.061 L1731.15 312.368 L1729.87 310.773 L1728.47 309.284 L1726.95 307.911 L1725.33 306.663 L1723.62 305.548 L1721.82 304.572 L1719.95 303.743 L1718.02 303.064 L1716.04 302.541 L1714.03 302.177 L1711.99 301.974 L1709.95 301.934 L1707.9 302.055 L1705.88 302.339 L1703.88 302.783 L1701.93 303.384 L1700.03 304.139 L1698.19 305.042 L1696.43 306.088 L1694.76 307.271 L1693.19 308.582 L1691.73 310.014 L1690.39 311.558 L1689.17 313.203 L1688.09 314.94 L1687.15 316.757 L1686.36 318.643 L1685.72 320.586 L1685.24 322.574 L1684.91 324.594 L1684.75 326.633 L1684.75 328.678 L1684.91 330.718 L1685.24 332.737 L1685.72 334.725 L1686.36 336.668 L1687.15 338.554 L1688.09 340.371 L1689.17 342.108 L1690.39 343.753 L1691.73 345.297 L1693.19 346.729 L1694.76 348.04 L1696.43 349.223 L1698.19 350.269 L1700.03 351.172 L1701.93 351.927 L1703.88 352.528 L1705.88 352.972 L1707.9 353.256 L1709.95 353.378 L1711.99 353.337 L1714.03 353.134 L1716.04 352.77 L1718.02 352.247 L1719.95 351.568 L1721.82 350.739 L1723.62 349.763 L1725.33 348.648 L1726.95 347.4 L1728.47 346.027 L1729.87 344.538 L1731.15 342.943 L1732.3 341.25 L1733.31 339.472 L1734.18 337.619 L1734.89 335.703 L1735.46 333.736 L1735.86 331.731 L1736.1 329.7 L1736.19 327.656 L1736.19 327.656  Z" fill="#add8e6" fill-rule="evenodd" fill-opacity="1"/>
<polyline clip-path="url(#clip342)" style="stroke:#000000; stroke-linecap:round; stroke-linejoin:round; stroke-width:4; stroke-opacity:1; fill:none" points="1736.19,327.656 1736.1,325.612 1735.86,323.58 1735.46,321.575 1734.89,319.608 1734.18,317.692 1733.31,315.839 1732.3,314.061 1731.15,312.368 1729.87,310.773 1728.47,309.284 1726.95,307.911 1725.33,306.663 1723.62,305.548 1721.82,304.572 1719.95,303.743 1718.02,303.064 1716.04,302.541 1714.03,302.177 1711.99,301.974 1709.95,301.934 1707.9,302.055 1705.88,302.339 1703.88,302.783 1701.93,303.384 1700.03,304.139 1698.19,305.042 1696.43,306.088 1694.76,307.271 1693.19,308.582 1691.73,310.014 1690.39,311.558 1689.17,313.203 1688.09,314.94 1687.15,316.757 1686.36,318.643 1685.72,320.586 1685.24,322.574 1684.91,324.594 1684.75,326.633 1684.75,328.678 1684.91,330.718 1685.24,332.737 1685.72,334.725 1686.36,336.668 1687.15,338.554 1688.09,340.371 1689.17,342.108 1690.39,343.753 1691.73,345.297 1693.19,346.729 1694.76,348.04 1696.43,349.223 1698.19,350.269 1700.03,351.172 1701.93,351.927 1703.88,352.528 1705.88,352.972 1707.9,353.256 1709.95,353.378 1711.99,353.337 1714.03,353.134 1716.04,352.77 1718.02,352.247 1719.95,351.568 1721.82,350.739 1723.62,349.763 1725.33,348.648 1726.95,347.4 1728.47,346.027 1729.87,344.538 1731.15,342.943 1732.3,341.25 1733.31,339.472 1734.18,337.619 1734.89,335.703 1735.46,333.736 1735.86,331.731 1736.1,329.7 1736.19,327.656 "/>
<circle clip-path="url(#clip342)" style="fill:#add8e6; stroke:none; fill-opacity:0" cx="1425.26" cy="622.622" r="2"/>
<circle clip-path="url(#clip342)" style="fill:#add8e6; stroke:none; fill-opacity:0" cx="1126.1" cy="931.974" r="2"/>
<circle clip-path="url(#clip342)" style="fill:#add8e6; stroke:none; fill-opacity:0" cx="1232.4" cy="1348.57" r="2"/>
<circle clip-path="url(#clip342)" style="fill:#add8e6; stroke:none; fill-opacity:0" cx="689.542" cy="856.872" r="2"/>
<circle clip-path="url(#clip342)" style="fill:#add8e6; stroke:none; fill-opacity:0" cx="1710.46" cy="327.656" r="2"/>
<path clip-path="url(#clip340)" d="M1415.95 623.564 Q1417.26 624.009 1418.5 625.468 Q1419.76 626.926 1421.01 629.478 L1425.16 637.742 L1420.77 637.742 L1416.9 629.984 Q1415.4 626.946 1413.98 625.954 Q1412.59 624.961 1410.15 624.961 L1405.7 624.961 L1405.7 637.742 L1401.61 637.742 L1401.61 607.502 L1410.84 607.502 Q1416.03 607.502 1418.58 609.669 Q1421.13 611.836 1421.13 616.211 Q1421.13 619.067 1419.8 620.951 Q1418.48 622.834 1415.95 623.564 M1405.7 610.864 L1405.7 621.599 L1410.84 621.599 Q1413.8 621.599 1415.3 620.242 Q1416.82 618.865 1416.82 616.211 Q1416.82 613.558 1415.3 612.221 Q1413.8 610.864 1410.84 610.864 L1405.7 610.864 Z" fill="#000000" fill-rule="nonzero" fill-opacity="1" /><path clip-path="url(#clip340)" d="M1431.5 634.298 L1438.19 634.298 L1438.19 611.229 L1430.92 612.687 L1430.92 608.96 L1438.15 607.502 L1442.24 607.502 L1442.24 634.298 L1448.92 634.298 L1448.92 637.742 L1431.5 637.742 L1431.5 634.298 Z" fill="#000000" fill-rule="nonzero" fill-opacity="1" /><path clip-path="url(#clip340)" d="M1117.68 943.65 L1124.36 943.65 L1124.36 920.58 L1117.09 922.039 L1117.09 918.312 L1124.32 916.854 L1128.42 916.854 L1128.42 943.65 L1135.1 943.65 L1135.1 947.094 L1117.68 947.094 L1117.68 943.65 Z" fill="#000000" fill-rule="nonzero" fill-opacity="1" /><path clip-path="url(#clip340)" d="M1232.4 1337.48 L1226.85 1352.53 L1237.97 1352.53 L1232.4 1337.48 M1230.09 1333.45 L1234.73 1333.45 L1246.26 1363.69 L1242 1363.69 L1239.25 1355.94 L1225.62 1355.94 L1222.86 1363.69 L1218.55 1363.69 L1230.09 1333.45 Z" fill="#000000" fill-rule="nonzero" fill-opacity="1" /><path clip-path="url(#clip340)" d="M682.908 857.551 L682.908 868.63 L689.471 868.63 Q692.772 868.63 694.352 867.273 Q695.952 865.896 695.952 863.08 Q695.952 860.245 694.352 858.908 Q692.772 857.551 689.471 857.551 L682.908 857.551 M682.908 845.115 L682.908 854.229 L688.964 854.229 Q691.962 854.229 693.42 853.115 Q694.899 851.981 694.899 849.672 Q694.899 847.383 693.42 846.249 Q691.962 845.115 688.964 845.115 L682.908 845.115 M678.817 841.752 L689.268 841.752 Q693.947 841.752 696.479 843.697 Q699.01 845.641 699.01 849.226 Q699.01 852.001 697.714 853.642 Q696.418 855.282 693.906 855.687 Q696.924 856.336 698.585 858.402 Q700.266 860.447 700.266 863.526 Q700.266 867.577 697.512 869.785 Q694.757 871.992 689.673 871.992 L678.817 871.992 L678.817 841.752 Z" fill="#000000" fill-rule="nonzero" fill-opacity="1" /><path clip-path="url(#clip340)" d="M1722.65 314.865 L1722.65 319.179 Q1720.59 317.255 1718.24 316.303 Q1715.91 315.351 1713.27 315.351 Q1708.09 315.351 1705.33 318.531 Q1702.58 321.691 1702.58 327.686 Q1702.58 333.661 1705.33 336.841 Q1708.09 340.001 1713.27 340.001 Q1715.91 340.001 1718.24 339.049 Q1720.59 338.097 1722.65 336.173 L1722.65 340.446 Q1720.5 341.905 1718.09 342.634 Q1715.7 343.363 1713.03 343.363 Q1706.16 343.363 1702.21 339.17 Q1698.27 334.957 1698.27 327.686 Q1698.27 320.394 1702.21 316.202 Q1706.16 311.989 1713.03 311.989 Q1715.74 311.989 1718.13 312.718 Q1720.55 313.427 1722.65 314.865 Z" fill="#000000" fill-rule="nonzero" fill-opacity="1" /></svg>
