<?xml version="1.0" encoding="utf-8"?>
<svg xmlns="http://www.w3.org/2000/svg" xmlns:xlink="http://www.w3.org/1999/xlink" width="600" height="400" viewBox="0 0 2400 1600">
<defs>
  <clipPath id="clip000">
    <rect x="0" y="0" width="2400" height="1600"/>
  </clipPath>
</defs>
<path clip-path="url(#clip000)" d="M0 1600 L2400 1600 L2400 0 L0 0  Z" fill="#ffffff" fill-rule="evenodd" fill-opacity="1"/>
<defs>
  <clipPath id="clip001">
    <rect x="480" y="0" width="1681" height="1600"/>
  </clipPath>
</defs>
<path clip-path="url(#clip000)" d="M169.121 1423.18 L2352.76 1423.18 L2352.76 47.2441 L169.121 47.2441  Z" fill="#ffffff" fill-rule="evenodd" fill-opacity="1"/>
<defs>
  <clipPath id="clip002">
    <rect x="169" y="47" width="2185" height="1377"/>
  </clipPath>
</defs>
<polyline clip-path="url(#clip002)" style="stroke:#000000; stroke-linecap:round; stroke-linejoin:round; stroke-width:2; stroke-opacity:0.1; fill:none" points="169.121,1423.18 169.121,47.2441 "/>
<polyline clip-path="url(#clip002)" style="stroke:#000000; stroke-linecap:round; stroke-linejoin:round; stroke-width:2; stroke-opacity:0.1; fill:none" points="715.03,1423.18 715.03,47.2441 "/>
<polyline clip-path="url(#clip002)" style="stroke:#000000; stroke-linecap:round; stroke-linejoin:round; stroke-width:2; stroke-opacity:0.1; fill:none" points="1260.94,1423.18 1260.94,47.2441 "/>
<polyline clip-path="url(#clip002)" style="stroke:#000000; stroke-linecap:round; stroke-linejoin:round; stroke-width:2; stroke-opacity:0.1; fill:none" points="1806.85,1423.18 1806.85,47.2441 "/>
<polyline clip-path="url(#clip002)" style="stroke:#000000; stroke-linecap:round; stroke-linejoin:round; stroke-width:2; stroke-opacity:0.1; fill:none" points="2352.76,1423.18 2352.76,47.2441 "/>
<polyline clip-path="url(#clip002)" style="stroke:#000000; stroke-linecap:round; stroke-linejoin:round; stroke-width:2; stroke-opacity:0.1; fill:none" points="169.121,1297.7 2352.76,1297.7 "/>
<polyline clip-path="url(#clip002)" style="stroke:#000000; stroke-linecap:round; stroke-linejoin:round; stroke-width:2; stroke-opacity:0.1; fill:none" points="169.121,1038.09 2352.76,1038.09 "/>
<polyline clip-path="url(#clip002)" style="stroke:#000000; stroke-linecap:round; stroke-linejoin:round; stroke-width:2; stroke-opacity:0.1; fill:none" points="169.121,778.48 2352.76,778.48 "/>
<polyline clip-path="url(#clip002)" style="stroke:#000000; stroke-linecap:round; stroke-linejoin:round; stroke-width:2; stroke-opacity:0.1; fill:none" points="169.121,518.87 2352.76,518.87 "/>
<polyline clip-path="url(#clip002)" style="stroke:#000000; stroke-linecap:round; stroke-linejoin:round; stroke-width:2; stroke-opacity:0.1; fill:none" points="169.121,259.259 2352.76,259.259 "/>
<polyline clip-path="url(#clip000)" style="stroke:#000000; stroke-linecap:round; stroke-linejoin:round; stroke-width:4; stroke-opacity:1; fill:none" points="169.121,1423.18 2352.76,1423.18 "/>
<polyline clip-path="url(#clip000)" style="stroke:#000000; stroke-linecap:round; stroke-linejoin:round; stroke-width:4; stroke-opacity:1; fill:none" points="169.121,1423.18 169.121,1404.28 "/>
<polyline clip-path="url(#clip000)" style="stroke:#000000; stroke-linecap:round; stroke-linejoin:round; stroke-width:4; stroke-opacity:1; fill:none" points="715.03,1423.18 715.03,1404.28 "/>
<polyline clip-path="url(#clip000)" style="stroke:#000000; stroke-linecap:round; stroke-linejoin:round; stroke-width:4; stroke-opacity:1; fill:none" points="1260.94,1423.18 1260.94,1404.28 "/>
<polyline clip-path="url(#clip000)" style="stroke:#000000; stroke-linecap:round; stroke-linejoin:round; stroke-width:4; stroke-opacity:1; fill:none" points="1806.85,1423.18 1806.85,1404.28 "/>
<polyline clip-path="url(#clip000)" style="stroke:#000000; stroke-linecap:round; stroke-linejoin:round; stroke-width:4; stroke-opacity:1; fill:none" points="2352.76,1423.18 2352.76,1404.28 "/>
<path clip-path="url(#clip000)" d="M169.121 1454.1 Q165.51 1454.1 163.682 1457.66 Q161.876 1461.2 161.876 1468.33 Q161.876 1475.44 163.682 1479.01 Q165.51 1482.55 169.121 1482.55 Q172.756 1482.55 174.561 1479.01 Q176.39 1475.44 176.39 1468.33 Q176.39 1461.2 174.561 1457.66 Q172.756 1454.1 169.121 1454.1 M169.121 1450.39 Q174.931 1450.39 177.987 1455 Q181.066 1459.58 181.066 1468.33 Q181.066 1477.06 177.987 1481.67 Q174.931 1486.25 169.121 1486.25 Q163.311 1486.25 160.232 1481.67 Q157.177 1477.06 157.177 1468.33 Q157.177 1459.58 160.232 1455 Q163.311 1450.39 169.121 1450.39 Z" fill="#000000" fill-rule="nonzero" fill-opacity="1" /><path clip-path="url(#clip000)" d="M705.308 1451.02 L723.664 1451.02 L723.664 1454.96 L709.59 1454.96 L709.59 1463.43 Q710.609 1463.08 711.627 1462.92 Q712.646 1462.73 713.664 1462.73 Q719.451 1462.73 722.831 1465.9 Q726.21 1469.08 726.21 1474.49 Q726.21 1480.07 722.738 1483.17 Q719.266 1486.25 712.947 1486.25 Q710.771 1486.25 708.502 1485.88 Q706.257 1485.51 703.849 1484.77 L703.849 1480.07 Q705.933 1481.2 708.155 1481.76 Q710.377 1482.32 712.854 1482.32 Q716.859 1482.32 719.197 1480.21 Q721.535 1478.1 721.535 1474.49 Q721.535 1470.88 719.197 1468.77 Q716.859 1466.67 712.854 1466.67 Q710.979 1466.67 709.104 1467.08 Q707.252 1467.5 705.308 1468.38 L705.308 1451.02 Z" fill="#000000" fill-rule="nonzero" fill-opacity="1" /><path clip-path="url(#clip000)" d="M1235.63 1481.64 L1243.27 1481.64 L1243.27 1455.28 L1234.95 1456.95 L1234.95 1452.69 L1243.22 1451.02 L1247.89 1451.02 L1247.89 1481.64 L1255.53 1481.64 L1255.53 1485.58 L1235.63 1485.58 L1235.63 1481.64 Z" fill="#000000" fill-rule="nonzero" fill-opacity="1" /><path clip-path="url(#clip000)" d="M1274.98 1454.1 Q1271.37 1454.1 1269.54 1457.66 Q1267.73 1461.2 1267.73 1468.33 Q1267.73 1475.44 1269.54 1479.01 Q1271.37 1482.55 1274.98 1482.55 Q1278.61 1482.55 1280.42 1479.01 Q1282.25 1475.44 1282.25 1468.33 Q1282.25 1461.2 1280.42 1457.66 Q1278.61 1454.1 1274.98 1454.1 M1274.98 1450.39 Q1280.79 1450.39 1283.84 1455 Q1286.92 1459.58 1286.92 1468.33 Q1286.92 1477.06 1283.84 1481.67 Q1280.79 1486.25 1274.98 1486.25 Q1269.17 1486.25 1266.09 1481.67 Q1263.03 1477.06 1263.03 1468.33 Q1263.03 1459.58 1266.09 1455 Q1269.17 1450.39 1274.98 1450.39 Z" fill="#000000" fill-rule="nonzero" fill-opacity="1" /><path clip-path="url(#clip000)" d="M1782.03 1481.64 L1789.67 1481.64 L1789.67 1455.28 L1781.36 1456.95 L1781.36 1452.69 L1789.63 1451.02 L1794.3 1451.02 L1794.3 1481.64 L1801.94 1481.64 L1801.94 1485.58 L1782.03 1485.58 L1782.03 1481.64 Z" fill="#000000" fill-rule="nonzero" fill-opacity="1" /><path clip-path="url(#clip000)" d="M1811.43 1451.02 L1829.79 1451.02 L1829.79 1454.96 L1815.71 1454.96 L1815.71 1463.43 Q1816.73 1463.08 1817.75 1462.92 Q1818.77 1462.73 1819.79 1462.73 Q1825.57 1462.73 1828.95 1465.9 Q1832.33 1469.08 1832.33 1474.49 Q1832.33 1480.07 1828.86 1483.17 Q1825.39 1486.25 1819.07 1486.25 Q1816.89 1486.25 1814.62 1485.88 Q1812.38 1485.51 1809.97 1484.77 L1809.97 1480.07 Q1812.06 1481.2 1814.28 1481.76 Q1816.5 1482.32 1818.98 1482.32 Q1822.98 1482.32 1825.32 1480.21 Q1827.66 1478.1 1827.66 1474.49 Q1827.66 1470.88 1825.32 1468.77 Q1822.98 1466.67 1818.98 1466.67 Q1817.1 1466.67 1815.23 1467.08 Q1813.38 1467.5 1811.43 1468.38 L1811.43 1451.02 Z" fill="#000000" fill-rule="nonzero" fill-opacity="1" /><path clip-path="url(#clip000)" d="M2331.53 1481.64 L2347.85 1481.64 L2347.85 1485.58 L2325.9 1485.58 L2325.9 1481.64 Q2328.57 1478.89 2333.15 1474.26 Q2337.76 1469.61 2338.94 1468.27 Q2341.18 1465.74 2342.06 1464.01 Q2342.96 1462.25 2342.96 1460.56 Q2342.96 1457.8 2341.02 1456.07 Q2339.1 1454.33 2336 1454.33 Q2333.8 1454.33 2331.34 1455.09 Q2328.91 1455.86 2326.14 1457.41 L2326.14 1452.69 Q2328.96 1451.55 2331.41 1450.97 Q2333.87 1450.39 2335.9 1450.39 Q2341.27 1450.39 2344.47 1453.08 Q2347.66 1455.77 2347.66 1460.26 Q2347.66 1462.39 2346.85 1464.31 Q2346.07 1466.2 2343.96 1468.8 Q2343.38 1469.47 2340.28 1472.69 Q2337.18 1475.88 2331.53 1481.64 Z" fill="#000000" fill-rule="nonzero" fill-opacity="1" /><path clip-path="url(#clip000)" d="M2367.66 1454.1 Q2364.05 1454.1 2362.22 1457.66 Q2360.42 1461.2 2360.42 1468.33 Q2360.42 1475.44 2362.22 1479.01 Q2364.05 1482.55 2367.66 1482.55 Q2371.3 1482.55 2373.1 1479.01 Q2374.93 1475.44 2374.93 1468.33 Q2374.93 1461.2 2373.1 1457.66 Q2371.3 1454.1 2367.66 1454.1 M2367.66 1450.39 Q2373.47 1450.39 2376.53 1455 Q2379.61 1459.58 2379.61 1468.33 Q2379.61 1477.06 2376.53 1481.67 Q2373.47 1486.25 2367.66 1486.25 Q2361.85 1486.25 2358.77 1481.67 Q2355.72 1477.06 2355.72 1468.33 Q2355.72 1459.58 2358.77 1455 Q2361.85 1450.39 2367.66 1450.39 Z" fill="#000000" fill-rule="nonzero" fill-opacity="1" /><path clip-path="url(#clip000)" d="M1260 1522.27 L1260 1532.4 L1272.06 1532.4 L1272.06 1536.95 L1260 1536.95 L1260 1556.3 Q1260 1560.66 1261.18 1561.9 Q1262.39 1563.14 1266.05 1563.14 L1272.06 1563.14 L1272.06 1568.04 L1266.05 1568.04 Q1259.27 1568.04 1256.69 1565.53 Q1254.11 1562.98 1254.11 1556.3 L1254.11 1536.95 L1249.81 1536.95 L1249.81 1532.4 L1254.11 1532.4 L1254.11 1522.27 L1260 1522.27 Z" fill="#000000" fill-rule="nonzero" fill-opacity="1" /><polyline clip-path="url(#clip000)" style="stroke:#000000; stroke-linecap:round; stroke-linejoin:round; stroke-width:4; stroke-opacity:1; fill:none" points="169.121,1423.18 169.121,47.2441 "/>
<polyline clip-path="url(#clip000)" style="stroke:#000000; stroke-linecap:round; stroke-linejoin:round; stroke-width:4; stroke-opacity:1; fill:none" points="169.121,1297.7 188.019,1297.7 "/>
<polyline clip-path="url(#clip000)" style="stroke:#000000; stroke-linecap:round; stroke-linejoin:round; stroke-width:4; stroke-opacity:1; fill:none" points="169.121,1038.09 188.019,1038.09 "/>
<polyline clip-path="url(#clip000)" style="stroke:#000000; stroke-linecap:round; stroke-linejoin:round; stroke-width:4; stroke-opacity:1; fill:none" points="169.121,778.48 188.019,778.48 "/>
<polyline clip-path="url(#clip000)" style="stroke:#000000; stroke-linecap:round; stroke-linejoin:round; stroke-width:4; stroke-opacity:1; fill:none" points="169.121,518.87 188.019,518.87 "/>
<polyline clip-path="url(#clip000)" style="stroke:#000000; stroke-linecap:round; stroke-linejoin:round; stroke-width:4; stroke-opacity:1; fill:none" points="169.121,259.259 188.019,259.259 "/>
<path clip-path="url(#clip000)" d="M91.5938 1295.84 Q88.4456 1295.84 86.5938 1297.99 Q84.7651 1300.14 84.7651 1303.89 Q84.7651 1307.62 86.5938 1309.8 Q88.4456 1311.95 91.5938 1311.95 Q94.7419 1311.95 96.5706 1309.8 Q98.4224 1307.62 98.4224 1303.89 Q98.4224 1300.14 96.5706 1297.99 Q94.7419 1295.84 91.5938 1295.84 M100.876 1281.19 L100.876 1285.44 Q99.1169 1284.61 97.3113 1284.17 Q95.5289 1283.73 93.7697 1283.73 Q89.1401 1283.73 86.6864 1286.86 Q84.2558 1289.98 83.9086 1296.3 Q85.2743 1294.29 87.3345 1293.22 Q89.3947 1292.13 91.8715 1292.13 Q97.0798 1292.13 100.089 1295.31 Q103.121 1298.45 103.121 1303.89 Q103.121 1309.22 99.9733 1312.44 Q96.8252 1315.65 91.5938 1315.65 Q85.5984 1315.65 82.4271 1311.07 Q79.2559 1306.46 79.2559 1297.74 Q79.2559 1289.54 83.1447 1284.68 Q87.0336 1279.8 93.5845 1279.8 Q95.3437 1279.8 97.1261 1280.14 Q98.9317 1280.49 100.876 1281.19 Z" fill="#000000" fill-rule="nonzero" fill-opacity="1" /><path clip-path="url(#clip000)" d="M121.177 1283.5 Q117.566 1283.5 115.737 1287.06 Q113.932 1290.61 113.932 1297.74 Q113.932 1304.84 115.737 1308.41 Q117.566 1311.95 121.177 1311.95 Q124.811 1311.95 126.617 1308.41 Q128.445 1304.84 128.445 1297.74 Q128.445 1290.61 126.617 1287.06 Q124.811 1283.5 121.177 1283.5 M121.177 1279.8 Q126.987 1279.8 130.043 1284.4 Q133.121 1288.99 133.121 1297.74 Q133.121 1306.46 130.043 1311.07 Q126.987 1315.65 121.177 1315.65 Q115.367 1315.65 112.288 1311.07 Q109.233 1306.46 109.233 1297.74 Q109.233 1288.99 112.288 1284.4 Q115.367 1279.8 121.177 1279.8 Z" fill="#000000" fill-rule="nonzero" fill-opacity="1" /><path clip-path="url(#clip000)" d="M81.154 1054.65 L81.154 1050.39 Q82.9133 1051.23 84.7188 1051.67 Q86.5243 1052.11 88.2604 1052.11 Q92.89 1052.11 95.3206 1049.01 Q97.7743 1045.88 98.1215 1039.54 Q96.7789 1041.53 94.7187 1042.59 Q92.6586 1043.66 90.1586 1043.66 Q84.9734 1043.66 81.941 1040.53 Q78.9318 1037.38 78.9318 1031.95 Q78.9318 1026.62 82.0799 1023.4 Q85.2281 1020.19 90.4595 1020.19 Q96.4548 1020.19 99.603 1024.79 Q102.774 1029.38 102.774 1038.13 Q102.774 1046.3 98.8854 1051.18 Q95.0197 1056.04 88.4688 1056.04 Q86.7095 1056.04 84.904 1055.69 Q83.0984 1055.35 81.154 1054.65 M90.4595 1040 Q93.6076 1040 95.4363 1037.85 Q97.2882 1035.7 97.2882 1031.95 Q97.2882 1028.22 95.4363 1026.07 Q93.6076 1023.89 90.4595 1023.89 Q87.3114 1023.89 85.4595 1026.07 Q83.6308 1028.22 83.6308 1031.95 Q83.6308 1035.7 85.4595 1037.85 Q87.3114 1040 90.4595 1040 Z" fill="#000000" fill-rule="nonzero" fill-opacity="1" /><path clip-path="url(#clip000)" d="M121.177 1023.89 Q117.566 1023.89 115.737 1027.45 Q113.932 1031 113.932 1038.13 Q113.932 1045.23 115.737 1048.8 Q117.566 1052.34 121.177 1052.34 Q124.811 1052.34 126.617 1048.8 Q128.445 1045.23 128.445 1038.13 Q128.445 1031 126.617 1027.45 Q124.811 1023.89 121.177 1023.89 M121.177 1020.19 Q126.987 1020.19 130.043 1024.79 Q133.121 1029.38 133.121 1038.13 Q133.121 1046.85 130.043 1051.46 Q126.987 1056.04 121.177 1056.04 Q115.367 1056.04 112.288 1051.46 Q109.233 1046.85 109.233 1038.13 Q109.233 1029.38 112.288 1024.79 Q115.367 1020.19 121.177 1020.19 Z" fill="#000000" fill-rule="nonzero" fill-opacity="1" /><path clip-path="url(#clip000)" d="M51.6634 791.825 L59.3023 791.825 L59.3023 765.46 L50.9921 767.126 L50.9921 762.867 L59.256 761.2 L63.9319 761.2 L63.9319 791.825 L71.5707 791.825 L71.5707 795.76 L51.6634 795.76 L51.6634 791.825 Z" fill="#000000" fill-rule="nonzero" fill-opacity="1" /><path clip-path="url(#clip000)" d="M85.0429 791.825 L101.362 791.825 L101.362 795.76 L79.4179 795.76 L79.4179 791.825 Q82.0799 789.071 86.6632 784.441 Q91.2697 779.788 92.4502 778.446 Q94.6956 775.923 95.5752 774.186 Q96.478 772.427 96.478 770.737 Q96.478 767.983 94.5336 766.247 Q92.6123 764.511 89.5104 764.511 Q87.3114 764.511 84.8577 765.274 Q82.4271 766.038 79.6494 767.589 L79.6494 762.867 Q82.4734 761.733 84.9271 761.154 Q87.3808 760.575 89.4178 760.575 Q94.7882 760.575 97.9826 763.261 Q101.177 765.946 101.177 770.436 Q101.177 772.566 100.367 774.487 Q99.5798 776.385 97.4734 778.978 Q96.8947 779.649 93.7928 782.867 Q90.691 786.061 85.0429 791.825 Z" fill="#000000" fill-rule="nonzero" fill-opacity="1" /><path clip-path="url(#clip000)" d="M121.177 764.279 Q117.566 764.279 115.737 767.844 Q113.932 771.386 113.932 778.515 Q113.932 785.622 115.737 789.186 Q117.566 792.728 121.177 792.728 Q124.811 792.728 126.617 789.186 Q128.445 785.622 128.445 778.515 Q128.445 771.386 126.617 767.844 Q124.811 764.279 121.177 764.279 M121.177 760.575 Q126.987 760.575 130.043 765.182 Q133.121 769.765 133.121 778.515 Q133.121 787.242 130.043 791.848 Q126.987 796.432 121.177 796.432 Q115.367 796.432 112.288 791.848 Q109.233 787.242 109.233 778.515 Q109.233 769.765 112.288 765.182 Q115.367 760.575 121.177 760.575 Z" fill="#000000" fill-rule="nonzero" fill-opacity="1" /><path clip-path="url(#clip000)" d="M51.6634 532.215 L59.3023 532.215 L59.3023 505.849 L50.9921 507.516 L50.9921 503.257 L59.256 501.59 L63.9319 501.59 L63.9319 532.215 L71.5707 532.215 L71.5707 536.15 L51.6634 536.15 L51.6634 532.215 Z" fill="#000000" fill-rule="nonzero" fill-opacity="1" /><path clip-path="url(#clip000)" d="M81.0614 501.59 L99.4178 501.59 L99.4178 505.525 L85.3438 505.525 L85.3438 513.997 Q86.3623 513.65 87.3808 513.488 Q88.3993 513.303 89.4178 513.303 Q95.2049 513.303 98.5845 516.474 Q101.964 519.645 101.964 525.062 Q101.964 530.641 98.4919 533.742 Q95.0197 536.821 88.7003 536.821 Q86.5243 536.821 84.2558 536.451 Q82.0105 536.08 79.6031 535.34 L79.6031 530.641 Q81.6864 531.775 83.9086 532.33 Q86.1308 532.886 88.6077 532.886 Q92.6123 532.886 94.9502 530.78 Q97.2882 528.673 97.2882 525.062 Q97.2882 521.451 94.9502 519.344 Q92.6123 517.238 88.6077 517.238 Q86.7327 517.238 84.8577 517.655 Q83.0058 518.071 81.0614 518.951 L81.0614 501.59 Z" fill="#000000" fill-rule="nonzero" fill-opacity="1" /><path clip-path="url(#clip000)" d="M121.177 504.669 Q117.566 504.669 115.737 508.233 Q113.932 511.775 113.932 518.905 Q113.932 526.011 115.737 529.576 Q117.566 533.117 121.177 533.117 Q124.811 533.117 126.617 529.576 Q128.445 526.011 128.445 518.905 Q128.445 511.775 126.617 508.233 Q124.811 504.669 121.177 504.669 M121.177 500.965 Q126.987 500.965 130.043 505.571 Q133.121 510.155 133.121 518.905 Q133.121 527.631 130.043 532.238 Q126.987 536.821 121.177 536.821 Q115.367 536.821 112.288 532.238 Q109.233 527.631 109.233 518.905 Q109.233 510.155 112.288 505.571 Q115.367 500.965 121.177 500.965 Z" fill="#000000" fill-rule="nonzero" fill-opacity="1" /><path clip-path="url(#clip000)" d="M51.6634 272.604 L59.3023 272.604 L59.3023 246.239 L50.9921 247.905 L50.9921 243.646 L59.256 241.979 L63.9319 241.979 L63.9319 272.604 L71.5707 272.604 L71.5707 276.539 L51.6634 276.539 L51.6634 272.604 Z" fill="#000000" fill-rule="nonzero" fill-opacity="1" /><path clip-path="url(#clip000)" d="M91.0151 260.127 Q87.6817 260.127 85.7605 261.91 Q83.8623 263.692 83.8623 266.817 Q83.8623 269.942 85.7605 271.725 Q87.6817 273.507 91.0151 273.507 Q94.3484 273.507 96.2697 271.725 Q98.1909 269.919 98.1909 266.817 Q98.1909 263.692 96.2697 261.91 Q94.3715 260.127 91.0151 260.127 M86.3392 258.137 Q83.3299 257.396 81.6401 255.336 Q79.9735 253.276 79.9735 250.313 Q79.9735 246.169 82.9133 243.762 Q85.8762 241.354 91.0151 241.354 Q96.1771 241.354 99.1169 243.762 Q102.057 246.169 102.057 250.313 Q102.057 253.276 100.367 255.336 Q98.7002 257.396 95.7141 258.137 Q99.0937 258.924 100.969 261.215 Q102.867 263.507 102.867 266.817 Q102.867 271.84 99.7882 274.525 Q96.7326 277.211 91.0151 277.211 Q85.2975 277.211 82.2188 274.525 Q79.1633 271.84 79.1633 266.817 Q79.1633 263.507 81.0614 261.215 Q82.9595 258.924 86.3392 258.137 M84.6262 250.752 Q84.6262 253.438 86.2929 254.942 Q87.9827 256.447 91.0151 256.447 Q94.0243 256.447 95.7141 254.942 Q97.4271 253.438 97.4271 250.752 Q97.4271 248.067 95.7141 246.563 Q94.0243 245.058 91.0151 245.058 Q87.9827 245.058 86.2929 246.563 Q84.6262 248.067 84.6262 250.752 Z" fill="#000000" fill-rule="nonzero" fill-opacity="1" /><path clip-path="url(#clip000)" d="M121.177 245.058 Q117.566 245.058 115.737 248.623 Q113.932 252.164 113.932 259.294 Q113.932 266.401 115.737 269.965 Q117.566 273.507 121.177 273.507 Q124.811 273.507 126.617 269.965 Q128.445 266.401 128.445 259.294 Q128.445 252.164 126.617 248.623 Q124.811 245.058 121.177 245.058 M121.177 241.354 Q126.987 241.354 130.043 245.961 Q133.121 250.544 133.121 259.294 Q133.121 268.021 130.043 272.627 Q126.987 277.211 121.177 277.211 Q115.367 277.211 112.288 272.627 Q109.233 268.021 109.233 259.294 Q109.233 250.544 112.288 245.961 Q115.367 241.354 121.177 241.354 Z" fill="#000000" fill-rule="nonzero" fill-opacity="1" /><polyline clip-path="url(#clip002)" style="stroke:#009af9; stroke-linecap:round; stroke-linejoin:round; stroke-width:8; stroke-opacity:1; fill:none" points="169.121,86.1857 171.307,96.3815 173.493,106.35 175.679,116.1 177.865,125.639 180.05,134.974 182.236,144.113 184.422,153.063 186.608,161.829 188.794,170.419 190.98,178.836 193.165,187.088 195.351,195.179 197.537,203.115 199.723,210.899 201.909,218.537 204.094,226.033 206.28,233.391 208.466,240.614 210.652,247.707 212.838,254.674 215.024,261.517 217.209,268.241 219.395,274.847 221.581,281.341 223.767,287.723 225.953,293.998 228.138,300.168 230.324,306.236 232.51,312.203 234.696,318.074 236.882,323.849 239.068,329.531 241.253,335.123 243.439,340.626 245.625,346.043 247.811,351.376 249.997,356.626 252.182,361.795 254.368,366.886 256.554,371.9 258.74,376.838 260.926,381.703 263.112,386.495 265.297,391.217 267.483,395.87 269.669,400.455 271.855,404.974 274.041,409.427 276.227,413.817 278.412,418.145 280.598,422.411 282.784,426.618 284.97,430.766 287.156,434.856 289.341,438.89 291.527,442.868 293.713,446.792 295.899,450.663 298.085,454.482 300.271,458.249 302.456,461.966 304.642,465.634 306.828,469.253 309.014,472.825 311.2,476.35 313.385,479.828 315.571,483.262 317.757,486.651 319.943,489.996 322.129,493.299 324.315,496.559 326.5,499.778 328.686,502.956 330.872,506.094 333.058,509.193 335.244,512.253 337.429,515.275 339.615,518.26 341.801,521.208 343.987,524.12 346.173,526.996 348.359,529.837 350.544,532.644 352.73,535.417 354.916,538.157 357.102,540.864 359.288,543.539 361.474,546.181 363.659,548.793 365.845,551.373 368.031,553.924 370.217,556.444 372.403,558.934 374.588,561.396 376.774,563.829 378.96,566.233 381.146,568.61 383.332,570.96 385.518,573.282 387.703,575.578 389.889,577.847 392.075,580.091 394.261,582.309 396.447,584.503 398.632,586.671 400.818,588.815 403.004,590.936 405.19,593.032 407.376,595.106 409.562,597.156 411.747,599.184 413.933,601.189 416.119,603.172 418.305,605.134 420.491,607.075 422.676,608.994 424.862,610.892 427.048,612.77 429.234,614.627 431.42,616.465 433.606,618.282 435.791,620.08 437.977,621.859 440.163,623.619 442.349,625.359 444.535,627.081 446.721,628.785 448.906,630.471 451.092,632.139 453.278,633.789 455.464,635.421 457.65,637.037 459.835,638.636 462.021,640.217 464.207,641.783 466.393,643.331 468.579,644.864 470.765,646.381 472.95,647.882 475.136,649.368 477.322,650.838 479.508,652.294 481.694,653.734 483.879,655.16 486.065,656.571 488.251,657.968 490.437,659.35 492.623,660.719 494.809,662.074 496.994,663.415 499.18,664.743 501.366,666.058 503.552,667.359 505.738,668.647 507.923,669.922 510.109,671.185 512.295,672.435 514.481,673.672 516.667,674.897 518.853,676.109 521.038,677.31 523.224,678.499 525.41,679.676 527.596,680.841 529.782,681.994 531.968,683.136 534.153,684.267 536.339,685.387 538.525,686.496 540.711,687.593 542.897,688.68 545.082,689.756 547.268,690.822 549.454,691.877 551.64,692.922 553.826,693.957 556.012,694.982 558.197,695.997 560.383,697.002 562.569,697.997 564.755,698.982 566.941,699.959 569.126,700.925 571.312,701.883 573.498,702.831 575.684,703.771 577.87,704.701 580.056,705.623 582.241,706.535 584.427,707.44 586.613,708.335 588.799,709.223 590.985,710.102 593.17,710.972 595.356,711.835 597.542,712.689 599.728,713.535 601.914,714.373 604.1,715.203 606.285,716.026 608.471,716.84 610.657,717.647 612.843,718.446 615.029,719.238 617.214,720.022 619.4,720.799 621.586,721.569 623.772,722.331 625.958,723.086 628.144,723.835 630.329,724.576 632.515,725.31 634.701,726.037 636.887,726.757 639.073,727.471 641.259,728.178 643.444,728.878 645.63,729.572 647.816,730.259 650.002,730.94 652.188,731.615 654.373,732.283 656.559,732.945 658.745,733.601 660.931,734.251 663.117,734.895 665.303,735.533 667.488,736.165 669.674,736.792 671.86,737.412 674.046,738.027 676.232,738.637 678.417,739.24 680.603,739.839 682.789,740.432 684.975,741.019 687.161,741.601 689.347,742.178 691.532,742.75 693.718,743.317 695.904,743.879 698.09,744.435 700.276,744.987 702.461,745.533 704.647,746.075 706.833,746.612 709.019,747.144 711.205,747.671 713.391,748.193 715.576,748.711 717.762,749.224 719.948,749.732 722.134,750.236 724.32,750.735 726.506,751.229 728.691,751.72 730.877,752.205 733.063,752.687 735.249,753.163 737.435,753.636 739.62,754.104 741.806,754.569 743.992,755.028 746.178,755.484 748.364,755.936 750.55,756.383 752.735,756.827 754.921,757.266 757.107,757.702 759.293,758.133 761.479,758.561 763.664,758.985 765.85,759.405 768.036,759.821 770.222,760.233 772.408,760.642 774.594,761.047 776.779,761.448 778.965,761.846 781.151,762.24 783.337,762.631 785.523,763.018 787.708,763.402 789.894,763.782 792.08,764.159 794.266,764.533 796.452,764.903 798.638,765.27 800.823,765.634 803.009,765.995 805.195,766.352 807.381,766.706 809.567,767.058 811.753,767.406 813.938,767.751 816.124,768.093 818.31,768.432 820.496,768.768 822.682,769.102 824.867,769.432 827.053,769.76 829.239,770.084 831.425,770.406 833.611,770.725 835.797,771.042 837.982,771.355 840.168,771.666 842.354,771.974 844.54,772.28 846.726,772.583 848.911,772.883 851.097,773.18 853.283,773.475 855.469,773.767 857.655,774.057 859.841,774.344 862.026,774.629 864.212,774.911 866.398,775.191 868.584,775.468 870.77,775.742 872.955,776.015 875.141,776.285 877.327,776.552 879.513,776.817 881.699,777.08 883.885,777.34 886.07,777.599 888.256,777.854 890.442,778.108 892.628,778.359 894.814,778.609 897,778.855 899.185,779.1 901.371,779.343 903.557,779.583 905.743,779.821 907.929,780.058 910.114,780.292 912.3,780.524 914.486,780.754 916.672,780.982 918.858,781.208 921.044,781.431 923.229,781.653 925.415,781.873 927.601,782.091 929.787,782.308 931.973,782.522 934.158,782.734 936.344,782.945 938.53,783.154 940.716,783.36 942.902,783.565 945.088,783.769 947.273,783.97 949.459,784.17 951.645,784.368 953.831,784.564 956.017,784.759 958.202,784.952 960.388,785.143 962.574,785.333 964.76,785.521 966.946,785.708 969.132,785.893 971.317,786.076 973.503,786.258 975.689,786.438 977.875,786.617 980.061,786.794 982.247,786.97 984.432,787.145 986.618,787.317 988.804,787.489 990.99,787.659 993.176,787.827 995.361,787.994 997.547,788.16 999.733,788.324 1001.92,788.487 1004.1,788.649 1006.29,788.809 1008.48,788.968 1010.66,789.125 1012.85,789.281 1015.03,789.436 1017.22,789.589 1019.41,789.741 1021.59,789.892 1023.78,790.041 1025.96,790.189 1028.15,790.336 1030.33,790.482 1032.52,790.626 1034.71,790.769 1036.89,790.911 1039.08,791.051 1041.26,791.19 1043.45,791.329 1045.64,791.465 1047.82,791.601 1050.01,791.736 1052.19,791.869 1054.38,792.001 1056.56,792.132 1058.75,792.262 1060.94,792.391 1063.12,792.518 1065.31,792.645 1067.49,792.77 1069.68,792.894 1071.87,793.017 1074.05,793.14 1076.24,793.261 1078.42,793.38 1080.61,793.499 1082.79,793.617 1084.98,793.734 1087.17,793.85 1089.35,793.965 1091.54,794.078 1093.72,794.191 1095.91,794.303 1098.09,794.414 1100.28,794.523 1102.47,794.632 1104.65,794.74 1106.84,794.847 1109.02,794.953 1111.21,795.058 1113.4,795.162 1115.58,795.266 1117.77,795.368 1119.95,795.47 1122.14,795.57 1124.32,795.67 1126.51,795.769 1128.7,795.867 1130.88,795.964 1133.07,796.061 1135.25,796.156 1137.44,796.251 1139.63,796.345 1141.81,796.438 1144,796.53 1146.18,796.622 1148.37,796.713 1150.55,796.803 1152.74,796.892 1154.93,796.981 1157.11,797.069 1159.3,797.156 1161.48,797.242 1163.67,797.328 1165.86,797.413 1168.04,797.497 1170.23,797.581 1172.41,797.664 1174.6,797.746 1176.78,797.828 1178.97,797.909 1181.16,797.989 1183.34,798.069 1185.53,798.148 1187.71,798.226 1189.9,798.304 1192.09,798.381 1194.27,798.458 1196.46,798.533 1198.64,798.608 1200.83,798.683 1203.01,798.757 1205.2,798.83 1207.39,798.903 1209.57,798.975 1211.76,799.046 1213.94,799.117 1216.13,799.187 1218.32,799.257 1220.5,799.326 1222.69,799.394 1224.87,799.462 1227.06,799.529 1229.24,799.596 1231.43,799.662 1233.62,799.727 1235.8,799.792 1237.99,799.857 1240.17,799.921 1242.36,799.984 1244.54,800.047 1246.73,800.109 1248.92,800.171 1251.1,800.232 1253.29,800.292 1255.47,800.352 1257.66,800.412 1259.85,800.471 1262.03,800.529 1264.22,800.587 1266.4,800.645 1268.59,800.701 1270.77,800.758 1272.96,800.814 1275.15,800.869 1277.33,800.924 1279.52,800.979 1281.7,801.033 1283.89,801.086 1286.08,801.139 1288.26,801.192 1290.45,801.244 1292.63,801.296 1294.82,801.347 1297,801.397 1299.19,801.448 1301.38,801.498 1303.56,801.547 1305.75,801.596 1307.93,801.644 1310.12,801.692 1312.31,801.74 1314.49,801.787 1316.68,801.834 1318.86,801.881 1321.05,801.927 1323.23,801.972 1325.42,802.017 1327.61,802.062 1329.79,802.107 1331.98,802.151 1334.16,802.194 1336.35,802.237 1338.54,802.28 1340.72,802.323 1342.91,802.365 1345.09,802.407 1347.28,802.448 1349.46,802.489 1351.65,802.53 1353.84,802.57 1356.02,802.61 1358.21,802.65 1360.39,802.689 1362.58,802.728 1364.77,802.767 1366.95,802.805 1369.14,802.843 1371.32,802.881 1373.51,802.918 1375.69,802.955 1377.88,802.992 1380.07,803.029 1382.25,803.065 1384.44,803.101 1386.62,803.136 1388.81,803.172 1390.99,803.207 1393.18,803.242 1395.37,803.276 1397.55,803.31 1399.74,803.344 1401.92,803.378 1404.11,803.412 1406.3,803.445 1408.48,803.478 1410.67,803.511 1412.85,803.543 1415.04,803.575 1417.22,803.607 1419.41,803.639 1421.6,803.67 1423.78,803.702 1425.97,803.733 1428.15,803.763 1430.34,803.794 1432.53,803.824 1434.71,803.854 1436.9,803.884 1439.08,803.914 1441.27,803.943 1443.45,803.972 1445.64,804.001 1447.83,804.029 1450.01,804.058 1452.2,804.086 1454.38,804.114 1456.57,804.141 1458.76,804.169 1460.94,804.196 1463.13,804.223 1465.31,804.25 1467.5,804.276 1469.68,804.302 1471.87,804.328 1474.06,804.354 1476.24,804.38 1478.43,804.405 1480.61,804.43 1482.8,804.455 1484.99,804.48 1487.17,804.505 1489.36,804.529 1491.54,804.553 1493.73,804.577 1495.91,804.6 1498.1,804.624 1500.29,804.647 1502.47,804.67 1504.66,804.693 1506.84,804.716 1509.03,804.738 1511.22,804.76 1513.4,804.782 1515.59,804.804 1517.77,804.826 1519.96,804.847 1522.14,804.868 1524.33,804.889 1526.52,804.91 1528.7,804.931 1530.89,804.951 1533.07,804.971 1535.26,804.992 1537.44,805.011 1539.63,805.031 1541.82,805.051 1544,805.07 1546.19,805.089 1548.37,805.108 1550.56,805.127 1552.75,805.146 1554.93,805.164 1557.12,805.182 1559.3,805.2 1561.49,805.218 1563.67,805.236 1565.86,805.254 1568.05,805.271 1570.23,805.288 1572.42,805.306 1574.6,805.323 1576.79,805.339 1578.98,805.356 1581.16,805.372 1583.35,805.389 1585.53,805.405 1587.72,805.421 1589.9,805.437 1592.09,805.453 1594.28,805.468 1596.46,805.484 1598.65,805.499 1600.83,805.514 1603.02,805.529 1605.21,805.544 1607.39,805.559 1609.58,805.573 1611.76,805.588 1613.95,805.602 1616.13,805.616 1618.32,805.631 1620.51,805.644 1622.69,805.658 1624.88,805.672 1627.06,805.686 1629.25,805.699 1631.44,805.713 1633.62,805.726 1635.81,805.739 1637.99,805.752 1640.18,805.765 1642.36,805.778 1644.55,805.79 1646.74,805.803 1648.92,805.816 1651.11,805.828 1653.29,805.84 1655.48,805.852 1657.67,805.865 1659.85,805.877 1662.04,805.889 1664.22,805.9 1666.41,805.912 1668.59,805.924 1670.78,805.935 1672.97,805.947 1675.15,805.958 1677.34,805.97 1679.52,805.981 1681.71,805.992 1683.89,806.003 1686.08,806.014 1688.27,806.025 1690.45,806.036 1692.64,806.047 1694.82,806.058 1697.01,806.069 1699.2,806.08 1701.38,806.09 1703.57,806.101 1705.75,806.111 1707.94,806.122 1710.12,806.132 1712.31,806.143 1714.5,806.153 1716.68,806.163 1718.87,806.174 1721.05,806.184 1723.24,806.194 1725.43,806.204 1727.61,806.214 1729.8,806.224 1731.98,806.234 1734.17,806.243 1736.35,806.253 1738.54,806.263 1740.73,806.272 1742.91,806.282 1745.1,806.291 1747.28,806.301 1749.47,806.31 1751.66,806.319 1753.84,806.328 1756.03,806.338 1758.21,806.347 1760.4,806.356 1762.58,806.365 1764.77,806.373 1766.96,806.382 1769.14,806.391 1771.33,806.399 1773.51,806.408 1775.7,806.416 1777.89,806.425 1780.07,806.433 1782.26,806.441 1784.44,806.449 1786.63,806.458 1788.81,806.466 1791,806.474 1793.19,806.481 1795.37,806.489 1797.56,806.497 1799.74,806.505 1801.93,806.512 1804.11,806.52 1806.3,806.527 1808.49,806.534 1810.67,806.542 1812.86,806.549 1815.04,806.556 1817.23,806.563 1819.42,806.57 1821.6,806.577 1823.79,806.583 1825.97,806.59 1828.16,806.597 1830.34,806.603 1832.53,806.61 1834.72,806.616 1836.9,806.623 1839.09,806.629 1841.27,806.635 1843.46,806.641 1845.65,806.647 1847.83,806.653 1850.02,806.659 1852.2,806.665 1854.39,806.671 1856.57,806.676 1858.76,806.682 1860.95,806.687 1863.13,806.693 1865.32,806.698 1867.5,806.704 1869.69,806.709 1871.88,806.714 1874.06,806.719 1876.25,806.724 1878.43,806.729 1880.62,806.734 1882.8,806.739 1884.99,806.744 1887.18,806.748 1889.36,806.753 1891.55,806.758 1893.73,806.762 1895.92,806.766 1898.11,806.771 1900.29,806.775 1902.48,806.779 1904.66,806.784 1906.85,806.788 1909.03,806.792 1911.22,806.796 1913.41,806.8 1915.59,806.804 1917.78,806.808 1919.96,806.812 1922.15,806.815 1924.34,806.819 1926.52,806.823 1928.71,806.826 1930.89,806.83 1933.08,806.833 1935.26,806.837 1937.45,806.84 1939.64,806.844 1941.82,806.847 1944.01,806.85 1946.19,806.854 1948.38,806.857 1950.56,806.86 1952.75,806.863 1954.94,806.866 1957.12,806.869 1959.31,806.873 1961.49,806.876 1963.68,806.879 1965.87,806.881 1968.05,806.884 1970.24,806.887 1972.42,806.89 1974.61,806.893 1976.79,806.896 1978.98,806.899 1981.17,806.902 1983.35,806.904 1985.54,806.907 1987.72,806.91 1989.91,806.913 1992.1,806.915 1994.28,806.918 1996.47,806.921 1998.65,806.924 2000.84,806.926 2003.02,806.929 2005.21,806.932 2007.4,806.934 2009.58,806.937 2011.77,806.94 2013.95,806.943 2016.14,806.945 2018.33,806.948 2020.51,806.951 2022.7,806.954 2024.88,806.956 2027.07,806.959 2029.25,806.962 2031.44,806.965 2033.63,806.968 2035.81,806.971 2038,806.974 2040.18,806.976 2042.37,806.979 2044.56,806.982 2046.74,806.986 2048.93,806.989 2051.11,806.992 2053.3,806.995 2055.48,806.998 2057.67,807.001 2059.86,807.004 2062.04,807.008 2064.23,807.011 2066.41,807.014 2068.6,807.017 2070.79,807.02 2072.97,807.024 2075.16,807.027 2077.34,807.03 2079.53,807.033 2081.71,807.036 2083.9,807.04 2086.09,807.043 2088.27,807.046 2090.46,807.049 2092.64,807.052 2094.83,807.055 2097.01,807.058 2099.2,807.061 2101.39,807.064 2103.57,807.067 2105.76,807.07 2107.94,807.073 2110.13,807.076 2112.32,807.079 2114.5,807.082 2116.69,807.085 2118.87,807.087 2121.06,807.09 2123.24,807.093 2125.43,807.096 2127.62,807.098 2129.8,807.101 2131.99,807.104 2134.17,807.106 2136.36,807.109 2138.55,807.111 2140.73,807.114 2142.92,807.116 2145.1,807.119 2147.29,807.121 2149.47,807.123 2151.66,807.125 2153.85,807.128 2156.03,807.13 2158.22,807.132 2160.4,807.134 2162.59,807.136 2164.78,807.138 2166.96,807.14 2169.15,807.142 2171.33,807.144 2173.52,807.146 2175.7,807.148 2177.89,807.149 2180.08,807.151 2182.26,807.153 2184.45,807.154 2186.63,807.156 2188.82,807.157 2191.01,807.159 2193.19,807.16 2195.38,807.162 2197.56,807.163 2199.75,807.164 2201.93,807.166 2204.12,807.167 2206.31,807.168 2208.49,807.169 2210.68,807.17 2212.86,807.172 2215.05,807.173 2217.24,807.174 2219.42,807.175 2221.61,807.176 2223.79,807.176 2225.98,807.177 2228.16,807.178 2230.35,807.179 2232.54,807.18 2234.72,807.18 2236.91,807.181 2239.09,807.182 2241.28,807.182 2243.46,807.183 2245.65,807.184 2247.84,807.184 2250.02,807.185 2252.21,807.185 2254.39,807.186 2256.58,807.186 2258.77,807.187 2260.95,807.187 2263.14,807.187 2265.32,807.188 2267.51,807.188 2269.69,807.188 2271.88,807.189 2274.07,807.189 2276.25,807.189 2278.44,807.19 2280.62,807.19 2282.81,807.19 2285,807.191 2287.18,807.191 2289.37,807.191 2291.55,807.192 2293.74,807.192 2295.92,807.192 2298.11,807.193 2300.3,807.193 2302.48,807.193 2304.67,807.194 2306.85,807.194 2309.04,807.195 2311.23,807.195 2313.41,807.195 2315.6,807.196 2317.78,807.196 2319.97,807.197 2322.15,807.197 2324.34,807.198 2326.53,807.199 2328.71,807.199 2330.9,807.2 2333.08,807.201 2335.27,807.202 2337.46,807.202 2339.64,807.203 2341.83,807.204 2344.01,807.205 2346.2,807.206 2348.38,807.207 2350.57,807.209 2352.76,807.21 "/>
<polyline clip-path="url(#clip002)" style="stroke:#e26f46; stroke-linecap:round; stroke-linejoin:round; stroke-width:8; stroke-opacity:1; fill:none" points="169.121,1384.24 171.307,1368.51 173.493,1353.31 175.679,1338.64 177.865,1324.45 180.05,1310.74 182.236,1297.48 184.422,1284.65 186.608,1272.23 188.794,1260.21 190.98,1248.56 193.165,1237.28 195.351,1226.35 197.537,1215.76 199.723,1205.49 201.909,1195.52 204.094,1185.86 206.28,1176.48 208.466,1167.38 210.652,1158.55 212.838,1149.97 215.024,1141.64 217.209,1133.55 219.395,1125.68 221.581,1118.04 223.767,1110.62 225.953,1103.4 228.138,1096.38 230.324,1089.55 232.51,1082.91 234.696,1076.45 236.882,1070.17 239.068,1064.05 241.253,1058.1 243.439,1052.31 245.625,1046.67 247.811,1041.17 249.997,1035.83 252.182,1030.62 254.368,1025.54 256.554,1020.6 258.74,1015.78 260.926,1011.09 263.112,1006.51 265.297,1002.05 267.483,997.705 269.669,993.468 271.855,989.336 274.041,985.308 276.227,981.379 278.412,977.547 280.598,973.81 282.784,970.164 284.97,966.607 287.156,963.137 289.341,959.75 291.527,956.445 293.713,953.22 295.899,950.071 298.085,946.998 300.271,943.997 302.456,941.068 304.642,938.207 306.828,935.414 309.014,932.686 311.2,930.022 313.385,927.421 315.571,924.88 317.757,922.397 319.943,919.973 322.129,917.604 324.315,915.29 326.5,913.029 328.686,910.82 330.872,908.661 333.058,906.551 335.244,904.489 337.429,902.474 339.615,900.504 341.801,898.578 343.987,896.696 346.173,894.855 348.359,893.055 350.544,891.295 352.73,889.575 354.916,887.891 357.102,886.245 359.288,884.635 361.474,883.061 363.659,881.521 365.845,880.014 368.031,878.541 370.217,877.1 372.403,875.69 374.588,874.311 376.774,872.962 378.96,871.642 381.146,870.351 383.332,869.087 385.518,867.851 387.703,866.641 389.889,865.458 392.075,864.299 394.261,863.166 396.447,862.056 398.632,860.97 400.818,859.907 403.004,858.867 405.19,857.848 407.376,856.851 409.562,855.874 411.747,854.918 413.933,853.982 416.119,853.065 418.305,852.167 420.491,851.288 422.676,850.427 424.862,849.583 427.048,848.757 429.234,847.948 431.42,847.156 433.606,846.38 435.791,845.62 437.977,844.876 440.163,844.147 442.349,843.433 444.535,842.734 446.721,842.05 448.906,841.379 451.092,840.722 453.278,840.079 455.464,839.449 457.65,838.832 459.835,838.227 462.021,837.635 464.207,837.055 466.393,836.486 468.579,835.929 470.765,835.383 472.95,834.848 475.136,834.324 477.322,833.811 479.508,833.307 481.694,832.814 483.879,832.33 486.065,831.856 488.251,831.391 490.437,830.935 492.623,830.488 494.809,830.05 496.994,829.62 499.18,829.199 501.366,828.785 503.552,828.38 505.738,827.983 507.923,827.593 510.109,827.212 512.295,826.837 514.481,826.471 516.667,826.111 518.853,825.758 521.038,825.413 523.224,825.074 525.41,824.742 527.596,824.416 529.782,824.097 531.968,823.784 534.153,823.478 536.339,823.177 538.525,822.883 540.711,822.594 542.897,822.311 545.082,822.033 547.268,821.761 549.454,821.494 551.64,821.233 553.826,820.976 556.012,820.725 558.197,820.478 560.383,820.236 562.569,819.999 564.755,819.766 566.941,819.538 569.126,819.314 571.312,819.094 573.498,818.878 575.684,818.667 577.87,818.459 580.056,818.255 582.241,818.054 584.427,817.858 586.613,817.664 588.799,817.475 590.985,817.289 593.17,817.106 595.356,816.927 597.542,816.75 599.728,816.578 601.914,816.408 604.1,816.242 606.285,816.079 608.471,815.918 610.657,815.761 612.843,815.607 615.029,815.456 617.214,815.308 619.4,815.162 621.586,815.02 623.772,814.88 625.958,814.742 628.144,814.608 630.329,814.476 632.515,814.346 634.701,814.22 636.887,814.095 639.073,813.973 641.259,813.853 643.444,813.736 645.63,813.621 647.816,813.508 650.002,813.397 652.188,813.289 654.373,813.182 656.559,813.077 658.745,812.975 660.931,812.874 663.117,812.776 665.303,812.679 667.488,812.584 669.674,812.49 671.86,812.399 674.046,812.309 676.232,812.22 678.417,812.134 680.603,812.048 682.789,811.964 684.975,811.882 687.161,811.801 689.347,811.721 691.532,811.643 693.718,811.566 695.904,811.49 698.09,811.415 700.276,811.342 702.461,811.27 704.647,811.199 706.833,811.13 709.019,811.061 711.205,810.994 713.391,810.928 715.576,810.863 717.762,810.8 719.948,810.737 722.134,810.676 724.32,810.615 726.506,810.556 728.691,810.498 730.877,810.441 733.063,810.386 735.249,810.331 737.435,810.277 739.62,810.224 741.806,810.173 743.992,810.122 746.178,810.072 748.364,810.023 750.55,809.976 752.735,809.929 754.921,809.883 757.107,809.838 759.293,809.793 761.479,809.75 763.664,809.708 765.85,809.666 768.036,809.625 770.222,809.585 772.408,809.546 774.594,809.508 776.779,809.47 778.965,809.433 781.151,809.397 783.337,809.361 785.523,809.326 787.708,809.292 789.894,809.258 792.08,809.225 794.266,809.193 796.452,809.161 798.638,809.13 800.823,809.099 803.009,809.069 805.195,809.039 807.381,809.01 809.567,808.981 811.753,808.953 813.938,808.925 816.124,808.897 818.31,808.87 820.496,808.843 822.682,808.817 824.867,808.79 827.053,808.765 829.239,808.739 831.425,808.714 833.611,808.69 835.797,808.665 837.982,808.641 840.168,808.618 842.354,808.595 844.54,808.572 846.726,808.549 848.911,808.527 851.097,808.506 853.283,808.485 855.469,808.464 857.655,808.443 859.841,808.423 862.026,808.403 864.212,808.384 866.398,808.365 868.584,808.346 870.77,808.327 872.955,808.309 875.141,808.292 877.327,808.274 879.513,808.257 881.699,808.241 883.885,808.225 886.07,808.209 888.256,808.193 890.442,808.178 892.628,808.163 894.814,808.148 897,808.134 899.185,808.119 901.371,808.106 903.557,808.092 905.743,808.079 907.929,808.066 910.114,808.054 912.3,808.041 914.486,808.029 916.672,808.017 918.858,808.006 921.044,807.995 923.229,807.984 925.415,807.973 927.601,807.962 929.787,807.952 931.973,807.942 934.158,807.932 936.344,807.922 938.53,807.913 940.716,807.903 942.902,807.894 945.088,807.885 947.273,807.876 949.459,807.868 951.645,807.859 953.831,807.851 956.017,807.842 958.202,807.834 960.388,807.826 962.574,807.818 964.76,807.81 966.946,807.802 969.132,807.795 971.317,807.787 973.503,807.779 975.689,807.772 977.875,807.764 980.061,807.757 982.247,807.749 984.432,807.742 986.618,807.734 988.804,807.727 990.99,807.72 993.176,807.713 995.361,807.706 997.547,807.699 999.733,807.692 1001.92,807.685 1004.1,807.678 1006.29,807.672 1008.48,807.665 1010.66,807.659 1012.85,807.653 1015.03,807.646 1017.22,807.64 1019.41,807.634 1021.59,807.628 1023.78,807.622 1025.96,807.617 1028.15,807.611 1030.33,807.606 1032.52,807.6 1034.71,807.595 1036.89,807.59 1039.08,807.585 1041.26,807.58 1043.45,807.575 1045.64,807.57 1047.82,807.565 1050.01,807.561 1052.19,807.556 1054.38,807.552 1056.56,807.548 1058.75,807.544 1060.94,807.54 1063.12,807.536 1065.31,807.532 1067.49,807.528 1069.68,807.525 1071.87,807.521 1074.05,807.518 1076.24,807.514 1078.42,807.511 1080.61,807.508 1082.79,807.505 1084.98,807.502 1087.17,807.499 1089.35,807.497 1091.54,807.494 1093.72,807.491 1095.91,807.489 1098.09,807.486 1100.28,807.484 1102.47,807.482 1104.65,807.479 1106.84,807.477 1109.02,807.475 1111.21,807.473 1113.4,807.471 1115.58,807.469 1117.77,807.468 1119.95,807.466 1122.14,807.464 1124.32,807.462 1126.51,807.461 1128.7,807.459 1130.88,807.457 1133.07,807.456 1135.25,807.454 1137.44,807.453 1139.63,807.451 1141.81,807.45 1144,807.448 1146.18,807.447 1148.37,807.445 1150.55,807.444 1152.74,807.442 1154.93,807.441 1157.11,807.439 1159.3,807.438 1161.48,807.436 1163.67,807.435 1165.86,807.433 1168.04,807.431 1170.23,807.43 1172.41,807.428 1174.6,807.426 1176.78,807.424 1178.97,807.422 1181.16,807.421 1183.34,807.419 1185.53,807.417 1187.71,807.415 1189.9,807.413 1192.09,807.411 1194.27,807.41 1196.46,807.408 1198.64,807.406 1200.83,807.404 1203.01,807.402 1205.2,807.401 1207.39,807.399 1209.57,807.397 1211.76,807.395 1213.94,807.394 1216.13,807.392 1218.32,807.39 1220.5,807.389 1222.69,807.387 1224.87,807.386 1227.06,807.384 1229.24,807.383 1231.43,807.381 1233.62,807.38 1235.8,807.378 1237.99,807.377 1240.17,807.376 1242.36,807.374 1244.54,807.373 1246.73,807.372 1248.92,807.37 1251.1,807.369 1253.29,807.368 1255.47,807.367 1257.66,807.366 1259.85,807.365 1262.03,807.364 1264.22,807.363 1266.4,807.362 1268.59,807.361 1270.77,807.36 1272.96,807.359 1275.15,807.359 1277.33,807.358 1279.52,807.357 1281.7,807.357 1283.89,807.356 1286.08,807.355 1288.26,807.355 1290.45,807.354 1292.63,807.354 1294.82,807.353 1297,807.353 1299.19,807.352 1301.38,807.352 1303.56,807.352 1305.75,807.351 1307.93,807.351 1310.12,807.351 1312.31,807.351 1314.49,807.351 1316.68,807.35 1318.86,807.35 1321.05,807.35 1323.23,807.35 1325.42,807.35 1327.61,807.35 1329.79,807.35 1331.98,807.35 1334.16,807.35 1336.35,807.35 1338.54,807.35 1340.72,807.35 1342.91,807.35 1345.09,807.351 1347.28,807.351 1349.46,807.351 1351.65,807.351 1353.84,807.351 1356.02,807.351 1358.21,807.351 1360.39,807.352 1362.58,807.352 1364.77,807.352 1366.95,807.352 1369.14,807.352 1371.32,807.352 1373.51,807.352 1375.69,807.352 1377.88,807.352 1380.07,807.352 1382.25,807.352 1384.44,807.352 1386.62,807.352 1388.81,807.352 1390.99,807.352 1393.18,807.352 1395.37,807.352 1397.55,807.352 1399.74,807.352 1401.92,807.351 1404.11,807.351 1406.3,807.351 1408.48,807.35 1410.67,807.35 1412.85,807.349 1415.04,807.349 1417.22,807.348 1419.41,807.347 1421.6,807.347 1423.78,807.346 1425.97,807.346 1428.15,807.345 1430.34,807.344 1432.53,807.344 1434.71,807.343 1436.9,807.342 1439.08,807.342 1441.27,807.341 1443.45,807.34 1445.64,807.339 1447.83,807.339 1450.01,807.338 1452.2,807.337 1454.38,807.337 1456.57,807.336 1458.76,807.335 1460.94,807.335 1463.13,807.334 1465.31,807.333 1467.5,807.333 1469.68,807.332 1471.87,807.331 1474.06,807.331 1476.24,807.33 1478.43,807.329 1480.61,807.329 1482.8,807.328 1484.99,807.328 1487.17,807.327 1489.36,807.326 1491.54,807.326 1493.73,807.325 1495.91,807.325 1498.1,807.324 1500.29,807.324 1502.47,807.324 1504.66,807.323 1506.84,807.323 1509.03,807.322 1511.22,807.322 1513.4,807.322 1515.59,807.321 1517.77,807.321 1519.96,807.321 1522.14,807.32 1524.33,807.32 1526.52,807.32 1528.7,807.32 1530.89,807.32 1533.07,807.319 1535.26,807.319 1537.44,807.319 1539.63,807.319 1541.82,807.319 1544,807.319 1546.19,807.319 1548.37,807.319 1550.56,807.319 1552.75,807.319 1554.93,807.319 1557.12,807.319 1559.3,807.319 1561.49,807.32 1563.67,807.32 1565.86,807.32 1568.05,807.32 1570.23,807.32 1572.42,807.321 1574.6,807.321 1576.79,807.321 1578.98,807.321 1581.16,807.322 1583.35,807.322 1585.53,807.322 1587.72,807.323 1589.9,807.323 1592.09,807.324 1594.28,807.324 1596.46,807.324 1598.65,807.325 1600.83,807.325 1603.02,807.326 1605.21,807.326 1607.39,807.327 1609.58,807.327 1611.76,807.328 1613.95,807.328 1616.13,807.329 1618.32,807.329 1620.51,807.33 1622.69,807.33 1624.88,807.331 1627.06,807.331 1629.25,807.332 1631.44,807.332 1633.62,807.333 1635.81,807.333 1637.99,807.334 1640.18,807.334 1642.36,807.335 1644.55,807.335 1646.74,807.336 1648.92,807.336 1651.11,807.337 1653.29,807.337 1655.48,807.338 1657.67,807.338 1659.85,807.338 1662.04,807.339 1664.22,807.339 1666.41,807.339 1668.59,807.34 1670.78,807.34 1672.97,807.34 1675.15,807.34 1677.34,807.341 1679.52,807.341 1681.71,807.341 1683.89,807.341 1686.08,807.341 1688.27,807.341 1690.45,807.341 1692.64,807.341 1694.82,807.34 1697.01,807.34 1699.2,807.34 1701.38,807.34 1703.57,807.339 1705.75,807.339 1707.94,807.338 1710.12,807.338 1712.31,807.337 1714.5,807.337 1716.68,807.336 1718.87,807.335 1721.05,807.334 1723.24,807.334 1725.43,807.333 1727.61,807.332 1729.8,807.331 1731.98,807.33 1734.17,807.329 1736.35,807.328 1738.54,807.327 1740.73,807.326 1742.91,807.325 1745.1,807.324 1747.28,807.323 1749.47,807.322 1751.66,807.321 1753.84,807.32 1756.03,807.319 1758.21,807.318 1760.4,807.317 1762.58,807.316 1764.77,807.315 1766.96,807.314 1769.14,807.312 1771.33,807.311 1773.51,807.31 1775.7,807.309 1777.89,807.308 1780.07,807.307 1782.26,807.306 1784.44,807.305 1786.63,807.305 1788.81,807.304 1791,807.303 1793.19,807.302 1795.37,807.301 1797.56,807.3 1799.74,807.299 1801.93,807.299 1804.11,807.298 1806.3,807.297 1808.49,807.296 1810.67,807.296 1812.86,807.295 1815.04,807.295 1817.23,807.294 1819.42,807.293 1821.6,807.293 1823.79,807.293 1825.97,807.292 1828.16,807.292 1830.34,807.291 1832.53,807.291 1834.72,807.291 1836.9,807.291 1839.09,807.29 1841.27,807.29 1843.46,807.29 1845.65,807.29 1847.83,807.29 1850.02,807.29 1852.2,807.29 1854.39,807.29 1856.57,807.29 1858.76,807.29 1860.95,807.291 1863.13,807.291 1865.32,807.291 1867.5,807.292 1869.69,807.292 1871.88,807.292 1874.06,807.293 1876.25,807.293 1878.43,807.294 1880.62,807.294 1882.8,807.295 1884.99,807.296 1887.18,807.296 1889.36,807.297 1891.55,807.298 1893.73,807.299 1895.92,807.299 1898.11,807.3 1900.29,807.301 1902.48,807.302 1904.66,807.303 1906.85,807.304 1909.03,807.305 1911.22,807.306 1913.41,807.307 1915.59,807.308 1917.78,807.309 1919.96,807.31 1922.15,807.312 1924.34,807.313 1926.52,807.314 1928.71,807.315 1930.89,807.317 1933.08,807.318 1935.26,807.319 1937.45,807.32 1939.64,807.322 1941.82,807.323 1944.01,807.324 1946.19,807.326 1948.38,807.327 1950.56,807.328 1952.75,807.33 1954.94,807.331 1957.12,807.333 1959.31,807.334 1961.49,807.335 1963.68,807.337 1965.87,807.338 1968.05,807.339 1970.24,807.341 1972.42,807.342 1974.61,807.343 1976.79,807.345 1978.98,807.346 1981.17,807.347 1983.35,807.348 1985.54,807.349 1987.72,807.351 1989.91,807.352 1992.1,807.353 1994.28,807.354 1996.47,807.355 1998.65,807.356 2000.84,807.357 2003.02,807.358 2005.21,807.359 2007.4,807.359 2009.58,807.36 2011.77,807.361 2013.95,807.361 2016.14,807.362 2018.33,807.362 2020.51,807.363 2022.7,807.363 2024.88,807.364 2027.07,807.364 2029.25,807.364 2031.44,807.364 2033.63,807.364 2035.81,807.364 2038,807.364 2040.18,807.363 2042.37,807.363 2044.56,807.362 2046.74,807.362 2048.93,807.361 2051.11,807.36 2053.3,807.359 2055.48,807.358 2057.67,807.357 2059.86,807.356 2062.04,807.355 2064.23,807.354 2066.41,807.352 2068.6,807.351 2070.79,807.35 2072.97,807.348 2075.16,807.347 2077.34,807.345 2079.53,807.344 2081.71,807.342 2083.9,807.341 2086.09,807.339 2088.27,807.338 2090.46,807.336 2092.64,807.335 2094.83,807.333 2097.01,807.331 2099.2,807.33 2101.39,807.328 2103.57,807.327 2105.76,807.325 2107.94,807.324 2110.13,807.322 2112.32,807.321 2114.5,807.319 2116.69,807.318 2118.87,807.316 2121.06,807.315 2123.24,807.313 2125.43,807.312 2127.62,807.311 2129.8,807.309 2131.99,807.308 2134.17,807.307 2136.36,807.306 2138.55,807.305 2140.73,807.304 2142.92,807.303 2145.1,807.302 2147.29,807.301 2149.47,807.3 2151.66,807.299 2153.85,807.298 2156.03,807.297 2158.22,807.297 2160.4,807.296 2162.59,807.295 2164.78,807.295 2166.96,807.294 2169.15,807.294 2171.33,807.294 2173.52,807.293 2175.7,807.293 2177.89,807.293 2180.08,807.293 2182.26,807.293 2184.45,807.293 2186.63,807.293 2188.82,807.293 2191.01,807.293 2193.19,807.293 2195.38,807.293 2197.56,807.294 2199.75,807.294 2201.93,807.295 2204.12,807.295 2206.31,807.296 2208.49,807.296 2210.68,807.297 2212.86,807.298 2215.05,807.298 2217.24,807.299 2219.42,807.3 2221.61,807.301 2223.79,807.302 2225.98,807.303 2228.16,807.304 2230.35,807.305 2232.54,807.306 2234.72,807.307 2236.91,807.309 2239.09,807.31 2241.28,807.311 2243.46,807.313 2245.65,807.314 2247.84,807.315 2250.02,807.317 2252.21,807.318 2254.39,807.32 2256.58,807.321 2258.77,807.323 2260.95,807.324 2263.14,807.326 2265.32,807.327 2267.51,807.329 2269.69,807.33 2271.88,807.332 2274.07,807.334 2276.25,807.335 2278.44,807.337 2280.62,807.338 2282.81,807.34 2285,807.341 2287.18,807.343 2289.37,807.344 2291.55,807.346 2293.74,807.347 2295.92,807.349 2298.11,807.35 2300.3,807.351 2302.48,807.353 2304.67,807.354 2306.85,807.355 2309.04,807.356 2311.23,807.357 2313.41,807.358 2315.6,807.359 2317.78,807.36 2319.97,807.361 2322.15,807.362 2324.34,807.363 2326.53,807.363 2328.71,807.364 2330.9,807.364 2333.08,807.364 2335.27,807.365 2337.46,807.365 2339.64,807.365 2341.83,807.364 2344.01,807.364 2346.2,807.364 2348.38,807.363 2350.57,807.362 2352.76,807.362 "/>
<polyline clip-path="url(#clip002)" style="stroke:#3da44d; stroke-linecap:round; stroke-linejoin:round; stroke-width:8; stroke-opacity:1; fill:none" points="169.121,951.554 171.307,957.091 173.493,962.314 175.679,967.24 177.865,971.885 180.05,976.262 182.236,980.385 184.422,984.267 186.608,987.919 188.794,991.352 190.98,994.578 193.165,997.605 195.351,1000.44 197.537,1003.1 199.723,1005.59 201.909,1007.92 204.094,1010.08 206.28,1012.1 208.466,1013.98 210.652,1015.72 212.838,1017.33 215.024,1018.82 217.209,1020.19 219.395,1021.45 221.581,1022.59 223.767,1023.64 225.953,1024.58 228.138,1025.43 230.324,1026.19 232.51,1026.86 234.696,1027.45 236.882,1027.96 239.068,1028.4 241.253,1028.76 243.439,1029.05 245.625,1029.27 247.811,1029.43 249.997,1029.53 252.182,1029.57 254.368,1029.55 256.554,1029.48 258.74,1029.36 260.926,1029.19 263.112,1028.97 265.297,1028.71 267.483,1028.4 269.669,1028.06 271.855,1027.67 274.041,1027.24 276.227,1026.78 278.412,1026.29 280.598,1025.76 282.784,1025.2 284.97,1024.61 287.156,1023.99 289.341,1023.34 291.527,1022.66 293.713,1021.97 295.899,1021.24 298.085,1020.5 300.271,1019.73 302.456,1018.94 304.642,1018.14 306.828,1017.31 309.014,1016.47 311.2,1015.61 313.385,1014.73 315.571,1013.84 317.757,1012.93 319.943,1012.01 322.129,1011.07 324.315,1010.13 326.5,1009.17 328.686,1008.2 330.872,1007.22 333.058,1006.23 335.244,1005.24 337.429,1004.23 339.615,1003.21 341.801,1002.19 343.987,1001.16 346.173,1000.13 348.359,999.085 350.544,998.038 352.73,996.986 354.916,995.93 357.102,994.869 359.288,993.804 361.474,992.736 363.659,991.664 365.845,990.59 368.031,989.513 370.217,988.435 372.403,987.354 374.588,986.271 376.774,985.188 378.96,984.103 381.146,983.017 383.332,981.931 385.518,980.845 387.703,979.759 389.889,978.673 392.075,977.587 394.261,976.503 396.447,975.419 398.632,974.336 400.818,973.255 403.004,972.176 405.19,971.098 407.376,970.022 409.562,968.948 411.747,967.876 413.933,966.807 416.119,965.74 418.305,964.677 420.491,963.616 422.676,962.558 424.862,961.503 427.048,960.451 429.234,959.403 431.42,958.357 433.606,957.316 435.791,956.278 437.977,955.243 440.163,954.212 442.349,953.185 444.535,952.162 446.721,951.143 448.906,950.128 451.092,949.117 453.278,948.11 455.464,947.108 457.65,946.109 459.835,945.115 462.021,944.126 464.207,943.141 466.393,942.161 468.579,941.185 470.765,940.214 472.95,939.247 475.136,938.286 477.322,937.329 479.508,936.377 481.694,935.43 483.879,934.488 486.065,933.551 488.251,932.619 490.437,931.692 492.623,930.771 494.809,929.854 496.994,928.943 499.18,928.036 501.366,927.135 503.552,926.239 505.738,925.348 507.923,924.462 510.109,923.582 512.295,922.706 514.481,921.836 516.667,920.97 518.853,920.11 521.038,919.255 523.224,918.405 525.41,917.561 527.596,916.721 529.782,915.886 531.968,915.057 534.153,914.233 536.339,913.414 538.525,912.6 540.711,911.791 542.897,910.987 545.082,910.188 547.268,909.395 549.454,908.606 551.64,907.823 553.826,907.045 556.012,906.271 558.197,905.503 560.383,904.74 562.569,903.982 564.755,903.229 566.941,902.482 569.126,901.739 571.312,901.001 573.498,900.268 575.684,899.541 577.87,898.818 580.056,898.101 582.241,897.388 584.427,896.681 586.613,895.978 588.799,895.28 590.985,894.588 593.17,893.9 595.356,893.217 597.542,892.539 599.728,891.865 601.914,891.197 604.1,890.533 606.285,889.874 608.471,889.219 610.657,888.57 612.843,887.924 615.029,887.284 617.214,886.648 619.4,886.016 621.586,885.389 623.772,884.767 625.958,884.149 628.144,883.536 630.329,882.927 632.515,882.322 634.701,881.722 636.887,881.126 639.073,880.534 641.259,879.947 643.444,879.364 645.63,878.785 647.816,878.211 650.002,877.641 652.188,877.075 654.373,876.513 656.559,875.955 658.745,875.402 660.931,874.852 663.117,874.307 665.303,873.766 667.488,873.229 669.674,872.696 671.86,872.167 674.046,871.642 676.232,871.121 678.417,870.604 680.603,870.091 682.789,869.582 684.975,869.077 687.161,868.576 689.347,868.078 691.532,867.585 693.718,867.095 695.904,866.61 698.09,866.128 700.276,865.649 702.461,865.175 704.647,864.704 706.833,864.237 709.019,863.773 711.205,863.313 713.391,862.857 715.576,862.404 717.762,861.955 719.948,861.509 722.134,861.067 724.32,860.628 726.506,860.192 728.691,859.76 730.877,859.331 733.063,858.906 735.249,858.484 737.435,858.065 739.62,857.649 741.806,857.237 743.992,856.828 746.178,856.422 748.364,856.019 750.55,855.619 752.735,855.223 754.921,854.829 757.107,854.439 759.293,854.051 761.479,853.667 763.664,853.286 765.85,852.907 768.036,852.532 770.222,852.16 772.408,851.79 774.594,851.424 776.779,851.06 778.965,850.699 781.151,850.341 783.337,849.986 785.523,849.634 787.708,849.284 789.894,848.937 792.08,848.593 794.266,848.252 796.452,847.914 798.638,847.578 800.823,847.245 803.009,846.915 805.195,846.587 807.381,846.262 809.567,845.939 811.753,845.62 813.938,845.303 816.124,844.988 818.31,844.676 820.496,844.367 822.682,844.06 824.867,843.756 827.053,843.454 829.239,843.154 831.425,842.858 833.611,842.563 835.797,842.271 837.982,841.981 840.168,841.694 842.354,841.409 844.54,841.126 846.726,840.846 848.911,840.568 851.097,840.292 853.283,840.018 855.469,839.747 857.655,839.478 859.841,839.211 862.026,838.946 864.212,838.683 866.398,838.423 868.584,838.164 870.77,837.908 872.955,837.654 875.141,837.402 877.327,837.151 879.513,836.903 881.699,836.657 883.885,836.413 886.07,836.171 888.256,835.931 890.442,835.692 892.628,835.456 894.814,835.222 897,834.989 899.185,834.758 901.371,834.53 903.557,834.303 905.743,834.077 907.929,833.854 910.114,833.633 912.3,833.413 914.486,833.195 916.672,832.979 918.858,832.765 921.044,832.552 923.229,832.341 925.415,832.132 927.601,831.924 929.787,831.718 931.973,831.514 934.158,831.312 936.344,831.111 938.53,830.912 940.716,830.714 942.902,830.518 945.088,830.324 947.273,830.131 949.459,829.94 951.645,829.751 953.831,829.563 956.017,829.377 958.202,829.192 960.388,829.008 962.574,828.827 964.76,828.646 966.946,828.468 969.132,828.291 971.317,828.115 973.503,827.941 975.689,827.768 977.875,827.597 980.061,827.427 982.247,827.259 984.432,827.092 986.618,826.926 988.804,826.762 990.99,826.599 993.176,826.438 995.361,826.278 997.547,826.119 999.733,825.962 1001.92,825.806 1004.1,825.651 1006.29,825.497 1008.48,825.345 1010.66,825.194 1012.85,825.044 1015.03,824.896 1017.22,824.749 1019.41,824.603 1021.59,824.458 1023.78,824.314 1025.96,824.172 1028.15,824.031 1030.33,823.891 1032.52,823.752 1034.71,823.614 1036.89,823.478 1039.08,823.342 1041.26,823.208 1043.45,823.075 1045.64,822.943 1047.82,822.811 1050.01,822.682 1052.19,822.553 1054.38,822.425 1056.56,822.298 1058.75,822.172 1060.94,822.048 1063.12,821.924 1065.31,821.801 1067.49,821.68 1069.68,821.559 1071.87,821.439 1074.05,821.321 1076.24,821.203 1078.42,821.086 1080.61,820.971 1082.79,820.856 1084.98,820.742 1087.17,820.629 1089.35,820.517 1091.54,820.406 1093.72,820.296 1095.91,820.186 1098.09,820.078 1100.28,819.971 1102.47,819.864 1104.65,819.758 1106.84,819.654 1109.02,819.55 1111.21,819.447 1113.4,819.344 1115.58,819.243 1117.77,819.142 1119.95,819.043 1122.14,818.944 1124.32,818.846 1126.51,818.748 1128.7,818.652 1130.88,818.556 1133.07,818.461 1135.25,818.367 1137.44,818.274 1139.63,818.182 1141.81,818.09 1144,817.999 1146.18,817.909 1148.37,817.82 1150.55,817.731 1152.74,817.643 1154.93,817.556 1157.11,817.47 1159.3,817.384 1161.48,817.299 1163.67,817.215 1165.86,817.132 1168.04,817.049 1170.23,816.967 1172.41,816.886 1174.6,816.806 1176.78,816.726 1178.97,816.647 1181.16,816.568 1183.34,816.49 1185.53,816.413 1187.71,816.337 1189.9,816.261 1192.09,816.186 1194.27,816.111 1196.46,816.037 1198.64,815.964 1200.83,815.891 1203.01,815.819 1205.2,815.747 1207.39,815.676 1209.57,815.606 1211.76,815.536 1213.94,815.467 1216.13,815.399 1218.32,815.331 1220.5,815.263 1222.69,815.197 1224.87,815.13 1227.06,815.065 1229.24,815 1231.43,814.935 1233.62,814.871 1235.8,814.807 1237.99,814.744 1240.17,814.682 1242.36,814.62 1244.54,814.558 1246.73,814.497 1248.92,814.437 1251.1,814.377 1253.29,814.318 1255.47,814.259 1257.66,814.2 1259.85,814.142 1262.03,814.085 1264.22,814.028 1266.4,813.971 1268.59,813.915 1270.77,813.86 1272.96,813.805 1275.15,813.75 1277.33,813.696 1279.52,813.642 1281.7,813.589 1283.89,813.536 1286.08,813.483 1288.26,813.431 1290.45,813.38 1292.63,813.329 1294.82,813.278 1297,813.228 1299.19,813.178 1301.38,813.128 1303.56,813.079 1305.75,813.031 1307.93,812.982 1310.12,812.935 1312.31,812.887 1314.49,812.84 1316.68,812.793 1318.86,812.747 1321.05,812.701 1323.23,812.656 1325.42,812.611 1327.61,812.566 1329.79,812.521 1331.98,812.477 1334.16,812.434 1336.35,812.39 1338.54,812.347 1340.72,812.305 1342.91,812.263 1345.09,812.221 1347.28,812.179 1349.46,812.138 1351.65,812.097 1353.84,812.057 1356.02,812.017 1358.21,811.977 1360.39,811.937 1362.58,811.898 1364.77,811.859 1366.95,811.821 1369.14,811.783 1371.32,811.745 1373.51,811.707 1375.69,811.67 1377.88,811.633 1380.07,811.597 1382.25,811.561 1384.44,811.525 1386.62,811.489 1388.81,811.454 1390.99,811.419 1393.18,811.384 1395.37,811.35 1397.55,811.316 1399.74,811.282 1401.92,811.249 1404.11,811.216 1406.3,811.183 1408.48,811.15 1410.67,811.118 1412.85,811.086 1415.04,811.054 1417.22,811.023 1419.41,810.992 1421.6,810.961 1423.78,810.93 1425.97,810.9 1428.15,810.87 1430.34,810.84 1432.53,810.81 1434.71,810.781 1436.9,810.752 1439.08,810.723 1441.27,810.694 1443.45,810.666 1445.64,810.638 1447.83,810.61 1450.01,810.582 1452.2,810.555 1454.38,810.528 1456.57,810.501 1458.76,810.474 1460.94,810.448 1463.13,810.421 1465.31,810.395 1467.5,810.369 1469.68,810.344 1471.87,810.318 1474.06,810.293 1476.24,810.268 1478.43,810.243 1480.61,810.219 1482.8,810.195 1484.99,810.17 1487.17,810.147 1489.36,810.123 1491.54,810.099 1493.73,810.076 1495.91,810.053 1498.1,810.03 1500.29,810.007 1502.47,809.984 1504.66,809.962 1506.84,809.94 1509.03,809.918 1511.22,809.896 1513.4,809.874 1515.59,809.853 1517.77,809.831 1519.96,809.81 1522.14,809.789 1524.33,809.769 1526.52,809.748 1528.7,809.727 1530.89,809.707 1533.07,809.687 1535.26,809.667 1537.44,809.647 1539.63,809.628 1541.82,809.608 1544,809.589 1546.19,809.57 1548.37,809.551 1550.56,809.532 1552.75,809.513 1554.93,809.495 1557.12,809.476 1559.3,809.458 1561.49,809.44 1563.67,809.422 1565.86,809.404 1568.05,809.387 1570.23,809.369 1572.42,809.352 1574.6,809.335 1576.79,809.317 1578.98,809.301 1581.16,809.284 1583.35,809.267 1585.53,809.251 1587.72,809.234 1589.9,809.218 1592.09,809.202 1594.28,809.186 1596.46,809.17 1598.65,809.154 1600.83,809.139 1603.02,809.123 1605.21,809.108 1607.39,809.092 1609.58,809.077 1611.76,809.062 1613.95,809.047 1616.13,809.033 1618.32,809.018 1620.51,809.004 1622.69,808.989 1624.88,808.975 1627.06,808.961 1629.25,808.947 1631.44,808.933 1633.62,808.919 1635.81,808.906 1637.99,808.892 1640.18,808.879 1642.36,808.865 1644.55,808.852 1646.74,808.839 1648.92,808.826 1651.11,808.813 1653.29,808.8 1655.48,808.788 1657.67,808.775 1659.85,808.763 1662.04,808.751 1664.22,808.738 1666.41,808.726 1668.59,808.714 1670.78,808.703 1672.97,808.691 1675.15,808.679 1677.34,808.668 1679.52,808.656 1681.71,808.645 1683.89,808.634 1686.08,808.623 1688.27,808.612 1690.45,808.601 1692.64,808.59 1694.82,808.579 1697.01,808.569 1699.2,808.558 1701.38,808.548 1703.57,808.538 1705.75,808.528 1707.94,808.518 1710.12,808.508 1712.31,808.498 1714.5,808.488 1716.68,808.479 1718.87,808.469 1721.05,808.46 1723.24,808.451 1725.43,808.441 1727.61,808.432 1729.8,808.423 1731.98,808.414 1734.17,808.405 1736.35,808.397 1738.54,808.388 1740.73,808.379 1742.91,808.371 1745.1,808.363 1747.28,808.354 1749.47,808.346 1751.66,808.338 1753.84,808.33 1756.03,808.322 1758.21,808.314 1760.4,808.306 1762.58,808.298 1764.77,808.29 1766.96,808.282 1769.14,808.275 1771.33,808.267 1773.51,808.26 1775.7,808.252 1777.89,808.245 1780.07,808.238 1782.26,808.23 1784.44,808.223 1786.63,808.216 1788.81,808.209 1791,808.202 1793.19,808.195 1795.37,808.188 1797.56,808.181 1799.74,808.174 1801.93,808.167 1804.11,808.161 1806.3,808.154 1808.49,808.147 1810.67,808.141 1812.86,808.134 1815.04,808.128 1817.23,808.121 1819.42,808.115 1821.6,808.108 1823.79,808.102 1825.97,808.096 1828.16,808.089 1830.34,808.083 1832.53,808.077 1834.72,808.071 1836.9,808.065 1839.09,808.059 1841.27,808.053 1843.46,808.047 1845.65,808.041 1847.83,808.035 1850.02,808.029 1852.2,808.023 1854.39,808.017 1856.57,808.011 1858.76,808.006 1860.95,808 1863.13,807.994 1865.32,807.989 1867.5,807.983 1869.69,807.977 1871.88,807.972 1874.06,807.966 1876.25,807.961 1878.43,807.955 1880.62,807.95 1882.8,807.944 1884.99,807.939 1887.18,807.933 1889.36,807.928 1891.55,807.923 1893.73,807.917 1895.92,807.912 1898.11,807.907 1900.29,807.902 1902.48,807.897 1904.66,807.891 1906.85,807.886 1909.03,807.881 1911.22,807.876 1913.41,807.871 1915.59,807.866 1917.78,807.861 1919.96,807.856 1922.15,807.851 1924.34,807.846 1926.52,807.841 1928.71,807.836 1930.89,807.832 1933.08,807.827 1935.26,807.822 1937.45,807.817 1939.64,807.813 1941.82,807.808 1944.01,807.803 1946.19,807.799 1948.38,807.794 1950.56,807.789 1952.75,807.785 1954.94,807.78 1957.12,807.776 1959.31,807.772 1961.49,807.767 1963.68,807.763 1965.87,807.759 1968.05,807.754 1970.24,807.75 1972.42,807.746 1974.61,807.742 1976.79,807.738 1978.98,807.733 1981.17,807.729 1983.35,807.725 1985.54,807.721 1987.72,807.718 1989.91,807.714 1992.1,807.71 1994.28,807.706 1996.47,807.702 1998.65,807.699 2000.84,807.695 2003.02,807.691 2005.21,807.688 2007.4,807.684 2009.58,807.681 2011.77,807.677 2013.95,807.674 2016.14,807.671 2018.33,807.667 2020.51,807.664 2022.7,807.661 2024.88,807.658 2027.07,807.655 2029.25,807.652 2031.44,807.649 2033.63,807.646 2035.81,807.644 2038,807.641 2040.18,807.638 2042.37,807.636 2044.56,807.633 2046.74,807.631 2048.93,807.628 2051.11,807.626 2053.3,807.624 2055.48,807.622 2057.67,807.62 2059.86,807.618 2062.04,807.616 2064.23,807.614 2066.41,807.612 2068.6,807.61 2070.79,807.608 2072.97,807.606 2075.16,807.604 2077.34,807.603 2079.53,807.601 2081.71,807.599 2083.9,807.598 2086.09,807.596 2088.27,807.595 2090.46,807.593 2092.64,807.591 2094.83,807.59 2097.01,807.588 2099.2,807.587 2101.39,807.586 2103.57,807.584 2105.76,807.583 2107.94,807.581 2110.13,807.58 2112.32,807.578 2114.5,807.577 2116.69,807.576 2118.87,807.574 2121.06,807.573 2123.24,807.572 2125.43,807.57 2127.62,807.569 2129.8,807.567 2131.99,807.566 2134.17,807.565 2136.36,807.563 2138.55,807.562 2140.73,807.561 2142.92,807.559 2145.1,807.558 2147.29,807.556 2149.47,807.555 2151.66,807.554 2153.85,807.552 2156.03,807.551 2158.22,807.549 2160.4,807.548 2162.59,807.546 2164.78,807.545 2166.96,807.543 2169.15,807.542 2171.33,807.54 2173.52,807.539 2175.7,807.537 2177.89,807.536 2180.08,807.534 2182.26,807.533 2184.45,807.531 2186.63,807.529 2188.82,807.528 2191.01,807.526 2193.19,807.524 2195.38,807.523 2197.56,807.521 2199.75,807.519 2201.93,807.518 2204.12,807.516 2206.31,807.514 2208.49,807.512 2210.68,807.511 2212.86,807.509 2215.05,807.507 2217.24,807.505 2219.42,807.503 2221.61,807.501 2223.79,807.5 2225.98,807.498 2228.16,807.496 2230.35,807.494 2232.54,807.492 2234.72,807.49 2236.91,807.488 2239.09,807.486 2241.28,807.484 2243.46,807.482 2245.65,807.481 2247.84,807.479 2250.02,807.477 2252.21,807.475 2254.39,807.473 2256.58,807.471 2258.77,807.469 2260.95,807.467 2263.14,807.465 2265.32,807.463 2267.51,807.461 2269.69,807.459 2271.88,807.457 2274.07,807.455 2276.25,807.453 2278.44,807.452 2280.62,807.45 2282.81,807.448 2285,807.446 2287.18,807.444 2289.37,807.442 2291.55,807.441 2293.74,807.439 2295.92,807.437 2298.11,807.435 2300.3,807.434 2302.48,807.432 2304.67,807.43 2306.85,807.429 2309.04,807.427 2311.23,807.426 2313.41,807.424 2315.6,807.423 2317.78,807.421 2319.97,807.42 2322.15,807.419 2324.34,807.417 2326.53,807.416 2328.71,807.415 2330.9,807.414 2333.08,807.413 2335.27,807.412 2337.46,807.411 2339.64,807.41 2341.83,807.409 2344.01,807.409 2346.2,807.408 2348.38,807.407 2350.57,807.407 2352.76,807.406 "/>
<path clip-path="url(#clip000)" d="M1978.73 300.469 L2279.97 300.469 L2279.97 93.1086 L1978.73 93.1086  Z" fill="#ffffff" fill-rule="evenodd" fill-opacity="1"/>
<polyline clip-path="url(#clip000)" style="stroke:#000000; stroke-linecap:round; stroke-linejoin:round; stroke-width:4; stroke-opacity:1; fill:none" points="1978.73,300.469 2279.97,300.469 2279.97,93.1086 1978.73,93.1086 1978.73,300.469 "/>
<polyline clip-path="url(#clip000)" style="stroke:#009af9; stroke-linecap:round; stroke-linejoin:round; stroke-width:8; stroke-opacity:1; fill:none" points="2003,144.949 2148.57,144.949 "/>
<path clip-path="url(#clip000)" d="M2188.67 132.275 L2182.33 149.474 L2195.03 149.474 L2188.67 132.275 M2186.03 127.669 L2191.33 127.669 L2204.5 162.229 L2199.64 162.229 L2196.49 153.363 L2180.91 153.363 L2177.77 162.229 L2172.84 162.229 L2186.03 127.669 Z" fill="#000000" fill-rule="nonzero" fill-opacity="1" /><path clip-path="url(#clip000)" d="M2218.62 145.585 L2218.62 152.807 L2226.75 152.807 L2226.75 155.006 L2218.62 155.006 L2218.62 162.229 L2216.19 162.229 L2216.19 155.006 L2208.07 155.006 L2208.07 152.807 L2216.19 152.807 L2216.19 145.585 L2218.62 145.585 Z" fill="#000000" fill-rule="nonzero" fill-opacity="1" /><path clip-path="url(#clip000)" d="M2236.93 149.289 Q2236.93 153.988 2238.85 156.673 Q2240.8 159.335 2244.18 159.335 Q2247.56 159.335 2249.5 156.673 Q2251.45 153.988 2251.45 149.289 Q2251.45 144.59 2249.5 141.928 Q2247.56 139.243 2244.18 139.243 Q2240.8 139.243 2238.85 141.928 Q2236.93 144.59 2236.93 149.289 M2251.45 158.34 Q2250.1 160.655 2248.04 161.789 Q2246.01 162.9 2243.14 162.9 Q2238.44 162.9 2235.47 159.15 Q2232.53 155.4 2232.53 149.289 Q2232.53 143.178 2235.47 139.428 Q2238.44 135.678 2243.14 135.678 Q2246.01 135.678 2248.04 136.812 Q2250.1 137.923 2251.45 140.238 L2251.45 136.303 L2255.71 136.303 L2255.71 172.09 L2251.45 172.09 L2251.45 158.34 Z" fill="#000000" fill-rule="nonzero" fill-opacity="1" /><polyline clip-path="url(#clip000)" style="stroke:#e26f46; stroke-linecap:round; stroke-linejoin:round; stroke-width:8; stroke-opacity:1; fill:none" points="2003,196.789 2148.57,196.789 "/>
<path clip-path="url(#clip000)" d="M2177.51 197.564 L2177.51 210.226 L2185.01 210.226 Q2188.78 210.226 2190.59 208.675 Q2192.42 207.101 2192.42 203.883 Q2192.42 200.643 2190.59 199.115 Q2188.78 197.564 2185.01 197.564 L2177.51 197.564 M2177.51 183.351 L2177.51 193.768 L2184.43 193.768 Q2187.86 193.768 2189.53 192.495 Q2191.22 191.198 2191.22 188.559 Q2191.22 185.944 2189.53 184.647 Q2187.86 183.351 2184.43 183.351 L2177.51 183.351 M2172.84 179.509 L2184.78 179.509 Q2190.13 179.509 2193.02 181.731 Q2195.91 183.953 2195.91 188.05 Q2195.91 191.222 2194.43 193.097 Q2192.95 194.971 2190.08 195.434 Q2193.53 196.175 2195.43 198.536 Q2197.35 200.874 2197.35 204.393 Q2197.35 209.022 2194.2 211.545 Q2191.05 214.069 2185.24 214.069 L2172.84 214.069 L2172.84 179.509 Z" fill="#000000" fill-rule="nonzero" fill-opacity="1" /><path clip-path="url(#clip000)" d="M2214.43 197.425 L2214.43 204.647 L2222.56 204.647 L2222.56 206.846 L2214.43 206.846 L2214.43 214.069 L2212 214.069 L2212 206.846 L2203.88 206.846 L2203.88 204.647 L2212 204.647 L2212 197.425 L2214.43 197.425 Z" fill="#000000" fill-rule="nonzero" fill-opacity="1" /><path clip-path="url(#clip000)" d="M2232.74 201.129 Q2232.74 205.828 2234.66 208.513 Q2236.61 211.175 2239.99 211.175 Q2243.37 211.175 2245.31 208.513 Q2247.26 205.828 2247.26 201.129 Q2247.26 196.43 2245.31 193.768 Q2243.37 191.083 2239.99 191.083 Q2236.61 191.083 2234.66 193.768 Q2232.74 196.43 2232.74 201.129 M2247.26 210.18 Q2245.91 212.495 2243.85 213.629 Q2241.82 214.74 2238.95 214.74 Q2234.25 214.74 2231.28 210.99 Q2228.34 207.24 2228.34 201.129 Q2228.34 195.018 2231.28 191.268 Q2234.25 187.518 2238.95 187.518 Q2241.82 187.518 2243.85 188.652 Q2245.91 189.763 2247.26 192.078 L2247.26 188.143 L2251.52 188.143 L2251.52 223.93 L2247.26 223.93 L2247.26 210.18 Z" fill="#000000" fill-rule="nonzero" fill-opacity="1" /><polyline clip-path="url(#clip000)" style="stroke:#3da44d; stroke-linecap:round; stroke-linejoin:round; stroke-width:8; stroke-opacity:1; fill:none" points="2003,248.629 2148.57,248.629 "/>
<path clip-path="url(#clip000)" d="M2200.71 234.011 L2200.71 238.941 Q2198.34 236.742 2195.66 235.654 Q2193 234.566 2189.99 234.566 Q2184.06 234.566 2180.91 238.2 Q2177.77 241.812 2177.77 248.663 Q2177.77 255.492 2180.91 259.126 Q2184.06 262.737 2189.99 262.737 Q2193 262.737 2195.66 261.649 Q2198.34 260.561 2200.71 258.362 L2200.71 263.247 Q2198.25 264.913 2195.5 265.747 Q2192.77 266.58 2189.71 266.58 Q2181.86 266.58 2177.35 261.788 Q2172.84 256.973 2172.84 248.663 Q2172.84 240.33 2177.35 235.538 Q2181.86 230.724 2189.71 230.724 Q2192.81 230.724 2195.54 231.557 Q2198.3 232.367 2200.71 234.011 Z" fill="#000000" fill-rule="nonzero" fill-opacity="1" /><path clip-path="url(#clip000)" d="M2217 249.265 L2217 256.487 L2225.13 256.487 L2225.13 258.686 L2217 258.686 L2217 265.909 L2214.57 265.909 L2214.57 258.686 L2206.45 258.686 L2206.45 256.487 L2214.57 256.487 L2214.57 249.265 L2217 249.265 Z" fill="#000000" fill-rule="nonzero" fill-opacity="1" /><path clip-path="url(#clip000)" d="M2235.31 252.969 Q2235.31 257.668 2237.23 260.353 Q2239.18 263.015 2242.56 263.015 Q2245.94 263.015 2247.88 260.353 Q2249.83 257.668 2249.83 252.969 Q2249.83 248.27 2247.88 245.608 Q2245.94 242.923 2242.56 242.923 Q2239.18 242.923 2237.23 245.608 Q2235.31 248.27 2235.31 252.969 M2249.83 262.02 Q2248.48 264.335 2246.42 265.469 Q2244.39 266.58 2241.52 266.58 Q2236.82 266.58 2233.85 262.83 Q2230.91 259.08 2230.91 252.969 Q2230.91 246.858 2233.85 243.108 Q2236.82 239.358 2241.52 239.358 Q2244.39 239.358 2246.42 240.492 Q2248.48 241.603 2249.83 243.918 L2249.83 239.983 L2254.09 239.983 L2254.09 275.77 L2249.83 275.77 L2249.83 262.02 Z" fill="#000000" fill-rule="nonzero" fill-opacity="1" /></svg>
