<?xml version="1.0" encoding="utf-8"?>
<svg xmlns="http://www.w3.org/2000/svg" xmlns:xlink="http://www.w3.org/1999/xlink" width="600" height="400" viewBox="0 0 2400 1600">
<defs>
  <clipPath id="clip580">
    <rect x="0" y="0" width="2400" height="1600"/>
  </clipPath>
</defs>
<path clip-path="url(#clip580)" d="M0 1600 L2400 1600 L2400 0 L0 0  Z" fill="#ffffff" fill-rule="evenodd" fill-opacity="1"/>
<defs>
  <clipPath id="clip581">
    <rect x="480" y="0" width="1681" height="1600"/>
  </clipPath>
</defs>
<path clip-path="url(#clip580)" d="M485.358 1552.76 L1914.64 1552.76 L1914.64 123.472 L485.358 123.472  Z" fill="#ffffff" fill-rule="evenodd" fill-opacity="1"/>
<defs>
  <clipPath id="clip582">
    <rect x="485" y="123" width="1430" height="1430"/>
  </clipPath>
</defs>
<path clip-path="url(#clip580)" d="M908.659 12.096 L920.852 12.096 L936.286 53.2532 L951.801 12.096 L963.994 12.096 L963.994 72.576 L956.014 72.576 L956.014 19.4686 L940.418 60.9499 L932.195 60.9499 L916.599 19.4686 L916.599 72.576 L908.659 72.576 L908.659 12.096 Z" fill="#000000" fill-rule="nonzero" fill-opacity="1" /><path clip-path="url(#clip580)" d="M980.238 12.096 L992.432 12.096 L1007.87 53.2532 L1023.38 12.096 L1035.57 12.096 L1035.57 72.576 L1027.59 72.576 L1027.59 19.4686 L1012 60.9499 L1003.77 60.9499 L988.178 19.4686 L988.178 72.576 L980.238 72.576 L980.238 12.096 Z" fill="#000000" fill-rule="nonzero" fill-opacity="1" /><path clip-path="url(#clip580)" d="M1085.97 86.3491 L1085.97 92.1419 L1042.87 92.1419 L1042.87 86.3491 L1085.97 86.3491 Z" fill="#000000" fill-rule="nonzero" fill-opacity="1" /><path clip-path="url(#clip580)" d="M1119.27 34.1734 Q1118.01 33.4443 1116.51 33.1202 Q1115.05 32.7556 1113.27 32.7556 Q1106.95 32.7556 1103.55 36.8875 Q1100.19 40.9789 1100.19 48.6757 L1100.19 72.576 L1092.69 72.576 L1092.69 27.2059 L1100.19 27.2059 L1100.19 34.2544 Q1102.54 30.1225 1106.3 28.1376 Q1110.07 26.1121 1115.46 26.1121 Q1116.23 26.1121 1117.16 26.2337 Q1118.09 26.3147 1119.22 26.5172 L1119.27 34.1734 Z" fill="#000000" fill-rule="nonzero" fill-opacity="1" /><path clip-path="url(#clip580)" d="M1164.07 48.0275 L1164.07 51.6733 L1129.8 51.6733 Q1130.28 59.3701 1134.42 63.421 Q1138.59 67.4314 1146 67.4314 Q1150.3 67.4314 1154.31 66.3781 Q1158.36 65.3249 1162.33 63.2184 L1162.33 70.267 Q1158.32 71.9684 1154.1 72.8596 Q1149.89 73.7508 1145.56 73.7508 Q1134.7 73.7508 1128.34 67.4314 Q1122.02 61.1119 1122.02 50.3365 Q1122.02 39.1965 1128.02 32.6746 Q1134.05 26.1121 1144.26 26.1121 Q1153.41 26.1121 1158.72 32.0264 Q1164.07 37.9003 1164.07 48.0275 M1156.61 45.84 Q1156.53 39.7232 1153.17 36.0774 Q1149.85 32.4315 1144.34 32.4315 Q1138.1 32.4315 1134.33 35.9558 Q1130.61 39.4801 1130.04 45.8805 L1156.61 45.84 Z" fill="#000000" fill-rule="nonzero" fill-opacity="1" /><path clip-path="url(#clip580)" d="M1170.96 27.2059 L1178.85 27.2059 L1193.03 65.2844 L1207.21 27.2059 L1215.11 27.2059 L1198.1 72.576 L1187.97 72.576 L1170.96 27.2059 Z" fill="#000000" fill-rule="nonzero" fill-opacity="1" /><path clip-path="url(#clip580)" d="M1264.21 48.0275 L1264.21 51.6733 L1229.94 51.6733 Q1230.42 59.3701 1234.55 63.421 Q1238.73 67.4314 1246.14 67.4314 Q1250.43 67.4314 1254.44 66.3781 Q1258.5 65.3249 1262.46 63.2184 L1262.46 70.267 Q1258.45 71.9684 1254.24 72.8596 Q1250.03 73.7508 1245.69 73.7508 Q1234.84 73.7508 1228.48 67.4314 Q1222.16 61.1119 1222.16 50.3365 Q1222.16 39.1965 1228.15 32.6746 Q1234.19 26.1121 1244.4 26.1121 Q1253.55 26.1121 1258.86 32.0264 Q1264.21 37.9003 1264.21 48.0275 M1256.75 45.84 Q1256.67 39.7232 1253.31 36.0774 Q1249.99 32.4315 1244.48 32.4315 Q1238.24 32.4315 1234.47 35.9558 Q1230.75 39.4801 1230.18 45.8805 L1256.75 45.84 Z" fill="#000000" fill-rule="nonzero" fill-opacity="1" /><path clip-path="url(#clip580)" d="M1302.73 34.1734 Q1301.48 33.4443 1299.98 33.1202 Q1298.52 32.7556 1296.74 32.7556 Q1290.42 32.7556 1287.01 36.8875 Q1283.65 40.9789 1283.65 48.6757 L1283.65 72.576 L1276.16 72.576 L1276.16 27.2059 L1283.65 27.2059 L1283.65 34.2544 Q1286 30.1225 1289.77 28.1376 Q1293.54 26.1121 1298.92 26.1121 Q1299.69 26.1121 1300.62 26.2337 Q1301.56 26.3147 1302.69 26.5172 L1302.73 34.1734 Z" fill="#000000" fill-rule="nonzero" fill-opacity="1" /><path clip-path="url(#clip580)" d="M1339.47 28.5427 L1339.47 35.5912 Q1336.31 33.9709 1332.91 33.1607 Q1329.51 32.3505 1325.86 32.3505 Q1320.31 32.3505 1317.52 34.0519 Q1314.76 35.7533 1314.76 39.156 Q1314.76 41.7486 1316.75 43.2475 Q1318.73 44.7058 1324.73 46.0426 L1327.28 46.6097 Q1335.22 48.3111 1338.54 51.4303 Q1341.9 54.509 1341.9 60.0587 Q1341.9 66.3781 1336.88 70.0644 Q1331.9 73.7508 1323.15 73.7508 Q1319.5 73.7508 1315.53 73.0216 Q1311.6 72.3329 1307.23 70.9151 L1307.23 63.2184 Q1311.36 65.3654 1315.37 66.4591 Q1319.38 67.5124 1323.31 67.5124 Q1328.58 67.5124 1331.41 65.73 Q1334.25 63.9071 1334.25 60.6258 Q1334.25 57.5877 1332.18 55.9673 Q1330.16 54.3469 1323.23 52.8481 L1320.64 52.2405 Q1313.71 50.7821 1310.63 47.7845 Q1307.55 44.7463 1307.55 39.4801 Q1307.55 33.0797 1312.09 29.5959 Q1316.63 26.1121 1324.97 26.1121 Q1329.1 26.1121 1332.75 26.7198 Q1336.39 27.3274 1339.47 28.5427 Z" fill="#000000" fill-rule="nonzero" fill-opacity="1" /><path clip-path="url(#clip580)" d="M1353.77 27.2059 L1361.23 27.2059 L1361.23 72.576 L1353.77 72.576 L1353.77 27.2059 M1353.77 9.54393 L1361.23 9.54393 L1361.23 18.9825 L1353.77 18.9825 L1353.77 9.54393 Z" fill="#000000" fill-rule="nonzero" fill-opacity="1" /><path clip-path="url(#clip580)" d="M1409.39 49.9314 Q1409.39 41.7081 1405.99 37.0496 Q1402.63 32.3505 1396.71 32.3505 Q1390.8 32.3505 1387.39 37.0496 Q1384.03 41.7081 1384.03 49.9314 Q1384.03 58.1548 1387.39 62.8538 Q1390.8 67.5124 1396.71 67.5124 Q1402.63 67.5124 1405.99 62.8538 Q1409.39 58.1548 1409.39 49.9314 M1384.03 34.0924 Q1386.38 30.0415 1389.95 28.0971 Q1393.55 26.1121 1398.53 26.1121 Q1406.8 26.1121 1411.94 32.6746 Q1417.13 39.2371 1417.13 49.9314 Q1417.13 60.6258 1411.94 67.1883 Q1406.8 73.7508 1398.53 73.7508 Q1393.55 73.7508 1389.95 71.8063 Q1386.38 69.8214 1384.03 65.7705 L1384.03 72.576 L1376.54 72.576 L1376.54 9.54393 L1384.03 9.54393 L1384.03 34.0924 Z" fill="#000000" fill-rule="nonzero" fill-opacity="1" /><path clip-path="url(#clip580)" d="M1429.48 9.54393 L1436.94 9.54393 L1436.94 72.576 L1429.48 72.576 L1429.48 9.54393 Z" fill="#000000" fill-rule="nonzero" fill-opacity="1" /><path clip-path="url(#clip580)" d="M1491.34 48.0275 L1491.34 51.6733 L1457.07 51.6733 Q1457.56 59.3701 1461.69 63.421 Q1465.86 67.4314 1473.27 67.4314 Q1477.57 67.4314 1481.58 66.3781 Q1485.63 65.3249 1489.6 63.2184 L1489.6 70.267 Q1485.59 71.9684 1481.38 72.8596 Q1477.16 73.7508 1472.83 73.7508 Q1461.97 73.7508 1455.61 67.4314 Q1449.29 61.1119 1449.29 50.3365 Q1449.29 39.1965 1455.29 32.6746 Q1461.32 26.1121 1471.53 26.1121 Q1480.69 26.1121 1485.99 32.0264 Q1491.34 37.9003 1491.34 48.0275 M1483.89 45.84 Q1483.81 39.7232 1480.44 36.0774 Q1477.12 32.4315 1471.61 32.4315 Q1465.37 32.4315 1461.61 35.9558 Q1457.88 39.4801 1457.31 45.8805 L1483.89 45.84 Z" fill="#000000" fill-rule="nonzero" fill-opacity="1" /><polyline clip-path="url(#clip582)" style="stroke:#000000; stroke-linecap:round; stroke-linejoin:round; stroke-width:4; stroke-opacity:1; fill:none" points="689.542,1054.41 918.888,969.448 "/>
<polyline clip-path="url(#clip582)" style="stroke:#000000; stroke-linecap:round; stroke-linejoin:round; stroke-width:4; stroke-opacity:1; fill:none" points="878.877,965.075 918.888,969.448 891.383,998.833 "/>
<polyline clip-path="url(#clip582)" style="stroke:#000000; stroke-linecap:round; stroke-linejoin:round; stroke-width:4; stroke-opacity:1; fill:none" points="918.888,969.448 689.542,1054.41 "/>
<polyline clip-path="url(#clip582)" style="stroke:#000000; stroke-linecap:round; stroke-linejoin:round; stroke-width:4; stroke-opacity:1; fill:none" points="948.258,970.82 931.146,762.174 "/>
<polyline clip-path="url(#clip582)" style="stroke:#000000; stroke-linecap:round; stroke-linejoin:round; stroke-width:4; stroke-opacity:1; fill:none" points="916.149,799.525 931.146,762.174 952.028,796.582 "/>
<polyline clip-path="url(#clip582)" style="stroke:#000000; stroke-linecap:round; stroke-linejoin:round; stroke-width:4; stroke-opacity:1; fill:none" points="931.146,762.174 948.258,970.82 "/>
<polyline clip-path="url(#clip582)" style="stroke:#000000; stroke-linecap:round; stroke-linejoin:round; stroke-width:4; stroke-opacity:1; fill:none" points="1710.46,1026.05 1475.58,953.985 "/>
<polyline clip-path="url(#clip582)" style="stroke:#000000; stroke-linecap:round; stroke-linejoin:round; stroke-width:4; stroke-opacity:1; fill:none" points="1504.72,981.753 1475.58,953.985 1515.28,947.336 "/>
<polyline clip-path="url(#clip582)" style="stroke:#000000; stroke-linecap:round; stroke-linejoin:round; stroke-width:4; stroke-opacity:1; fill:none" points="1475.58,953.985 1710.46,1026.05 "/>
<polyline clip-path="url(#clip582)" style="stroke:#000000; stroke-linecap:round; stroke-linejoin:round; stroke-width:4; stroke-opacity:1; fill:none" points="1446.33,956.982 1448.61,747.48 "/>
<polyline clip-path="url(#clip582)" style="stroke:#000000; stroke-linecap:round; stroke-linejoin:round; stroke-width:4; stroke-opacity:1; fill:none" points="1430.22,783.283 1448.61,747.48 1466.22,783.674 "/>
<polyline clip-path="url(#clip582)" style="stroke:#000000; stroke-linecap:round; stroke-linejoin:round; stroke-width:4; stroke-opacity:1; fill:none" points="1448.61,747.48 1446.33,956.982 "/>
<polyline clip-path="url(#clip582)" style="stroke:#000000; stroke-linecap:round; stroke-linejoin:round; stroke-width:4; stroke-opacity:1; fill:none" points="1202.24,1103.47 977.377,974.895 "/>
<polyline clip-path="url(#clip582)" style="stroke:#000000; stroke-linecap:round; stroke-linejoin:round; stroke-width:4; stroke-opacity:1; fill:none" points="999.694,1008.39 977.377,974.895 1017.56,977.138 "/>
<polyline clip-path="url(#clip582)" style="stroke:#000000; stroke-linecap:round; stroke-linejoin:round; stroke-width:4; stroke-opacity:1; fill:none" points="977.377,974.895 1202.24,1103.47 "/>
<polyline clip-path="url(#clip582)" style="stroke:#000000; stroke-linecap:round; stroke-linejoin:round; stroke-width:4; stroke-opacity:1; fill:none" points="1210.93,1348.57 1191.91,1131 "/>
<polyline clip-path="url(#clip582)" style="stroke:#000000; stroke-linecap:round; stroke-linejoin:round; stroke-width:4; stroke-opacity:1; fill:none" points="1177.11,1168.43 1191.91,1131 1212.98,1165.29 "/>
<polyline clip-path="url(#clip582)" style="stroke:#000000; stroke-linecap:round; stroke-linejoin:round; stroke-width:4; stroke-opacity:1; fill:none" points="1191.91,1131 1210.93,1348.57 "/>
<polyline clip-path="url(#clip582)" style="stroke:#000000; stroke-linecap:round; stroke-linejoin:round; stroke-width:4; stroke-opacity:1; fill:none" points="1202.24,1103.47 1417.49,962.713 "/>
<polyline clip-path="url(#clip582)" style="stroke:#000000; stroke-linecap:round; stroke-linejoin:round; stroke-width:4; stroke-opacity:1; fill:none" points="1377.51,967.35 1417.49,962.713 1397.21,997.48 "/>
<polyline clip-path="url(#clip582)" style="stroke:#000000; stroke-linecap:round; stroke-linejoin:round; stroke-width:4; stroke-opacity:1; fill:none" points="1417.49,962.713 1202.24,1103.47 "/>
<polyline clip-path="url(#clip582)" style="stroke:#000000; stroke-linecap:round; stroke-linejoin:round; stroke-width:4; stroke-opacity:1; fill:none" points="1183.22,566.794 981.498,674.031 "/>
<polyline clip-path="url(#clip582)" style="stroke:#000000; stroke-linecap:round; stroke-linejoin:round; stroke-width:4; stroke-opacity:1; fill:none" points="1021.73,673.026 981.498,674.031 1004.84,641.239 "/>
<polyline clip-path="url(#clip582)" style="stroke:#000000; stroke-linecap:round; stroke-linejoin:round; stroke-width:4; stroke-opacity:1; fill:none" points="981.498,674.031 1183.22,566.794 "/>
<polyline clip-path="url(#clip582)" style="stroke:#000000; stroke-linecap:round; stroke-linejoin:round; stroke-width:4; stroke-opacity:1; fill:none" points="1174.75,327.656 1170.73,540.176 "/>
<polyline clip-path="url(#clip582)" style="stroke:#000000; stroke-linecap:round; stroke-linejoin:round; stroke-width:4; stroke-opacity:1; fill:none" points="1189.41,504.522 1170.73,540.176 1153.42,503.842 "/>
<polyline clip-path="url(#clip582)" style="stroke:#000000; stroke-linecap:round; stroke-linejoin:round; stroke-width:4; stroke-opacity:1; fill:none" points="1170.73,540.176 1174.75,327.656 "/>
<polyline clip-path="url(#clip582)" style="stroke:#000000; stroke-linecap:round; stroke-linejoin:round; stroke-width:4; stroke-opacity:1; fill:none" points="1183.22,566.794 1392.51,662.811 "/>
<polyline clip-path="url(#clip582)" style="stroke:#000000; stroke-linecap:round; stroke-linejoin:round; stroke-width:4; stroke-opacity:1; fill:none" points="1367.29,631.439 1392.51,662.811 1352.28,664.16 "/>
<polyline clip-path="url(#clip582)" style="stroke:#000000; stroke-linecap:round; stroke-linejoin:round; stroke-width:4; stroke-opacity:1; fill:none" points="1392.51,662.811 1183.22,566.794 "/>
<path clip-path="url(#clip582)" d="M1001.72 714.792 L1001.56 710.725 L1001.07 706.683 L1000.27 702.693 L999.151 698.779 L997.725 694.967 L996.001 691.279 L993.989 687.741 L991.702 684.373 L989.155 681.198 L986.364 678.235 L983.347 675.504 L980.121 673.02 L976.709 670.801 L973.131 668.86 L969.41 667.209 L965.57 665.86 L961.635 664.819 L957.63 664.095 L953.579 663.691 L949.51 663.61 L945.446 663.852 L941.415 664.417 L937.442 665.3 L933.551 666.496 L929.768 667.998 L926.115 669.795 L922.617 671.877 L919.296 674.23 L916.172 676.84 L913.265 679.689 L910.594 682.76 L908.176 686.034 L906.025 689.49 L904.155 693.106 L902.579 696.859 L901.305 700.725 L900.343 704.68 L899.699 708.699 L899.375 712.757 L899.375 716.827 L899.699 720.885 L900.343 724.904 L901.305 728.859 L902.579 732.725 L904.155 736.478 L906.025 740.094 L908.176 743.55 L910.594 746.824 L913.265 749.895 L916.172 752.745 L919.296 755.354 L922.617 757.707 L926.115 759.789 L929.768 761.586 L933.551 763.088 L937.442 764.284 L941.415 765.167 L945.446 765.732 L949.51 765.974 L953.579 765.894 L957.63 765.49 L961.635 764.765 L965.57 763.725 L969.41 762.375 L973.131 760.724 L976.709 758.783 L980.121 756.564 L983.347 754.08 L986.364 751.349 L989.155 748.386 L991.702 745.211 L993.989 741.843 L996.001 738.305 L997.725 734.617 L999.151 730.805 L1000.27 726.891 L1001.07 722.901 L1001.56 718.859 L1001.72 714.792 L1001.72 714.792  Z" fill="#ff7f50" fill-rule="evenodd" fill-opacity="1"/>
<polyline clip-path="url(#clip582)" style="stroke:#000000; stroke-linecap:round; stroke-linejoin:round; stroke-width:4; stroke-opacity:1; fill:none" points="1001.72,714.792 1001.56,710.725 1001.07,706.683 1000.27,702.693 999.151,698.779 997.725,694.967 996.001,691.279 993.989,687.741 991.702,684.373 989.155,681.198 986.364,678.235 983.347,675.504 980.121,673.02 976.709,670.801 973.131,668.86 969.41,667.209 965.57,665.86 961.635,664.819 957.63,664.095 953.579,663.691 949.51,663.61 945.446,663.852 941.415,664.417 937.442,665.3 933.551,666.496 929.768,667.998 926.115,669.795 922.617,671.877 919.296,674.23 916.172,676.84 913.265,679.689 910.594,682.76 908.176,686.034 906.025,689.49 904.155,693.106 902.579,696.859 901.305,700.725 900.343,704.68 899.699,708.699 899.375,712.757 899.375,716.827 899.699,720.885 900.343,724.904 901.305,728.859 902.579,732.725 904.155,736.478 906.025,740.094 908.176,743.55 910.594,746.824 913.265,749.895 916.172,752.745 919.296,755.354 922.617,757.707 926.115,759.789 929.768,761.586 933.551,763.088 937.442,764.284 941.415,765.167 945.446,765.732 949.51,765.974 953.579,765.894 957.63,765.49 961.635,764.765 965.57,763.725 969.41,762.375 973.131,760.724 976.709,758.783 980.121,756.564 983.347,754.08 986.364,751.349 989.155,748.386 991.702,745.211 993.989,741.843 996.001,738.305 997.725,734.617 999.151,730.805 1000.27,726.891 1001.07,722.901 1001.56,718.859 1001.72,714.792 "/>
<path clip-path="url(#clip582)" d="M977.66 970.82 L977.567 968.484 L977.289 966.163 L976.827 963.871 L976.185 961.623 L975.366 959.433 L974.376 957.316 L973.22 955.283 L971.907 953.349 L970.444 951.525 L968.841 949.824 L967.108 948.255 L965.255 946.828 L963.295 945.554 L961.24 944.439 L959.103 943.491 L956.898 942.716 L954.638 942.118 L952.337 941.702 L950.011 941.47 L947.673 941.423 L945.34 941.563 L943.024 941.887 L940.742 942.394 L938.508 943.081 L936.335 943.944 L934.237 944.976 L932.228 946.172 L930.32 947.523 L928.526 949.022 L926.857 950.659 L925.322 952.423 L923.933 954.303 L922.698 956.288 L921.624 958.365 L920.719 960.52 L919.987 962.741 L919.435 965.012 L919.065 967.321 L918.879 969.651 L918.879 971.989 L919.065 974.319 L919.435 976.628 L919.987 978.899 L920.719 981.12 L921.624 983.275 L922.698 985.352 L923.933 987.337 L925.322 989.217 L926.857 990.981 L928.526 992.618 L930.32 994.117 L932.228 995.468 L934.237 996.664 L936.335 997.696 L938.508 998.559 L940.742 999.246 L943.024 999.753 L945.34 1000.08 L947.673 1000.22 L950.011 1000.17 L952.337 999.938 L954.638 999.522 L956.898 998.924 L959.103 998.149 L961.24 997.201 L963.295 996.086 L965.255 994.812 L967.108 993.385 L968.841 991.816 L970.444 990.115 L971.907 988.291 L973.22 986.357 L974.376 984.324 L975.366 982.207 L976.185 980.017 L976.827 977.769 L977.289 975.477 L977.567 973.156 L977.66 970.82 L977.66 970.82  Z" fill="#ffffff" fill-rule="evenodd" fill-opacity="1"/>
<polyline clip-path="url(#clip582)" style="stroke:#000000; stroke-linecap:round; stroke-linejoin:round; stroke-width:4; stroke-opacity:1; fill:none" points="977.66,970.82 977.567,968.484 977.289,966.163 976.827,963.871 976.185,961.623 975.366,959.433 974.376,957.316 973.22,955.283 971.907,953.349 970.444,951.525 968.841,949.824 967.108,948.255 965.255,946.828 963.295,945.554 961.24,944.439 959.103,943.491 956.898,942.716 954.638,942.118 952.337,941.702 950.011,941.47 947.673,941.423 945.34,941.563 943.024,941.887 940.742,942.394 938.508,943.081 936.335,943.944 934.237,944.976 932.228,946.172 930.32,947.523 928.526,949.022 926.857,950.659 925.322,952.423 923.933,954.303 922.698,956.288 921.624,958.365 920.719,960.52 919.987,962.741 919.435,965.012 919.065,967.321 918.879,969.651 918.879,971.989 919.065,974.319 919.435,976.628 919.987,978.899 920.719,981.12 921.624,983.275 922.698,985.352 923.933,987.337 925.322,989.217 926.857,990.981 928.526,992.618 930.32,994.117 932.228,995.468 934.237,996.664 936.335,997.696 938.508,998.559 940.742,999.246 943.024,999.753 945.34,1000.08 947.673,1000.22 950.011,1000.17 952.337,999.938 954.638,999.522 956.898,998.924 959.103,998.149 961.24,997.201 963.295,996.086 965.255,994.812 967.108,993.385 968.841,991.816 970.444,990.115 971.907,988.291 973.22,986.357 974.376,984.324 975.366,982.207 976.185,980.017 976.827,977.769 977.289,975.477 977.567,973.156 977.66,970.82 "/>
<path clip-path="url(#clip582)" d="M1240.33 1348.57 L1240.24 1346.24 L1239.96 1343.92 L1239.5 1341.62 L1238.86 1339.38 L1238.04 1337.19 L1237.05 1335.07 L1235.89 1333.04 L1234.58 1331.1 L1233.11 1329.28 L1231.51 1327.58 L1229.78 1326.01 L1227.93 1324.58 L1225.97 1323.31 L1223.91 1322.19 L1221.77 1321.24 L1219.57 1320.47 L1217.31 1319.87 L1215.01 1319.45 L1212.68 1319.22 L1210.34 1319.18 L1208.01 1319.32 L1205.69 1319.64 L1203.41 1320.15 L1201.18 1320.83 L1199 1321.7 L1196.91 1322.73 L1194.9 1323.92 L1192.99 1325.28 L1191.2 1326.77 L1189.53 1328.41 L1187.99 1330.18 L1186.6 1332.06 L1185.37 1334.04 L1184.29 1336.12 L1183.39 1338.27 L1182.66 1340.49 L1182.11 1342.76 L1181.73 1345.07 L1181.55 1347.4 L1181.55 1349.74 L1181.73 1352.07 L1182.11 1354.38 L1182.66 1356.65 L1183.39 1358.87 L1184.29 1361.03 L1185.37 1363.1 L1186.6 1365.09 L1187.99 1366.97 L1189.53 1368.73 L1191.2 1370.37 L1192.99 1371.87 L1194.9 1373.22 L1196.91 1374.42 L1199 1375.45 L1201.18 1376.31 L1203.41 1377 L1205.69 1377.51 L1208.01 1377.83 L1210.34 1377.97 L1212.68 1377.92 L1215.01 1377.69 L1217.31 1377.27 L1219.57 1376.68 L1221.77 1375.9 L1223.91 1374.95 L1225.97 1373.84 L1227.93 1372.56 L1229.78 1371.14 L1231.51 1369.57 L1233.11 1367.87 L1234.58 1366.04 L1235.89 1364.11 L1237.05 1362.08 L1238.04 1359.96 L1238.86 1357.77 L1239.5 1355.52 L1239.96 1353.23 L1240.24 1350.91 L1240.33 1348.57 L1240.33 1348.57  Z" fill="#add8e6" fill-rule="evenodd" fill-opacity="1"/>
<polyline clip-path="url(#clip582)" style="stroke:#000000; stroke-linecap:round; stroke-linejoin:round; stroke-width:4; stroke-opacity:1; fill:none" points="1240.33,1348.57 1240.24,1346.24 1239.96,1343.92 1239.5,1341.62 1238.86,1339.38 1238.04,1337.19 1237.05,1335.07 1235.89,1333.04 1234.58,1331.1 1233.11,1329.28 1231.51,1327.58 1229.78,1326.01 1227.93,1324.58 1225.97,1323.31 1223.91,1322.19 1221.77,1321.24 1219.57,1320.47 1217.31,1319.87 1215.01,1319.45 1212.68,1319.22 1210.34,1319.18 1208.01,1319.32 1205.69,1319.64 1203.41,1320.15 1201.18,1320.83 1199,1321.7 1196.91,1322.73 1194.9,1323.92 1192.99,1325.28 1191.2,1326.77 1189.53,1328.41 1187.99,1330.18 1186.6,1332.06 1185.37,1334.04 1184.29,1336.12 1183.39,1338.27 1182.66,1340.49 1182.11,1342.76 1181.73,1345.07 1181.55,1347.4 1181.55,1349.74 1181.73,1352.07 1182.11,1354.38 1182.66,1356.65 1183.39,1358.87 1184.29,1361.03 1185.37,1363.1 1186.6,1365.09 1187.99,1366.97 1189.53,1368.73 1191.2,1370.37 1192.99,1371.87 1194.9,1373.22 1196.91,1374.42 1199,1375.45 1201.18,1376.31 1203.41,1377 1205.69,1377.51 1208.01,1377.83 1210.34,1377.97 1212.68,1377.92 1215.01,1377.69 1217.31,1377.27 1219.57,1376.68 1221.77,1375.9 1223.91,1374.95 1225.97,1373.84 1227.93,1372.56 1229.78,1371.14 1231.51,1369.57 1233.11,1367.87 1234.58,1366.04 1235.89,1364.11 1237.05,1362.08 1238.04,1359.96 1238.86,1357.77 1239.5,1355.52 1239.96,1353.23 1240.24,1350.91 1240.33,1348.57 "/>
<path clip-path="url(#clip582)" d="M718.944 1054.41 L718.851 1052.08 L718.573 1049.76 L718.111 1047.46 L717.469 1045.22 L716.65 1043.03 L715.659 1040.91 L714.504 1038.88 L713.19 1036.94 L711.728 1035.12 L710.124 1033.42 L708.391 1031.85 L706.539 1030.42 L704.579 1029.15 L702.524 1028.03 L700.387 1027.08 L698.181 1026.31 L695.921 1025.71 L693.621 1025.3 L691.294 1025.06 L688.957 1025.02 L686.623 1025.16 L684.308 1025.48 L682.026 1025.99 L679.791 1026.67 L677.618 1027.54 L675.52 1028.57 L673.511 1029.77 L671.604 1031.12 L669.81 1032.62 L668.14 1034.25 L666.606 1036.02 L665.217 1037.9 L663.981 1039.88 L662.908 1041.96 L662.002 1044.11 L661.271 1046.33 L660.718 1048.61 L660.348 1050.91 L660.162 1053.24 L660.162 1055.58 L660.348 1057.91 L660.718 1060.22 L661.271 1062.49 L662.002 1064.71 L662.908 1066.87 L663.981 1068.95 L665.217 1070.93 L666.606 1072.81 L668.14 1074.57 L669.81 1076.21 L671.604 1077.71 L673.511 1079.06 L675.52 1080.26 L677.618 1081.29 L679.791 1082.15 L682.026 1082.84 L684.308 1083.35 L686.623 1083.67 L688.957 1083.81 L691.294 1083.76 L693.621 1083.53 L695.921 1083.12 L698.181 1082.52 L700.387 1081.74 L702.524 1080.79 L704.579 1079.68 L706.539 1078.41 L708.391 1076.98 L710.124 1075.41 L711.728 1073.71 L713.19 1071.88 L714.504 1069.95 L715.659 1067.92 L716.65 1065.8 L717.469 1063.61 L718.111 1061.36 L718.573 1059.07 L718.851 1056.75 L718.944 1054.41 L718.944 1054.41  Z" fill="#90ee90" fill-rule="evenodd" fill-opacity="1"/>
<polyline clip-path="url(#clip582)" style="stroke:#000000; stroke-linecap:round; stroke-linejoin:round; stroke-width:4; stroke-opacity:1; fill:none" points="718.944,1054.41 718.851,1052.08 718.573,1049.76 718.111,1047.46 717.469,1045.22 716.65,1043.03 715.659,1040.91 714.504,1038.88 713.19,1036.94 711.728,1035.12 710.124,1033.42 708.391,1031.85 706.539,1030.42 704.579,1029.15 702.524,1028.03 700.387,1027.08 698.181,1026.31 695.921,1025.71 693.621,1025.3 691.294,1025.06 688.957,1025.02 686.623,1025.16 684.308,1025.48 682.026,1025.99 679.791,1026.67 677.618,1027.54 675.52,1028.57 673.511,1029.77 671.604,1031.12 669.81,1032.62 668.14,1034.25 666.606,1036.02 665.217,1037.9 663.981,1039.88 662.908,1041.96 662.002,1044.11 661.271,1046.33 660.718,1048.61 660.348,1050.91 660.162,1053.24 660.162,1055.58 660.348,1057.91 660.718,1060.22 661.271,1062.49 662.002,1064.71 662.908,1066.87 663.981,1068.95 665.217,1070.93 666.606,1072.81 668.14,1074.57 669.81,1076.21 671.604,1077.71 673.511,1079.06 675.52,1080.26 677.618,1081.29 679.791,1082.15 682.026,1082.84 684.308,1083.35 686.623,1083.67 688.957,1083.81 691.294,1083.76 693.621,1083.53 695.921,1083.12 698.181,1082.52 700.387,1081.74 702.524,1080.79 704.579,1079.68 706.539,1078.41 708.391,1076.98 710.124,1075.41 711.728,1073.71 713.19,1071.88 714.504,1069.95 715.659,1067.92 716.65,1065.8 717.469,1063.61 718.111,1061.36 718.573,1059.07 718.851,1056.75 718.944,1054.41 "/>
<path clip-path="url(#clip582)" d="M1204.15 327.656 L1204.06 325.319 L1203.78 322.998 L1203.32 320.706 L1202.67 318.459 L1201.86 316.269 L1200.87 314.151 L1199.71 312.119 L1198.4 310.185 L1196.93 308.361 L1195.33 306.659 L1193.6 305.09 L1191.75 303.664 L1189.79 302.389 L1187.73 301.275 L1185.59 300.326 L1183.39 299.551 L1181.13 298.954 L1178.83 298.537 L1176.5 298.305 L1174.16 298.259 L1171.83 298.398 L1169.51 298.723 L1167.23 299.23 L1165 299.917 L1162.82 300.779 L1160.73 301.812 L1158.72 303.007 L1156.81 304.359 L1155.02 305.858 L1153.35 307.494 L1151.81 309.258 L1150.42 311.139 L1149.19 313.123 L1148.11 315.2 L1147.21 317.356 L1146.48 319.576 L1145.92 321.848 L1145.55 324.156 L1145.37 326.487 L1145.37 328.824 L1145.55 331.155 L1145.92 333.463 L1146.48 335.735 L1147.21 337.956 L1148.11 340.111 L1149.19 342.188 L1150.42 344.172 L1151.81 346.053 L1153.35 347.817 L1155.02 349.454 L1156.81 350.952 L1158.72 352.304 L1160.73 353.5 L1162.82 354.532 L1165 355.394 L1167.23 356.081 L1169.51 356.588 L1171.83 356.913 L1174.16 357.052 L1176.5 357.006 L1178.83 356.774 L1181.13 356.357 L1183.39 355.76 L1185.59 354.985 L1187.73 354.037 L1189.79 352.922 L1191.75 351.647 L1193.6 350.221 L1195.33 348.652 L1196.93 346.95 L1198.4 345.126 L1199.71 343.192 L1200.87 341.16 L1201.86 339.042 L1202.67 336.852 L1203.32 334.605 L1203.78 332.313 L1204.06 329.992 L1204.15 327.656 L1204.15 327.656  Z" fill="#add8e6" fill-rule="evenodd" fill-opacity="1"/>
<polyline clip-path="url(#clip582)" style="stroke:#000000; stroke-linecap:round; stroke-linejoin:round; stroke-width:4; stroke-opacity:1; fill:none" points="1204.15,327.656 1204.06,325.319 1203.78,322.998 1203.32,320.706 1202.67,318.459 1201.86,316.269 1200.87,314.151 1199.71,312.119 1198.4,310.185 1196.93,308.361 1195.33,306.659 1193.6,305.09 1191.75,303.664 1189.79,302.389 1187.73,301.275 1185.59,300.326 1183.39,299.551 1181.13,298.954 1178.83,298.537 1176.5,298.305 1174.16,298.259 1171.83,298.398 1169.51,298.723 1167.23,299.23 1165,299.917 1162.82,300.779 1160.73,301.812 1158.72,303.007 1156.81,304.359 1155.02,305.858 1153.35,307.494 1151.81,309.258 1150.42,311.139 1149.19,313.123 1148.11,315.2 1147.21,317.356 1146.48,319.576 1145.92,321.848 1145.55,324.156 1145.37,326.487 1145.37,328.824 1145.55,331.155 1145.92,333.463 1146.48,335.735 1147.21,337.956 1148.11,340.111 1149.19,342.188 1150.42,344.172 1151.81,346.053 1153.35,347.817 1155.02,349.454 1156.81,350.952 1158.72,352.304 1160.73,353.5 1162.82,354.532 1165,355.394 1167.23,356.081 1169.51,356.588 1171.83,356.913 1174.16,357.052 1176.5,357.006 1178.83,356.774 1181.13,356.357 1183.39,355.76 1185.59,354.985 1187.73,354.037 1189.79,352.922 1191.75,351.647 1193.6,350.221 1195.33,348.652 1196.93,346.95 1198.4,345.126 1199.71,343.192 1200.87,341.16 1201.86,339.042 1202.67,336.852 1203.32,334.605 1203.78,332.313 1204.06,329.992 1204.15,327.656 "/>
<path clip-path="url(#clip582)" d="M1477.13 701.584 L1476.97 697.516 L1476.48 693.475 L1475.68 689.485 L1474.56 685.571 L1473.13 681.758 L1471.41 678.071 L1469.4 674.533 L1467.11 671.165 L1464.56 667.99 L1461.77 665.027 L1458.75 662.295 L1455.53 659.812 L1452.12 657.593 L1448.54 655.652 L1444.82 654.001 L1440.98 652.651 L1437.04 651.611 L1433.04 650.886 L1428.99 650.482 L1424.92 650.401 L1420.85 650.644 L1416.82 651.209 L1412.85 652.092 L1408.96 653.288 L1405.18 654.789 L1401.52 656.587 L1398.03 658.668 L1394.7 661.022 L1391.58 663.631 L1388.67 666.481 L1386 669.552 L1383.58 672.826 L1381.43 676.282 L1379.56 679.898 L1377.99 683.65 L1376.71 687.517 L1375.75 691.472 L1375.11 695.491 L1374.78 699.548 L1374.78 703.619 L1375.11 707.677 L1375.75 711.696 L1376.71 715.651 L1377.99 719.517 L1379.56 723.27 L1381.43 726.886 L1383.58 730.341 L1386 733.615 L1388.67 736.687 L1391.58 739.536 L1394.7 742.146 L1398.03 744.499 L1401.52 746.581 L1405.18 748.378 L1408.96 749.879 L1412.85 751.076 L1416.82 751.959 L1420.85 752.523 L1424.92 752.766 L1428.99 752.685 L1433.04 752.281 L1437.04 751.557 L1440.98 750.516 L1444.82 749.166 L1448.54 747.516 L1452.12 745.575 L1455.53 743.355 L1458.75 740.872 L1461.77 738.14 L1464.56 735.178 L1467.11 732.002 L1469.4 728.635 L1471.41 725.096 L1473.13 721.409 L1474.56 717.597 L1475.68 713.683 L1476.48 709.692 L1476.97 705.651 L1477.13 701.584 L1477.13 701.584  Z" fill="#ff7f50" fill-rule="evenodd" fill-opacity="1"/>
<polyline clip-path="url(#clip582)" style="stroke:#000000; stroke-linecap:round; stroke-linejoin:round; stroke-width:4; stroke-opacity:1; fill:none" points="1477.13,701.584 1476.97,697.516 1476.48,693.475 1475.68,689.485 1474.56,685.571 1473.13,681.758 1471.41,678.071 1469.4,674.533 1467.11,671.165 1464.56,667.99 1461.77,665.027 1458.75,662.295 1455.53,659.812 1452.12,657.593 1448.54,655.652 1444.82,654.001 1440.98,652.651 1437.04,651.611 1433.04,650.886 1428.99,650.482 1424.92,650.401 1420.85,650.644 1416.82,651.209 1412.85,652.092 1408.96,653.288 1405.18,654.789 1401.52,656.587 1398.03,658.668 1394.7,661.022 1391.58,663.631 1388.67,666.481 1386,669.552 1383.58,672.826 1381.43,676.282 1379.56,679.898 1377.99,683.65 1376.71,687.517 1375.75,691.472 1375.11,695.491 1374.78,699.548 1374.78,703.619 1375.11,707.677 1375.75,711.696 1376.71,715.651 1377.99,719.517 1379.56,723.27 1381.43,726.886 1383.58,730.341 1386,733.615 1388.67,736.687 1391.58,739.536 1394.7,742.146 1398.03,744.499 1401.52,746.581 1405.18,748.378 1408.96,749.879 1412.85,751.076 1416.82,751.959 1420.85,752.523 1424.92,752.766 1428.99,752.685 1433.04,752.281 1437.04,751.557 1440.98,750.516 1444.82,749.166 1448.54,747.516 1452.12,745.575 1455.53,743.355 1458.75,740.872 1461.77,738.14 1464.56,735.178 1467.11,732.002 1469.4,728.635 1471.41,725.096 1473.13,721.409 1474.56,717.597 1475.68,713.683 1476.48,709.692 1476.97,705.651 1477.13,701.584 "/>
<path clip-path="url(#clip582)" d="M1475.73 956.982 L1475.64 954.646 L1475.36 952.324 L1474.9 950.033 L1474.26 947.785 L1473.44 945.595 L1472.45 943.477 L1471.29 941.445 L1469.98 939.511 L1468.52 937.687 L1466.91 935.985 L1465.18 934.416 L1463.33 932.99 L1461.37 931.716 L1459.31 930.601 L1457.18 929.653 L1454.97 928.877 L1452.71 928.28 L1450.41 927.864 L1448.08 927.632 L1445.75 927.585 L1443.41 927.724 L1441.1 928.049 L1438.82 928.556 L1436.58 929.243 L1434.41 930.105 L1432.31 931.138 L1430.3 932.333 L1428.39 933.685 L1426.6 935.184 L1424.93 936.82 L1423.4 938.584 L1422.01 940.465 L1420.77 942.45 L1419.7 944.526 L1418.79 946.682 L1418.06 948.902 L1417.51 951.174 L1417.14 953.482 L1416.95 955.813 L1416.95 958.151 L1417.14 960.481 L1417.51 962.789 L1418.06 965.061 L1418.79 967.282 L1419.7 969.437 L1420.77 971.514 L1422.01 973.499 L1423.4 975.379 L1424.93 977.143 L1426.6 978.78 L1428.39 980.279 L1430.3 981.63 L1432.31 982.826 L1434.41 983.858 L1436.58 984.72 L1438.82 985.407 L1441.1 985.915 L1443.41 986.239 L1445.75 986.378 L1448.08 986.332 L1450.41 986.1 L1452.71 985.684 L1454.97 985.086 L1457.18 984.311 L1459.31 983.363 L1461.37 982.248 L1463.33 980.973 L1465.18 979.547 L1466.91 977.978 L1468.52 976.276 L1469.98 974.453 L1471.29 972.519 L1472.45 970.486 L1473.44 968.368 L1474.26 966.179 L1474.9 963.931 L1475.36 961.639 L1475.64 959.318 L1475.73 956.982 L1475.73 956.982  Z" fill="#ffffff" fill-rule="evenodd" fill-opacity="1"/>
<polyline clip-path="url(#clip582)" style="stroke:#000000; stroke-linecap:round; stroke-linejoin:round; stroke-width:4; stroke-opacity:1; fill:none" points="1475.73,956.982 1475.64,954.646 1475.36,952.324 1474.9,950.033 1474.26,947.785 1473.44,945.595 1472.45,943.477 1471.29,941.445 1469.98,939.511 1468.52,937.687 1466.91,935.985 1465.18,934.416 1463.33,932.99 1461.37,931.716 1459.31,930.601 1457.18,929.653 1454.97,928.877 1452.71,928.28 1450.41,927.864 1448.08,927.632 1445.75,927.585 1443.41,927.724 1441.1,928.049 1438.82,928.556 1436.58,929.243 1434.41,930.105 1432.31,931.138 1430.3,932.333 1428.39,933.685 1426.6,935.184 1424.93,936.82 1423.4,938.584 1422.01,940.465 1420.77,942.45 1419.7,944.526 1418.79,946.682 1418.06,948.902 1417.51,951.174 1417.14,953.482 1416.95,955.813 1416.95,958.151 1417.14,960.481 1417.51,962.789 1418.06,965.061 1418.79,967.282 1419.7,969.437 1420.77,971.514 1422.01,973.499 1423.4,975.379 1424.93,977.143 1426.6,978.78 1428.39,980.279 1430.3,981.63 1432.31,982.826 1434.41,983.858 1436.58,984.72 1438.82,985.407 1441.1,985.915 1443.41,986.239 1445.75,986.378 1448.08,986.332 1450.41,986.1 1452.71,985.684 1454.97,985.086 1457.18,984.311 1459.31,983.363 1461.37,982.248 1463.33,980.973 1465.18,979.547 1466.91,977.978 1468.52,976.276 1469.98,974.453 1471.29,972.519 1472.45,970.486 1473.44,968.368 1474.26,966.179 1474.9,963.931 1475.36,961.639 1475.64,959.318 1475.73,956.982 "/>
<path clip-path="url(#clip582)" d="M1739.86 1026.05 L1739.77 1023.71 L1739.49 1021.39 L1739.03 1019.1 L1738.39 1016.85 L1737.57 1014.66 L1736.58 1012.54 L1735.42 1010.51 L1734.11 1008.58 L1732.64 1006.75 L1731.04 1005.05 L1729.31 1003.48 L1727.46 1002.06 L1725.5 1000.78 L1723.44 999.667 L1721.3 998.719 L1719.1 997.943 L1716.84 997.346 L1714.54 996.93 L1712.21 996.698 L1709.87 996.651 L1707.54 996.791 L1705.22 997.115 L1702.94 997.622 L1700.71 998.309 L1698.54 999.171 L1696.44 1000.2 L1694.43 1001.4 L1692.52 1002.75 L1690.73 1004.25 L1689.06 1005.89 L1687.52 1007.65 L1686.13 1009.53 L1684.9 1011.52 L1683.82 1013.59 L1682.92 1015.75 L1682.19 1017.97 L1681.64 1020.24 L1681.27 1022.55 L1681.08 1024.88 L1681.08 1027.22 L1681.27 1029.55 L1681.64 1031.86 L1682.19 1034.13 L1682.92 1036.35 L1683.82 1038.5 L1684.9 1040.58 L1686.13 1042.56 L1687.52 1044.45 L1689.06 1046.21 L1690.73 1047.85 L1692.52 1049.34 L1694.43 1050.7 L1696.44 1051.89 L1698.54 1052.92 L1700.71 1053.79 L1702.94 1054.47 L1705.22 1054.98 L1707.54 1055.3 L1709.87 1055.44 L1712.21 1055.4 L1714.54 1055.17 L1716.84 1054.75 L1719.1 1054.15 L1721.3 1053.38 L1723.44 1052.43 L1725.5 1051.31 L1727.46 1050.04 L1729.31 1048.61 L1731.04 1047.04 L1732.64 1045.34 L1734.11 1043.52 L1735.42 1041.58 L1736.58 1039.55 L1737.57 1037.43 L1738.39 1035.24 L1739.03 1033 L1739.49 1030.71 L1739.77 1028.38 L1739.86 1026.05 L1739.86 1026.05  Z" fill="#90ee90" fill-rule="evenodd" fill-opacity="1"/>
<polyline clip-path="url(#clip582)" style="stroke:#000000; stroke-linecap:round; stroke-linejoin:round; stroke-width:4; stroke-opacity:1; fill:none" points="1739.86,1026.05 1739.77,1023.71 1739.49,1021.39 1739.03,1019.1 1738.39,1016.85 1737.57,1014.66 1736.58,1012.54 1735.42,1010.51 1734.11,1008.58 1732.64,1006.75 1731.04,1005.05 1729.31,1003.48 1727.46,1002.06 1725.5,1000.78 1723.44,999.667 1721.3,998.719 1719.1,997.943 1716.84,997.346 1714.54,996.93 1712.21,996.698 1709.87,996.651 1707.54,996.791 1705.22,997.115 1702.94,997.622 1700.71,998.309 1698.54,999.171 1696.44,1000.2 1694.43,1001.4 1692.52,1002.75 1690.73,1004.25 1689.06,1005.89 1687.52,1007.65 1686.13,1009.53 1684.9,1011.52 1683.82,1013.59 1682.92,1015.75 1682.19,1017.97 1681.64,1020.24 1681.27,1022.55 1681.08,1024.88 1681.08,1027.22 1681.27,1029.55 1681.64,1031.86 1682.19,1034.13 1682.92,1036.35 1683.82,1038.5 1684.9,1040.58 1686.13,1042.56 1687.52,1044.45 1689.06,1046.21 1690.73,1047.85 1692.52,1049.34 1694.43,1050.7 1696.44,1051.89 1698.54,1052.92 1700.71,1053.79 1702.94,1054.47 1705.22,1054.98 1707.54,1055.3 1709.87,1055.44 1712.21,1055.4 1714.54,1055.17 1716.84,1054.75 1719.1,1054.15 1721.3,1053.38 1723.44,1052.43 1725.5,1051.31 1727.46,1050.04 1729.31,1048.61 1731.04,1047.04 1732.64,1045.34 1734.11,1043.52 1735.42,1041.58 1736.58,1039.55 1737.57,1037.43 1738.39,1035.24 1739.03,1033 1739.49,1030.71 1739.77,1028.38 1739.86,1026.05 "/>
<path clip-path="url(#clip582)" d="M1231.64 1103.47 L1231.55 1101.13 L1231.27 1098.81 L1230.81 1096.52 L1230.17 1094.27 L1229.35 1092.08 L1228.36 1089.96 L1227.2 1087.93 L1225.89 1086 L1224.43 1084.17 L1222.82 1082.47 L1221.09 1080.9 L1219.24 1079.48 L1217.28 1078.2 L1215.22 1077.09 L1213.09 1076.14 L1210.88 1075.36 L1208.62 1074.77 L1206.32 1074.35 L1203.99 1074.12 L1201.66 1074.07 L1199.32 1074.21 L1197.01 1074.53 L1194.73 1075.04 L1192.49 1075.73 L1190.32 1076.59 L1188.22 1077.62 L1186.21 1078.82 L1184.3 1080.17 L1182.51 1081.67 L1180.84 1083.31 L1179.31 1085.07 L1177.92 1086.95 L1176.68 1088.94 L1175.61 1091.01 L1174.7 1093.17 L1173.97 1095.39 L1173.42 1097.66 L1173.05 1099.97 L1172.86 1102.3 L1172.86 1104.64 L1173.05 1106.97 L1173.42 1109.28 L1173.97 1111.55 L1174.7 1113.77 L1175.61 1115.92 L1176.68 1118 L1177.92 1119.98 L1179.31 1121.87 L1180.84 1123.63 L1182.51 1125.27 L1184.3 1126.76 L1186.21 1128.12 L1188.22 1129.31 L1190.32 1130.34 L1192.49 1131.21 L1194.73 1131.89 L1197.01 1132.4 L1199.32 1132.73 L1201.66 1132.86 L1203.99 1132.82 L1206.32 1132.59 L1208.62 1132.17 L1210.88 1131.57 L1213.09 1130.8 L1215.22 1129.85 L1217.28 1128.73 L1219.24 1127.46 L1221.09 1126.03 L1222.82 1124.46 L1224.43 1122.76 L1225.89 1120.94 L1227.2 1119 L1228.36 1116.97 L1229.35 1114.85 L1230.17 1112.66 L1230.81 1110.42 L1231.27 1108.13 L1231.55 1105.8 L1231.64 1103.47 L1231.64 1103.47  Z" fill="#ffffff" fill-rule="evenodd" fill-opacity="1"/>
<polyline clip-path="url(#clip582)" style="stroke:#000000; stroke-linecap:round; stroke-linejoin:round; stroke-width:4; stroke-opacity:1; fill:none" points="1231.64,1103.47 1231.55,1101.13 1231.27,1098.81 1230.81,1096.52 1230.17,1094.27 1229.35,1092.08 1228.36,1089.96 1227.2,1087.93 1225.89,1086 1224.43,1084.17 1222.82,1082.47 1221.09,1080.9 1219.24,1079.48 1217.28,1078.2 1215.22,1077.09 1213.09,1076.14 1210.88,1075.36 1208.62,1074.77 1206.32,1074.35 1203.99,1074.12 1201.66,1074.07 1199.32,1074.21 1197.01,1074.53 1194.73,1075.04 1192.49,1075.73 1190.32,1076.59 1188.22,1077.62 1186.21,1078.82 1184.3,1080.17 1182.51,1081.67 1180.84,1083.31 1179.31,1085.07 1177.92,1086.95 1176.68,1088.94 1175.61,1091.01 1174.7,1093.17 1173.97,1095.39 1173.42,1097.66 1173.05,1099.97 1172.86,1102.3 1172.86,1104.64 1173.05,1106.97 1173.42,1109.28 1173.97,1111.55 1174.7,1113.77 1175.61,1115.92 1176.68,1118 1177.92,1119.98 1179.31,1121.87 1180.84,1123.63 1182.51,1125.27 1184.3,1126.76 1186.21,1128.12 1188.22,1129.31 1190.32,1130.34 1192.49,1131.21 1194.73,1131.89 1197.01,1132.4 1199.32,1132.73 1201.66,1132.86 1203.99,1132.82 1206.32,1132.59 1208.62,1132.17 1210.88,1131.57 1213.09,1130.8 1215.22,1129.85 1217.28,1128.73 1219.24,1127.46 1221.09,1126.03 1222.82,1124.46 1224.43,1122.76 1225.89,1120.94 1227.2,1119 1228.36,1116.97 1229.35,1114.85 1230.17,1112.66 1230.81,1110.42 1231.27,1108.13 1231.55,1105.8 1231.64,1103.47 "/>
<path clip-path="url(#clip582)" d="M1212.62 566.794 L1212.53 564.458 L1212.25 562.137 L1211.79 559.845 L1211.15 557.597 L1210.33 555.407 L1209.34 553.29 L1208.18 551.257 L1206.87 549.323 L1205.41 547.499 L1203.8 545.798 L1202.07 544.229 L1200.22 542.802 L1198.26 541.528 L1196.2 540.413 L1194.07 539.465 L1191.86 538.69 L1189.6 538.092 L1187.3 537.676 L1184.97 537.444 L1182.64 537.397 L1180.3 537.537 L1177.99 537.861 L1175.7 538.368 L1173.47 539.055 L1171.3 539.918 L1169.2 540.95 L1167.19 542.146 L1165.28 543.497 L1163.49 544.996 L1161.82 546.633 L1160.28 548.397 L1158.9 550.277 L1157.66 552.262 L1156.59 554.339 L1155.68 556.494 L1154.95 558.715 L1154.4 560.986 L1154.03 563.295 L1153.84 565.625 L1153.84 567.963 L1154.03 570.293 L1154.4 572.602 L1154.95 574.873 L1155.68 577.094 L1156.59 579.249 L1157.66 581.326 L1158.9 583.311 L1160.28 585.191 L1161.82 586.955 L1163.49 588.592 L1165.28 590.091 L1167.19 591.442 L1169.2 592.638 L1171.3 593.67 L1173.47 594.533 L1175.7 595.22 L1177.99 595.727 L1180.3 596.051 L1182.64 596.191 L1184.97 596.144 L1187.3 595.912 L1189.6 595.496 L1191.86 594.898 L1194.07 594.123 L1196.2 593.175 L1198.26 592.06 L1200.22 590.786 L1202.07 589.359 L1203.8 587.79 L1205.41 586.089 L1206.87 584.265 L1208.18 582.331 L1209.34 580.298 L1210.33 578.181 L1211.15 575.991 L1211.79 573.743 L1212.25 571.451 L1212.53 569.13 L1212.62 566.794 L1212.62 566.794  Z" fill="#ffffff" fill-rule="evenodd" fill-opacity="1"/>
<polyline clip-path="url(#clip582)" style="stroke:#000000; stroke-linecap:round; stroke-linejoin:round; stroke-width:4; stroke-opacity:1; fill:none" points="1212.62,566.794 1212.53,564.458 1212.25,562.137 1211.79,559.845 1211.15,557.597 1210.33,555.407 1209.34,553.29 1208.18,551.257 1206.87,549.323 1205.41,547.499 1203.8,545.798 1202.07,544.229 1200.22,542.802 1198.26,541.528 1196.2,540.413 1194.07,539.465 1191.86,538.69 1189.6,538.092 1187.3,537.676 1184.97,537.444 1182.64,537.397 1180.3,537.537 1177.99,537.861 1175.7,538.368 1173.47,539.055 1171.3,539.918 1169.2,540.95 1167.19,542.146 1165.28,543.497 1163.49,544.996 1161.82,546.633 1160.28,548.397 1158.9,550.277 1157.66,552.262 1156.59,554.339 1155.68,556.494 1154.95,558.715 1154.4,560.986 1154.03,563.295 1153.84,565.625 1153.84,567.963 1154.03,570.293 1154.4,572.602 1154.95,574.873 1155.68,577.094 1156.59,579.249 1157.66,581.326 1158.9,583.311 1160.28,585.191 1161.82,586.955 1163.49,588.592 1165.28,590.091 1167.19,591.442 1169.2,592.638 1171.3,593.67 1173.47,594.533 1175.7,595.22 1177.99,595.727 1180.3,596.051 1182.64,596.191 1184.97,596.144 1187.3,595.912 1189.6,595.496 1191.86,594.898 1194.07,594.123 1196.2,593.175 1198.26,592.06 1200.22,590.786 1202.07,589.359 1203.8,587.79 1205.41,586.089 1206.87,584.265 1208.18,582.331 1209.34,580.298 1210.33,578.181 1211.15,575.991 1211.79,573.743 1212.25,571.451 1212.53,569.13 1212.62,566.794 "/>
<circle clip-path="url(#clip582)" style="fill:#ff7f50; stroke:none; fill-opacity:0" cx="950.527" cy="714.792" r="2"/>
<circle clip-path="url(#clip582)" style="fill:#ff7f50; stroke:none; fill-opacity:0" cx="948.258" cy="970.82" r="2"/>
<circle clip-path="url(#clip582)" style="fill:#ff7f50; stroke:none; fill-opacity:0" cx="1210.93" cy="1348.57" r="2"/>
<circle clip-path="url(#clip582)" style="fill:#ff7f50; stroke:none; fill-opacity:0" cx="689.542" cy="1054.41" r="2"/>
<circle clip-path="url(#clip582)" style="fill:#ff7f50; stroke:none; fill-opacity:0" cx="1174.75" cy="327.656" r="2"/>
<circle clip-path="url(#clip582)" style="fill:#ff7f50; stroke:none; fill-opacity:0" cx="1425.94" cy="701.584" r="2"/>
<circle clip-path="url(#clip582)" style="fill:#ff7f50; stroke:none; fill-opacity:0" cx="1446.33" cy="956.982" r="2"/>
<circle clip-path="url(#clip582)" style="fill:#ff7f50; stroke:none; fill-opacity:0" cx="1710.46" cy="1026.05" r="2"/>
<circle clip-path="url(#clip582)" style="fill:#ff7f50; stroke:none; fill-opacity:0" cx="1202.24" cy="1103.47" r="2"/>
<circle clip-path="url(#clip582)" style="fill:#ff7f50; stroke:none; fill-opacity:0" cx="1183.22" cy="566.794" r="2"/>
<path clip-path="url(#clip580)" d="M934.555 716.407 Q936.812 717.171 938.93 719.67 Q941.083 722.17 943.236 726.545 L950.354 740.712 L942.819 740.712 L936.187 727.414 Q933.618 722.205 931.187 720.504 Q928.791 718.802 924.625 718.802 L916.986 718.802 L916.986 740.712 L909.972 740.712 L909.972 688.872 L925.805 688.872 Q934.694 688.872 939.069 692.587 Q943.444 696.303 943.444 703.803 Q943.444 708.698 941.152 711.927 Q938.896 715.157 934.555 716.407 M916.986 694.636 L916.986 713.039 L925.805 713.039 Q930.875 713.039 933.444 710.712 Q936.048 708.351 936.048 703.803 Q936.048 699.254 933.444 696.962 Q930.875 694.636 925.805 694.636 L916.986 694.636 Z" fill="#000000" fill-rule="nonzero" fill-opacity="1" /><path clip-path="url(#clip580)" d="M961.222 734.809 L972.68 734.809 L972.68 695.261 L960.215 697.761 L960.215 691.372 L972.611 688.872 L979.624 688.872 L979.624 734.809 L991.083 734.809 L991.083 740.712 L961.222 740.712 L961.222 734.809 Z" fill="#000000" fill-rule="nonzero" fill-opacity="1" /><path clip-path="url(#clip580)" d="M933.831 990.837 L945.289 990.837 L945.289 951.289 L932.824 953.789 L932.824 947.4 L945.22 944.9 L952.234 944.9 L952.234 990.837 L963.692 990.837 L963.692 996.74 L933.831 996.74 L933.831 990.837 Z" fill="#000000" fill-rule="nonzero" fill-opacity="1" /><path clip-path="url(#clip580)" d="M1194.23 1322.65 L1227 1322.65 L1227 1328.56 L1201.24 1328.56 L1201.24 1343.9 L1225.93 1343.9 L1225.93 1349.81 L1201.24 1349.81 L1201.24 1368.59 L1227.63 1368.59 L1227.63 1374.49 L1194.23 1374.49 L1194.23 1322.65 Z" fill="#000000" fill-rule="nonzero" fill-opacity="1" /><path clip-path="url(#clip580)" d="M704.663 1030.19 L704.663 1037.04 Q700.67 1035.13 697.128 1034.19 Q693.587 1033.25 690.288 1033.25 Q684.559 1033.25 681.434 1035.47 Q678.344 1037.69 678.344 1041.79 Q678.344 1045.23 680.392 1047 Q682.476 1048.74 688.239 1049.81 L692.476 1050.68 Q700.323 1052.17 704.038 1055.96 Q707.788 1059.71 707.788 1066.03 Q707.788 1073.56 702.719 1077.45 Q697.684 1081.34 687.927 1081.34 Q684.246 1081.34 680.08 1080.51 Q675.948 1079.67 671.503 1078.04 L671.503 1070.82 Q675.774 1073.22 679.871 1074.43 Q683.969 1075.65 687.927 1075.65 Q693.934 1075.65 697.198 1073.28 Q700.462 1070.92 700.462 1066.55 Q700.462 1062.73 698.1 1060.58 Q695.774 1058.42 690.427 1057.35 L686.156 1056.51 Q678.309 1054.95 674.802 1051.62 Q671.295 1048.29 671.295 1042.35 Q671.295 1035.47 676.121 1031.51 Q680.983 1027.56 689.489 1027.56 Q693.135 1027.56 696.92 1028.22 Q700.705 1028.88 704.663 1030.19 Z" fill="#000000" fill-rule="nonzero" fill-opacity="1" /><path clip-path="url(#clip580)" d="M1195.65 305.729 L1195.65 313.124 Q1192.11 309.826 1188.08 308.194 Q1184.09 306.562 1179.57 306.562 Q1170.69 306.562 1165.96 312.013 Q1161.24 317.43 1161.24 327.708 Q1161.24 337.951 1165.96 343.402 Q1170.69 348.819 1179.57 348.819 Q1184.09 348.819 1188.08 347.187 Q1192.11 345.555 1195.65 342.256 L1195.65 349.582 Q1191.97 352.082 1187.84 353.332 Q1183.74 354.582 1179.16 354.582 Q1167.39 354.582 1160.62 347.395 Q1153.85 340.173 1153.85 327.708 Q1153.85 315.208 1160.62 308.02 Q1167.39 300.798 1179.16 300.798 Q1183.81 300.798 1187.91 302.048 Q1192.04 303.263 1195.65 305.729 Z" fill="#000000" fill-rule="nonzero" fill-opacity="1" /><path clip-path="url(#clip580)" d="M1410.24 703.198 Q1412.5 703.962 1414.62 706.462 Q1416.77 708.962 1418.92 713.337 L1426.04 727.504 L1418.51 727.504 L1411.87 714.205 Q1409.3 708.997 1406.87 707.295 Q1404.48 705.594 1400.31 705.594 L1392.67 705.594 L1392.67 727.504 L1385.66 727.504 L1385.66 675.664 L1401.49 675.664 Q1410.38 675.664 1414.76 679.379 Q1419.13 683.094 1419.13 690.594 Q1419.13 695.49 1416.84 698.719 Q1414.58 701.948 1410.24 703.198 M1392.67 681.428 L1392.67 699.83 L1401.49 699.83 Q1406.56 699.83 1409.13 697.504 Q1411.73 695.143 1411.73 690.594 Q1411.73 686.046 1409.13 683.754 Q1406.56 681.428 1401.49 681.428 L1392.67 681.428 Z" fill="#000000" fill-rule="nonzero" fill-opacity="1" /><path clip-path="url(#clip580)" d="M1441.73 721.601 L1466.21 721.601 L1466.21 727.504 L1433.3 727.504 L1433.3 721.601 Q1437.29 717.469 1444.16 710.525 Q1451.07 703.545 1452.85 701.532 Q1456.21 697.747 1457.53 695.143 Q1458.89 692.504 1458.89 689.969 Q1458.89 685.837 1455.97 683.233 Q1453.09 680.629 1448.44 680.629 Q1445.14 680.629 1441.46 681.775 Q1437.81 682.921 1433.64 685.247 L1433.64 678.164 Q1437.88 676.462 1441.56 675.594 Q1445.24 674.726 1448.3 674.726 Q1456.35 674.726 1461.14 678.754 Q1465.94 682.782 1465.94 689.518 Q1465.94 692.712 1464.72 695.594 Q1463.54 698.441 1460.38 702.33 Q1459.51 703.337 1454.86 708.164 Q1450.21 712.955 1441.73 721.601 Z" fill="#000000" fill-rule="nonzero" fill-opacity="1" /><path clip-path="url(#clip580)" d="M1431.9 976.999 L1443.36 976.999 L1443.36 937.451 L1430.9 939.951 L1430.9 933.562 L1443.29 931.062 L1450.31 931.062 L1450.31 976.999 L1461.77 976.999 L1461.77 982.902 L1431.9 982.902 L1431.9 976.999 Z" fill="#000000" fill-rule="nonzero" fill-opacity="1" /><path clip-path="url(#clip580)" d="M1700.74 1005.89 L1700.74 1025.37 L1709.56 1025.37 Q1714.45 1025.37 1717.13 1022.84 Q1719.8 1020.3 1719.8 1015.61 Q1719.8 1010.96 1717.13 1008.43 Q1714.45 1005.89 1709.56 1005.89 L1700.74 1005.89 M1693.72 1000.13 L1709.56 1000.13 Q1718.27 1000.13 1722.72 1004.09 Q1727.19 1008.01 1727.19 1015.61 Q1727.19 1023.29 1722.72 1027.21 Q1718.27 1031.13 1709.56 1031.13 L1700.74 1031.13 L1700.74 1051.97 L1693.72 1051.97 L1693.72 1000.13 Z" fill="#000000" fill-rule="nonzero" fill-opacity="1" /><path clip-path="url(#clip580)" d="M1202.24 1082.17 Q1196.82 1082.17 1194.08 1087.51 Q1191.37 1092.83 1191.37 1103.52 Q1191.37 1114.18 1194.08 1119.53 Q1196.82 1124.84 1202.24 1124.84 Q1207.69 1124.84 1210.4 1119.53 Q1213.14 1114.18 1213.14 1103.52 Q1213.14 1092.83 1210.4 1087.51 Q1207.69 1082.17 1202.24 1082.17 M1202.24 1076.61 Q1210.96 1076.61 1215.54 1083.52 Q1220.16 1090.4 1220.16 1103.52 Q1220.16 1116.61 1215.54 1123.52 Q1210.96 1130.39 1202.24 1130.39 Q1193.53 1130.39 1188.91 1123.52 Q1184.32 1116.61 1184.32 1103.52 Q1184.32 1090.4 1188.91 1083.52 Q1193.53 1076.61 1202.24 1076.61 Z" fill="#000000" fill-rule="nonzero" fill-opacity="1" /><path clip-path="url(#clip580)" d="M1183.22 545.492 Q1177.8 545.492 1175.06 550.839 Q1172.35 556.152 1172.35 566.846 Q1172.35 577.506 1175.06 582.853 Q1177.8 588.165 1183.22 588.165 Q1188.67 588.165 1191.38 582.853 Q1194.12 577.506 1194.12 566.846 Q1194.12 556.152 1191.38 550.839 Q1188.67 545.492 1183.22 545.492 M1183.22 539.937 Q1191.94 539.937 1196.52 546.846 Q1201.14 553.721 1201.14 566.846 Q1201.14 579.936 1196.52 586.846 Q1191.94 593.721 1183.22 593.721 Q1174.51 593.721 1169.89 586.846 Q1165.3 579.936 1165.3 566.846 Q1165.3 553.721 1169.89 546.846 Q1174.51 539.937 1183.22 539.937 Z" fill="#000000" fill-rule="nonzero" fill-opacity="1" /></svg>
