<?xml version="1.0" encoding="utf-8"?>
<svg xmlns="http://www.w3.org/2000/svg" xmlns:xlink="http://www.w3.org/1999/xlink" width="600" height="400" viewBox="0 0 2400 1600">
<defs>
  <clipPath id="clip820">
    <rect x="0" y="0" width="2400" height="1600"/>
  </clipPath>
</defs>
<path clip-path="url(#clip820)" d="M0 1600 L2400 1600 L2400 0 L0 0  Z" fill="#ffffff" fill-rule="evenodd" fill-opacity="1"/>
<defs>
  <clipPath id="clip821">
    <rect x="480" y="0" width="1681" height="1600"/>
  </clipPath>
</defs>
<path clip-path="url(#clip820)" d="M485.358 1552.76 L1914.64 1552.76 L1914.64 123.472 L485.358 123.472  Z" fill="#ffffff" fill-rule="evenodd" fill-opacity="1"/>
<defs>
  <clipPath id="clip822">
    <rect x="485" y="123" width="1430" height="1430"/>
  </clipPath>
</defs>
<path clip-path="url(#clip820)" d="M846.822 12.096 L855.005 12.096 L855.005 72.576 L846.822 72.576 L846.822 12.096 Z" fill="#000000" fill-rule="nonzero" fill-opacity="1" /><path clip-path="url(#clip820)" d="M888.546 32.4315 Q882.551 32.4315 879.067 37.1306 Q875.583 41.7891 875.583 49.9314 Q875.583 58.0738 879.027 62.7728 Q882.51 67.4314 888.546 67.4314 Q894.501 67.4314 897.985 62.7323 Q901.469 58.0333 901.469 49.9314 Q901.469 41.8701 897.985 37.1711 Q894.501 32.4315 888.546 32.4315 M888.546 26.1121 Q898.268 26.1121 903.818 32.4315 Q909.368 38.7509 909.368 49.9314 Q909.368 61.0714 903.818 67.4314 Q898.268 73.7508 888.546 73.7508 Q878.784 73.7508 873.234 67.4314 Q867.725 61.0714 867.725 49.9314 Q867.725 38.7509 873.234 32.4315 Q878.784 26.1121 888.546 26.1121 Z" fill="#000000" fill-rule="nonzero" fill-opacity="1" /><path clip-path="url(#clip820)" d="M959.437 45.1919 L959.437 72.576 L951.983 72.576 L951.983 45.4349 Q951.983 38.994 949.472 35.7938 Q946.96 32.5936 941.937 32.5936 Q935.901 32.5936 932.418 36.4419 Q928.934 40.2903 928.934 46.9338 L928.934 72.576 L921.44 72.576 L921.44 27.2059 L928.934 27.2059 L928.934 34.2544 Q931.607 30.163 935.213 28.1376 Q938.858 26.1121 943.598 26.1121 Q951.416 26.1121 955.427 30.9732 Q959.437 35.7938 959.437 45.1919 Z" fill="#000000" fill-rule="nonzero" fill-opacity="1" /><path clip-path="url(#clip820)" d="M1009.18 18.8205 L1009.18 41.5461 L1019.47 41.5461 Q1025.18 41.5461 1028.3 38.5889 Q1031.42 35.6318 1031.42 30.163 Q1031.42 24.7348 1028.3 21.7777 Q1025.18 18.8205 1019.47 18.8205 L1009.18 18.8205 M1001 12.096 L1019.47 12.096 Q1029.64 12.096 1034.82 16.714 Q1040.05 21.2916 1040.05 30.163 Q1040.05 39.1155 1034.82 43.6931 Q1029.64 48.2706 1019.47 48.2706 L1009.18 48.2706 L1009.18 72.576 L1001 72.576 L1001 12.096 Z" fill="#000000" fill-rule="nonzero" fill-opacity="1" /><path clip-path="url(#clip820)" d="M1065.33 32.4315 Q1059.33 32.4315 1055.85 37.1306 Q1052.36 41.7891 1052.36 49.9314 Q1052.36 58.0738 1055.81 62.7728 Q1059.29 67.4314 1065.33 67.4314 Q1071.28 67.4314 1074.77 62.7323 Q1078.25 58.0333 1078.25 49.9314 Q1078.25 41.8701 1074.77 37.1711 Q1071.28 32.4315 1065.33 32.4315 M1065.33 26.1121 Q1075.05 26.1121 1080.6 32.4315 Q1086.15 38.7509 1086.15 49.9314 Q1086.15 61.0714 1080.6 67.4314 Q1075.05 73.7508 1065.33 73.7508 Q1055.57 73.7508 1050.02 67.4314 Q1044.51 61.0714 1044.51 49.9314 Q1044.51 38.7509 1050.02 32.4315 Q1055.57 26.1121 1065.33 26.1121 Z" fill="#000000" fill-rule="nonzero" fill-opacity="1" /><path clip-path="url(#clip820)" d="M1124.79 34.1734 Q1123.54 33.4443 1122.04 33.1202 Q1120.58 32.7556 1118.8 32.7556 Q1112.48 32.7556 1109.08 36.8875 Q1105.72 40.9789 1105.72 48.6757 L1105.72 72.576 L1098.22 72.576 L1098.22 27.2059 L1105.72 27.2059 L1105.72 34.2544 Q1108.06 30.1225 1111.83 28.1376 Q1115.6 26.1121 1120.99 26.1121 Q1121.76 26.1121 1122.69 26.2337 Q1123.62 26.3147 1124.75 26.5172 L1124.79 34.1734 Z" fill="#000000" fill-rule="nonzero" fill-opacity="1" /><path clip-path="url(#clip820)" d="M1169.6 48.0275 L1169.6 51.6733 L1135.33 51.6733 Q1135.81 59.3701 1139.95 63.421 Q1144.12 67.4314 1151.53 67.4314 Q1155.82 67.4314 1159.84 66.3781 Q1163.89 65.3249 1167.86 63.2184 L1167.86 70.267 Q1163.85 71.9684 1159.63 72.8596 Q1155.42 73.7508 1151.09 73.7508 Q1140.23 73.7508 1133.87 67.4314 Q1127.55 61.1119 1127.55 50.3365 Q1127.55 39.1965 1133.54 32.6746 Q1139.58 26.1121 1149.79 26.1121 Q1158.94 26.1121 1164.25 32.0264 Q1169.6 37.9003 1169.6 48.0275 M1162.14 45.84 Q1162.06 39.7232 1158.7 36.0774 Q1155.38 32.4315 1149.87 32.4315 Q1143.63 32.4315 1139.86 35.9558 Q1136.14 39.4801 1135.57 45.8805 L1162.14 45.84 Z" fill="#000000" fill-rule="nonzero" fill-opacity="1" /><path clip-path="url(#clip820)" d="M1200.14 12.096 L1251.3 12.096 L1251.3 18.9825 L1229.83 18.9825 L1229.83 72.576 L1221.61 72.576 L1221.61 18.9825 L1200.14 18.9825 L1200.14 12.096 Z" fill="#000000" fill-rule="nonzero" fill-opacity="1" /><path clip-path="url(#clip820)" d="M1272.98 34.1734 Q1271.72 33.4443 1270.22 33.1202 Q1268.76 32.7556 1266.98 32.7556 Q1260.66 32.7556 1257.26 36.8875 Q1253.9 40.9789 1253.9 48.6757 L1253.9 72.576 L1246.4 72.576 L1246.4 27.2059 L1253.9 27.2059 L1253.9 34.2544 Q1256.25 30.1225 1260.01 28.1376 Q1263.78 26.1121 1269.17 26.1121 Q1269.94 26.1121 1270.87 26.2337 Q1271.8 26.3147 1272.94 26.5172 L1272.98 34.1734 Z" fill="#000000" fill-rule="nonzero" fill-opacity="1" /><path clip-path="url(#clip820)" d="M1301.41 49.7694 Q1292.38 49.7694 1288.9 51.8354 Q1285.41 53.9013 1285.41 58.8839 Q1285.41 62.8538 1288.01 65.2034 Q1290.64 67.5124 1295.14 67.5124 Q1301.33 67.5124 1305.06 63.1374 Q1308.83 58.7219 1308.83 51.4303 L1308.83 49.7694 L1301.41 49.7694 M1316.28 46.6907 L1316.28 72.576 L1308.83 72.576 L1308.83 65.6895 Q1306.28 69.8214 1302.47 71.8063 Q1298.66 73.7508 1293.15 73.7508 Q1286.18 73.7508 1282.05 69.8619 Q1277.96 65.9325 1277.96 59.3701 Q1277.96 51.7138 1283.06 47.825 Q1288.21 43.9361 1298.38 43.9361 L1308.83 43.9361 L1308.83 43.2069 Q1308.83 38.0623 1305.42 35.2672 Q1302.06 32.4315 1295.95 32.4315 Q1292.06 32.4315 1288.37 33.3632 Q1284.68 34.295 1281.28 36.1584 L1281.28 29.2718 Q1285.37 27.692 1289.22 26.9223 Q1293.07 26.1121 1296.72 26.1121 Q1306.56 26.1121 1311.42 31.2163 Q1316.28 36.3204 1316.28 46.6907 Z" fill="#000000" fill-rule="nonzero" fill-opacity="1" /><path clip-path="url(#clip820)" d="M1369.35 45.1919 L1369.35 72.576 L1361.89 72.576 L1361.89 45.4349 Q1361.89 38.994 1359.38 35.7938 Q1356.87 32.5936 1351.85 32.5936 Q1345.81 32.5936 1342.33 36.4419 Q1338.84 40.2903 1338.84 46.9338 L1338.84 72.576 L1331.35 72.576 L1331.35 27.2059 L1338.84 27.2059 L1338.84 34.2544 Q1341.52 30.163 1345.12 28.1376 Q1348.77 26.1121 1353.51 26.1121 Q1361.33 26.1121 1365.34 30.9732 Q1369.35 35.7938 1369.35 45.1919 Z" fill="#000000" fill-rule="nonzero" fill-opacity="1" /><path clip-path="url(#clip820)" d="M1413.14 28.5427 L1413.14 35.5912 Q1409.98 33.9709 1406.58 33.1607 Q1403.17 32.3505 1399.53 32.3505 Q1393.98 32.3505 1391.18 34.0519 Q1388.43 35.7533 1388.43 39.156 Q1388.43 41.7486 1390.41 43.2475 Q1392.4 44.7058 1398.39 46.0426 L1400.95 46.6097 Q1408.88 48.3111 1412.21 51.4303 Q1415.57 54.509 1415.57 60.0587 Q1415.57 66.3781 1410.55 70.0644 Q1405.56 73.7508 1396.81 73.7508 Q1393.17 73.7508 1389.2 73.0216 Q1385.27 72.3329 1380.89 70.9151 L1380.89 63.2184 Q1385.03 65.3654 1389.04 66.4591 Q1393.05 67.5124 1396.98 67.5124 Q1402.24 67.5124 1405.08 65.73 Q1407.91 63.9071 1407.91 60.6258 Q1407.91 57.5877 1405.85 55.9673 Q1403.82 54.3469 1396.89 52.8481 L1394.3 52.2405 Q1387.37 50.7821 1384.3 47.7845 Q1381.22 44.7463 1381.22 39.4801 Q1381.22 33.0797 1385.75 29.5959 Q1390.29 26.1121 1398.64 26.1121 Q1402.77 26.1121 1406.41 26.7198 Q1410.06 27.3274 1413.14 28.5427 Z" fill="#000000" fill-rule="nonzero" fill-opacity="1" /><path clip-path="url(#clip820)" d="M1434.65 65.7705 L1434.65 89.8329 L1427.15 89.8329 L1427.15 27.2059 L1434.65 27.2059 L1434.65 34.0924 Q1437 30.0415 1440.56 28.0971 Q1444.17 26.1121 1449.15 26.1121 Q1457.41 26.1121 1462.56 32.6746 Q1467.74 39.2371 1467.74 49.9314 Q1467.74 60.6258 1462.56 67.1883 Q1457.41 73.7508 1449.15 73.7508 Q1444.17 73.7508 1440.56 71.8063 Q1437 69.8214 1434.65 65.7705 M1460.01 49.9314 Q1460.01 41.7081 1456.6 37.0496 Q1453.24 32.3505 1447.33 32.3505 Q1441.41 32.3505 1438.01 37.0496 Q1434.65 41.7081 1434.65 49.9314 Q1434.65 58.1548 1438.01 62.8538 Q1441.41 67.5124 1447.33 67.5124 Q1453.24 67.5124 1456.6 62.8538 Q1460.01 58.1548 1460.01 49.9314 Z" fill="#000000" fill-rule="nonzero" fill-opacity="1" /><path clip-path="url(#clip820)" d="M1497.68 32.4315 Q1491.69 32.4315 1488.2 37.1306 Q1484.72 41.7891 1484.72 49.9314 Q1484.72 58.0738 1488.16 62.7728 Q1491.64 67.4314 1497.68 67.4314 Q1503.64 67.4314 1507.12 62.7323 Q1510.6 58.0333 1510.6 49.9314 Q1510.6 41.8701 1507.12 37.1711 Q1503.64 32.4315 1497.68 32.4315 M1497.68 26.1121 Q1507.4 26.1121 1512.95 32.4315 Q1518.5 38.7509 1518.5 49.9314 Q1518.5 61.0714 1512.95 67.4314 Q1507.4 73.7508 1497.68 73.7508 Q1487.92 73.7508 1482.37 67.4314 Q1476.86 61.0714 1476.86 49.9314 Q1476.86 38.7509 1482.37 32.4315 Q1487.92 26.1121 1497.68 26.1121 Z" fill="#000000" fill-rule="nonzero" fill-opacity="1" /><path clip-path="url(#clip820)" d="M1557.15 34.1734 Q1555.89 33.4443 1554.39 33.1202 Q1552.94 32.7556 1551.15 32.7556 Q1544.83 32.7556 1541.43 36.8875 Q1538.07 40.9789 1538.07 48.6757 L1538.07 72.576 L1530.57 72.576 L1530.57 27.2059 L1538.07 27.2059 L1538.07 34.2544 Q1540.42 30.1225 1544.19 28.1376 Q1547.95 26.1121 1553.34 26.1121 Q1554.11 26.1121 1555.04 26.2337 Q1555.97 26.3147 1557.11 26.5172 L1557.15 34.1734 Z" fill="#000000" fill-rule="nonzero" fill-opacity="1" /><path clip-path="url(#clip820)" d="M1572.34 14.324 L1572.34 27.2059 L1587.69 27.2059 L1587.69 32.9987 L1572.34 32.9987 L1572.34 57.6282 Q1572.34 63.1779 1573.84 64.7578 Q1575.38 66.3376 1580.04 66.3376 L1587.69 66.3376 L1587.69 72.576 L1580.04 72.576 Q1571.41 72.576 1568.13 69.3758 Q1564.84 66.1351 1564.84 57.6282 L1564.84 32.9987 L1559.38 32.9987 L1559.38 27.2059 L1564.84 27.2059 L1564.84 14.324 L1572.34 14.324 Z" fill="#000000" fill-rule="nonzero" fill-opacity="1" /><polyline clip-path="url(#clip822)" style="stroke:#000000; stroke-linecap:round; stroke-linejoin:round; stroke-width:4; stroke-opacity:1; fill:none" points="1562.22,327.656 1491.47,585.884 "/>
<polyline clip-path="url(#clip822)" style="stroke:#000000; stroke-linecap:round; stroke-linejoin:round; stroke-width:4; stroke-opacity:1; fill:none" points="1518.34,555.92 1491.47,585.884 1483.62,546.408 "/>
<polyline clip-path="url(#clip822)" style="stroke:#000000; stroke-linecap:round; stroke-linejoin:round; stroke-width:4; stroke-opacity:1; fill:none" points="1491.47,585.884 1562.22,327.656 "/>
<polyline clip-path="url(#clip822)" style="stroke:#000000; stroke-linecap:round; stroke-linejoin:round; stroke-width:4; stroke-opacity:1; fill:none" points="1481.31,599.699 1598.83,806.245 "/>
<polyline clip-path="url(#clip822)" style="stroke:#000000; stroke-linecap:round; stroke-linejoin:round; stroke-width:4; stroke-opacity:1; fill:none" points="1596.67,766.054 1598.83,806.245 1565.38,783.857 "/>
<polyline clip-path="url(#clip822)" style="stroke:#000000; stroke-linecap:round; stroke-linejoin:round; stroke-width:4; stroke-opacity:1; fill:none" points="1598.83,806.245 1481.31,599.699 "/>
<polyline clip-path="url(#clip822)" style="stroke:#000000; stroke-linecap:round; stroke-linejoin:round; stroke-width:4; stroke-opacity:1; fill:none" points="1640.62,837.169 1557.18,1110.86 "/>
<polyline clip-path="url(#clip822)" style="stroke:#000000; stroke-linecap:round; stroke-linejoin:round; stroke-width:4; stroke-opacity:1; fill:none" points="1584.89,1081.67 1557.18,1110.86 1550.46,1071.17 "/>
<polyline clip-path="url(#clip822)" style="stroke:#000000; stroke-linecap:round; stroke-linejoin:round; stroke-width:4; stroke-opacity:1; fill:none" points="1557.18,1110.86 1640.62,837.169 "/>
<polyline clip-path="url(#clip822)" style="stroke:#000000; stroke-linecap:round; stroke-linejoin:round; stroke-width:4; stroke-opacity:1; fill:none" points="1558.02,1127.99 1703.33,1319.57 "/>
<polyline clip-path="url(#clip822)" style="stroke:#000000; stroke-linecap:round; stroke-linejoin:round; stroke-width:4; stroke-opacity:1; fill:none" points="1695.92,1280.01 1703.33,1319.57 1667.24,1301.77 "/>
<polyline clip-path="url(#clip822)" style="stroke:#000000; stroke-linecap:round; stroke-linejoin:round; stroke-width:4; stroke-opacity:1; fill:none" points="1703.33,1319.57 1558.02,1127.99 "/>
<polyline clip-path="url(#clip822)" style="stroke:#000000; stroke-linecap:round; stroke-linejoin:round; stroke-width:4; stroke-opacity:1; fill:none" points="1558.02,1127.99 1352.37,1181.77 "/>
<polyline clip-path="url(#clip822)" style="stroke:#000000; stroke-linecap:round; stroke-linejoin:round; stroke-width:4; stroke-opacity:1; fill:none" points="1391.75,1190.08 1352.37,1181.77 1382.64,1155.25 "/>
<polyline clip-path="url(#clip822)" style="stroke:#000000; stroke-linecap:round; stroke-linejoin:round; stroke-width:4; stroke-opacity:1; fill:none" points="1352.37,1181.77 1558.02,1127.99 "/>
<polyline clip-path="url(#clip822)" style="stroke:#000000; stroke-linecap:round; stroke-linejoin:round; stroke-width:4; stroke-opacity:1; fill:none" points="1311.93,1173.36 1155.33,956.716 "/>
<polyline clip-path="url(#clip822)" style="stroke:#000000; stroke-linecap:round; stroke-linejoin:round; stroke-width:4; stroke-opacity:1; fill:none" points="1161.83,996.437 1155.33,956.716 1191.01,975.347 "/>
<polyline clip-path="url(#clip822)" style="stroke:#000000; stroke-linecap:round; stroke-linejoin:round; stroke-width:4; stroke-opacity:1; fill:none" points="1155.33,956.716 1311.93,1173.36 "/>
<polyline clip-path="url(#clip822)" style="stroke:#000000; stroke-linecap:round; stroke-linejoin:round; stroke-width:4; stroke-opacity:1; fill:none" points="1140.96,947.354 1237.71,714.298 "/>
<polyline clip-path="url(#clip822)" style="stroke:#000000; stroke-linecap:round; stroke-linejoin:round; stroke-width:4; stroke-opacity:1; fill:none" points="1207.28,740.645 1237.71,714.298 1240.53,754.448 "/>
<polyline clip-path="url(#clip822)" style="stroke:#000000; stroke-linecap:round; stroke-linejoin:round; stroke-width:4; stroke-opacity:1; fill:none" points="1237.71,714.298 1140.96,947.354 "/>
<polyline clip-path="url(#clip822)" style="stroke:#000000; stroke-linecap:round; stroke-linejoin:round; stroke-width:4; stroke-opacity:1; fill:none" points="1237.72,662.304 1464.31,597.407 "/>
<polyline clip-path="url(#clip822)" style="stroke:#000000; stroke-linecap:round; stroke-linejoin:round; stroke-width:4; stroke-opacity:1; fill:none" points="1424.74,590.015 1464.31,597.407 1434.66,624.623 "/>
<polyline clip-path="url(#clip822)" style="stroke:#000000; stroke-linecap:round; stroke-linejoin:round; stroke-width:4; stroke-opacity:1; fill:none" points="1464.31,597.407 1237.72,662.304 "/>
<polyline clip-path="url(#clip822)" style="stroke:#000000; stroke-linecap:round; stroke-linejoin:round; stroke-width:4; stroke-opacity:1; fill:none" points="1140.96,947.354 926.064,1001.68 "/>
<polyline clip-path="url(#clip822)" style="stroke:#000000; stroke-linecap:round; stroke-linejoin:round; stroke-width:4; stroke-opacity:1; fill:none" points="965.378,1010.31 926.064,1001.68 956.554,975.408 "/>
<polyline clip-path="url(#clip822)" style="stroke:#000000; stroke-linecap:round; stroke-linejoin:round; stroke-width:4; stroke-opacity:1; fill:none" points="926.064,1001.68 1140.96,947.354 "/>
<polyline clip-path="url(#clip822)" style="stroke:#000000; stroke-linecap:round; stroke-linejoin:round; stroke-width:4; stroke-opacity:1; fill:none" points="909.219,998.457 722.596,1022.13 "/>
<polyline clip-path="url(#clip822)" style="stroke:#000000; stroke-linecap:round; stroke-linejoin:round; stroke-width:4; stroke-opacity:1; fill:none" points="760.575,1035.46 722.596,1022.13 756.044,999.743 "/>
<polyline clip-path="url(#clip822)" style="stroke:#000000; stroke-linecap:round; stroke-linejoin:round; stroke-width:4; stroke-opacity:1; fill:none" points="722.596,1022.13 909.219,998.457 "/>
<path clip-path="url(#clip822)" d="M730.846 1046.9 L730.715 1043.62 L730.324 1040.36 L729.676 1037.14 L728.773 1033.98 L727.623 1030.9 L726.232 1027.93 L724.608 1025.07 L722.763 1022.36 L720.708 1019.79 L718.456 1017.4 L716.022 1015.2 L713.419 1013.2 L710.666 1011.4 L707.779 1009.84 L704.777 1008.51 L701.679 1007.42 L698.504 1006.58 L695.272 1005.99 L692.004 1005.67 L688.72 1005.6 L685.442 1005.8 L682.189 1006.25 L678.983 1006.97 L675.844 1007.93 L672.792 1009.14 L669.845 1010.59 L667.023 1012.27 L664.343 1014.17 L661.822 1016.28 L659.477 1018.58 L657.322 1021.05 L655.37 1023.7 L653.635 1026.48 L652.126 1029.4 L650.854 1032.43 L649.827 1035.55 L649.051 1038.74 L648.531 1041.98 L648.27 1045.26 L648.27 1048.54 L648.531 1051.81 L649.051 1055.06 L649.827 1058.25 L650.854 1061.37 L652.126 1064.4 L653.635 1067.31 L655.37 1070.1 L657.322 1072.74 L659.477 1075.22 L661.822 1077.52 L664.343 1079.63 L667.023 1081.52 L669.845 1083.2 L672.792 1084.65 L675.844 1085.87 L678.983 1086.83 L682.189 1087.54 L685.442 1088 L688.72 1088.19 L692.004 1088.13 L695.272 1087.8 L698.504 1087.22 L701.679 1086.38 L704.777 1085.29 L707.779 1083.96 L710.666 1082.39 L713.419 1080.6 L716.022 1078.6 L718.456 1076.39 L720.708 1074 L722.763 1071.44 L724.608 1068.72 L726.232 1065.87 L727.623 1062.89 L728.773 1059.82 L729.676 1056.66 L730.324 1053.44 L730.715 1050.18 L730.846 1046.9 L730.846 1046.9  Z" fill="#add8e6" fill-rule="evenodd" fill-opacity="1"/>
<polyline clip-path="url(#clip822)" style="stroke:#000000; stroke-linecap:round; stroke-linejoin:round; stroke-width:4; stroke-opacity:1; fill:none" points="730.846,1046.9 730.715,1043.62 730.324,1040.36 729.676,1037.14 728.773,1033.98 727.623,1030.9 726.232,1027.93 724.608,1025.07 722.763,1022.36 720.708,1019.79 718.456,1017.4 716.022,1015.2 713.419,1013.2 710.666,1011.4 707.779,1009.84 704.777,1008.51 701.679,1007.42 698.504,1006.58 695.272,1005.99 692.004,1005.67 688.72,1005.6 685.442,1005.8 682.189,1006.25 678.983,1006.97 675.844,1007.93 672.792,1009.14 669.845,1010.59 667.023,1012.27 664.343,1014.17 661.822,1016.28 659.477,1018.58 657.322,1021.05 655.37,1023.7 653.635,1026.48 652.126,1029.4 650.854,1032.43 649.827,1035.55 649.051,1038.74 648.531,1041.98 648.27,1045.26 648.27,1048.54 648.531,1051.81 649.051,1055.06 649.827,1058.25 650.854,1061.37 652.126,1064.4 653.635,1067.31 655.37,1070.1 657.322,1072.74 659.477,1075.22 661.822,1077.52 664.343,1079.63 667.023,1081.52 669.845,1083.2 672.792,1084.65 675.844,1085.87 678.983,1086.83 682.189,1087.54 685.442,1088 688.72,1088.19 692.004,1088.13 695.272,1087.8 698.504,1087.22 701.679,1086.38 704.777,1085.29 707.779,1083.96 710.666,1082.39 713.419,1080.6 716.022,1078.6 718.456,1076.39 720.708,1074 722.763,1071.44 724.608,1068.72 726.232,1065.87 727.623,1062.89 728.773,1059.82 729.676,1056.66 730.324,1053.44 730.715,1050.18 730.846,1046.9 "/>
<path clip-path="url(#clip822)" d="M1592.08 327.656 L1591.99 325.283 L1591.7 322.925 L1591.23 320.598 L1590.58 318.315 L1589.75 316.091 L1588.74 313.94 L1587.57 311.876 L1586.24 309.911 L1584.75 308.059 L1583.12 306.331 L1581.36 304.737 L1579.48 303.289 L1577.49 301.994 L1575.4 300.862 L1573.23 299.899 L1570.99 299.112 L1568.7 298.505 L1566.36 298.082 L1564 297.846 L1561.62 297.799 L1559.25 297.941 L1556.9 298.27 L1554.59 298.785 L1552.32 299.483 L1550.11 300.359 L1547.98 301.407 L1545.94 302.622 L1544 303.994 L1542.18 305.517 L1540.48 307.179 L1538.92 308.97 L1537.51 310.88 L1536.26 312.896 L1535.17 315.005 L1534.25 317.194 L1533.51 319.45 L1532.94 321.757 L1532.57 324.101 L1532.38 326.468 L1532.38 328.843 L1532.57 331.21 L1532.94 333.554 L1533.51 335.861 L1534.25 338.117 L1535.17 340.306 L1536.26 342.415 L1537.51 344.431 L1538.92 346.341 L1540.48 348.132 L1542.18 349.795 L1544 351.317 L1545.94 352.689 L1547.98 353.904 L1550.11 354.952 L1552.32 355.828 L1554.59 356.526 L1556.9 357.041 L1559.25 357.37 L1561.62 357.512 L1564 357.465 L1566.36 357.229 L1568.7 356.806 L1570.99 356.199 L1573.23 355.412 L1575.4 354.449 L1577.49 353.317 L1579.48 352.022 L1581.36 350.574 L1583.12 348.98 L1584.75 347.252 L1586.24 345.4 L1587.57 343.435 L1588.74 341.371 L1589.75 339.22 L1590.58 336.996 L1591.23 334.713 L1591.7 332.386 L1591.99 330.028 L1592.08 327.656 L1592.08 327.656  Z" fill="#90ee90" fill-rule="evenodd" fill-opacity="1"/>
<polyline clip-path="url(#clip822)" style="stroke:#000000; stroke-linecap:round; stroke-linejoin:round; stroke-width:4; stroke-opacity:1; fill:none" points="1592.08,327.656 1591.99,325.283 1591.7,322.925 1591.23,320.598 1590.58,318.315 1589.75,316.091 1588.74,313.94 1587.57,311.876 1586.24,309.911 1584.75,308.059 1583.12,306.331 1581.36,304.737 1579.48,303.289 1577.49,301.994 1575.4,300.862 1573.23,299.899 1570.99,299.112 1568.7,298.505 1566.36,298.082 1564,297.846 1561.62,297.799 1559.25,297.941 1556.9,298.27 1554.59,298.785 1552.32,299.483 1550.11,300.359 1547.98,301.407 1545.94,302.622 1544,303.994 1542.18,305.517 1540.48,307.179 1538.92,308.97 1537.51,310.88 1536.26,312.896 1535.17,315.005 1534.25,317.194 1533.51,319.45 1532.94,321.757 1532.57,324.101 1532.38,326.468 1532.38,328.843 1532.57,331.21 1532.94,333.554 1533.51,335.861 1534.25,338.117 1535.17,340.306 1536.26,342.415 1537.51,344.431 1538.92,346.341 1540.48,348.132 1542.18,349.795 1544,351.317 1545.94,352.689 1547.98,353.904 1550.11,354.952 1552.32,355.828 1554.59,356.526 1556.9,357.041 1559.25,357.37 1561.62,357.512 1564,357.465 1566.36,357.229 1568.7,356.806 1570.99,356.199 1573.23,355.412 1575.4,354.449 1577.49,353.317 1579.48,352.022 1581.36,350.574 1583.12,348.98 1584.75,347.252 1586.24,345.4 1587.57,343.435 1588.74,341.371 1589.75,339.22 1590.58,336.996 1591.23,334.713 1591.7,332.386 1591.99,330.028 1592.08,327.656 "/>
<path clip-path="url(#clip822)" d="M1740.32 1348.57 L1740.23 1346.2 L1739.94 1343.84 L1739.47 1341.51 L1738.82 1339.23 L1737.99 1337.01 L1736.98 1334.86 L1735.81 1332.79 L1734.48 1330.83 L1732.99 1328.98 L1731.36 1327.25 L1729.6 1325.65 L1727.72 1324.21 L1725.73 1322.91 L1723.64 1321.78 L1721.47 1320.82 L1719.23 1320.03 L1716.94 1319.42 L1714.6 1319 L1712.24 1318.76 L1709.86 1318.72 L1707.49 1318.86 L1705.14 1319.19 L1702.83 1319.7 L1700.56 1320.4 L1698.35 1321.28 L1696.22 1322.32 L1694.18 1323.54 L1692.24 1324.91 L1690.42 1326.43 L1688.72 1328.1 L1687.16 1329.89 L1685.75 1331.8 L1684.5 1333.81 L1683.41 1335.92 L1682.49 1338.11 L1681.75 1340.37 L1681.18 1342.67 L1680.81 1345.02 L1680.62 1347.39 L1680.62 1349.76 L1680.81 1352.13 L1681.18 1354.47 L1681.75 1356.78 L1682.49 1359.03 L1683.41 1361.22 L1684.5 1363.33 L1685.75 1365.35 L1687.16 1367.26 L1688.72 1369.05 L1690.42 1370.71 L1692.24 1372.23 L1694.18 1373.61 L1696.22 1374.82 L1698.35 1375.87 L1700.56 1376.75 L1702.83 1377.44 L1705.14 1377.96 L1707.49 1378.29 L1709.86 1378.43 L1712.24 1378.38 L1714.6 1378.15 L1716.94 1377.72 L1719.23 1377.12 L1721.47 1376.33 L1723.64 1375.37 L1725.73 1374.23 L1727.72 1372.94 L1729.6 1371.49 L1731.36 1369.9 L1732.99 1368.17 L1734.48 1366.32 L1735.81 1364.35 L1736.98 1362.29 L1737.99 1360.14 L1738.82 1357.91 L1739.47 1355.63 L1739.94 1353.3 L1740.23 1350.95 L1740.32 1348.57 L1740.32 1348.57  Z" fill="#90ee90" fill-rule="evenodd" fill-opacity="1"/>
<polyline clip-path="url(#clip822)" style="stroke:#000000; stroke-linecap:round; stroke-linejoin:round; stroke-width:4; stroke-opacity:1; fill:none" points="1740.32,1348.57 1740.23,1346.2 1739.94,1343.84 1739.47,1341.51 1738.82,1339.23 1737.99,1337.01 1736.98,1334.86 1735.81,1332.79 1734.48,1330.83 1732.99,1328.98 1731.36,1327.25 1729.6,1325.65 1727.72,1324.21 1725.73,1322.91 1723.64,1321.78 1721.47,1320.82 1719.23,1320.03 1716.94,1319.42 1714.6,1319 1712.24,1318.76 1709.86,1318.72 1707.49,1318.86 1705.14,1319.19 1702.83,1319.7 1700.56,1320.4 1698.35,1321.28 1696.22,1322.32 1694.18,1323.54 1692.24,1324.91 1690.42,1326.43 1688.72,1328.1 1687.16,1329.89 1685.75,1331.8 1684.5,1333.81 1683.41,1335.92 1682.49,1338.11 1681.75,1340.37 1681.18,1342.67 1680.81,1345.02 1680.62,1347.39 1680.62,1349.76 1680.81,1352.13 1681.18,1354.47 1681.75,1356.78 1682.49,1359.03 1683.41,1361.22 1684.5,1363.33 1685.75,1365.35 1687.16,1367.26 1688.72,1369.05 1690.42,1370.71 1692.24,1372.23 1694.18,1373.61 1696.22,1374.82 1698.35,1375.87 1700.56,1376.75 1702.83,1377.44 1705.14,1377.96 1707.49,1378.29 1709.86,1378.43 1712.24,1378.38 1714.6,1378.15 1716.94,1377.72 1719.23,1377.12 1721.47,1376.33 1723.64,1375.37 1725.73,1374.23 1727.72,1372.94 1729.6,1371.49 1731.36,1369.9 1732.99,1368.17 1734.48,1366.32 1735.81,1364.35 1736.98,1362.29 1737.99,1360.14 1738.82,1357.91 1739.47,1355.63 1739.94,1353.3 1740.23,1350.95 1740.32,1348.57 "/>
<path clip-path="url(#clip822)" d="M1158.11 947.354 L1158.05 945.992 L1157.89 944.637 L1157.62 943.301 L1157.25 941.989 L1156.77 940.712 L1156.19 939.477 L1155.52 938.291 L1154.75 937.163 L1153.9 936.099 L1152.96 935.106 L1151.95 934.191 L1150.87 933.359 L1149.73 932.616 L1148.53 931.965 L1147.28 931.412 L1146 930.96 L1144.68 930.611 L1143.34 930.369 L1141.98 930.233 L1140.62 930.206 L1139.26 930.288 L1137.9 930.477 L1136.57 930.773 L1135.27 931.173 L1134 931.676 L1132.78 932.279 L1131.61 932.976 L1130.49 933.764 L1129.45 934.639 L1128.47 935.593 L1127.58 936.622 L1126.77 937.719 L1126.05 938.877 L1125.42 940.089 L1124.89 941.346 L1124.47 942.641 L1124.14 943.966 L1123.93 945.313 L1123.82 946.672 L1123.82 948.036 L1123.93 949.396 L1124.14 950.742 L1124.47 952.067 L1124.89 953.363 L1125.42 954.62 L1126.05 955.831 L1126.77 956.989 L1127.58 958.086 L1128.47 959.115 L1129.45 960.07 L1130.49 960.944 L1131.61 961.732 L1132.78 962.43 L1134 963.032 L1135.27 963.535 L1136.57 963.936 L1137.9 964.232 L1139.26 964.421 L1140.62 964.502 L1141.98 964.475 L1143.34 964.34 L1144.68 964.097 L1146 963.748 L1147.28 963.296 L1148.53 962.743 L1149.73 962.093 L1150.87 961.349 L1151.95 960.517 L1152.96 959.602 L1153.9 958.609 L1154.75 957.546 L1155.52 956.417 L1156.19 955.232 L1156.77 953.996 L1157.25 952.719 L1157.62 951.408 L1157.89 950.071 L1158.05 948.717 L1158.11 947.354 L1158.11 947.354  Z" fill="#ffffff" fill-rule="evenodd" fill-opacity="1"/>
<polyline clip-path="url(#clip822)" style="stroke:#000000; stroke-linecap:round; stroke-linejoin:round; stroke-width:4; stroke-opacity:1; fill:none" points="1158.11,947.354 1158.05,945.992 1157.89,944.637 1157.62,943.301 1157.25,941.989 1156.77,940.712 1156.19,939.477 1155.52,938.291 1154.75,937.163 1153.9,936.099 1152.96,935.106 1151.95,934.191 1150.87,933.359 1149.73,932.616 1148.53,931.965 1147.28,931.412 1146,930.96 1144.68,930.611 1143.34,930.369 1141.98,930.233 1140.62,930.206 1139.26,930.288 1137.9,930.477 1136.57,930.773 1135.27,931.173 1134,931.676 1132.78,932.279 1131.61,932.976 1130.49,933.764 1129.45,934.639 1128.47,935.593 1127.58,936.622 1126.77,937.719 1126.05,938.877 1125.42,940.089 1124.89,941.346 1124.47,942.641 1124.14,943.966 1123.93,945.313 1123.82,946.672 1123.82,948.036 1123.93,949.396 1124.14,950.742 1124.47,952.067 1124.89,953.363 1125.42,954.62 1126.05,955.831 1126.77,956.989 1127.58,958.086 1128.47,959.115 1129.45,960.07 1130.49,960.944 1131.61,961.732 1132.78,962.43 1134,963.032 1135.27,963.535 1136.57,963.936 1137.9,964.232 1139.26,964.421 1140.62,964.502 1141.98,964.475 1143.34,964.34 1144.68,964.097 1146,963.748 1147.28,963.296 1148.53,962.743 1149.73,962.093 1150.87,961.349 1151.95,960.517 1152.96,959.602 1153.9,958.609 1154.75,957.546 1155.52,956.417 1156.19,955.232 1156.77,953.996 1157.25,952.719 1157.62,951.408 1157.89,950.071 1158.05,948.717 1158.11,947.354 1158.11,947.354 "/>
<path clip-path="url(#clip822)" d="M1498.46 599.699 L1498.4 598.336 L1498.24 596.982 L1497.97 595.645 L1497.6 594.334 L1497.12 593.056 L1496.54 591.821 L1495.87 590.635 L1495.1 589.507 L1494.25 588.443 L1493.31 587.451 L1492.3 586.536 L1491.22 585.704 L1490.08 584.96 L1488.88 584.31 L1487.63 583.757 L1486.35 583.304 L1485.03 582.956 L1483.69 582.713 L1482.33 582.578 L1480.97 582.551 L1479.6 582.632 L1478.25 582.821 L1476.92 583.117 L1475.62 583.518 L1474.35 584.021 L1473.13 584.623 L1471.96 585.32 L1470.84 586.109 L1469.8 586.983 L1468.82 587.938 L1467.93 588.967 L1467.12 590.064 L1466.4 591.222 L1465.77 592.433 L1465.24 593.69 L1464.82 594.986 L1464.49 596.311 L1464.28 597.657 L1464.17 599.017 L1464.17 600.381 L1464.28 601.74 L1464.49 603.086 L1464.82 604.412 L1465.24 605.707 L1465.77 606.964 L1466.4 608.176 L1467.12 609.334 L1467.93 610.43 L1468.82 611.459 L1469.8 612.414 L1470.84 613.288 L1471.96 614.077 L1473.13 614.774 L1474.35 615.376 L1475.62 615.879 L1476.92 616.28 L1478.25 616.576 L1479.6 616.765 L1480.97 616.847 L1482.33 616.82 L1483.69 616.684 L1485.03 616.441 L1486.35 616.093 L1487.63 615.641 L1488.88 615.088 L1490.08 614.437 L1491.22 613.694 L1492.3 612.862 L1493.31 611.946 L1494.25 610.954 L1495.1 609.89 L1495.87 608.762 L1496.54 607.576 L1497.12 606.341 L1497.6 605.064 L1497.97 603.752 L1498.24 602.415 L1498.4 601.061 L1498.46 599.699 L1498.46 599.699  Z" fill="#ffffff" fill-rule="evenodd" fill-opacity="1"/>
<polyline clip-path="url(#clip822)" style="stroke:#000000; stroke-linecap:round; stroke-linejoin:round; stroke-width:4; stroke-opacity:1; fill:none" points="1498.46,599.699 1498.4,598.336 1498.24,596.982 1497.97,595.645 1497.6,594.334 1497.12,593.056 1496.54,591.821 1495.87,590.635 1495.1,589.507 1494.25,588.443 1493.31,587.451 1492.3,586.536 1491.22,585.704 1490.08,584.96 1488.88,584.31 1487.63,583.757 1486.35,583.304 1485.03,582.956 1483.69,582.713 1482.33,582.578 1480.97,582.551 1479.6,582.632 1478.25,582.821 1476.92,583.117 1475.62,583.518 1474.35,584.021 1473.13,584.623 1471.96,585.32 1470.84,586.109 1469.8,586.983 1468.82,587.938 1467.93,588.967 1467.12,590.064 1466.4,591.222 1465.77,592.433 1465.24,593.69 1464.82,594.986 1464.49,596.311 1464.28,597.657 1464.17,599.017 1464.17,600.381 1464.28,601.74 1464.49,603.086 1464.82,604.412 1465.24,605.707 1465.77,606.964 1466.4,608.176 1467.12,609.334 1467.93,610.43 1468.82,611.459 1469.8,612.414 1470.84,613.288 1471.96,614.077 1473.13,614.774 1474.35,615.376 1475.62,615.879 1476.92,616.28 1478.25,616.576 1479.6,616.765 1480.97,616.847 1482.33,616.82 1483.69,616.684 1485.03,616.441 1486.35,616.093 1487.63,615.641 1488.88,615.088 1490.08,614.437 1491.22,613.694 1492.3,612.862 1493.31,611.946 1494.25,610.954 1495.1,609.89 1495.87,608.762 1496.54,607.576 1497.12,606.341 1497.6,605.064 1497.97,603.752 1498.24,602.415 1498.4,601.061 1498.46,599.699 "/>
<path clip-path="url(#clip822)" d="M1575.17 1127.99 L1575.11 1126.63 L1574.95 1125.27 L1574.68 1123.93 L1574.31 1122.62 L1573.83 1121.35 L1573.25 1120.11 L1572.58 1118.93 L1571.81 1117.8 L1570.96 1116.73 L1570.02 1115.74 L1569.01 1114.83 L1567.93 1113.99 L1566.79 1113.25 L1565.59 1112.6 L1564.34 1112.05 L1563.06 1111.59 L1561.74 1111.25 L1560.4 1111 L1559.04 1110.87 L1557.67 1110.84 L1556.31 1110.92 L1554.96 1111.11 L1553.63 1111.41 L1552.33 1111.81 L1551.06 1112.31 L1549.84 1112.91 L1548.66 1113.61 L1547.55 1114.4 L1546.51 1115.27 L1545.53 1116.23 L1544.64 1117.26 L1543.83 1118.35 L1543.11 1119.51 L1542.48 1120.72 L1541.95 1121.98 L1541.52 1123.28 L1541.2 1124.6 L1540.99 1125.95 L1540.88 1127.31 L1540.88 1128.67 L1540.99 1130.03 L1541.2 1131.38 L1541.52 1132.7 L1541.95 1134 L1542.48 1135.25 L1543.11 1136.47 L1543.83 1137.62 L1544.64 1138.72 L1545.53 1139.75 L1546.51 1140.7 L1547.55 1141.58 L1548.66 1142.37 L1549.84 1143.06 L1551.06 1143.67 L1552.33 1144.17 L1553.63 1144.57 L1554.96 1144.87 L1556.31 1145.05 L1557.67 1145.14 L1559.04 1145.11 L1560.4 1144.97 L1561.74 1144.73 L1563.06 1144.38 L1564.34 1143.93 L1565.59 1143.38 L1566.79 1142.73 L1567.93 1141.98 L1569.01 1141.15 L1570.02 1140.24 L1570.96 1139.24 L1571.81 1138.18 L1572.58 1137.05 L1573.25 1135.87 L1573.83 1134.63 L1574.31 1133.35 L1574.68 1132.04 L1574.95 1130.7 L1575.11 1129.35 L1575.17 1127.99 L1575.17 1127.99  Z" fill="#ffffff" fill-rule="evenodd" fill-opacity="1"/>
<polyline clip-path="url(#clip822)" style="stroke:#000000; stroke-linecap:round; stroke-linejoin:round; stroke-width:4; stroke-opacity:1; fill:none" points="1575.17,1127.99 1575.11,1126.63 1574.95,1125.27 1574.68,1123.93 1574.31,1122.62 1573.83,1121.35 1573.25,1120.11 1572.58,1118.93 1571.81,1117.8 1570.96,1116.73 1570.02,1115.74 1569.01,1114.83 1567.93,1113.99 1566.79,1113.25 1565.59,1112.6 1564.34,1112.05 1563.06,1111.59 1561.74,1111.25 1560.4,1111 1559.04,1110.87 1557.67,1110.84 1556.31,1110.92 1554.96,1111.11 1553.63,1111.41 1552.33,1111.81 1551.06,1112.31 1549.84,1112.91 1548.66,1113.61 1547.55,1114.4 1546.51,1115.27 1545.53,1116.23 1544.64,1117.26 1543.83,1118.35 1543.11,1119.51 1542.48,1120.72 1541.95,1121.98 1541.52,1123.28 1541.2,1124.6 1540.99,1125.95 1540.88,1127.31 1540.88,1128.67 1540.99,1130.03 1541.2,1131.38 1541.52,1132.7 1541.95,1134 1542.48,1135.25 1543.11,1136.47 1543.83,1137.62 1544.64,1138.72 1545.53,1139.75 1546.51,1140.7 1547.55,1141.58 1548.66,1142.37 1549.84,1143.06 1551.06,1143.67 1552.33,1144.17 1553.63,1144.57 1554.96,1144.87 1556.31,1145.05 1557.67,1145.14 1559.04,1145.11 1560.4,1144.97 1561.74,1144.73 1563.06,1144.38 1564.34,1143.93 1565.59,1143.38 1566.79,1142.73 1567.93,1141.98 1569.01,1141.15 1570.02,1140.24 1570.96,1139.24 1571.81,1138.18 1572.58,1137.05 1573.25,1135.87 1573.83,1134.63 1574.31,1133.35 1574.68,1132.04 1574.95,1130.7 1575.11,1129.35 1575.17,1127.99 "/>
<path clip-path="url(#clip822)" d="M926.37 998.457 L926.316 997.094 L926.154 995.74 L925.884 994.403 L925.51 993.092 L925.032 991.814 L924.454 990.579 L923.78 989.394 L923.014 988.265 L922.161 987.201 L921.226 986.209 L920.215 985.294 L919.134 984.462 L917.991 983.718 L916.792 983.068 L915.545 982.515 L914.259 982.062 L912.94 981.714 L911.598 981.471 L910.241 981.336 L908.878 981.309 L907.517 981.39 L906.166 981.579 L904.835 981.875 L903.531 982.276 L902.264 982.779 L901.04 983.381 L899.868 984.078 L898.755 984.867 L897.709 985.741 L896.735 986.696 L895.84 987.725 L895.029 988.822 L894.309 989.98 L893.682 991.191 L893.154 992.448 L892.728 993.744 L892.405 995.069 L892.189 996.415 L892.081 997.775 L892.081 999.139 L892.189 1000.5 L892.405 1001.84 L892.728 1003.17 L893.154 1004.46 L893.682 1005.72 L894.309 1006.93 L895.029 1008.09 L895.84 1009.19 L896.735 1010.22 L897.709 1011.17 L898.755 1012.05 L899.868 1012.83 L901.04 1013.53 L902.264 1014.13 L903.531 1014.64 L904.835 1015.04 L906.166 1015.33 L907.517 1015.52 L908.878 1015.6 L910.241 1015.58 L911.598 1015.44 L912.94 1015.2 L914.259 1014.85 L915.545 1014.4 L916.792 1013.85 L917.991 1013.2 L919.134 1012.45 L920.215 1011.62 L921.226 1010.7 L922.161 1009.71 L923.014 1008.65 L923.78 1007.52 L924.454 1006.33 L925.032 1005.1 L925.51 1003.82 L925.884 1002.51 L926.154 1001.17 L926.316 999.819 L926.37 998.457 L926.37 998.457  Z" fill="#ff7f50" fill-rule="evenodd" fill-opacity="1"/>
<polyline clip-path="url(#clip822)" style="stroke:#000000; stroke-linecap:round; stroke-linejoin:round; stroke-width:4; stroke-opacity:1; fill:none" points="926.37,998.457 926.316,997.094 926.154,995.74 925.884,994.403 925.51,993.092 925.032,991.814 924.454,990.579 923.78,989.394 923.014,988.265 922.161,987.201 921.226,986.209 920.215,985.294 919.134,984.462 917.991,983.718 916.792,983.068 915.545,982.515 914.259,982.062 912.94,981.714 911.598,981.471 910.241,981.336 908.878,981.309 907.517,981.39 906.166,981.579 904.835,981.875 903.531,982.276 902.264,982.779 901.04,983.381 899.868,984.078 898.755,984.867 897.709,985.741 896.735,986.696 895.84,987.725 895.029,988.822 894.309,989.98 893.682,991.191 893.154,992.448 892.728,993.744 892.405,995.069 892.189,996.415 892.081,997.775 892.081,999.139 892.189,1000.5 892.405,1001.84 892.728,1003.17 893.154,1004.46 893.682,1005.72 894.309,1006.93 895.029,1008.09 895.84,1009.19 896.735,1010.22 897.709,1011.17 898.755,1012.05 899.868,1012.83 901.04,1013.53 902.264,1014.13 903.531,1014.64 904.835,1015.04 906.166,1015.33 907.517,1015.52 908.878,1015.6 910.241,1015.58 911.598,1015.44 912.94,1015.2 914.259,1014.85 915.545,1014.4 916.792,1013.85 917.991,1013.2 919.134,1012.45 920.215,1011.62 921.226,1010.7 922.161,1009.71 923.014,1008.65 923.78,1007.52 924.454,1006.33 925.032,1005.1 925.51,1003.82 925.884,1002.51 926.154,1001.17 926.316,999.819 926.37,998.457 "/>
<path clip-path="url(#clip822)" d="M1353.24 1173.36 L1353.1 1170.08 L1352.71 1166.82 L1352.07 1163.6 L1351.16 1160.44 L1350.01 1157.37 L1348.62 1154.39 L1347 1151.54 L1345.15 1148.82 L1343.1 1146.26 L1340.85 1143.87 L1338.41 1141.66 L1335.81 1139.66 L1333.06 1137.87 L1330.17 1136.3 L1327.17 1134.97 L1324.07 1133.88 L1320.89 1133.04 L1317.66 1132.46 L1314.39 1132.13 L1311.11 1132.07 L1307.83 1132.26 L1304.58 1132.72 L1301.37 1133.43 L1298.23 1134.4 L1295.18 1135.61 L1292.23 1137.06 L1289.41 1138.74 L1286.73 1140.64 L1284.21 1142.74 L1281.87 1145.04 L1279.71 1147.52 L1277.76 1150.16 L1276.02 1152.95 L1274.52 1155.87 L1273.24 1158.89 L1272.22 1162.01 L1271.44 1165.2 L1270.92 1168.45 L1270.66 1171.72 L1270.66 1175 L1270.92 1178.28 L1271.44 1181.52 L1272.22 1184.71 L1273.24 1187.83 L1274.52 1190.86 L1276.02 1193.78 L1277.76 1196.57 L1279.71 1199.21 L1281.87 1201.69 L1284.21 1203.98 L1286.73 1206.09 L1289.41 1207.99 L1292.23 1209.67 L1295.18 1211.12 L1298.23 1212.33 L1301.37 1213.29 L1304.58 1214.01 L1307.83 1214.46 L1311.11 1214.66 L1314.39 1214.59 L1317.66 1214.27 L1320.89 1213.68 L1324.07 1212.84 L1327.17 1211.75 L1330.17 1210.42 L1333.06 1208.86 L1335.81 1207.07 L1338.41 1205.06 L1340.85 1202.86 L1343.1 1200.47 L1345.15 1197.91 L1347 1195.19 L1348.62 1192.33 L1350.01 1189.36 L1351.16 1186.28 L1352.07 1183.12 L1352.71 1179.91 L1353.1 1176.64 L1353.24 1173.36 L1353.24 1173.36  Z" fill="#ff7f50" fill-rule="evenodd" fill-opacity="1"/>
<polyline clip-path="url(#clip822)" style="stroke:#000000; stroke-linecap:round; stroke-linejoin:round; stroke-width:4; stroke-opacity:1; fill:none" points="1353.24,1173.36 1353.1,1170.08 1352.71,1166.82 1352.07,1163.6 1351.16,1160.44 1350.01,1157.37 1348.62,1154.39 1347,1151.54 1345.15,1148.82 1343.1,1146.26 1340.85,1143.87 1338.41,1141.66 1335.81,1139.66 1333.06,1137.87 1330.17,1136.3 1327.17,1134.97 1324.07,1133.88 1320.89,1133.04 1317.66,1132.46 1314.39,1132.13 1311.11,1132.07 1307.83,1132.26 1304.58,1132.72 1301.37,1133.43 1298.23,1134.4 1295.18,1135.61 1292.23,1137.06 1289.41,1138.74 1286.73,1140.64 1284.21,1142.74 1281.87,1145.04 1279.71,1147.52 1277.76,1150.16 1276.02,1152.95 1274.52,1155.87 1273.24,1158.89 1272.22,1162.01 1271.44,1165.2 1270.92,1168.45 1270.66,1171.72 1270.66,1175 1270.92,1178.28 1271.44,1181.52 1272.22,1184.71 1273.24,1187.83 1274.52,1190.86 1276.02,1193.78 1277.76,1196.57 1279.71,1199.21 1281.87,1201.69 1284.21,1203.98 1286.73,1206.09 1289.41,1207.99 1292.23,1209.67 1295.18,1211.12 1298.23,1212.33 1301.37,1213.29 1304.58,1214.01 1307.83,1214.46 1311.11,1214.66 1314.39,1214.59 1317.66,1214.27 1320.89,1213.68 1324.07,1212.84 1327.17,1211.75 1330.17,1210.42 1333.06,1208.86 1335.81,1207.07 1338.41,1205.06 1340.85,1202.86 1343.1,1200.47 1345.15,1197.91 1347,1195.19 1348.62,1192.33 1350.01,1189.36 1351.16,1186.28 1352.07,1183.12 1352.71,1179.91 1353.1,1176.64 1353.24,1173.36 "/>
<path clip-path="url(#clip822)" d="M1289.72 662.304 L1289.55 658.174 L1289.06 654.069 L1288.24 650.016 L1287.11 646.041 L1285.66 642.169 L1283.91 638.424 L1281.87 634.83 L1279.54 631.41 L1276.96 628.185 L1274.12 625.176 L1271.06 622.401 L1267.78 619.879 L1264.32 617.625 L1260.68 615.654 L1256.9 613.977 L1253 612.607 L1249.01 611.55 L1244.94 610.814 L1240.82 610.404 L1236.69 610.321 L1232.56 610.568 L1228.47 611.141 L1224.43 612.038 L1220.48 613.253 L1216.64 614.778 L1212.93 616.604 L1209.38 618.718 L1206 621.108 L1202.83 623.758 L1199.88 626.652 L1197.17 629.772 L1194.71 633.097 L1192.53 636.607 L1190.63 640.279 L1189.03 644.091 L1187.73 648.017 L1186.76 652.034 L1186.1 656.116 L1185.77 660.237 L1185.77 664.372 L1186.1 668.493 L1186.76 672.575 L1187.73 676.592 L1189.03 680.518 L1190.63 684.33 L1192.53 688.002 L1194.71 691.512 L1197.17 694.837 L1199.88 697.957 L1202.83 700.851 L1206 703.501 L1209.38 705.891 L1212.93 708.005 L1216.64 709.831 L1220.48 711.356 L1224.43 712.57 L1228.47 713.467 L1232.56 714.041 L1236.69 714.287 L1240.82 714.205 L1244.94 713.795 L1249.01 713.059 L1253 712.002 L1256.9 710.631 L1260.68 708.955 L1264.32 706.983 L1267.78 704.73 L1271.06 702.207 L1274.12 699.433 L1276.96 696.424 L1279.54 693.199 L1281.87 689.779 L1283.91 686.185 L1285.66 682.44 L1287.11 678.568 L1288.24 674.593 L1289.06 670.54 L1289.55 666.435 L1289.72 662.304 L1289.72 662.304  Z" fill="#ff7f50" fill-rule="evenodd" fill-opacity="1"/>
<polyline clip-path="url(#clip822)" style="stroke:#000000; stroke-linecap:round; stroke-linejoin:round; stroke-width:4; stroke-opacity:1; fill:none" points="1289.72,662.304 1289.55,658.174 1289.06,654.069 1288.24,650.016 1287.11,646.041 1285.66,642.169 1283.91,638.424 1281.87,634.83 1279.54,631.41 1276.96,628.185 1274.12,625.176 1271.06,622.401 1267.78,619.879 1264.32,617.625 1260.68,615.654 1256.9,613.977 1253,612.607 1249.01,611.55 1244.94,610.814 1240.82,610.404 1236.69,610.321 1232.56,610.568 1228.47,611.141 1224.43,612.038 1220.48,613.253 1216.64,614.778 1212.93,616.604 1209.38,618.718 1206,621.108 1202.83,623.758 1199.88,626.652 1197.17,629.772 1194.71,633.097 1192.53,636.607 1190.63,640.279 1189.03,644.091 1187.73,648.017 1186.76,652.034 1186.1,656.116 1185.77,660.237 1185.77,664.372 1186.1,668.493 1186.76,672.575 1187.73,676.592 1189.03,680.518 1190.63,684.33 1192.53,688.002 1194.71,691.512 1197.17,694.837 1199.88,697.957 1202.83,700.851 1206,703.501 1209.38,705.891 1212.93,708.005 1216.64,709.831 1220.48,711.356 1224.43,712.57 1228.47,713.467 1232.56,714.041 1236.69,714.287 1240.82,714.205 1244.94,713.795 1249.01,713.059 1253,712.002 1256.9,710.631 1260.68,708.955 1264.32,706.983 1267.78,704.73 1271.06,702.207 1274.12,699.433 1276.96,696.424 1279.54,693.199 1281.87,689.779 1283.91,686.185 1285.66,682.44 1287.11,678.568 1288.24,674.593 1289.06,670.54 1289.55,666.435 1289.72,662.304 "/>
<path clip-path="url(#clip822)" d="M1692.62 837.169 L1692.45 833.038 L1691.96 828.933 L1691.14 824.881 L1690.01 820.906 L1688.56 817.033 L1686.81 813.289 L1684.77 809.695 L1682.44 806.274 L1679.86 803.05 L1677.02 800.04 L1673.96 797.266 L1670.68 794.744 L1667.22 792.49 L1663.58 790.518 L1659.8 788.842 L1655.9 787.471 L1651.91 786.414 L1647.84 785.678 L1643.72 785.268 L1639.59 785.186 L1635.46 785.432 L1631.37 786.006 L1627.33 786.903 L1623.38 788.118 L1619.54 789.643 L1615.83 791.468 L1612.28 793.582 L1608.9 795.972 L1605.73 798.623 L1602.78 801.517 L1600.07 804.636 L1597.61 807.961 L1595.43 811.471 L1593.53 815.144 L1591.93 818.955 L1590.63 822.882 L1589.66 826.899 L1589 830.981 L1588.67 835.102 L1588.67 839.236 L1589 843.357 L1589.66 847.439 L1590.63 851.456 L1591.93 855.383 L1593.53 859.194 L1595.43 862.867 L1597.61 866.376 L1600.07 869.702 L1602.78 872.821 L1605.73 875.715 L1608.9 878.366 L1612.28 880.755 L1615.83 882.87 L1619.54 884.695 L1623.38 886.22 L1627.33 887.435 L1631.37 888.332 L1635.46 888.906 L1639.59 889.152 L1643.72 889.07 L1647.84 888.659 L1651.91 887.924 L1655.9 886.867 L1659.8 885.496 L1663.58 883.819 L1667.22 881.848 L1670.68 879.594 L1673.96 877.072 L1677.02 874.297 L1679.86 871.288 L1682.44 868.063 L1684.77 864.643 L1686.81 861.049 L1688.56 857.304 L1690.01 853.432 L1691.14 849.457 L1691.96 845.405 L1692.45 841.3 L1692.62 837.169 L1692.62 837.169  Z" fill="#ff7f50" fill-rule="evenodd" fill-opacity="1"/>
<polyline clip-path="url(#clip822)" style="stroke:#000000; stroke-linecap:round; stroke-linejoin:round; stroke-width:4; stroke-opacity:1; fill:none" points="1692.62,837.169 1692.45,833.038 1691.96,828.933 1691.14,824.881 1690.01,820.906 1688.56,817.033 1686.81,813.289 1684.77,809.695 1682.44,806.274 1679.86,803.05 1677.02,800.04 1673.96,797.266 1670.68,794.744 1667.22,792.49 1663.58,790.518 1659.8,788.842 1655.9,787.471 1651.91,786.414 1647.84,785.678 1643.72,785.268 1639.59,785.186 1635.46,785.432 1631.37,786.006 1627.33,786.903 1623.38,788.118 1619.54,789.643 1615.83,791.468 1612.28,793.582 1608.9,795.972 1605.73,798.623 1602.78,801.517 1600.07,804.636 1597.61,807.961 1595.43,811.471 1593.53,815.144 1591.93,818.955 1590.63,822.882 1589.66,826.899 1589,830.981 1588.67,835.102 1588.67,839.236 1589,843.357 1589.66,847.439 1590.63,851.456 1591.93,855.383 1593.53,859.194 1595.43,862.867 1597.61,866.376 1600.07,869.702 1602.78,872.821 1605.73,875.715 1608.9,878.366 1612.28,880.755 1615.83,882.87 1619.54,884.695 1623.38,886.22 1627.33,887.435 1631.37,888.332 1635.46,888.906 1639.59,889.152 1643.72,889.07 1647.84,888.659 1651.91,887.924 1655.9,886.867 1659.8,885.496 1663.58,883.819 1667.22,881.848 1670.68,879.594 1673.96,877.072 1677.02,874.297 1679.86,871.288 1682.44,868.063 1684.77,864.643 1686.81,861.049 1688.56,857.304 1690.01,853.432 1691.14,849.457 1691.96,845.405 1692.45,841.3 1692.62,837.169 "/>
<circle clip-path="url(#clip822)" style="fill:#add8e6; stroke:none; fill-opacity:0" cx="689.542" cy="1046.9" r="2"/>
<circle clip-path="url(#clip822)" style="fill:#add8e6; stroke:none; fill-opacity:0" cx="1562.22" cy="327.656" r="2"/>
<circle clip-path="url(#clip822)" style="fill:#add8e6; stroke:none; fill-opacity:0" cx="1710.46" cy="1348.57" r="2"/>
<circle clip-path="url(#clip822)" style="fill:#add8e6; stroke:none; fill-opacity:0" cx="1140.96" cy="947.354" r="2"/>
<circle clip-path="url(#clip822)" style="fill:#add8e6; stroke:none; fill-opacity:0" cx="1481.31" cy="599.699" r="2"/>
<circle clip-path="url(#clip822)" style="fill:#add8e6; stroke:none; fill-opacity:0" cx="1558.02" cy="1127.99" r="2"/>
<circle clip-path="url(#clip822)" style="fill:#add8e6; stroke:none; fill-opacity:0" cx="909.219" cy="998.457" r="2"/>
<circle clip-path="url(#clip822)" style="fill:#add8e6; stroke:none; fill-opacity:0" cx="1311.93" cy="1173.36" r="2"/>
<circle clip-path="url(#clip822)" style="fill:#add8e6; stroke:none; fill-opacity:0" cx="1237.72" cy="662.304" r="2"/>
<circle clip-path="url(#clip822)" style="fill:#add8e6; stroke:none; fill-opacity:0" cx="1640.62" cy="837.169" r="2"/>
<path clip-path="url(#clip820)" d="M657.823 1043.69 Q659.22 1041.18 661.165 1039.98 Q663.109 1038.79 665.742 1038.79 Q669.287 1038.79 671.211 1041.28 Q673.135 1043.75 673.135 1048.33 L673.135 1062.02 L669.388 1062.02 L669.388 1048.45 Q669.388 1045.19 668.234 1043.61 Q667.079 1042.03 664.709 1042.03 Q661.813 1042.03 660.132 1043.95 Q658.451 1045.88 658.451 1049.2 L658.451 1062.02 L654.704 1062.02 L654.704 1048.45 Q654.704 1045.17 653.549 1043.61 Q652.395 1042.03 649.984 1042.03 Q647.129 1042.03 645.447 1043.97 Q643.766 1045.9 643.766 1049.2 L643.766 1062.02 L640.019 1062.02 L640.019 1039.33 L643.766 1039.33 L643.766 1042.86 Q645.042 1040.77 646.825 1039.78 Q648.607 1038.79 651.058 1038.79 Q653.529 1038.79 655.251 1040.04 Q656.992 1041.3 657.823 1043.69 Z" fill="#000000" fill-rule="nonzero" fill-opacity="1" /><path clip-path="url(#clip820)" d="M699.973 1049.74 L699.973 1051.57 L682.837 1051.57 Q683.08 1055.42 685.146 1057.44 Q687.232 1059.45 690.939 1059.45 Q693.086 1059.45 695.091 1058.92 Q697.117 1058.39 699.102 1057.34 L699.102 1060.86 Q697.096 1061.71 694.99 1062.16 Q692.884 1062.61 690.716 1062.61 Q685.288 1062.61 682.108 1059.45 Q678.948 1056.29 678.948 1050.9 Q678.948 1045.33 681.946 1042.07 Q684.964 1038.79 690.068 1038.79 Q694.646 1038.79 697.299 1041.74 Q699.973 1044.68 699.973 1049.74 M696.246 1048.65 Q696.205 1045.59 694.524 1043.77 Q692.863 1041.95 690.109 1041.95 Q686.989 1041.95 685.106 1043.71 Q683.242 1045.47 682.959 1048.67 L696.246 1048.65 Z" fill="#000000" fill-rule="nonzero" fill-opacity="1" /><path clip-path="url(#clip820)" d="M723.751 1043.69 Q725.149 1041.18 727.093 1039.98 Q729.038 1038.79 731.671 1038.79 Q735.215 1038.79 737.14 1041.28 Q739.064 1043.75 739.064 1048.33 L739.064 1062.02 L735.317 1062.02 L735.317 1048.45 Q735.317 1045.19 734.162 1043.61 Q733.008 1042.03 730.638 1042.03 Q727.742 1042.03 726.06 1043.95 Q724.379 1045.88 724.379 1049.2 L724.379 1062.02 L720.632 1062.02 L720.632 1048.45 Q720.632 1045.17 719.478 1043.61 Q718.323 1042.03 715.913 1042.03 Q713.057 1042.03 711.376 1043.97 Q709.695 1045.9 709.695 1049.2 L709.695 1062.02 L705.948 1062.02 L705.948 1039.33 L709.695 1039.33 L709.695 1042.86 Q710.971 1040.77 712.753 1039.78 Q714.536 1038.79 716.986 1038.79 Q719.457 1038.79 721.179 1040.04 Q722.921 1041.3 723.751 1043.69 Z" fill="#000000" fill-rule="nonzero" fill-opacity="1" /><path clip-path="url(#clip820)" d="M1546.48 312.536 L1550.57 312.536 L1550.57 342.776 L1546.48 342.776 L1546.48 312.536 Z" fill="#000000" fill-rule="nonzero" fill-opacity="1" /><path clip-path="url(#clip820)" d="M1577.96 330.501 L1577.96 332.324 L1560.82 332.324 Q1561.06 336.173 1563.13 338.198 Q1565.22 340.203 1568.92 340.203 Q1571.07 340.203 1573.07 339.677 Q1575.1 339.15 1577.09 338.097 L1577.09 341.621 Q1575.08 342.472 1572.97 342.917 Q1570.87 343.363 1568.7 343.363 Q1563.27 343.363 1560.09 340.203 Q1556.93 337.043 1556.93 331.656 Q1556.93 326.086 1559.93 322.825 Q1562.95 319.544 1568.05 319.544 Q1572.63 319.544 1575.28 322.501 Q1577.96 325.438 1577.96 330.501 M1574.23 329.408 Q1574.19 326.349 1572.51 324.526 Q1570.85 322.703 1568.09 322.703 Q1564.97 322.703 1563.09 324.465 Q1561.23 326.228 1560.94 329.428 L1574.23 329.408 Z" fill="#000000" fill-rule="nonzero" fill-opacity="1" /><path clip-path="url(#clip820)" d="M1702.56 1333.45 L1706.65 1333.45 L1706.65 1363.69 L1702.56 1363.69 L1702.56 1333.45 Z" fill="#000000" fill-rule="nonzero" fill-opacity="1" /><path clip-path="url(#clip820)" d="M1714.63 1341.01 L1718.36 1341.01 L1718.36 1363.69 L1714.63 1363.69 L1714.63 1341.01 M1714.63 1332.18 L1718.36 1332.18 L1718.36 1336.9 L1714.63 1336.9 L1714.63 1332.18 Z" fill="#000000" fill-rule="nonzero" fill-opacity="1" /><path clip-path="url(#clip820)" d="M1140.96 934.928 Q1137.8 934.928 1136.2 938.047 Q1134.62 941.146 1134.62 947.385 Q1134.62 953.603 1136.2 956.722 Q1137.8 959.821 1140.96 959.821 Q1144.14 959.821 1145.72 956.722 Q1147.32 953.603 1147.32 947.385 Q1147.32 941.146 1145.72 938.047 Q1144.14 934.928 1140.96 934.928 M1140.96 931.687 Q1146.04 931.687 1148.71 935.718 Q1151.41 939.728 1151.41 947.385 Q1151.41 955.021 1148.71 959.051 Q1146.04 963.062 1140.96 963.062 Q1135.87 963.062 1133.18 959.051 Q1130.51 955.021 1130.51 947.385 Q1130.51 939.728 1133.18 935.718 Q1135.87 931.687 1140.96 931.687 Z" fill="#000000" fill-rule="nonzero" fill-opacity="1" /><path clip-path="url(#clip820)" d="M1472.89 611.375 L1479.57 611.375 L1479.57 588.305 L1472.3 589.764 L1472.3 586.037 L1479.53 584.579 L1483.63 584.579 L1483.63 611.375 L1490.31 611.375 L1490.31 614.819 L1472.89 614.819 L1472.89 611.375 Z" fill="#000000" fill-rule="nonzero" fill-opacity="1" /><path clip-path="url(#clip820)" d="M1549.6 1139.66 L1556.28 1139.66 L1556.28 1116.6 L1549.01 1118.05 L1549.01 1114.33 L1556.24 1112.87 L1560.33 1112.87 L1560.33 1139.66 L1567.02 1139.66 L1567.02 1143.11 L1549.6 1143.11 L1549.6 1139.66 Z" fill="#000000" fill-rule="nonzero" fill-opacity="1" /><path clip-path="url(#clip820)" d="M900.53 983.337 L917.908 983.337 L917.908 986.78 L904.621 986.78 L904.621 995.692 L916.612 995.692 L916.612 999.135 L904.621 999.135 L904.621 1013.58 L900.53 1013.58 L900.53 983.337 Z" fill="#000000" fill-rule="nonzero" fill-opacity="1" /><path clip-path="url(#clip820)" d="M1284.33 1165.8 L1302.04 1165.8 L1302.04 1169.2 L1288.02 1185.51 L1302.04 1185.51 L1302.04 1188.48 L1283.83 1188.48 L1283.83 1185.08 L1297.84 1168.77 L1284.33 1168.77 L1284.33 1165.8 Z" fill="#000000" fill-rule="nonzero" fill-opacity="1" /><path clip-path="url(#clip820)" d="M1314.35 1158.24 L1317.79 1158.24 L1307.26 1192.33 L1303.82 1192.33 L1314.35 1158.24 Z" fill="#000000" fill-rule="nonzero" fill-opacity="1" /><path clip-path="url(#clip820)" d="M1325.75 1185.04 L1340.03 1185.04 L1340.03 1188.48 L1320.83 1188.48 L1320.83 1185.04 Q1323.16 1182.63 1327.17 1178.58 Q1331.2 1174.51 1332.24 1173.33 Q1334.2 1171.12 1334.97 1169.61 Q1335.76 1168.07 1335.76 1166.59 Q1335.76 1164.18 1334.06 1162.66 Q1332.38 1161.14 1329.66 1161.14 Q1327.74 1161.14 1325.59 1161.81 Q1323.47 1162.48 1321.04 1163.83 L1321.04 1159.7 Q1323.51 1158.71 1325.65 1158.2 Q1327.8 1157.7 1329.58 1157.7 Q1334.28 1157.7 1337.08 1160.05 Q1339.87 1162.39 1339.87 1166.32 Q1339.87 1168.19 1339.16 1169.87 Q1338.47 1171.53 1336.63 1173.8 Q1336.13 1174.39 1333.41 1177.2 Q1330.7 1180 1325.75 1185.04 Z" fill="#000000" fill-rule="nonzero" fill-opacity="1" /><path clip-path="url(#clip820)" d="M1202.26 664.401 L1213.18 664.401 L1213.18 667.723 L1202.26 667.723 L1202.26 664.401 Z" fill="#000000" fill-rule="nonzero" fill-opacity="1" /><path clip-path="url(#clip820)" d="M1217.49 654.739 L1235.19 654.739 L1235.19 658.142 L1221.18 674.447 L1235.19 674.447 L1235.19 677.424 L1216.98 677.424 L1216.98 674.022 L1231 657.717 L1217.49 657.717 L1217.49 654.739 Z" fill="#000000" fill-rule="nonzero" fill-opacity="1" /><path clip-path="url(#clip820)" d="M1247.51 647.184 L1250.95 647.184 L1240.42 681.273 L1236.97 681.273 L1247.51 647.184 Z" fill="#000000" fill-rule="nonzero" fill-opacity="1" /><path clip-path="url(#clip820)" d="M1258.91 673.981 L1273.19 673.981 L1273.19 677.424 L1253.99 677.424 L1253.99 673.981 Q1256.32 671.571 1260.33 667.52 Q1264.36 663.449 1265.39 662.274 Q1267.36 660.066 1268.13 658.547 Q1268.92 657.008 1268.92 655.529 Q1268.92 653.119 1267.21 651.6 Q1265.53 650.081 1262.82 650.081 Q1260.9 650.081 1258.75 650.749 Q1256.62 651.418 1254.19 652.775 L1254.19 648.643 Q1256.66 647.65 1258.81 647.144 Q1260.96 646.638 1262.74 646.638 Q1267.44 646.638 1270.23 648.987 Q1273.03 651.337 1273.03 655.266 Q1273.03 657.129 1272.32 658.811 Q1271.63 660.471 1269.79 662.74 Q1269.28 663.327 1266.57 666.143 Q1263.85 668.938 1258.91 673.981 Z" fill="#000000" fill-rule="nonzero" fill-opacity="1" /><path clip-path="url(#clip820)" d="M1600.67 848.886 L1600.67 860.917 L1596.93 860.917 L1596.93 829.604 L1600.67 829.604 L1600.67 833.047 Q1601.85 831.022 1603.63 830.049 Q1605.43 829.057 1607.92 829.057 Q1612.06 829.057 1614.63 832.338 Q1617.22 835.619 1617.22 840.967 Q1617.22 846.314 1614.63 849.595 Q1612.06 852.876 1607.92 852.876 Q1605.43 852.876 1603.63 851.904 Q1601.85 850.912 1600.67 848.886 M1613.35 840.967 Q1613.35 836.855 1611.65 834.526 Q1609.97 832.176 1607.01 832.176 Q1604.05 832.176 1602.35 834.526 Q1600.67 836.855 1600.67 840.967 Q1600.67 845.078 1602.35 847.428 Q1604.05 849.757 1607.01 849.757 Q1609.97 849.757 1611.65 847.428 Q1613.35 845.078 1613.35 840.967 Z" fill="#000000" fill-rule="nonzero" fill-opacity="1" /><path clip-path="url(#clip820)" d="M1632.19 832.217 Q1629.19 832.217 1627.45 834.566 Q1625.71 836.895 1625.71 840.967 Q1625.71 845.038 1627.43 847.387 Q1629.17 849.717 1632.19 849.717 Q1635.17 849.717 1636.91 847.367 Q1638.65 845.018 1638.65 840.967 Q1638.65 836.936 1636.91 834.586 Q1635.17 832.217 1632.19 832.217 M1632.19 829.057 Q1637.05 829.057 1639.82 832.217 Q1642.6 835.376 1642.6 840.967 Q1642.6 846.537 1639.82 849.717 Q1637.05 852.876 1632.19 852.876 Q1627.31 852.876 1624.53 849.717 Q1621.78 846.537 1621.78 840.967 Q1621.78 835.376 1624.53 832.217 Q1627.31 829.057 1632.19 829.057 Z" fill="#000000" fill-rule="nonzero" fill-opacity="1" /><path clip-path="url(#clip820)" d="M1661.92 833.088 Q1661.29 832.723 1660.54 832.561 Q1659.82 832.379 1658.92 832.379 Q1655.76 832.379 1654.06 834.445 Q1652.38 836.49 1652.38 840.339 L1652.38 852.289 L1648.63 852.289 L1648.63 829.604 L1652.38 829.604 L1652.38 833.128 Q1653.56 831.062 1655.44 830.07 Q1657.32 829.057 1660.02 829.057 Q1660.4 829.057 1660.87 829.118 Q1661.33 829.158 1661.9 829.26 L1661.92 833.088 Z" fill="#000000" fill-rule="nonzero" fill-opacity="1" /><path clip-path="url(#clip820)" d="M1684.32 840.015 L1684.32 841.838 L1667.19 841.838 Q1667.43 845.686 1669.5 847.711 Q1671.58 849.717 1675.29 849.717 Q1677.44 849.717 1679.44 849.19 Q1681.47 848.663 1683.45 847.61 L1683.45 851.134 Q1681.45 851.985 1679.34 852.431 Q1677.23 852.876 1675.07 852.876 Q1669.64 852.876 1666.46 849.717 Q1663.3 846.557 1663.3 841.169 Q1663.3 835.599 1666.3 832.338 Q1669.31 829.057 1674.42 829.057 Q1679 829.057 1681.65 832.014 Q1684.32 834.951 1684.32 840.015 M1680.6 838.921 Q1680.56 835.863 1678.87 834.04 Q1677.21 832.217 1674.46 832.217 Q1671.34 832.217 1669.46 833.979 Q1667.59 835.741 1667.31 838.941 L1680.6 838.921 Z" fill="#000000" fill-rule="nonzero" fill-opacity="1" /></svg>
