<?xml version="1.0" encoding="utf-8"?>
<svg xmlns="http://www.w3.org/2000/svg" xmlns:xlink="http://www.w3.org/1999/xlink" width="600" height="400" viewBox="0 0 2400 1600">
<defs>
  <clipPath id="clip180">
    <rect x="0" y="0" width="2400" height="1600"/>
  </clipPath>
</defs>
<path clip-path="url(#clip180)" d="M0 1600 L2400 1600 L2400 0 L0 0  Z" fill="#ffffff" fill-rule="evenodd" fill-opacity="1"/>
<defs>
  <clipPath id="clip181">
    <rect x="480" y="0" width="1681" height="1600"/>
  </clipPath>
</defs>
<path clip-path="url(#clip180)" d="M485.358 1552.76 L1914.64 1552.76 L1914.64 123.472 L485.358 123.472  Z" fill="#ffffff" fill-rule="evenodd" fill-opacity="1"/>
<defs>
  <clipPath id="clip182">
    <rect x="485" y="123" width="1430" height="1430"/>
  </clipPath>
</defs>
<path clip-path="url(#clip180)" d="M1031.32 44.2197 Q1033.95 45.1109 1036.42 48.0275 Q1038.94 50.9442 1041.45 56.0483 L1049.75 72.576 L1040.96 72.576 L1033.22 57.061 Q1030.23 50.9847 1027.39 48.9997 Q1024.6 47.0148 1019.73 47.0148 L1010.82 47.0148 L1010.82 72.576 L1002.64 72.576 L1002.64 12.096 L1021.11 12.096 Q1031.48 12.096 1036.59 16.4305 Q1041.69 20.7649 1041.69 29.5149 Q1041.69 35.2267 1039.02 38.994 Q1036.38 42.7613 1031.32 44.2197 M1010.82 18.8205 L1010.82 40.2903 L1021.11 40.2903 Q1027.03 40.2903 1030.02 37.5762 Q1033.06 34.8216 1033.06 29.5149 Q1033.06 24.2082 1030.02 21.5346 Q1027.03 18.8205 1021.11 18.8205 L1010.82 18.8205 Z" fill="#000000" fill-rule="nonzero" fill-opacity="1" /><path clip-path="url(#clip180)" d="M1101.44 16.7545 L1101.44 25.383 Q1097.31 21.5346 1092.61 19.6307 Q1087.95 17.7268 1082.69 17.7268 Q1072.32 17.7268 1066.81 24.0867 Q1061.3 30.4061 1061.3 42.3968 Q1061.3 54.3469 1066.81 60.7069 Q1072.32 67.0263 1082.69 67.0263 Q1087.95 67.0263 1092.61 65.1223 Q1097.31 63.2184 1101.44 59.3701 L1101.44 67.9175 Q1097.15 70.8341 1092.33 72.2924 Q1087.55 73.7508 1082.2 73.7508 Q1068.47 73.7508 1060.57 65.3654 Q1052.67 56.9395 1052.67 42.3968 Q1052.67 27.8135 1060.57 19.4281 Q1068.47 11.0023 1082.2 11.0023 Q1087.63 11.0023 1092.41 12.4606 Q1097.23 13.8784 1101.44 16.7545 Z" fill="#000000" fill-rule="nonzero" fill-opacity="1" /><path clip-path="url(#clip180)" d="M1185.74 16.7545 L1185.74 25.383 Q1181.61 21.5346 1176.91 19.6307 Q1172.25 17.7268 1166.99 17.7268 Q1156.61 17.7268 1151.11 24.0867 Q1145.6 30.4061 1145.6 42.3968 Q1145.6 54.3469 1151.11 60.7069 Q1156.61 67.0263 1166.99 67.0263 Q1172.25 67.0263 1176.91 65.1223 Q1181.61 63.2184 1185.74 59.3701 L1185.74 67.9175 Q1181.45 70.8341 1176.63 72.2924 Q1171.85 73.7508 1166.5 73.7508 Q1152.77 73.7508 1144.87 65.3654 Q1136.97 56.9395 1136.97 42.3968 Q1136.97 27.8135 1144.87 19.4281 Q1152.77 11.0023 1166.5 11.0023 Q1171.93 11.0023 1176.71 12.4606 Q1181.53 13.8784 1185.74 16.7545 Z" fill="#000000" fill-rule="nonzero" fill-opacity="1" /><path clip-path="url(#clip180)" d="M1198.06 27.2059 L1205.51 27.2059 L1205.51 72.576 L1198.06 72.576 L1198.06 27.2059 M1198.06 9.54393 L1205.51 9.54393 L1205.51 18.9825 L1198.06 18.9825 L1198.06 9.54393 Z" fill="#000000" fill-rule="nonzero" fill-opacity="1" /><path clip-path="url(#clip180)" d="M1247.4 34.1734 Q1246.14 33.4443 1244.64 33.1202 Q1243.18 32.7556 1241.4 32.7556 Q1235.08 32.7556 1231.68 36.8875 Q1228.32 40.9789 1228.32 48.6757 L1228.32 72.576 L1220.82 72.576 L1220.82 27.2059 L1228.32 27.2059 L1228.32 34.2544 Q1230.67 30.1225 1234.43 28.1376 Q1238.2 26.1121 1243.59 26.1121 Q1244.36 26.1121 1245.29 26.2337 Q1246.22 26.3147 1247.36 26.5172 L1247.4 34.1734 Z" fill="#000000" fill-rule="nonzero" fill-opacity="1" /><path clip-path="url(#clip180)" d="M1286.04 28.9478 L1286.04 35.9153 Q1282.88 34.1734 1279.68 33.3227 Q1276.52 32.4315 1273.28 32.4315 Q1266.03 32.4315 1262.02 37.0496 Q1258.01 41.6271 1258.01 49.9314 Q1258.01 58.2358 1262.02 62.8538 Q1266.03 67.4314 1273.28 67.4314 Q1276.52 67.4314 1279.68 66.5807 Q1282.88 65.6895 1286.04 63.9476 L1286.04 70.8341 Q1282.92 72.2924 1279.56 73.0216 Q1276.24 73.7508 1272.47 73.7508 Q1262.22 73.7508 1256.19 67.3098 Q1250.15 60.8689 1250.15 49.9314 Q1250.15 38.832 1256.23 32.472 Q1262.34 26.1121 1272.96 26.1121 Q1276.4 26.1121 1279.68 26.8413 Q1282.96 27.5299 1286.04 28.9478 Z" fill="#000000" fill-rule="nonzero" fill-opacity="1" /><path clip-path="url(#clip180)" d="M1298.23 54.671 L1298.23 27.2059 L1305.69 27.2059 L1305.69 54.3874 Q1305.69 60.8284 1308.2 64.0691 Q1310.71 67.2693 1315.73 67.2693 Q1321.77 67.2693 1325.25 63.421 Q1328.78 59.5726 1328.78 52.9291 L1328.78 27.2059 L1336.23 27.2059 L1336.23 72.576 L1328.78 72.576 L1328.78 65.6084 Q1326.06 69.7404 1322.46 71.7658 Q1318.89 73.7508 1314.15 73.7508 Q1306.34 73.7508 1302.29 68.8897 Q1298.23 64.0286 1298.23 54.671 M1316.99 26.1121 L1316.99 26.1121 Z" fill="#000000" fill-rule="nonzero" fill-opacity="1" /><path clip-path="url(#clip180)" d="M1351.58 27.2059 L1359.04 27.2059 L1359.04 72.576 L1351.58 72.576 L1351.58 27.2059 M1351.58 9.54393 L1359.04 9.54393 L1359.04 18.9825 L1351.58 18.9825 L1351.58 9.54393 Z" fill="#000000" fill-rule="nonzero" fill-opacity="1" /><path clip-path="url(#clip180)" d="M1382.01 14.324 L1382.01 27.2059 L1397.36 27.2059 L1397.36 32.9987 L1382.01 32.9987 L1382.01 57.6282 Q1382.01 63.1779 1383.51 64.7578 Q1385.05 66.3376 1389.7 66.3376 L1397.36 66.3376 L1397.36 72.576 L1389.7 72.576 Q1381.08 72.576 1377.79 69.3758 Q1374.51 66.1351 1374.51 57.6282 L1374.51 32.9987 L1369.04 32.9987 L1369.04 27.2059 L1374.51 27.2059 L1374.51 14.324 L1382.01 14.324 Z" fill="#000000" fill-rule="nonzero" fill-opacity="1" /><polyline clip-path="url(#clip182)" style="stroke:#000000; stroke-linecap:round; stroke-linejoin:round; stroke-width:4; stroke-opacity:1; fill:none" points="995.045,327.656 1120.32,900.146 "/>
<polyline clip-path="url(#clip182)" style="stroke:#000000; stroke-linecap:round; stroke-linejoin:round; stroke-width:4; stroke-opacity:1; fill:none" points="1130.21,861.13 1120.32,900.146 1095.04,868.826 "/>
<polyline clip-path="url(#clip182)" style="stroke:#000000; stroke-linecap:round; stroke-linejoin:round; stroke-width:4; stroke-opacity:1; fill:none" points="1120.32,900.146 995.045,327.656 "/>
<polyline clip-path="url(#clip182)" style="stroke:#000000; stroke-linecap:round; stroke-linejoin:round; stroke-width:4; stroke-opacity:1; fill:none" points="1710.46,1107.56 1158.47,941.463 "/>
<polyline clip-path="url(#clip182)" style="stroke:#000000; stroke-linecap:round; stroke-linejoin:round; stroke-width:4; stroke-opacity:1; fill:none" points="1187.76,969.073 1158.47,941.463 1198.13,934.6 "/>
<polyline clip-path="url(#clip182)" style="stroke:#000000; stroke-linecap:round; stroke-linejoin:round; stroke-width:4; stroke-opacity:1; fill:none" points="1158.47,941.463 1710.46,1107.56 "/>
<polyline clip-path="url(#clip182)" style="stroke:#000000; stroke-linecap:round; stroke-linejoin:round; stroke-width:4; stroke-opacity:1; fill:none" points="689.542,1348.57 1106.82,944.745 "/>
<polyline clip-path="url(#clip182)" style="stroke:#000000; stroke-linecap:round; stroke-linejoin:round; stroke-width:4; stroke-opacity:1; fill:none" points="1068.43,956.846 1106.82,944.745 1093.47,982.715 "/>
<polyline clip-path="url(#clip182)" style="stroke:#000000; stroke-linecap:round; stroke-linejoin:round; stroke-width:4; stroke-opacity:1; fill:none" points="1106.82,944.745 689.542,1348.57 "/>
<path clip-path="url(#clip182)" d="M1740.47 1107.56 L1740.38 1105.17 L1740.09 1102.8 L1739.62 1100.46 L1738.97 1098.17 L1738.13 1095.93 L1737.12 1093.77 L1735.94 1091.7 L1734.6 1089.72 L1733.11 1087.86 L1731.47 1086.12 L1729.7 1084.52 L1727.81 1083.06 L1725.81 1081.76 L1723.71 1080.63 L1721.53 1079.66 L1719.28 1078.87 L1716.97 1078.26 L1714.62 1077.83 L1712.25 1077.59 L1709.86 1077.55 L1707.48 1077.69 L1705.12 1078.02 L1702.79 1078.54 L1700.5 1079.24 L1698.29 1080.12 L1696.15 1081.17 L1694.09 1082.39 L1692.15 1083.77 L1690.32 1085.3 L1688.61 1086.97 L1687.05 1088.78 L1685.63 1090.69 L1684.37 1092.72 L1683.27 1094.84 L1682.35 1097.04 L1681.6 1099.31 L1681.03 1101.63 L1680.66 1103.98 L1680.47 1106.36 L1680.47 1108.75 L1680.66 1111.13 L1681.03 1113.48 L1681.6 1115.8 L1682.35 1118.07 L1683.27 1120.27 L1684.37 1122.39 L1685.63 1124.42 L1687.05 1126.34 L1688.61 1128.14 L1690.32 1129.81 L1692.15 1131.34 L1694.09 1132.72 L1696.15 1133.94 L1698.29 1134.99 L1700.5 1135.87 L1702.79 1136.57 L1705.12 1137.09 L1707.48 1137.42 L1709.86 1137.56 L1712.25 1137.52 L1714.62 1137.28 L1716.97 1136.86 L1719.28 1136.25 L1721.53 1135.45 L1723.71 1134.49 L1725.81 1133.35 L1727.81 1132.05 L1729.7 1130.59 L1731.47 1128.99 L1733.11 1127.25 L1734.6 1125.39 L1735.94 1123.42 L1737.12 1121.34 L1738.13 1119.18 L1738.97 1116.94 L1739.62 1114.65 L1740.09 1112.31 L1740.38 1109.94 L1740.47 1107.56 L1740.47 1107.56  Z" fill="#add8e6" fill-rule="evenodd" fill-opacity="1"/>
<polyline clip-path="url(#clip182)" style="stroke:#000000; stroke-linecap:round; stroke-linejoin:round; stroke-width:4; stroke-opacity:1; fill:none" points="1740.47,1107.56 1740.38,1105.17 1740.09,1102.8 1739.62,1100.46 1738.97,1098.17 1738.13,1095.93 1737.12,1093.77 1735.94,1091.7 1734.6,1089.72 1733.11,1087.86 1731.47,1086.12 1729.7,1084.52 1727.81,1083.06 1725.81,1081.76 1723.71,1080.63 1721.53,1079.66 1719.28,1078.87 1716.97,1078.26 1714.62,1077.83 1712.25,1077.59 1709.86,1077.55 1707.48,1077.69 1705.12,1078.02 1702.79,1078.54 1700.5,1079.24 1698.29,1080.12 1696.15,1081.17 1694.09,1082.39 1692.15,1083.77 1690.32,1085.3 1688.61,1086.97 1687.05,1088.78 1685.63,1090.69 1684.37,1092.72 1683.27,1094.84 1682.35,1097.04 1681.6,1099.31 1681.03,1101.63 1680.66,1103.98 1680.47,1106.36 1680.47,1108.75 1680.66,1111.13 1681.03,1113.48 1681.6,1115.8 1682.35,1118.07 1683.27,1120.27 1684.37,1122.39 1685.63,1124.42 1687.05,1126.34 1688.61,1128.14 1690.32,1129.81 1692.15,1131.34 1694.09,1132.72 1696.15,1133.94 1698.29,1134.99 1700.5,1135.87 1702.79,1136.57 1705.12,1137.09 1707.48,1137.42 1709.86,1137.56 1712.25,1137.52 1714.62,1137.28 1716.97,1136.86 1719.28,1136.25 1721.53,1135.45 1723.71,1134.49 1725.81,1133.35 1727.81,1132.05 1729.7,1130.59 1731.47,1128.99 1733.11,1127.25 1734.6,1125.39 1735.94,1123.42 1737.12,1121.34 1738.13,1119.18 1738.97,1116.94 1739.62,1114.65 1740.09,1112.31 1740.38,1109.94 1740.47,1107.56 "/>
<path clip-path="url(#clip182)" d="M1025.06 327.656 L1024.96 325.271 L1024.68 322.901 L1024.21 320.562 L1023.55 318.267 L1022.72 316.032 L1021.71 313.87 L1020.53 311.795 L1019.19 309.821 L1017.69 307.959 L1016.06 306.222 L1014.29 304.62 L1012.4 303.164 L1010.4 301.863 L1008.3 300.725 L1006.12 299.757 L1003.86 298.966 L1001.56 298.356 L999.209 297.931 L996.834 297.694 L994.448 297.646 L992.066 297.789 L989.702 298.12 L987.372 298.638 L985.091 299.339 L982.873 300.219 L980.732 301.273 L978.681 302.494 L976.733 303.873 L974.902 305.403 L973.197 307.074 L971.631 308.875 L970.213 310.794 L968.952 312.821 L967.856 314.941 L966.932 317.141 L966.185 319.408 L965.621 321.727 L965.243 324.083 L965.053 326.462 L965.053 328.849 L965.243 331.228 L965.621 333.584 L966.185 335.903 L966.932 338.17 L967.856 340.37 L968.952 342.49 L970.213 344.517 L971.631 346.436 L973.197 348.237 L974.902 349.908 L976.733 351.438 L978.681 352.817 L980.732 354.038 L982.873 355.092 L985.091 355.972 L987.372 356.673 L989.702 357.191 L992.066 357.522 L994.448 357.665 L996.834 357.617 L999.209 357.38 L1001.56 356.955 L1003.86 356.345 L1006.12 355.554 L1008.3 354.586 L1010.4 353.448 L1012.4 352.147 L1014.29 350.691 L1016.06 349.089 L1017.69 347.352 L1019.19 345.49 L1020.53 343.516 L1021.71 341.441 L1022.72 339.279 L1023.55 337.044 L1024.21 334.749 L1024.68 332.41 L1024.96 330.04 L1025.06 327.656 L1025.06 327.656  Z" fill="#add8e6" fill-rule="evenodd" fill-opacity="1"/>
<polyline clip-path="url(#clip182)" style="stroke:#000000; stroke-linecap:round; stroke-linejoin:round; stroke-width:4; stroke-opacity:1; fill:none" points="1025.06,327.656 1024.96,325.271 1024.68,322.901 1024.21,320.562 1023.55,318.267 1022.72,316.032 1021.71,313.87 1020.53,311.795 1019.19,309.821 1017.69,307.959 1016.06,306.222 1014.29,304.62 1012.4,303.164 1010.4,301.863 1008.3,300.725 1006.12,299.757 1003.86,298.966 1001.56,298.356 999.209,297.931 996.834,297.694 994.448,297.646 992.066,297.789 989.702,298.12 987.372,298.638 985.091,299.339 982.873,300.219 980.732,301.273 978.681,302.494 976.733,303.873 974.902,305.403 973.197,307.074 971.631,308.875 970.213,310.794 968.952,312.821 967.856,314.941 966.932,317.141 966.185,319.408 965.621,321.727 965.243,324.083 965.053,326.462 965.053,328.849 965.243,331.228 965.621,333.584 966.185,335.903 966.932,338.17 967.856,340.37 968.952,342.49 970.213,344.517 971.631,346.436 973.197,348.237 974.902,349.908 976.733,351.438 978.681,352.817 980.732,354.038 982.873,355.092 985.091,355.972 987.372,356.673 989.702,357.191 992.066,357.522 994.448,357.665 996.834,357.617 999.209,357.38 1001.56,356.955 1003.86,356.345 1006.12,355.554 1008.3,354.586 1010.4,353.448 1012.4,352.147 1014.29,350.691 1016.06,349.089 1017.69,347.352 1019.19,345.49 1020.53,343.516 1021.71,341.441 1022.72,339.279 1023.55,337.044 1024.21,334.749 1024.68,332.41 1024.96,330.04 1025.06,327.656 "/>
<path clip-path="url(#clip182)" d="M1161.7 927.928 L1161.6 925.543 L1161.32 923.174 L1160.85 920.834 L1160.19 918.539 L1159.35 916.304 L1158.34 914.142 L1157.16 912.067 L1155.82 910.093 L1154.33 908.231 L1152.69 906.494 L1150.92 904.893 L1149.03 903.437 L1147.03 902.135 L1144.93 900.997 L1142.75 900.03 L1140.5 899.238 L1138.19 898.628 L1135.85 898.203 L1133.47 897.966 L1131.08 897.919 L1128.7 898.061 L1126.34 898.392 L1124.01 898.91 L1121.73 899.611 L1119.51 900.492 L1117.37 901.546 L1115.32 902.766 L1113.37 904.146 L1111.54 905.676 L1109.83 907.347 L1108.27 909.147 L1106.85 911.067 L1105.59 913.093 L1104.49 915.213 L1103.57 917.413 L1102.82 919.68 L1102.26 921.999 L1101.88 924.356 L1101.69 926.735 L1101.69 929.121 L1101.88 931.5 L1102.26 933.857 L1102.82 936.176 L1103.57 938.443 L1104.49 940.643 L1105.59 942.763 L1106.85 944.789 L1108.27 946.709 L1109.83 948.509 L1111.54 950.18 L1113.37 951.71 L1115.32 953.09 L1117.37 954.31 L1119.51 955.364 L1121.73 956.244 L1124.01 956.946 L1126.34 957.464 L1128.7 957.795 L1131.08 957.937 L1133.47 957.89 L1135.85 957.653 L1138.19 957.228 L1140.5 956.618 L1142.75 955.826 L1144.93 954.859 L1147.03 953.72 L1149.03 952.419 L1150.92 950.963 L1152.69 949.362 L1154.33 947.625 L1155.82 945.763 L1157.16 943.788 L1158.34 941.714 L1159.35 939.552 L1160.19 937.317 L1160.85 935.022 L1161.32 932.682 L1161.6 930.313 L1161.7 927.928 L1161.7 927.928  Z" fill="#ffffff" fill-rule="evenodd" fill-opacity="1"/>
<polyline clip-path="url(#clip182)" style="stroke:#000000; stroke-linecap:round; stroke-linejoin:round; stroke-width:4; stroke-opacity:1; fill:none" points="1161.7,927.928 1161.6,925.543 1161.32,923.174 1160.85,920.834 1160.19,918.539 1159.35,916.304 1158.34,914.142 1157.16,912.067 1155.82,910.093 1154.33,908.231 1152.69,906.494 1150.92,904.893 1149.03,903.437 1147.03,902.135 1144.93,900.997 1142.75,900.03 1140.5,899.238 1138.19,898.628 1135.85,898.203 1133.47,897.966 1131.08,897.919 1128.7,898.061 1126.34,898.392 1124.01,898.91 1121.73,899.611 1119.51,900.492 1117.37,901.546 1115.32,902.766 1113.37,904.146 1111.54,905.676 1109.83,907.347 1108.27,909.147 1106.85,911.067 1105.59,913.093 1104.49,915.213 1103.57,917.413 1102.82,919.68 1102.26,921.999 1101.88,924.356 1101.69,926.735 1101.69,929.121 1101.88,931.5 1102.26,933.857 1102.82,936.176 1103.57,938.443 1104.49,940.643 1105.59,942.763 1106.85,944.789 1108.27,946.709 1109.83,948.509 1111.54,950.18 1113.37,951.71 1115.32,953.09 1117.37,954.31 1119.51,955.364 1121.73,956.244 1124.01,956.946 1126.34,957.464 1128.7,957.795 1131.08,957.937 1133.47,957.89 1135.85,957.653 1138.19,957.228 1140.5,956.618 1142.75,955.826 1144.93,954.859 1147.03,953.72 1149.03,952.419 1150.92,950.963 1152.69,949.362 1154.33,947.625 1155.82,945.763 1157.16,943.788 1158.34,941.714 1159.35,939.552 1160.19,937.317 1160.85,935.022 1161.32,932.682 1161.6,930.313 1161.7,927.928 "/>
<path clip-path="url(#clip182)" d="M741.801 1348.57 L741.635 1344.42 L741.141 1340.29 L740.32 1336.22 L739.178 1332.23 L737.723 1328.33 L735.962 1324.57 L733.909 1320.96 L731.574 1317.52 L728.974 1314.28 L726.125 1311.25 L723.044 1308.47 L719.752 1305.93 L716.269 1303.67 L712.616 1301.68 L708.818 1300 L704.898 1298.62 L700.881 1297.56 L696.792 1296.82 L692.657 1296.41 L688.502 1296.32 L684.355 1296.57 L680.24 1297.15 L676.183 1298.05 L672.211 1299.27 L668.349 1300.8 L664.621 1302.64 L661.05 1304.76 L657.66 1307.17 L654.471 1309.83 L651.503 1312.74 L648.776 1315.87 L646.307 1319.22 L644.112 1322.74 L642.203 1326.43 L640.594 1330.27 L639.294 1334.21 L638.312 1338.25 L637.654 1342.35 L637.324 1346.49 L637.324 1350.65 L637.654 1354.79 L638.312 1358.9 L639.294 1362.93 L640.594 1366.88 L642.203 1370.71 L644.112 1374.4 L646.307 1377.93 L648.776 1381.27 L651.503 1384.41 L654.471 1387.32 L657.66 1389.98 L661.05 1392.38 L664.621 1394.51 L668.349 1396.34 L672.211 1397.87 L676.183 1399.1 L680.24 1400 L684.355 1400.57 L688.502 1400.82 L692.657 1400.74 L696.792 1400.33 L700.881 1399.59 L704.898 1398.52 L708.818 1397.15 L712.616 1395.46 L716.269 1393.48 L719.752 1391.21 L723.044 1388.68 L726.125 1385.89 L728.974 1382.87 L731.574 1379.62 L733.909 1376.19 L735.962 1372.57 L737.723 1368.81 L739.178 1364.92 L740.32 1360.92 L741.141 1356.85 L741.635 1352.72 L741.801 1348.57 L741.801 1348.57  Z" fill="#90ee90" fill-rule="evenodd" fill-opacity="1"/>
<polyline clip-path="url(#clip182)" style="stroke:#000000; stroke-linecap:round; stroke-linejoin:round; stroke-width:4; stroke-opacity:1; fill:none" points="741.801,1348.57 741.635,1344.42 741.141,1340.29 740.32,1336.22 739.178,1332.23 737.723,1328.33 735.962,1324.57 733.909,1320.96 731.574,1317.52 728.974,1314.28 726.125,1311.25 723.044,1308.47 719.752,1305.93 716.269,1303.67 712.616,1301.68 708.818,1300 704.898,1298.62 700.881,1297.56 696.792,1296.82 692.657,1296.41 688.502,1296.32 684.355,1296.57 680.24,1297.15 676.183,1298.05 672.211,1299.27 668.349,1300.8 664.621,1302.64 661.05,1304.76 657.66,1307.17 654.471,1309.83 651.503,1312.74 648.776,1315.87 646.307,1319.22 644.112,1322.74 642.203,1326.43 640.594,1330.27 639.294,1334.21 638.312,1338.25 637.654,1342.35 637.324,1346.49 637.324,1350.65 637.654,1354.79 638.312,1358.9 639.294,1362.93 640.594,1366.88 642.203,1370.71 644.112,1374.4 646.307,1377.93 648.776,1381.27 651.503,1384.41 654.471,1387.32 657.66,1389.98 661.05,1392.38 664.621,1394.51 668.349,1396.34 672.211,1397.87 676.183,1399.1 680.24,1400 684.355,1400.57 688.502,1400.82 692.657,1400.74 696.792,1400.33 700.881,1399.59 704.898,1398.52 708.818,1397.15 712.616,1395.46 716.269,1393.48 719.752,1391.21 723.044,1388.68 726.125,1385.89 728.974,1382.87 731.574,1379.62 733.909,1376.19 735.962,1372.57 737.723,1368.81 739.178,1364.92 740.32,1360.92 741.141,1356.85 741.635,1352.72 741.801,1348.57 "/>
<circle clip-path="url(#clip182)" style="fill:#90ee90; stroke:none; fill-opacity:0" cx="1710.46" cy="1107.56" r="2"/>
<circle clip-path="url(#clip182)" style="fill:#90ee90; stroke:none; fill-opacity:0" cx="995.045" cy="327.656" r="2"/>
<circle clip-path="url(#clip182)" style="fill:#90ee90; stroke:none; fill-opacity:0" cx="1131.68" cy="927.928" r="2"/>
<circle clip-path="url(#clip182)" style="fill:#90ee90; stroke:none; fill-opacity:0" cx="689.542" cy="1348.57" r="2"/>
<path clip-path="url(#clip180)" d="M1722.65 1094.76 L1722.65 1099.08 Q1720.59 1097.15 1718.24 1096.2 Q1715.91 1095.25 1713.27 1095.25 Q1708.09 1095.25 1705.33 1098.43 Q1702.58 1101.59 1702.58 1107.59 Q1702.58 1113.56 1705.33 1116.74 Q1708.09 1119.9 1713.27 1119.9 Q1715.91 1119.9 1718.24 1118.95 Q1720.59 1118 1722.65 1116.07 L1722.65 1120.35 Q1720.5 1121.8 1718.09 1122.53 Q1715.7 1123.26 1713.03 1123.26 Q1706.16 1123.26 1702.21 1119.07 Q1698.27 1114.86 1698.27 1107.59 Q1698.27 1100.29 1702.21 1096.1 Q1706.16 1091.89 1713.03 1091.89 Q1715.74 1091.89 1718.13 1092.62 Q1720.55 1093.33 1722.65 1094.76 Z" fill="#000000" fill-rule="nonzero" fill-opacity="1" /><path clip-path="url(#clip180)" d="M997.607 328.597 Q998.923 329.043 1000.16 330.501 Q1001.41 331.96 1002.67 334.512 L1006.82 342.776 L1002.43 342.776 L998.559 335.018 Q997.06 331.98 995.642 330.987 Q994.245 329.995 991.814 329.995 L987.358 329.995 L987.358 342.776 L983.267 342.776 L983.267 312.536 L992.503 312.536 Q997.688 312.536 1000.24 314.703 Q1002.79 316.87 1002.79 321.245 Q1002.79 324.101 1001.46 325.985 Q1000.14 327.868 997.607 328.597 M987.358 315.898 L987.358 326.633 L992.503 326.633 Q995.46 326.633 996.959 325.276 Q998.478 323.898 998.478 321.245 Q998.478 318.592 996.959 317.255 Q995.46 315.898 992.503 315.898 L987.358 315.898 Z" fill="#000000" fill-rule="nonzero" fill-opacity="1" /><path clip-path="url(#clip180)" d="M1131.68 915.502 Q1128.52 915.502 1126.92 918.621 Q1125.34 921.72 1125.34 927.958 Q1125.34 934.176 1126.92 937.296 Q1128.52 940.395 1131.68 940.395 Q1134.86 940.395 1136.44 937.296 Q1138.04 934.176 1138.04 927.958 Q1138.04 921.72 1136.44 918.621 Q1134.86 915.502 1131.68 915.502 M1131.68 912.261 Q1136.77 912.261 1139.44 916.292 Q1142.13 920.302 1142.13 927.958 Q1142.13 935.594 1139.44 939.625 Q1136.77 943.635 1131.68 943.635 Q1126.6 943.635 1123.9 939.625 Q1121.23 935.594 1121.23 927.958 Q1121.23 920.302 1123.9 916.292 Q1126.6 912.261 1131.68 912.261 Z" fill="#000000" fill-rule="nonzero" fill-opacity="1" /><path clip-path="url(#clip180)" d="M675.667 1333.45 L679.759 1333.45 L679.759 1363.69 L675.667 1363.69 L675.667 1333.45 Z" fill="#000000" fill-rule="nonzero" fill-opacity="1" /><path clip-path="url(#clip180)" d="M702.201 1341.68 L702.201 1345.2 Q700.621 1344.39 698.919 1343.98 Q697.218 1343.58 695.395 1343.58 Q692.62 1343.58 691.223 1344.43 Q689.845 1345.28 689.845 1346.98 Q689.845 1348.28 690.838 1349.03 Q691.83 1349.76 694.828 1350.43 L696.104 1350.71 Q700.074 1351.56 701.735 1353.12 Q703.416 1354.66 703.416 1357.43 Q703.416 1360.59 700.904 1362.44 Q698.413 1364.28 694.038 1364.28 Q692.215 1364.28 690.23 1363.92 Q688.265 1363.57 686.078 1362.86 L686.078 1359.01 Q688.144 1360.09 690.149 1360.63 Q692.154 1361.16 694.119 1361.16 Q696.752 1361.16 698.17 1360.27 Q699.588 1359.36 699.588 1357.72 Q699.588 1356.2 698.555 1355.39 Q697.542 1354.58 694.079 1353.83 L692.782 1353.52 Q689.319 1352.8 687.779 1351.3 Q686.24 1349.78 686.24 1347.14 Q686.24 1343.94 688.509 1342.2 Q690.777 1340.46 694.949 1340.46 Q697.015 1340.46 698.838 1340.76 Q700.661 1341.07 702.201 1341.68 Z" fill="#000000" fill-rule="nonzero" fill-opacity="1" /></svg>
