<?xml version="1.0" encoding="utf-8"?>
<svg xmlns="http://www.w3.org/2000/svg" xmlns:xlink="http://www.w3.org/1999/xlink" width="600" height="400" viewBox="0 0 2400 1600">
<defs>
  <clipPath id="clip060">
    <rect x="0" y="0" width="2400" height="1600"/>
  </clipPath>
</defs>
<path clip-path="url(#clip060)" d="M0 1600 L2400 1600 L2400 0 L0 0  Z" fill="#ffffff" fill-rule="evenodd" fill-opacity="1"/>
<defs>
  <clipPath id="clip061">
    <rect x="480" y="0" width="1681" height="1600"/>
  </clipPath>
</defs>
<path clip-path="url(#clip060)" d="M485.358 1552.76 L1914.64 1552.76 L1914.64 123.472 L485.358 123.472  Z" fill="#ffffff" fill-rule="evenodd" fill-opacity="1"/>
<defs>
  <clipPath id="clip062">
    <rect x="485" y="123" width="1430" height="1430"/>
  </clipPath>
</defs>
<path clip-path="url(#clip060)" d="M1031.32 44.2197 Q1033.95 45.1109 1036.42 48.0275 Q1038.94 50.9442 1041.45 56.0483 L1049.75 72.576 L1040.96 72.576 L1033.22 57.061 Q1030.23 50.9847 1027.39 48.9997 Q1024.6 47.0148 1019.73 47.0148 L1010.82 47.0148 L1010.82 72.576 L1002.64 72.576 L1002.64 12.096 L1021.11 12.096 Q1031.48 12.096 1036.59 16.4305 Q1041.69 20.7649 1041.69 29.5149 Q1041.69 35.2267 1039.02 38.994 Q1036.38 42.7613 1031.32 44.2197 M1010.82 18.8205 L1010.82 40.2903 L1021.11 40.2903 Q1027.03 40.2903 1030.02 37.5762 Q1033.06 34.8216 1033.06 29.5149 Q1033.06 24.2082 1030.02 21.5346 Q1027.03 18.8205 1021.11 18.8205 L1010.82 18.8205 Z" fill="#000000" fill-rule="nonzero" fill-opacity="1" /><path clip-path="url(#clip060)" d="M1101.44 16.7545 L1101.44 25.383 Q1097.31 21.5346 1092.61 19.6307 Q1087.95 17.7268 1082.69 17.7268 Q1072.32 17.7268 1066.81 24.0867 Q1061.3 30.4061 1061.3 42.3968 Q1061.3 54.3469 1066.81 60.7069 Q1072.32 67.0263 1082.69 67.0263 Q1087.95 67.0263 1092.61 65.1223 Q1097.31 63.2184 1101.44 59.3701 L1101.44 67.9175 Q1097.15 70.8341 1092.33 72.2924 Q1087.55 73.7508 1082.2 73.7508 Q1068.47 73.7508 1060.57 65.3654 Q1052.67 56.9395 1052.67 42.3968 Q1052.67 27.8135 1060.57 19.4281 Q1068.47 11.0023 1082.2 11.0023 Q1087.63 11.0023 1092.41 12.4606 Q1097.23 13.8784 1101.44 16.7545 Z" fill="#000000" fill-rule="nonzero" fill-opacity="1" /><path clip-path="url(#clip060)" d="M1185.74 16.7545 L1185.74 25.383 Q1181.61 21.5346 1176.91 19.6307 Q1172.25 17.7268 1166.99 17.7268 Q1156.61 17.7268 1151.11 24.0867 Q1145.6 30.4061 1145.6 42.3968 Q1145.6 54.3469 1151.11 60.7069 Q1156.61 67.0263 1166.99 67.0263 Q1172.25 67.0263 1176.91 65.1223 Q1181.61 63.2184 1185.74 59.3701 L1185.74 67.9175 Q1181.45 70.8341 1176.63 72.2924 Q1171.85 73.7508 1166.5 73.7508 Q1152.77 73.7508 1144.87 65.3654 Q1136.97 56.9395 1136.97 42.3968 Q1136.97 27.8135 1144.87 19.4281 Q1152.77 11.0023 1166.5 11.0023 Q1171.93 11.0023 1176.71 12.4606 Q1181.53 13.8784 1185.74 16.7545 Z" fill="#000000" fill-rule="nonzero" fill-opacity="1" /><path clip-path="url(#clip060)" d="M1198.06 27.2059 L1205.51 27.2059 L1205.51 72.576 L1198.06 72.576 L1198.06 27.2059 M1198.06 9.54393 L1205.51 9.54393 L1205.51 18.9825 L1198.06 18.9825 L1198.06 9.54393 Z" fill="#000000" fill-rule="nonzero" fill-opacity="1" /><path clip-path="url(#clip060)" d="M1247.4 34.1734 Q1246.14 33.4443 1244.64 33.1202 Q1243.18 32.7556 1241.4 32.7556 Q1235.08 32.7556 1231.68 36.8875 Q1228.32 40.9789 1228.32 48.6757 L1228.32 72.576 L1220.82 72.576 L1220.82 27.2059 L1228.32 27.2059 L1228.32 34.2544 Q1230.67 30.1225 1234.43 28.1376 Q1238.2 26.1121 1243.59 26.1121 Q1244.36 26.1121 1245.29 26.2337 Q1246.22 26.3147 1247.36 26.5172 L1247.4 34.1734 Z" fill="#000000" fill-rule="nonzero" fill-opacity="1" /><path clip-path="url(#clip060)" d="M1286.04 28.9478 L1286.04 35.9153 Q1282.88 34.1734 1279.68 33.3227 Q1276.52 32.4315 1273.28 32.4315 Q1266.03 32.4315 1262.02 37.0496 Q1258.01 41.6271 1258.01 49.9314 Q1258.01 58.2358 1262.02 62.8538 Q1266.03 67.4314 1273.28 67.4314 Q1276.52 67.4314 1279.68 66.5807 Q1282.88 65.6895 1286.04 63.9476 L1286.04 70.8341 Q1282.92 72.2924 1279.56 73.0216 Q1276.24 73.7508 1272.47 73.7508 Q1262.22 73.7508 1256.19 67.3098 Q1250.15 60.8689 1250.15 49.9314 Q1250.15 38.832 1256.23 32.472 Q1262.34 26.1121 1272.96 26.1121 Q1276.4 26.1121 1279.68 26.8413 Q1282.96 27.5299 1286.04 28.9478 Z" fill="#000000" fill-rule="nonzero" fill-opacity="1" /><path clip-path="url(#clip060)" d="M1298.23 54.671 L1298.23 27.2059 L1305.69 27.2059 L1305.69 54.3874 Q1305.69 60.8284 1308.2 64.0691 Q1310.71 67.2693 1315.73 67.2693 Q1321.77 67.2693 1325.25 63.421 Q1328.78 59.5726 1328.78 52.9291 L1328.78 27.2059 L1336.23 27.2059 L1336.23 72.576 L1328.78 72.576 L1328.78 65.6084 Q1326.06 69.7404 1322.46 71.7658 Q1318.89 73.7508 1314.15 73.7508 Q1306.34 73.7508 1302.29 68.8897 Q1298.23 64.0286 1298.23 54.671 M1316.99 26.1121 L1316.99 26.1121 Z" fill="#000000" fill-rule="nonzero" fill-opacity="1" /><path clip-path="url(#clip060)" d="M1351.58 27.2059 L1359.04 27.2059 L1359.04 72.576 L1351.58 72.576 L1351.58 27.2059 M1351.58 9.54393 L1359.04 9.54393 L1359.04 18.9825 L1351.58 18.9825 L1351.58 9.54393 Z" fill="#000000" fill-rule="nonzero" fill-opacity="1" /><path clip-path="url(#clip060)" d="M1382.01 14.324 L1382.01 27.2059 L1397.36 27.2059 L1397.36 32.9987 L1382.01 32.9987 L1382.01 57.6282 Q1382.01 63.1779 1383.51 64.7578 Q1385.05 66.3376 1389.7 66.3376 L1397.36 66.3376 L1397.36 72.576 L1389.7 72.576 Q1381.08 72.576 1377.79 69.3758 Q1374.51 66.1351 1374.51 57.6282 L1374.51 32.9987 L1369.04 32.9987 L1369.04 27.2059 L1374.51 27.2059 L1374.51 14.324 L1382.01 14.324 Z" fill="#000000" fill-rule="nonzero" fill-opacity="1" /><polyline clip-path="url(#clip062)" style="stroke:#000000; stroke-linecap:round; stroke-linejoin:round; stroke-width:4; stroke-opacity:1; fill:none" points="1710.46,1348.57 1227.76,839.931 "/>
<polyline clip-path="url(#clip062)" style="stroke:#000000; stroke-linecap:round; stroke-linejoin:round; stroke-width:4; stroke-opacity:1; fill:none" points="1239.48,878.434 1227.76,839.931 1265.59,853.653 "/>
<polyline clip-path="url(#clip062)" style="stroke:#000000; stroke-linecap:round; stroke-linejoin:round; stroke-width:4; stroke-opacity:1; fill:none" points="1227.76,839.931 1710.46,1348.57 "/>
<polyline clip-path="url(#clip062)" style="stroke:#000000; stroke-linecap:round; stroke-linejoin:round; stroke-width:4; stroke-opacity:1; fill:none" points="689.542,327.656 1175.81,788.371 "/>
<polyline clip-path="url(#clip062)" style="stroke:#000000; stroke-linecap:round; stroke-linejoin:round; stroke-width:4; stroke-opacity:1; fill:none" points="1162.06,750.544 1175.81,788.371 1137.3,776.677 "/>
<polyline clip-path="url(#clip062)" style="stroke:#000000; stroke-linecap:round; stroke-linejoin:round; stroke-width:4; stroke-opacity:1; fill:none" points="1175.81,788.371 689.542,327.656 "/>
<path clip-path="url(#clip062)" d="M726.703 327.656 L726.585 324.703 L726.234 321.769 L725.65 318.873 L724.838 316.032 L723.803 313.264 L722.551 310.587 L721.091 308.019 L719.431 305.574 L717.582 303.269 L715.556 301.119 L713.365 299.136 L711.024 297.333 L708.547 295.722 L705.95 294.313 L703.249 293.115 L700.461 292.135 L697.605 291.379 L694.697 290.854 L691.757 290.56 L688.803 290.501 L685.853 290.678 L682.927 291.088 L680.042 291.729 L677.218 292.597 L674.472 293.687 L671.82 294.992 L669.281 296.503 L666.87 298.211 L664.603 300.105 L662.493 302.174 L660.554 304.403 L658.798 306.78 L657.236 309.289 L655.879 311.913 L654.735 314.637 L653.811 317.444 L653.112 320.315 L652.644 323.233 L652.41 326.178 L652.41 329.133 L652.644 332.078 L653.112 334.996 L653.811 337.867 L654.735 340.674 L655.879 343.398 L657.236 346.023 L658.798 348.531 L660.554 350.908 L662.493 353.137 L664.603 355.206 L666.87 357.1 L669.281 358.808 L671.82 360.319 L674.472 361.624 L677.218 362.714 L680.042 363.582 L682.927 364.223 L685.853 364.633 L688.803 364.81 L691.757 364.751 L694.697 364.458 L697.605 363.932 L700.461 363.176 L703.249 362.196 L705.95 360.998 L708.547 359.589 L711.024 357.978 L713.365 356.175 L715.556 354.193 L717.582 352.042 L719.431 349.737 L721.091 347.292 L722.551 344.724 L723.803 342.047 L724.838 339.279 L725.65 336.438 L726.234 333.542 L726.585 330.608 L726.703 327.656 L726.703 327.656  Z" fill="#add8e6" fill-rule="evenodd" fill-opacity="1"/>
<polyline clip-path="url(#clip062)" style="stroke:#000000; stroke-linecap:round; stroke-linejoin:round; stroke-width:4; stroke-opacity:1; fill:none" points="726.703,327.656 726.585,324.703 726.234,321.769 725.65,318.873 724.838,316.032 723.803,313.264 722.551,310.587 721.091,308.019 719.431,305.574 717.582,303.269 715.556,301.119 713.365,299.136 711.024,297.333 708.547,295.722 705.95,294.313 703.249,293.115 700.461,292.135 697.605,291.379 694.697,290.854 691.757,290.56 688.803,290.501 685.853,290.678 682.927,291.088 680.042,291.729 677.218,292.597 674.472,293.687 671.82,294.992 669.281,296.503 666.87,298.211 664.603,300.105 662.493,302.174 660.554,304.403 658.798,306.78 657.236,309.289 655.879,311.913 654.735,314.637 653.811,317.444 653.112,320.315 652.644,323.233 652.41,326.178 652.41,329.133 652.644,332.078 653.112,334.996 653.811,337.867 654.735,340.674 655.879,343.398 657.236,346.023 658.798,348.531 660.554,350.908 662.493,353.137 664.603,355.206 666.87,357.1 669.281,358.808 671.82,360.319 674.472,361.624 677.218,362.714 680.042,363.582 682.927,364.223 685.853,364.633 688.803,364.81 691.757,364.751 694.697,364.458 697.605,363.932 700.461,363.176 703.249,362.196 705.95,360.998 708.547,359.589 711.024,357.978 713.365,356.175 715.556,354.193 717.582,352.042 719.431,349.737 721.091,347.292 722.551,344.724 723.803,342.047 724.838,339.279 725.65,336.438 726.234,333.542 726.585,330.608 726.703,327.656 "/>
<path clip-path="url(#clip062)" d="M1747.62 1348.57 L1747.5 1345.62 L1747.15 1342.69 L1746.57 1339.79 L1745.76 1336.95 L1744.72 1334.18 L1743.47 1331.5 L1742.01 1328.94 L1740.35 1326.49 L1738.5 1324.19 L1736.47 1322.04 L1734.28 1320.05 L1731.94 1318.25 L1729.46 1316.64 L1726.87 1315.23 L1724.17 1314.03 L1721.38 1313.05 L1718.52 1312.3 L1715.61 1311.77 L1712.67 1311.48 L1709.72 1311.42 L1706.77 1311.59 L1703.84 1312 L1700.96 1312.65 L1698.14 1313.51 L1695.39 1314.6 L1692.74 1315.91 L1690.2 1317.42 L1687.79 1319.13 L1685.52 1321.02 L1683.41 1323.09 L1681.47 1325.32 L1679.71 1327.7 L1678.15 1330.21 L1676.8 1332.83 L1675.65 1335.55 L1674.73 1338.36 L1674.03 1341.23 L1673.56 1344.15 L1673.33 1347.1 L1673.33 1350.05 L1673.56 1353 L1674.03 1355.91 L1674.73 1358.78 L1675.65 1361.59 L1676.8 1364.31 L1678.15 1366.94 L1679.71 1369.45 L1681.47 1371.82 L1683.41 1374.05 L1685.52 1376.12 L1687.79 1378.02 L1690.2 1379.73 L1692.74 1381.24 L1695.39 1382.54 L1698.14 1383.63 L1700.96 1384.5 L1703.84 1385.14 L1706.77 1385.55 L1709.72 1385.73 L1712.67 1385.67 L1715.61 1385.37 L1718.52 1384.85 L1721.38 1384.09 L1724.17 1383.11 L1726.87 1381.92 L1729.46 1380.51 L1731.94 1378.9 L1734.28 1377.09 L1736.47 1375.11 L1738.5 1372.96 L1740.35 1370.65 L1742.01 1368.21 L1743.47 1365.64 L1744.72 1362.96 L1745.76 1360.2 L1746.57 1357.36 L1747.15 1354.46 L1747.5 1351.52 L1747.62 1348.57 L1747.62 1348.57  Z" fill="#add8e6" fill-rule="evenodd" fill-opacity="1"/>
<polyline clip-path="url(#clip062)" style="stroke:#000000; stroke-linecap:round; stroke-linejoin:round; stroke-width:4; stroke-opacity:1; fill:none" points="1747.62,1348.57 1747.5,1345.62 1747.15,1342.69 1746.57,1339.79 1745.76,1336.95 1744.72,1334.18 1743.47,1331.5 1742.01,1328.94 1740.35,1326.49 1738.5,1324.19 1736.47,1322.04 1734.28,1320.05 1731.94,1318.25 1729.46,1316.64 1726.87,1315.23 1724.17,1314.03 1721.38,1313.05 1718.52,1312.3 1715.61,1311.77 1712.67,1311.48 1709.72,1311.42 1706.77,1311.59 1703.84,1312 1700.96,1312.65 1698.14,1313.51 1695.39,1314.6 1692.74,1315.91 1690.2,1317.42 1687.79,1319.13 1685.52,1321.02 1683.41,1323.09 1681.47,1325.32 1679.71,1327.7 1678.15,1330.21 1676.8,1332.83 1675.65,1335.55 1674.73,1338.36 1674.03,1341.23 1673.56,1344.15 1673.33,1347.1 1673.33,1350.05 1673.56,1353 1674.03,1355.91 1674.73,1358.78 1675.65,1361.59 1676.8,1364.31 1678.15,1366.94 1679.71,1369.45 1681.47,1371.82 1683.41,1374.05 1685.52,1376.12 1687.79,1378.02 1690.2,1379.73 1692.74,1381.24 1695.39,1382.54 1698.14,1383.63 1700.96,1384.5 1703.84,1385.14 1706.77,1385.55 1709.72,1385.73 1712.67,1385.67 1715.61,1385.37 1718.52,1384.85 1721.38,1384.09 1724.17,1383.11 1726.87,1381.92 1729.46,1380.51 1731.94,1378.9 1734.28,1377.09 1736.47,1375.11 1738.5,1372.96 1740.35,1370.65 1742.01,1368.21 1743.47,1365.64 1744.72,1362.96 1745.76,1360.2 1746.57,1357.36 1747.15,1354.46 1747.5,1351.52 1747.62,1348.57 "/>
<path clip-path="url(#clip062)" d="M1243.49 809.568 L1243.38 806.616 L1243.02 803.682 L1242.44 800.785 L1241.63 797.944 L1240.59 795.176 L1239.34 792.5 L1237.88 789.931 L1236.22 787.487 L1234.37 785.182 L1232.35 783.031 L1230.16 781.048 L1227.81 779.245 L1225.34 777.634 L1222.74 776.225 L1220.04 775.027 L1217.25 774.047 L1214.39 773.292 L1211.49 772.766 L1208.55 772.473 L1205.59 772.414 L1202.64 772.59 L1199.72 773 L1196.83 773.641 L1194.01 774.509 L1191.26 775.599 L1188.61 776.904 L1186.07 778.415 L1183.66 780.123 L1181.39 782.018 L1179.28 784.086 L1177.34 786.316 L1175.59 788.692 L1174.03 791.201 L1172.67 793.826 L1171.52 796.55 L1170.6 799.357 L1169.9 802.228 L1169.43 805.145 L1169.2 808.091 L1169.2 811.045 L1169.43 813.991 L1169.9 816.908 L1170.6 819.78 L1171.52 822.586 L1172.67 825.31 L1174.03 827.935 L1175.59 830.444 L1177.34 832.82 L1179.28 835.05 L1181.39 837.118 L1183.66 839.013 L1186.07 840.721 L1188.61 842.232 L1191.26 843.537 L1194.01 844.627 L1196.83 845.495 L1199.72 846.136 L1202.64 846.546 L1205.59 846.722 L1208.55 846.663 L1211.49 846.37 L1214.39 845.844 L1217.25 845.089 L1220.04 844.109 L1222.74 842.911 L1225.34 841.502 L1227.81 839.891 L1230.16 838.088 L1232.35 836.105 L1234.37 833.954 L1236.22 831.649 L1237.88 829.205 L1239.34 826.636 L1240.59 823.96 L1241.63 821.192 L1242.44 818.351 L1243.02 815.454 L1243.38 812.521 L1243.49 809.568 L1243.49 809.568  Z" fill="#ffffff" fill-rule="evenodd" fill-opacity="1"/>
<polyline clip-path="url(#clip062)" style="stroke:#000000; stroke-linecap:round; stroke-linejoin:round; stroke-width:4; stroke-opacity:1; fill:none" points="1243.49,809.568 1243.38,806.616 1243.02,803.682 1242.44,800.785 1241.63,797.944 1240.59,795.176 1239.34,792.5 1237.88,789.931 1236.22,787.487 1234.37,785.182 1232.35,783.031 1230.16,781.048 1227.81,779.245 1225.34,777.634 1222.74,776.225 1220.04,775.027 1217.25,774.047 1214.39,773.292 1211.49,772.766 1208.55,772.473 1205.59,772.414 1202.64,772.59 1199.72,773 1196.83,773.641 1194.01,774.509 1191.26,775.599 1188.61,776.904 1186.07,778.415 1183.66,780.123 1181.39,782.018 1179.28,784.086 1177.34,786.316 1175.59,788.692 1174.03,791.201 1172.67,793.826 1171.52,796.55 1170.6,799.357 1169.9,802.228 1169.43,805.145 1169.2,808.091 1169.2,811.045 1169.43,813.991 1169.9,816.908 1170.6,819.78 1171.52,822.586 1172.67,825.31 1174.03,827.935 1175.59,830.444 1177.34,832.82 1179.28,835.05 1181.39,837.118 1183.66,839.013 1186.07,840.721 1188.61,842.232 1191.26,843.537 1194.01,844.627 1196.83,845.495 1199.72,846.136 1202.64,846.546 1205.59,846.722 1208.55,846.663 1211.49,846.37 1214.39,845.844 1217.25,845.089 1220.04,844.109 1222.74,842.911 1225.34,841.502 1227.81,839.891 1230.16,838.088 1232.35,836.105 1234.37,833.954 1236.22,831.649 1237.88,829.205 1239.34,826.636 1240.59,823.96 1241.63,821.192 1242.44,818.351 1243.02,815.454 1243.38,812.521 1243.49,809.568 1243.49,809.568 "/>
<circle clip-path="url(#clip062)" style="fill:#ffffff; stroke:none; fill-opacity:0" cx="689.542" cy="327.656" r="2"/>
<circle clip-path="url(#clip062)" style="fill:#ffffff; stroke:none; fill-opacity:0" cx="1710.46" cy="1348.57" r="2"/>
<circle clip-path="url(#clip062)" style="fill:#ffffff; stroke:none; fill-opacity:0" cx="1206.33" cy="809.568" r="2"/>
<path clip-path="url(#clip060)" d="M701.735 314.865 L701.735 319.179 Q699.669 317.255 697.319 316.303 Q694.99 315.351 692.357 315.351 Q687.172 315.351 684.417 318.531 Q681.662 321.691 681.662 327.686 Q681.662 333.661 684.417 336.841 Q687.172 340.001 692.357 340.001 Q694.99 340.001 697.319 339.049 Q699.669 338.097 701.735 336.173 L701.735 340.446 Q699.588 341.905 697.177 342.634 Q694.787 343.363 692.114 343.363 Q685.248 343.363 681.298 339.17 Q677.348 334.957 677.348 327.686 Q677.348 320.394 681.298 316.202 Q685.248 311.989 692.114 311.989 Q694.828 311.989 697.218 312.718 Q699.628 313.427 701.735 314.865 Z" fill="#000000" fill-rule="nonzero" fill-opacity="1" /><path clip-path="url(#clip060)" d="M1713.02 1349.51 Q1714.34 1349.96 1715.57 1351.42 Q1716.83 1352.88 1718.08 1355.43 L1722.24 1363.69 L1717.84 1363.69 L1713.97 1355.94 Q1712.47 1352.9 1711.06 1351.9 Q1709.66 1350.91 1707.23 1350.91 L1702.77 1350.91 L1702.77 1363.69 L1698.68 1363.69 L1698.68 1333.45 L1707.92 1333.45 Q1713.1 1333.45 1715.65 1335.62 Q1718.21 1337.79 1718.21 1342.16 Q1718.21 1345.02 1716.87 1346.9 Q1715.55 1348.79 1713.02 1349.51 M1702.77 1336.81 L1702.77 1347.55 L1707.92 1347.55 Q1710.87 1347.55 1712.37 1346.19 Q1713.89 1344.82 1713.89 1342.16 Q1713.89 1339.51 1712.37 1338.17 Q1710.87 1336.81 1707.92 1336.81 L1702.77 1336.81 Z" fill="#000000" fill-rule="nonzero" fill-opacity="1" /><path clip-path="url(#clip060)" d="M1206.33 797.142 Q1203.17 797.142 1201.57 800.261 Q1199.99 803.36 1199.99 809.598 Q1199.99 815.817 1201.57 818.936 Q1203.17 822.035 1206.33 822.035 Q1209.51 822.035 1211.09 818.936 Q1212.69 815.817 1212.69 809.598 Q1212.69 803.36 1211.09 800.261 Q1209.51 797.142 1206.33 797.142 M1206.33 793.901 Q1211.42 793.901 1214.09 797.932 Q1216.78 801.942 1216.78 809.598 Q1216.78 817.234 1214.09 821.265 Q1211.42 825.275 1206.33 825.275 Q1201.25 825.275 1198.55 821.265 Q1195.88 817.234 1195.88 809.598 Q1195.88 801.942 1198.55 797.932 Q1201.25 793.901 1206.33 793.901 Z" fill="#000000" fill-rule="nonzero" fill-opacity="1" /></svg>
