<?xml version="1.0" encoding="utf-8"?>
<svg xmlns="http://www.w3.org/2000/svg" xmlns:xlink="http://www.w3.org/1999/xlink" width="600" height="400" viewBox="0 0 2400 1600">
<defs>
  <clipPath id="clip160">
    <rect x="0" y="0" width="2400" height="1600"/>
  </clipPath>
</defs>
<path clip-path="url(#clip160)" d="M0 1600 L2400 1600 L2400 0 L0 0  Z" fill="#ffffff" fill-rule="evenodd" fill-opacity="1"/>
<defs>
  <clipPath id="clip161">
    <rect x="155" y="47" width="2198" height="1377"/>
  </clipPath>
</defs>
<path clip-path="url(#clip160)" d="M155.765 1423.18 L2352.76 1423.18 L2352.76 47.2441 L155.765 47.2441  Z" fill="#ffffff" fill-rule="evenodd" fill-opacity="1"/>
<polyline clip-path="url(#clip161)" style="stroke:#000000; stroke-linecap:round; stroke-linejoin:round; stroke-width:2; stroke-opacity:0.1; fill:none" points="155.765,1423.18 155.765,47.2441 "/>
<polyline clip-path="url(#clip161)" style="stroke:#000000; stroke-linecap:round; stroke-linejoin:round; stroke-width:2; stroke-opacity:0.1; fill:none" points="595.163,1423.18 595.163,47.2441 "/>
<polyline clip-path="url(#clip161)" style="stroke:#000000; stroke-linecap:round; stroke-linejoin:round; stroke-width:2; stroke-opacity:0.1; fill:none" points="1034.56,1423.18 1034.56,47.2441 "/>
<polyline clip-path="url(#clip161)" style="stroke:#000000; stroke-linecap:round; stroke-linejoin:round; stroke-width:2; stroke-opacity:0.1; fill:none" points="1473.96,1423.18 1473.96,47.2441 "/>
<polyline clip-path="url(#clip161)" style="stroke:#000000; stroke-linecap:round; stroke-linejoin:round; stroke-width:2; stroke-opacity:0.1; fill:none" points="1913.36,1423.18 1913.36,47.2441 "/>
<polyline clip-path="url(#clip161)" style="stroke:#000000; stroke-linecap:round; stroke-linejoin:round; stroke-width:2; stroke-opacity:0.1; fill:none" points="2352.76,1423.18 2352.76,47.2441 "/>
<polyline clip-path="url(#clip161)" style="stroke:#000000; stroke-linecap:round; stroke-linejoin:round; stroke-width:2; stroke-opacity:0.1; fill:none" points="155.765,1342.35 2352.76,1342.35 "/>
<polyline clip-path="url(#clip161)" style="stroke:#000000; stroke-linecap:round; stroke-linejoin:round; stroke-width:2; stroke-opacity:0.1; fill:none" points="155.765,1038.78 2352.76,1038.78 "/>
<polyline clip-path="url(#clip161)" style="stroke:#000000; stroke-linecap:round; stroke-linejoin:round; stroke-width:2; stroke-opacity:0.1; fill:none" points="155.765,735.212 2352.76,735.212 "/>
<polyline clip-path="url(#clip161)" style="stroke:#000000; stroke-linecap:round; stroke-linejoin:round; stroke-width:2; stroke-opacity:0.1; fill:none" points="155.765,431.644 2352.76,431.644 "/>
<polyline clip-path="url(#clip161)" style="stroke:#000000; stroke-linecap:round; stroke-linejoin:round; stroke-width:2; stroke-opacity:0.1; fill:none" points="155.765,128.077 2352.76,128.077 "/>
<polyline clip-path="url(#clip160)" style="stroke:#000000; stroke-linecap:round; stroke-linejoin:round; stroke-width:4; stroke-opacity:1; fill:none" points="155.765,1423.18 2352.76,1423.18 "/>
<polyline clip-path="url(#clip160)" style="stroke:#000000; stroke-linecap:round; stroke-linejoin:round; stroke-width:4; stroke-opacity:1; fill:none" points="155.765,1423.18 155.765,1404.28 "/>
<polyline clip-path="url(#clip160)" style="stroke:#000000; stroke-linecap:round; stroke-linejoin:round; stroke-width:4; stroke-opacity:1; fill:none" points="595.163,1423.18 595.163,1404.28 "/>
<polyline clip-path="url(#clip160)" style="stroke:#000000; stroke-linecap:round; stroke-linejoin:round; stroke-width:4; stroke-opacity:1; fill:none" points="1034.56,1423.18 1034.56,1404.28 "/>
<polyline clip-path="url(#clip160)" style="stroke:#000000; stroke-linecap:round; stroke-linejoin:round; stroke-width:4; stroke-opacity:1; fill:none" points="1473.96,1423.18 1473.96,1404.28 "/>
<polyline clip-path="url(#clip160)" style="stroke:#000000; stroke-linecap:round; stroke-linejoin:round; stroke-width:4; stroke-opacity:1; fill:none" points="1913.36,1423.18 1913.36,1404.28 "/>
<polyline clip-path="url(#clip160)" style="stroke:#000000; stroke-linecap:round; stroke-linejoin:round; stroke-width:4; stroke-opacity:1; fill:none" points="2352.76,1423.18 2352.76,1404.28 "/>
<path clip-path="url(#clip160)" d="M155.765 1454.1 Q152.154 1454.1 150.325 1457.66 Q148.52 1461.2 148.52 1468.33 Q148.52 1475.44 150.325 1479.01 Q152.154 1482.55 155.765 1482.55 Q159.399 1482.55 161.205 1479.01 Q163.033 1475.44 163.033 1468.33 Q163.033 1461.2 161.205 1457.66 Q159.399 1454.1 155.765 1454.1 M155.765 1450.39 Q161.575 1450.39 164.631 1455 Q167.709 1459.58 167.709 1468.33 Q167.709 1477.06 164.631 1481.67 Q161.575 1486.25 155.765 1486.25 Q149.955 1486.25 146.876 1481.67 Q143.821 1477.06 143.821 1468.33 Q143.821 1459.58 146.876 1455 Q149.955 1450.39 155.765 1450.39 Z" fill="#000000" fill-rule="nonzero" fill-opacity="1" /><path clip-path="url(#clip160)" d="M589.816 1481.64 L606.135 1481.64 L606.135 1485.58 L584.191 1485.58 L584.191 1481.64 Q586.853 1478.89 591.436 1474.26 Q596.043 1469.61 597.223 1468.27 Q599.469 1465.74 600.348 1464.01 Q601.251 1462.25 601.251 1460.56 Q601.251 1457.8 599.307 1456.07 Q597.385 1454.33 594.283 1454.33 Q592.084 1454.33 589.631 1455.09 Q587.2 1455.86 584.422 1457.41 L584.422 1452.69 Q587.246 1451.55 589.7 1450.97 Q592.154 1450.39 594.191 1450.39 Q599.561 1450.39 602.756 1453.08 Q605.95 1455.77 605.95 1460.26 Q605.95 1462.39 605.14 1464.31 Q604.353 1466.2 602.246 1468.8 Q601.668 1469.47 598.566 1472.69 Q595.464 1475.88 589.816 1481.64 Z" fill="#000000" fill-rule="nonzero" fill-opacity="1" /><path clip-path="url(#clip160)" d="M1037.57 1455.09 L1025.77 1473.54 L1037.57 1473.54 L1037.57 1455.09 M1036.34 1451.02 L1042.22 1451.02 L1042.22 1473.54 L1047.15 1473.54 L1047.15 1477.43 L1042.22 1477.43 L1042.22 1485.58 L1037.57 1485.58 L1037.57 1477.43 L1021.97 1477.43 L1021.97 1472.92 L1036.34 1451.02 Z" fill="#000000" fill-rule="nonzero" fill-opacity="1" /><path clip-path="url(#clip160)" d="M1474.36 1466.44 Q1471.22 1466.44 1469.36 1468.59 Q1467.54 1470.74 1467.54 1474.49 Q1467.54 1478.22 1469.36 1480.39 Q1471.22 1482.55 1474.36 1482.55 Q1477.51 1482.55 1479.34 1480.39 Q1481.19 1478.22 1481.19 1474.49 Q1481.19 1470.74 1479.34 1468.59 Q1477.51 1466.44 1474.36 1466.44 M1483.65 1451.78 L1483.65 1456.04 Q1481.89 1455.21 1480.08 1454.77 Q1478.3 1454.33 1476.54 1454.33 Q1471.91 1454.33 1469.46 1457.45 Q1467.03 1460.58 1466.68 1466.9 Q1468.05 1464.89 1470.11 1463.82 Q1472.17 1462.73 1474.64 1462.73 Q1479.85 1462.73 1482.86 1465.9 Q1485.89 1469.05 1485.89 1474.49 Q1485.89 1479.82 1482.74 1483.03 Q1479.6 1486.25 1474.36 1486.25 Q1468.37 1486.25 1465.2 1481.67 Q1462.03 1477.06 1462.03 1468.33 Q1462.03 1460.14 1465.92 1455.28 Q1469.8 1450.39 1476.36 1450.39 Q1478.11 1450.39 1479.9 1450.74 Q1481.7 1451.09 1483.65 1451.78 Z" fill="#000000" fill-rule="nonzero" fill-opacity="1" /><path clip-path="url(#clip160)" d="M1913.36 1469.17 Q1910.02 1469.17 1908.1 1470.95 Q1906.2 1472.73 1906.2 1475.86 Q1906.2 1478.98 1908.1 1480.77 Q1910.02 1482.55 1913.36 1482.55 Q1916.69 1482.55 1918.61 1480.77 Q1920.53 1478.96 1920.53 1475.86 Q1920.53 1472.73 1918.61 1470.95 Q1916.71 1469.17 1913.36 1469.17 M1908.68 1467.18 Q1905.67 1466.44 1903.98 1464.38 Q1902.32 1462.32 1902.32 1459.35 Q1902.32 1455.21 1905.26 1452.8 Q1908.22 1450.39 1913.36 1450.39 Q1918.52 1450.39 1921.46 1452.8 Q1924.4 1455.21 1924.4 1459.35 Q1924.4 1462.32 1922.71 1464.38 Q1921.04 1466.44 1918.06 1467.18 Q1921.44 1467.96 1923.31 1470.26 Q1925.21 1472.55 1925.21 1475.86 Q1925.21 1480.88 1922.13 1483.57 Q1919.08 1486.25 1913.36 1486.25 Q1907.64 1486.25 1904.56 1483.57 Q1901.51 1480.88 1901.51 1475.86 Q1901.51 1472.55 1903.4 1470.26 Q1905.3 1467.96 1908.68 1467.18 M1906.97 1459.79 Q1906.97 1462.48 1908.64 1463.98 Q1910.33 1465.49 1913.36 1465.49 Q1916.37 1465.49 1918.06 1463.98 Q1919.77 1462.48 1919.77 1459.79 Q1919.77 1457.11 1918.06 1455.6 Q1916.37 1454.1 1913.36 1454.1 Q1910.33 1454.1 1908.64 1455.6 Q1906.97 1457.11 1906.97 1459.79 Z" fill="#000000" fill-rule="nonzero" fill-opacity="1" /><path clip-path="url(#clip160)" d="M2327.44 1481.64 L2335.08 1481.64 L2335.08 1455.28 L2326.77 1456.95 L2326.77 1452.69 L2335.04 1451.02 L2339.71 1451.02 L2339.71 1481.64 L2347.35 1481.64 L2347.35 1485.58 L2327.44 1485.58 L2327.44 1481.64 Z" fill="#000000" fill-rule="nonzero" fill-opacity="1" /><path clip-path="url(#clip160)" d="M2366.8 1454.1 Q2363.18 1454.1 2361.36 1457.66 Q2359.55 1461.2 2359.55 1468.33 Q2359.55 1475.44 2361.36 1479.01 Q2363.18 1482.55 2366.8 1482.55 Q2370.43 1482.55 2372.23 1479.01 Q2374.06 1475.44 2374.06 1468.33 Q2374.06 1461.2 2372.23 1457.66 Q2370.43 1454.1 2366.8 1454.1 M2366.8 1450.39 Q2372.61 1450.39 2375.66 1455 Q2378.74 1459.58 2378.74 1468.33 Q2378.74 1477.06 2375.66 1481.67 Q2372.61 1486.25 2366.8 1486.25 Q2360.99 1486.25 2357.91 1481.67 Q2354.85 1477.06 2354.85 1468.33 Q2354.85 1459.58 2357.91 1455 Q2360.99 1450.39 2366.8 1450.39 Z" fill="#000000" fill-rule="nonzero" fill-opacity="1" /><path clip-path="url(#clip160)" d="M1253.32 1522.27 L1253.32 1532.4 L1265.38 1532.4 L1265.38 1536.95 L1253.32 1536.95 L1253.32 1556.3 Q1253.32 1560.66 1254.5 1561.9 Q1255.71 1563.14 1259.37 1563.14 L1265.38 1563.14 L1265.38 1568.04 L1259.37 1568.04 Q1252.59 1568.04 1250.01 1565.53 Q1247.43 1562.98 1247.43 1556.3 L1247.43 1536.95 L1243.14 1536.95 L1243.14 1532.4 L1247.43 1532.4 L1247.43 1522.27 L1253.32 1522.27 Z" fill="#000000" fill-rule="nonzero" fill-opacity="1" /><polyline clip-path="url(#clip160)" style="stroke:#000000; stroke-linecap:round; stroke-linejoin:round; stroke-width:4; stroke-opacity:1; fill:none" points="155.765,1423.18 155.765,47.2441 "/>
<polyline clip-path="url(#clip160)" style="stroke:#000000; stroke-linecap:round; stroke-linejoin:round; stroke-width:4; stroke-opacity:1; fill:none" points="155.765,1342.35 174.663,1342.35 "/>
<polyline clip-path="url(#clip160)" style="stroke:#000000; stroke-linecap:round; stroke-linejoin:round; stroke-width:4; stroke-opacity:1; fill:none" points="155.765,1038.78 174.663,1038.78 "/>
<polyline clip-path="url(#clip160)" style="stroke:#000000; stroke-linecap:round; stroke-linejoin:round; stroke-width:4; stroke-opacity:1; fill:none" points="155.765,735.212 174.663,735.212 "/>
<polyline clip-path="url(#clip160)" style="stroke:#000000; stroke-linecap:round; stroke-linejoin:round; stroke-width:4; stroke-opacity:1; fill:none" points="155.765,431.644 174.663,431.644 "/>
<polyline clip-path="url(#clip160)" style="stroke:#000000; stroke-linecap:round; stroke-linejoin:round; stroke-width:4; stroke-opacity:1; fill:none" points="155.765,128.077 174.663,128.077 "/>
<path clip-path="url(#clip160)" d="M63.5847 1328.15 Q59.9736 1328.15 58.1449 1331.71 Q56.3393 1335.25 56.3393 1342.38 Q56.3393 1349.49 58.1449 1353.05 Q59.9736 1356.59 63.5847 1356.59 Q67.2189 1356.59 69.0244 1353.05 Q70.8531 1349.49 70.8531 1342.38 Q70.8531 1335.25 69.0244 1331.71 Q67.2189 1328.15 63.5847 1328.15 M63.5847 1324.44 Q69.3948 1324.44 72.4503 1329.05 Q75.529 1333.63 75.529 1342.38 Q75.529 1351.11 72.4503 1355.72 Q69.3948 1360.3 63.5847 1360.3 Q57.7745 1360.3 54.6958 1355.72 Q51.6403 1351.11 51.6403 1342.38 Q51.6403 1333.63 54.6958 1329.05 Q57.7745 1324.44 63.5847 1324.44 Z" fill="#000000" fill-rule="nonzero" fill-opacity="1" /><path clip-path="url(#clip160)" d="M83.7466 1353.75 L88.6308 1353.75 L88.6308 1359.63 L83.7466 1359.63 L83.7466 1353.75 Z" fill="#000000" fill-rule="nonzero" fill-opacity="1" /><path clip-path="url(#clip160)" d="M98.8622 1325.07 L117.219 1325.07 L117.219 1329 L103.145 1329 L103.145 1337.47 Q104.163 1337.13 105.182 1336.97 Q106.2 1336.78 107.219 1336.78 Q113.006 1336.78 116.385 1339.95 Q119.765 1343.12 119.765 1348.54 Q119.765 1354.12 116.293 1357.22 Q112.82 1360.3 106.501 1360.3 Q104.325 1360.3 102.057 1359.93 Q99.8113 1359.56 97.4039 1358.82 L97.4039 1354.12 Q99.4872 1355.25 101.709 1355.81 Q103.932 1356.36 106.408 1356.36 Q110.413 1356.36 112.751 1354.26 Q115.089 1352.15 115.089 1348.54 Q115.089 1344.93 112.751 1342.82 Q110.413 1340.72 106.408 1340.72 Q104.534 1340.72 102.659 1341.13 Q100.807 1341.55 98.8622 1342.43 L98.8622 1325.07 Z" fill="#000000" fill-rule="nonzero" fill-opacity="1" /><path clip-path="url(#clip160)" d="M53.3995 1052.12 L61.0384 1052.12 L61.0384 1025.76 L52.7282 1027.43 L52.7282 1023.17 L60.9921 1021.5 L65.668 1021.5 L65.668 1052.12 L73.3068 1052.12 L73.3068 1056.06 L53.3995 1056.06 L53.3995 1052.12 Z" fill="#000000" fill-rule="nonzero" fill-opacity="1" /><path clip-path="url(#clip160)" d="M82.7512 1050.18 L87.6354 1050.18 L87.6354 1056.06 L82.7512 1056.06 L82.7512 1050.18 Z" fill="#000000" fill-rule="nonzero" fill-opacity="1" /><path clip-path="url(#clip160)" d="M107.821 1024.58 Q104.209 1024.58 102.381 1028.14 Q100.575 1031.68 100.575 1038.81 Q100.575 1045.92 102.381 1049.49 Q104.209 1053.03 107.821 1053.03 Q111.455 1053.03 113.26 1049.49 Q115.089 1045.92 115.089 1038.81 Q115.089 1031.68 113.26 1028.14 Q111.455 1024.58 107.821 1024.58 M107.821 1020.87 Q113.631 1020.87 116.686 1025.48 Q119.765 1030.06 119.765 1038.81 Q119.765 1047.54 116.686 1052.15 Q113.631 1056.73 107.821 1056.73 Q102.01 1056.73 98.9317 1052.15 Q95.8761 1047.54 95.8761 1038.81 Q95.8761 1030.06 98.9317 1025.48 Q102.01 1020.87 107.821 1020.87 Z" fill="#000000" fill-rule="nonzero" fill-opacity="1" /><path clip-path="url(#clip160)" d="M54.3949 748.557 L62.0337 748.557 L62.0337 722.191 L53.7236 723.858 L53.7236 719.599 L61.9874 717.932 L66.6633 717.932 L66.6633 748.557 L74.3022 748.557 L74.3022 752.492 L54.3949 752.492 L54.3949 748.557 Z" fill="#000000" fill-rule="nonzero" fill-opacity="1" /><path clip-path="url(#clip160)" d="M83.7466 746.612 L88.6308 746.612 L88.6308 752.492 L83.7466 752.492 L83.7466 746.612 Z" fill="#000000" fill-rule="nonzero" fill-opacity="1" /><path clip-path="url(#clip160)" d="M98.8622 717.932 L117.219 717.932 L117.219 721.867 L103.145 721.867 L103.145 730.339 Q104.163 729.992 105.182 729.83 Q106.2 729.645 107.219 729.645 Q113.006 729.645 116.385 732.816 Q119.765 735.987 119.765 741.404 Q119.765 746.983 116.293 750.085 Q112.82 753.163 106.501 753.163 Q104.325 753.163 102.057 752.793 Q99.8113 752.423 97.4039 751.682 L97.4039 746.983 Q99.4872 748.117 101.709 748.673 Q103.932 749.228 106.408 749.228 Q110.413 749.228 112.751 747.122 Q115.089 745.015 115.089 741.404 Q115.089 737.793 112.751 735.687 Q110.413 733.58 106.408 733.58 Q104.534 733.58 102.659 733.997 Q100.807 734.413 98.8622 735.293 L98.8622 717.932 Z" fill="#000000" fill-rule="nonzero" fill-opacity="1" /><path clip-path="url(#clip160)" d="M56.6171 444.989 L72.9365 444.989 L72.9365 448.924 L50.9921 448.924 L50.9921 444.989 Q53.6541 442.235 58.2375 437.605 Q62.8439 432.952 64.0245 431.61 Q66.2698 429.087 67.1494 427.35 Q68.0522 425.591 68.0522 423.901 Q68.0522 421.147 66.1078 419.411 Q64.1865 417.675 61.0847 417.675 Q58.8856 417.675 56.4319 418.438 Q54.0014 419.202 51.2236 420.753 L51.2236 416.031 Q54.0477 414.897 56.5014 414.318 Q58.955 413.739 60.9921 413.739 Q66.3624 413.739 69.5568 416.425 Q72.7513 419.11 72.7513 423.6 Q72.7513 425.73 71.9411 427.651 Q71.1541 429.549 69.0476 432.142 Q68.4689 432.813 65.367 436.031 Q62.2652 439.225 56.6171 444.989 Z" fill="#000000" fill-rule="nonzero" fill-opacity="1" /><path clip-path="url(#clip160)" d="M82.7512 443.045 L87.6354 443.045 L87.6354 448.924 L82.7512 448.924 L82.7512 443.045 Z" fill="#000000" fill-rule="nonzero" fill-opacity="1" /><path clip-path="url(#clip160)" d="M107.821 417.443 Q104.209 417.443 102.381 421.008 Q100.575 424.55 100.575 431.679 Q100.575 438.786 102.381 442.35 Q104.209 445.892 107.821 445.892 Q111.455 445.892 113.26 442.35 Q115.089 438.786 115.089 431.679 Q115.089 424.55 113.26 421.008 Q111.455 417.443 107.821 417.443 M107.821 413.739 Q113.631 413.739 116.686 418.346 Q119.765 422.929 119.765 431.679 Q119.765 440.406 116.686 445.012 Q113.631 449.596 107.821 449.596 Q102.01 449.596 98.9317 445.012 Q95.8761 440.406 95.8761 431.679 Q95.8761 422.929 98.9317 418.346 Q102.01 413.739 107.821 413.739 Z" fill="#000000" fill-rule="nonzero" fill-opacity="1" /><path clip-path="url(#clip160)" d="M57.6125 141.422 L73.9318 141.422 L73.9318 145.357 L51.9875 145.357 L51.9875 141.422 Q54.6495 138.667 59.2328 134.037 Q63.8393 129.385 65.0198 128.042 Q67.2652 125.519 68.1448 123.783 Q69.0476 122.024 69.0476 120.334 Q69.0476 117.579 67.1032 115.843 Q65.1819 114.107 62.08 114.107 Q59.881 114.107 57.4273 114.871 Q54.9967 115.635 52.219 117.186 L52.219 112.463 Q55.043 111.329 57.4967 110.75 Q59.9504 110.172 61.9874 110.172 Q67.3578 110.172 70.5522 112.857 Q73.7466 115.542 73.7466 120.033 Q73.7466 122.162 72.9365 124.084 Q72.1494 125.982 70.0429 128.574 Q69.4642 129.246 66.3624 132.463 Q63.2606 135.658 57.6125 141.422 Z" fill="#000000" fill-rule="nonzero" fill-opacity="1" /><path clip-path="url(#clip160)" d="M83.7466 139.477 L88.6308 139.477 L88.6308 145.357 L83.7466 145.357 L83.7466 139.477 Z" fill="#000000" fill-rule="nonzero" fill-opacity="1" /><path clip-path="url(#clip160)" d="M98.8622 110.797 L117.219 110.797 L117.219 114.732 L103.145 114.732 L103.145 123.204 Q104.163 122.857 105.182 122.695 Q106.2 122.51 107.219 122.51 Q113.006 122.51 116.385 125.681 Q119.765 128.852 119.765 134.269 Q119.765 139.848 116.293 142.949 Q112.82 146.028 106.501 146.028 Q104.325 146.028 102.057 145.658 Q99.8113 145.287 97.4039 144.547 L97.4039 139.848 Q99.4872 140.982 101.709 141.537 Q103.932 142.093 106.408 142.093 Q110.413 142.093 112.751 139.986 Q115.089 137.88 115.089 134.269 Q115.089 130.658 112.751 128.551 Q110.413 126.445 106.408 126.445 Q104.534 126.445 102.659 126.862 Q100.807 127.278 98.8622 128.158 L98.8622 110.797 Z" fill="#000000" fill-rule="nonzero" fill-opacity="1" /><polyline clip-path="url(#clip161)" style="stroke:#009af9; stroke-linecap:round; stroke-linejoin:round; stroke-width:12; stroke-opacity:1; fill:none" points="155.765,1038.78 157.964,1026.81 160.163,1015.18 162.362,1003.9 164.562,992.954 166.761,982.324 168.96,972.002 171.159,961.978 173.358,952.243 175.558,942.787 177.757,933.601 179.956,924.674 182.155,916 184.354,907.569 186.554,899.374 188.753,891.405 190.952,883.656 193.151,876.12 195.35,868.787 197.55,861.653 199.749,854.71 201.948,847.952 204.147,841.372 206.346,834.965 208.545,828.725 210.745,822.645 212.944,816.721 215.143,810.947 217.342,805.318 219.541,799.828 221.741,794.473 223.94,789.249 226.139,784.15 228.338,779.173 230.537,774.313 232.737,769.568 234.936,764.932 237.135,760.402 239.334,755.974 241.533,751.645 243.733,747.412 245.932,743.271 248.131,739.218 250.33,735.251 252.529,731.367 254.728,727.562 256.928,723.833 259.127,720.18 261.326,716.598 263.525,713.086 265.724,709.642 267.924,706.262 270.123,702.946 272.322,699.691 274.521,696.495 276.72,693.356 278.92,690.271 281.119,687.24 283.318,684.26 285.517,681.329 287.716,678.445 289.916,675.608 292.115,672.814 294.314,670.063 296.513,667.353 298.712,664.684 300.911,662.053 303.111,659.461 305.31,656.905 307.509,654.386 309.708,651.901 311.907,649.449 314.107,647.03 316.306,644.643 318.505,642.286 320.704,639.959 322.903,637.66 325.103,635.389 327.302,633.145 329.501,630.926 331.7,628.731 333.899,626.561 336.099,624.413 338.298,622.288 340.497,620.184 342.696,618.102 344.895,616.04 347.094,613.999 349.294,611.978 351.493,609.977 353.692,607.994 355.891,606.03 358.09,604.085 360.29,602.157 362.489,600.246 364.688,598.353 366.887,596.475 369.086,594.614 371.286,592.768 373.485,590.936 375.684,589.119 377.883,587.317 380.082,585.527 382.281,583.751 384.481,581.987 386.68,580.235 388.879,578.495 391.078,576.766 393.277,575.049 395.477,573.344 397.676,571.649 399.875,569.967 402.074,568.295 404.273,566.634 406.473,564.984 408.672,563.345 410.871,561.717 413.07,560.099 415.269,558.491 417.469,556.894 419.668,555.306 421.867,553.728 424.066,552.16 426.265,550.601 428.464,549.05 430.664,547.509 432.863,545.976 435.062,544.451 437.261,542.934 439.46,541.425 441.66,539.923 443.859,538.428 446.058,536.94 448.257,535.458 450.456,533.984 452.656,532.516 454.855,531.055 457.054,529.602 459.253,528.156 461.452,526.716 463.652,525.284 465.851,523.86 468.05,522.442 470.249,521.032 472.448,519.629 474.647,518.233 476.847,516.844 479.046,515.462 481.245,514.087 483.444,512.719 485.643,511.358 487.843,510.003 490.042,508.654 492.241,507.312 494.44,505.976 496.639,504.646 498.839,503.321 501.038,502.002 503.237,500.688 505.436,499.379 507.635,498.075 509.835,496.775 512.034,495.479 514.233,494.188 516.432,492.901 518.631,491.618 520.83,490.341 523.03,489.069 525.229,487.802 527.428,486.54 529.627,485.284 531.826,484.033 534.026,482.787 536.225,481.548 538.424,480.314 540.623,479.085 542.822,477.863 545.022,476.646 547.221,475.435 549.42,474.229 551.619,473.029 553.818,471.834 556.018,470.645 558.217,469.46 560.416,468.281 562.615,467.107 564.814,465.938 567.013,464.773 569.213,463.612 571.412,462.456 573.611,461.303 575.81,460.154 578.009,459.009 580.209,457.866 582.408,456.726 584.607,455.589 586.806,454.454 589.005,453.322 591.205,452.194 593.404,451.07 595.603,449.949 597.802,448.832 600.001,447.719 602.201,446.611 604.4,445.507 606.599,444.409 608.798,443.314 610.997,442.225 613.196,441.141 615.396,440.061 617.595,438.987 619.794,437.917 621.993,436.853 624.192,435.793 626.392,434.739 628.591,433.689 630.79,432.644 632.989,431.603 635.188,430.567 637.388,429.534 639.587,428.506 641.786,427.482 643.985,426.461 646.184,425.444 648.384,424.429 650.583,423.417 652.782,422.408 654.981,421.401 657.18,420.395 659.379,419.391 661.579,418.388 663.778,417.386 665.977,416.386 668.176,415.388 670.375,414.393 672.575,413.401 674.774,412.412 676.973,411.426 679.172,410.444 681.371,409.466 683.571,408.492 685.77,407.523 687.969,406.557 690.168,405.597 692.367,404.64 694.567,403.689 696.766,402.741 698.965,401.799 701.164,400.861 703.363,399.928 705.562,398.999 707.762,398.075 709.961,397.154 712.16,396.238 714.359,395.326 716.558,394.418 718.758,393.513 720.957,392.611 723.156,391.712 725.355,390.816 727.554,389.922 729.754,389.03 731.953,388.14 734.152,387.25 736.351,386.362 738.55,385.473 740.749,384.585 742.949,383.696 745.148,382.808 747.347,381.921 749.546,381.035 751.745,380.151 753.945,379.27 756.144,378.391 758.343,377.515 760.542,376.643 762.741,375.774 764.941,374.909 767.14,374.047 769.339,373.19 771.538,372.337 773.737,371.489 775.937,370.645 778.136,369.805 780.335,368.97 782.534,368.139 784.733,367.313 786.932,366.491 789.132,365.673 791.331,364.859 793.53,364.049 795.729,363.243 797.928,362.44 800.128,361.641 802.327,360.844 804.526,360.05 806.725,359.258 808.924,358.468 811.124,357.679 813.323,356.891 815.522,356.103 817.721,355.316 819.92,354.527 822.12,353.738 824.319,352.946 826.518,352.154 828.717,351.361 830.916,350.569 833.115,349.778 835.315,348.988 837.514,348.2 839.713,347.415 841.912,346.632 844.111,345.852 846.311,345.075 848.51,344.302 850.709,343.533 852.908,342.768 855.107,342.008 857.307,341.251 859.506,340.499 861.705,339.752 863.904,339.009 866.103,338.27 868.303,337.536 870.502,336.806 872.701,336.08 874.9,335.359 877.099,334.641 879.298,333.926 881.498,333.215 883.697,332.507 885.896,331.801 888.095,331.097 890.294,330.396 892.494,329.695 894.693,328.995 896.892,328.295 899.091,327.595 901.29,326.894 903.49,326.191 905.689,325.485 907.888,324.777 910.087,324.066 912.286,323.354 914.486,322.641 916.685,321.929 918.884,321.217 921.083,320.507 923.282,319.799 925.481,319.092 927.681,318.389 929.88,317.689 932.079,316.992 934.278,316.299 936.477,315.611 938.677,314.926 940.876,314.246 943.075,313.57 945.274,312.899 947.473,312.233 949.673,311.571 951.872,310.914 954.071,310.261 956.27,309.613 958.469,308.968 960.669,308.328 962.868,307.691 965.067,307.057 967.266,306.426 969.465,305.798 971.664,305.171 973.864,304.546 976.063,303.922 978.262,303.299 980.461,302.675 982.66,302.049 984.86,301.423 987.059,300.793 989.258,300.16 991.457,299.523 993.656,298.882 995.856,298.238 998.055,297.593 1000.25,296.947 1002.45,296.301 1004.65,295.655 1006.85,295.012 1009.05,294.37 1011.25,293.731 1013.45,293.094 1015.65,292.461 1017.85,291.832 1020.05,291.207 1022.25,290.587 1024.45,289.971 1026.64,289.359 1028.84,288.753 1031.04,288.152 1033.24,287.555 1035.44,286.963 1037.64,286.376 1039.84,285.793 1042.04,285.215 1044.24,284.641 1046.44,284.07 1048.64,283.503 1050.84,282.939 1053.03,282.377 1055.23,281.817 1057.43,281.258 1059.63,280.7 1061.83,280.142 1064.03,279.583 1066.23,279.022 1068.43,278.458 1070.63,277.892 1072.83,277.32 1075.03,276.744 1077.23,276.161 1079.42,275.574 1081.62,274.985 1083.82,274.395 1086.02,273.805 1088.22,273.214 1090.42,272.625 1092.62,272.038 1094.82,271.453 1097.02,270.871 1099.22,270.293 1101.42,269.719 1103.62,269.149 1105.82,268.583 1108.01,268.023 1110.21,267.468 1112.41,266.917 1114.61,266.373 1116.81,265.833 1119.01,265.298 1121.21,264.769 1123.41,264.244 1125.61,263.724 1127.81,263.208 1130.01,262.696 1132.21,262.187 1134.4,261.68 1136.6,261.176 1138.8,260.674 1141,260.172 1143.2,259.671 1145.4,259.168 1147.6,258.664 1149.8,258.157 1152,257.646 1154.2,257.13 1156.4,256.608 1158.6,256.078 1160.79,255.542 1162.99,255.003 1165.19,254.461 1167.39,253.917 1169.59,253.373 1171.79,252.829 1173.99,252.287 1176.19,251.747 1178.39,251.21 1180.59,250.677 1182.79,250.147 1184.99,249.622 1187.19,249.101 1189.38,248.586 1191.58,248.077 1193.78,247.572 1195.98,247.074 1198.18,246.581 1200.38,246.093 1202.58,245.611 1204.78,245.135 1206.98,244.663 1209.18,244.195 1211.38,243.732 1213.58,243.272 1215.77,242.815 1217.97,242.36 1220.17,241.906 1222.37,241.453 1224.57,241 1226.77,240.545 1228.97,240.088 1231.17,239.627 1233.37,239.161 1235.57,238.689 1237.77,238.209 1239.97,237.721 1242.16,237.225 1244.36,236.725 1246.56,236.223 1248.76,235.719 1250.96,235.214 1253.16,234.711 1255.36,234.209 1257.56,233.709 1259.76,233.212 1261.96,232.72 1264.16,232.232 1266.36,231.749 1268.56,231.271 1270.75,230.799 1272.95,230.332 1275.15,229.872 1277.35,229.418 1279.55,228.969 1281.75,228.527 1283.95,228.09 1286.15,227.658 1288.35,227.232 1290.55,226.809 1292.75,226.391 1294.95,225.975 1297.14,225.562 1299.34,225.15 1301.54,224.738 1303.74,224.326 1305.94,223.912 1308.14,223.495 1310.34,223.074 1312.54,222.646 1314.74,222.212 1316.94,221.769 1319.14,221.315 1321.34,220.854 1323.53,220.389 1325.73,219.92 1327.93,219.451 1330.13,218.981 1332.33,218.511 1334.53,218.044 1336.73,217.579 1338.93,217.118 1341.13,216.662 1343.33,216.21 1345.53,215.763 1347.73,215.323 1349.93,214.888 1352.12,214.46 1354.32,214.038 1356.52,213.623 1358.72,213.213 1360.92,212.81 1363.12,212.412 1365.32,212.02 1367.52,211.632 1369.72,211.248 1371.92,210.868 1374.12,210.49 1376.32,210.113 1378.51,209.737 1380.71,209.36 1382.91,208.98 1385.11,208.598 1387.31,208.21 1389.51,207.816 1391.71,207.414 1393.91,207.001 1396.11,206.577 1398.31,206.146 1400.51,205.71 1402.71,205.272 1404.9,204.832 1407.1,204.392 1409.3,203.954 1411.5,203.517 1413.7,203.084 1415.9,202.654 1418.1,202.23 1420.3,201.81 1422.5,201.397 1424.7,200.989 1426.9,200.589 1429.1,200.194 1431.3,199.807 1433.49,199.425 1435.69,199.051 1437.89,198.682 1440.09,198.318 1442.29,197.96 1444.49,197.605 1446.69,197.255 1448.89,196.906 1451.09,196.56 1453.29,196.213 1455.49,195.866 1457.69,195.516 1459.88,195.163 1462.08,194.804 1464.28,194.437 1466.48,194.062 1468.68,193.676 1470.88,193.277 1473.08,192.872 1475.28,192.463 1477.48,192.051 1479.68,191.638 1481.88,191.225 1484.08,190.814 1486.27,190.405 1488.47,190 1490.67,189.599 1492.87,189.203 1495.07,188.813 1497.27,188.429 1499.47,188.052 1501.67,187.681 1503.87,187.317 1506.07,186.96 1508.27,186.609 1510.47,186.265 1512.67,185.926 1514.86,185.592 1517.06,185.263 1519.26,184.937 1521.46,184.615 1523.66,184.293 1525.86,183.972 1528.06,183.65 1530.26,183.326 1532.46,182.997 1534.66,182.663 1536.86,182.321 1539.06,181.969 1541.25,181.605 1543.45,181.23 1545.65,180.848 1547.85,180.462 1550.05,180.074 1552.25,179.685 1554.45,179.296 1556.65,178.909 1558.85,178.526 1561.05,178.146 1563.25,177.771 1565.45,177.401 1567.65,177.037 1569.84,176.68 1572.04,176.33 1574.24,175.986 1576.44,175.649 1578.64,175.318 1580.84,174.994 1583.04,174.676 1585.24,174.364 1587.44,174.056 1589.64,173.751 1591.84,173.45 1594.04,173.151 1596.23,172.852 1598.43,172.551 1600.63,172.249 1602.83,171.942 1605.03,171.63 1607.23,171.309 1609.43,170.979 1611.63,170.636 1613.83,170.281 1616.03,169.921 1618.23,169.556 1620.43,169.189 1622.62,168.822 1624.82,168.455 1627.02,168.091 1629.22,167.729 1631.42,167.372 1633.62,167.02 1635.82,166.673 1638.02,166.333 1640.22,165.999 1642.42,165.672 1644.62,165.352 1646.82,165.038 1649.02,164.731 1651.21,164.43 1653.41,164.135 1655.61,163.845 1657.81,163.559 1660.01,163.276 1662.21,162.995 1664.41,162.715 1666.61,162.434 1668.81,162.151 1671.01,161.865 1673.21,161.572 1675.41,161.272 1677.6,160.962 1679.8,160.64 1682,160.305 1684.2,159.964 1686.4,159.619 1688.6,159.272 1690.8,158.924 1693,158.577 1695.2,158.232 1697.4,157.891 1699.6,157.553 1701.8,157.221 1703.99,156.894 1706.19,156.573 1708.39,156.259 1710.59,155.952 1712.79,155.652 1714.99,155.358 1717.19,155.071 1719.39,154.79 1721.59,154.514 1723.79,154.243 1725.99,153.975 1728.19,153.71 1730.39,153.447 1732.58,153.183 1734.78,152.919 1736.98,152.651 1739.18,152.378 1741.38,152.098 1743.58,151.808 1745.78,151.508 1747.98,151.194 1750.18,150.872 1752.38,150.545 1754.58,150.216 1756.78,149.886 1758.97,149.556 1761.17,149.228 1763.37,148.903 1765.57,148.582 1767.77,148.266 1769.97,147.956 1772.17,147.652 1774.37,147.355 1776.57,147.064 1778.77,146.78 1780.97,146.503 1783.17,146.232 1785.36,145.967 1787.56,145.707 1789.76,145.451 1791.96,145.2 1794.16,144.95 1796.36,144.702 1798.56,144.454 1800.76,144.203 1802.96,143.949 1805.16,143.689 1807.36,143.421 1809.56,143.143 1811.76,142.853 1813.95,142.551 1816.15,142.242 1818.35,141.93 1820.55,141.616 1822.75,141.301 1824.95,140.988 1827.15,140.677 1829.35,140.37 1831.55,140.068 1833.75,139.771 1835.95,139.479 1838.15,139.195 1840.34,138.917 1842.54,138.645 1844.74,138.381 1846.94,138.123 1849.14,137.871 1851.34,137.624 1853.54,137.382 1855.74,137.143 1857.94,136.907 1860.14,136.673 1862.34,136.438 1864.54,136.201 1866.73,135.96 1868.93,135.714 1871.13,135.46 1873.33,135.195 1875.53,134.918 1877.73,134.634 1879.93,134.351 1882.13,134.069 1884.33,133.789 1886.53,133.511 1888.73,133.235 1890.93,132.96 1893.13,132.687 1895.32,132.415 1897.52,132.145 1899.72,131.877 1901.92,131.61 1904.12,131.345 1906.32,131.082 1908.52,130.82 1910.72,130.558 1912.92,130.297 1915.12,130.037 1917.32,129.776 1919.52,129.516 1921.71,129.255 1923.91,128.995 1926.11,128.735 1928.31,128.476 1930.51,128.218 1932.71,127.961 1934.91,127.705 1937.11,127.45 1939.31,127.196 1941.51,126.943 1943.71,126.691 1945.91,126.441 1948.1,126.191 1950.3,125.943 1952.5,125.695 1954.7,125.447 1956.9,125.2 1959.1,124.953 1961.3,124.706 1963.5,124.459 1965.7,124.211 1967.9,123.962 1970.1,123.712 1972.3,123.463 1974.5,123.214 1976.69,122.966 1978.89,122.718 1981.09,122.471 1983.29,122.225 1985.49,121.979 1987.69,121.734 1989.89,121.489 1992.09,121.246 1994.29,121.002 1996.49,120.759 1998.69,120.517 2000.89,120.275 2003.08,120.034 2005.28,119.792 2007.48,119.551 2009.68,119.309 2011.88,119.067 2014.08,118.825 2016.28,118.583 2018.48,118.341 2020.68,118.1 2022.88,117.859 2025.08,117.62 2027.28,117.381 2029.47,117.143 2031.67,116.905 2033.87,116.67 2036.07,116.435 2038.27,116.201 2040.47,115.968 2042.67,115.736 2044.87,115.505 2047.07,115.274 2049.27,115.044 2051.47,114.815 2053.67,114.586 2055.87,114.356 2058.06,114.127 2060.26,113.896 2062.46,113.665 2064.66,113.433 2066.86,113.199 2069.06,112.966 2071.26,112.731 2073.46,112.498 2075.66,112.264 2077.86,112.031 2080.06,111.799 2082.26,111.568 2084.45,111.338 2086.65,111.11 2088.85,110.882 2091.05,110.656 2093.25,110.431 2095.45,110.208 2097.65,109.986 2099.85,109.764 2102.05,109.544 2104.25,109.324 2106.45,109.104 2108.65,108.885 2110.84,108.666 2113.04,108.446 2115.24,108.225 2117.44,108.003 2119.64,107.779 2121.84,107.554 2124.04,107.327 2126.24,107.099 2128.44,106.871 2130.64,106.643 2132.84,106.416 2135.04,106.19 2137.24,105.965 2139.43,105.742 2141.63,105.52 2143.83,105.3 2146.03,105.083 2148.23,104.867 2150.43,104.653 2152.63,104.441 2154.83,104.231 2157.03,104.022 2159.23,103.815 2161.43,103.608 2163.63,103.402 2165.82,103.196 2168.02,102.99 2170.22,102.783 2172.42,102.575 2174.62,102.364 2176.82,102.151 2179.02,101.934 2181.22,101.714 2183.42,101.491 2185.62,101.267 2187.82,101.042 2190.02,100.817 2192.22,100.593 2194.41,100.371 2196.61,100.15 2198.81,99.9326 2201.01,99.7175 2203.21,99.5054 2205.41,99.2965 2207.61,99.0907 2209.81,98.8881 2212.01,98.6884 2214.21,98.4914 2216.41,98.2969 2218.61,98.1043 2220.8,97.9131 2223,97.7226 2225.2,97.5323 2227.4,97.3412 2229.6,97.1484 2231.8,96.953 2234,96.7537 2236.2,96.5495 2238.4,96.339 2240.6,96.1225 2242.8,95.9018 2245,95.6786 2247.19,95.4542 2249.39,95.2301 2251.59,95.0072 2253.79,94.7865 2255.99,94.569 2258.19,94.3551 2260.39,94.1455 2262.59,93.9404 2264.79,93.7401 2266.99,93.5446 2269.19,93.3538 2271.39,93.1673 2273.59,92.9849 2275.78,92.8059 2277.98,92.6295 2280.18,92.4549 2282.38,92.2811 2284.58,92.1068 2286.78,91.9306 2288.98,91.7512 2291.18,91.5668 2293.38,91.3755 2295.58,91.1755 2297.78,90.9654 2299.98,90.7483 2302.17,90.527 2304.37,90.3035 2306.57,90.0797 2308.77,89.857 2310.97,89.637 2313.17,89.4207 2315.37,89.2092 2317.57,89.003 2319.77,88.8028 2321.97,88.6089 2324.17,88.4212 2326.37,88.2396 2328.56,88.0639 2330.76,87.8933 2332.96,87.727 2335.16,87.5641 2337.36,87.4033 2339.56,87.2432 2341.76,87.0819 2343.96,86.9178 2346.16,86.7485 2348.36,86.5718 2350.56,86.3851 2352.76,86.1857 "/>
<polyline clip-path="url(#clip161)" style="stroke:#e26f46; stroke-linecap:round; stroke-linejoin:round; stroke-width:12; stroke-opacity:1; fill:none" points="155.765,431.644 157.964,443.619 160.163,455.24 162.362,466.52 164.562,477.47 166.761,488.1 168.96,498.422 171.159,508.445 173.358,518.18 175.558,527.637 177.757,536.823 179.956,545.75 182.155,554.424 184.354,562.855 186.554,571.05 188.753,579.019 190.952,586.768 193.151,594.304 195.35,601.637 197.55,608.771 199.749,615.714 201.948,622.472 204.147,629.052 206.346,635.459 208.545,641.699 210.745,647.779 212.944,653.703 215.143,659.477 217.342,665.106 219.541,670.596 221.741,675.95 223.94,681.175 226.139,686.274 228.338,691.251 230.537,696.11 232.737,700.856 234.936,705.492 237.135,710.022 239.334,714.45 241.533,718.778 243.733,723.012 245.932,727.153 248.131,731.206 250.33,735.173 252.529,739.057 254.728,742.862 256.928,746.59 259.127,750.244 261.326,753.826 263.525,757.338 265.724,760.782 267.924,764.162 270.123,767.478 272.322,770.733 274.521,773.929 276.72,777.068 278.92,780.153 281.119,783.184 283.318,786.164 285.517,789.095 287.716,791.979 289.916,794.816 292.115,797.61 294.314,800.361 296.513,803.071 298.712,805.74 300.911,808.371 303.111,810.963 305.31,813.519 307.509,816.038 309.708,818.523 311.907,820.975 314.107,823.394 316.306,825.781 318.505,828.138 320.704,830.465 322.903,832.764 325.103,835.035 327.302,837.279 329.501,839.498 331.7,841.693 333.899,843.863 336.099,846.011 338.298,848.136 340.497,850.24 342.696,852.322 344.895,854.384 347.094,856.425 349.294,858.446 351.493,860.447 353.692,862.43 355.891,864.394 358.09,866.339 360.29,868.267 362.489,870.177 364.688,872.071 366.887,873.949 369.086,875.81 371.286,877.656 373.485,879.488 375.684,881.304 377.883,883.107 380.082,884.897 382.281,886.673 384.481,888.437 386.68,890.189 388.879,891.929 391.078,893.658 393.277,895.375 395.477,897.08 397.676,898.775 399.875,900.457 402.074,902.129 404.273,903.79 406.473,905.44 408.672,907.079 410.871,908.707 413.07,910.325 415.269,911.933 417.469,913.53 419.668,915.118 421.867,916.696 424.066,918.264 426.265,919.823 428.464,921.374 430.664,922.915 432.863,924.448 435.062,925.973 437.261,927.49 439.46,928.999 441.66,930.501 443.859,931.996 446.058,933.484 448.257,934.966 450.456,936.44 452.656,937.908 454.855,939.369 457.054,940.822 459.253,942.268 461.452,943.708 463.652,945.139 465.851,946.564 468.05,947.982 470.249,949.392 472.448,950.795 474.647,952.191 476.847,953.58 479.046,954.962 481.245,956.337 483.444,957.705 485.643,959.066 487.843,960.421 490.042,961.77 492.241,963.112 494.44,964.448 496.639,965.778 498.839,967.103 501.038,968.422 503.237,969.736 505.436,971.045 507.635,972.349 509.835,973.649 512.034,974.945 514.233,976.236 516.432,977.523 518.631,978.805 520.83,980.083 523.03,981.355 525.229,982.622 527.428,983.884 529.627,985.14 531.826,986.391 534.026,987.637 536.225,988.876 538.424,990.11 540.623,991.339 542.822,992.561 545.022,993.778 547.221,994.989 549.42,996.195 551.619,997.395 553.818,998.59 556.018,999.779 558.217,1000.96 560.416,1002.14 562.615,1003.32 564.814,1004.49 567.013,1005.65 569.213,1006.81 571.412,1007.97 573.611,1009.12 575.81,1010.27 578.009,1011.42 580.209,1012.56 582.408,1013.7 584.607,1014.84 586.806,1015.97 589.005,1017.1 591.205,1018.23 593.404,1019.35 595.603,1020.48 597.802,1021.59 600.001,1022.7 602.201,1023.81 604.4,1024.92 606.599,1026.02 608.798,1027.11 610.997,1028.2 613.196,1029.28 615.396,1030.36 617.595,1031.44 619.794,1032.51 621.993,1033.57 624.192,1034.63 626.392,1035.69 628.591,1036.74 630.79,1037.78 632.989,1038.82 635.188,1039.86 637.388,1040.89 639.587,1041.92 641.786,1042.94 643.985,1043.96 646.184,1044.98 648.384,1045.99 650.583,1047.01 652.782,1048.02 654.981,1049.02 657.18,1050.03 659.379,1051.03 661.579,1052.04 663.778,1053.04 665.977,1054.04 668.176,1055.04 670.375,1056.03 672.575,1057.02 674.774,1058.01 676.973,1059 679.172,1059.98 681.371,1060.96 683.571,1061.93 685.77,1062.9 687.969,1063.87 690.168,1064.83 692.367,1065.78 694.567,1066.74 696.766,1067.68 698.965,1068.62 701.164,1069.56 703.363,1070.5 705.562,1071.42 707.762,1072.35 709.961,1073.27 712.16,1074.19 714.359,1075.1 716.558,1076.01 718.758,1076.91 720.957,1077.81 723.156,1078.71 725.355,1079.61 727.554,1080.5 729.754,1081.39 731.953,1082.28 734.152,1083.17 736.351,1084.06 738.55,1084.95 740.749,1085.84 742.949,1086.73 745.148,1087.62 747.347,1088.5 749.546,1089.39 751.745,1090.27 753.945,1091.15 756.144,1092.03 758.343,1092.91 760.542,1093.78 762.741,1094.65 764.941,1095.52 767.14,1096.38 769.339,1097.23 771.538,1098.09 773.737,1098.94 775.937,1099.78 778.136,1100.62 780.335,1101.45 782.534,1102.28 784.733,1103.11 786.932,1103.93 789.132,1104.75 791.331,1105.56 793.53,1106.37 795.729,1107.18 797.928,1107.98 800.128,1108.78 802.327,1109.58 804.526,1110.37 806.725,1111.17 808.924,1111.96 811.124,1112.74 813.323,1113.53 815.522,1114.32 817.721,1115.11 819.92,1115.9 822.12,1116.69 824.319,1117.48 826.518,1118.27 828.717,1119.06 830.916,1119.85 833.115,1120.65 835.315,1121.44 837.514,1122.22 839.713,1123.01 841.912,1123.79 844.111,1124.57 846.311,1125.35 848.51,1126.12 850.709,1126.89 852.908,1127.66 855.107,1128.42 857.307,1129.17 859.506,1129.92 861.705,1130.67 863.904,1131.42 866.103,1132.15 868.303,1132.89 870.502,1133.62 872.701,1134.34 874.9,1135.07 877.099,1135.78 879.298,1136.5 881.498,1137.21 883.697,1137.92 885.896,1138.62 888.095,1139.33 890.294,1140.03 892.494,1140.73 894.693,1141.43 896.892,1142.13 899.091,1142.83 901.29,1143.53 903.49,1144.23 905.689,1144.94 907.888,1145.65 910.087,1146.36 912.286,1147.07 914.486,1147.78 916.685,1148.5 918.884,1149.21 921.083,1149.92 923.282,1150.63 925.481,1151.33 927.681,1152.03 929.88,1152.73 932.079,1153.43 934.278,1154.12 936.477,1154.81 938.677,1155.5 940.876,1156.18 943.075,1156.85 945.274,1157.52 947.473,1158.19 949.673,1158.85 951.872,1159.51 954.071,1160.16 956.27,1160.81 958.469,1161.46 960.669,1162.1 962.868,1162.73 965.067,1163.37 967.266,1164 969.465,1164.63 971.664,1165.25 973.864,1165.88 976.063,1166.5 978.262,1167.13 980.461,1167.75 982.66,1168.37 984.86,1169 987.059,1169.63 989.258,1170.26 991.457,1170.9 993.656,1171.54 995.856,1172.19 998.055,1172.83 1000.25,1173.48 1002.45,1174.12 1004.65,1174.77 1006.85,1175.41 1009.05,1176.05 1011.25,1176.69 1013.45,1177.33 1015.65,1177.96 1017.85,1178.59 1020.05,1179.22 1022.25,1179.84 1024.45,1180.45 1026.64,1181.06 1028.84,1181.67 1031.04,1182.27 1033.24,1182.87 1035.44,1183.46 1037.64,1184.05 1039.84,1184.63 1042.04,1185.21 1044.24,1185.78 1046.44,1186.35 1048.64,1186.92 1050.84,1187.49 1053.03,1188.05 1055.23,1188.61 1057.43,1189.17 1059.63,1189.72 1061.83,1190.28 1064.03,1190.84 1066.23,1191.4 1068.43,1191.97 1070.63,1192.53 1072.83,1193.1 1075.03,1193.68 1077.23,1194.26 1079.42,1194.85 1081.62,1195.44 1083.82,1196.03 1086.02,1196.62 1088.22,1197.21 1090.42,1197.8 1092.62,1198.39 1094.82,1198.97 1097.02,1199.55 1099.22,1200.13 1101.42,1200.71 1103.62,1201.28 1105.82,1201.84 1108.01,1202.4 1110.21,1202.96 1112.41,1203.51 1114.61,1204.05 1116.81,1204.59 1119.01,1205.13 1121.21,1205.66 1123.41,1206.18 1125.61,1206.7 1127.81,1207.22 1130.01,1207.73 1132.21,1208.24 1134.4,1208.74 1136.6,1209.25 1138.8,1209.75 1141,1210.25 1143.2,1210.75 1145.4,1211.26 1147.6,1211.76 1149.8,1212.27 1152,1212.78 1154.2,1213.29 1156.4,1213.82 1158.6,1214.35 1160.79,1214.88 1162.99,1215.42 1165.19,1215.96 1167.39,1216.51 1169.59,1217.05 1171.79,1217.59 1173.99,1218.14 1176.19,1218.68 1178.39,1219.21 1180.59,1219.75 1182.79,1220.28 1184.99,1220.8 1187.19,1221.32 1189.38,1221.84 1191.58,1222.35 1193.78,1222.85 1195.98,1223.35 1198.18,1223.84 1200.38,1224.33 1202.58,1224.81 1204.78,1225.29 1206.98,1225.76 1209.18,1226.23 1211.38,1226.69 1213.58,1227.15 1215.77,1227.61 1217.97,1228.06 1220.17,1228.52 1222.37,1228.97 1224.57,1229.42 1226.77,1229.88 1228.97,1230.34 1231.17,1230.8 1233.37,1231.26 1235.57,1231.74 1237.77,1232.21 1239.97,1232.7 1242.16,1233.2 1244.36,1233.7 1246.56,1234.2 1248.76,1234.71 1250.96,1235.21 1253.16,1235.71 1255.36,1236.22 1257.56,1236.72 1259.76,1237.21 1261.96,1237.7 1264.16,1238.19 1266.36,1238.68 1268.56,1239.15 1270.75,1239.63 1272.95,1240.09 1275.15,1240.55 1277.35,1241.01 1279.55,1241.45 1281.75,1241.9 1283.95,1242.33 1286.15,1242.77 1288.35,1243.19 1290.55,1243.61 1292.75,1244.03 1294.95,1244.45 1297.14,1244.86 1299.34,1245.27 1301.54,1245.69 1303.74,1246.1 1305.94,1246.51 1308.14,1246.93 1310.34,1247.35 1312.54,1247.78 1314.74,1248.21 1316.94,1248.66 1319.14,1249.11 1321.34,1249.57 1323.53,1250.04 1325.73,1250.5 1327.93,1250.97 1330.13,1251.44 1332.33,1251.91 1334.53,1252.38 1336.73,1252.84 1338.93,1253.31 1341.13,1253.76 1343.33,1254.21 1345.53,1254.66 1347.73,1255.1 1349.93,1255.54 1352.12,1255.96 1354.32,1256.39 1356.52,1256.8 1358.72,1257.21 1360.92,1257.61 1363.12,1258.01 1365.32,1258.4 1367.52,1258.79 1369.72,1259.18 1371.92,1259.56 1374.12,1259.93 1376.32,1260.31 1378.51,1260.69 1380.71,1261.06 1382.91,1261.44 1385.11,1261.83 1387.31,1262.21 1389.51,1262.61 1391.71,1263.01 1393.91,1263.42 1396.11,1263.85 1398.31,1264.28 1400.51,1264.71 1402.71,1265.15 1404.9,1265.59 1407.1,1266.03 1409.3,1266.47 1411.5,1266.91 1413.7,1267.34 1415.9,1267.77 1418.1,1268.19 1420.3,1268.61 1422.5,1269.03 1424.7,1269.43 1426.9,1269.84 1429.1,1270.23 1431.3,1270.62 1433.49,1271 1435.69,1271.37 1437.89,1271.74 1440.09,1272.11 1442.29,1272.46 1444.49,1272.82 1446.69,1273.17 1448.89,1273.52 1451.09,1273.86 1453.29,1274.21 1455.49,1274.56 1457.69,1274.91 1459.88,1275.26 1462.08,1275.62 1464.28,1275.99 1466.48,1276.36 1468.68,1276.75 1470.88,1277.15 1473.08,1277.55 1475.28,1277.96 1477.48,1278.37 1479.68,1278.79 1481.88,1279.2 1484.08,1279.61 1486.27,1280.02 1488.47,1280.42 1490.67,1280.83 1492.87,1281.22 1495.07,1281.61 1497.27,1281.99 1499.47,1282.37 1501.67,1282.74 1503.87,1283.11 1506.07,1283.46 1508.27,1283.81 1510.47,1284.16 1512.67,1284.5 1514.86,1284.83 1517.06,1285.16 1519.26,1285.49 1521.46,1285.81 1523.66,1286.13 1525.86,1286.45 1528.06,1286.77 1530.26,1287.1 1532.46,1287.43 1534.66,1287.76 1536.86,1288.1 1539.06,1288.46 1541.25,1288.82 1543.45,1289.19 1545.65,1289.58 1547.85,1289.96 1550.05,1290.35 1552.25,1290.74 1554.45,1291.13 1556.65,1291.51 1558.85,1291.9 1561.05,1292.28 1563.25,1292.65 1565.45,1293.02 1567.65,1293.39 1569.84,1293.74 1572.04,1294.09 1574.24,1294.44 1576.44,1294.78 1578.64,1295.11 1580.84,1295.43 1583.04,1295.75 1585.24,1296.06 1587.44,1296.37 1589.64,1296.67 1591.84,1296.97 1594.04,1297.27 1596.23,1297.57 1598.43,1297.87 1600.63,1298.17 1602.83,1298.48 1605.03,1298.79 1607.23,1299.11 1609.43,1299.45 1611.63,1299.79 1613.83,1300.14 1616.03,1300.5 1618.23,1300.87 1620.43,1301.23 1622.62,1301.6 1624.82,1301.97 1627.02,1302.33 1629.22,1302.69 1631.42,1303.05 1633.62,1303.4 1635.82,1303.75 1638.02,1304.09 1640.22,1304.42 1642.42,1304.75 1644.62,1305.07 1646.82,1305.39 1649.02,1305.69 1651.21,1305.99 1653.41,1306.29 1655.61,1306.58 1657.81,1306.87 1660.01,1307.15 1662.21,1307.43 1664.41,1307.71 1666.61,1307.99 1668.81,1308.27 1671.01,1308.56 1673.21,1308.85 1675.41,1309.15 1677.6,1309.46 1679.8,1309.78 1682,1310.12 1684.2,1310.46 1686.4,1310.8 1688.6,1311.15 1690.8,1311.5 1693,1311.85 1695.2,1312.19 1697.4,1312.53 1699.6,1312.87 1701.8,1313.2 1703.99,1313.53 1706.19,1313.85 1708.39,1314.16 1710.59,1314.47 1712.79,1314.77 1714.99,1315.07 1717.19,1315.35 1719.39,1315.63 1721.59,1315.91 1723.79,1316.18 1725.99,1316.45 1728.19,1316.71 1730.39,1316.98 1732.58,1317.24 1734.78,1317.51 1736.98,1317.77 1739.18,1318.05 1741.38,1318.33 1743.58,1318.62 1745.78,1318.92 1747.98,1319.23 1750.18,1319.55 1752.38,1319.88 1754.58,1320.21 1756.78,1320.54 1758.97,1320.87 1761.17,1321.2 1763.37,1321.52 1765.57,1321.84 1767.77,1322.16 1769.97,1322.47 1772.17,1322.77 1774.37,1323.07 1776.57,1323.36 1778.77,1323.64 1780.97,1323.92 1783.17,1324.19 1785.36,1324.46 1787.56,1324.72 1789.76,1324.97 1791.96,1325.22 1794.16,1325.47 1796.36,1325.72 1798.56,1325.97 1800.76,1326.22 1802.96,1326.48 1805.16,1326.74 1807.36,1327 1809.56,1327.28 1811.76,1327.57 1813.95,1327.87 1816.15,1328.18 1818.35,1328.49 1820.55,1328.81 1822.75,1329.12 1824.95,1329.44 1827.15,1329.75 1829.35,1330.05 1831.55,1330.36 1833.75,1330.65 1835.95,1330.94 1838.15,1331.23 1840.34,1331.51 1842.54,1331.78 1844.74,1332.04 1846.94,1332.3 1849.14,1332.55 1851.34,1332.8 1853.54,1333.04 1855.74,1333.28 1857.94,1333.52 1860.14,1333.75 1862.34,1333.99 1864.54,1334.22 1866.73,1334.46 1868.93,1334.71 1871.13,1334.96 1873.33,1335.23 1875.53,1335.51 1877.73,1335.79 1879.93,1336.07 1882.13,1336.35 1884.33,1336.63 1886.53,1336.91 1888.73,1337.19 1890.93,1337.46 1893.13,1337.74 1895.32,1338.01 1897.52,1338.28 1899.72,1338.55 1901.92,1338.81 1904.12,1339.08 1906.32,1339.34 1908.52,1339.6 1910.72,1339.87 1912.92,1340.13 1915.12,1340.39 1917.32,1340.65 1919.52,1340.91 1921.71,1341.17 1923.91,1341.43 1926.11,1341.69 1928.31,1341.95 1930.51,1342.21 1932.71,1342.46 1934.91,1342.72 1937.11,1342.97 1939.31,1343.23 1941.51,1343.48 1943.71,1343.73 1945.91,1343.98 1948.1,1344.23 1950.3,1344.48 1952.5,1344.73 1954.7,1344.98 1956.9,1345.22 1959.1,1345.47 1961.3,1345.72 1963.5,1345.97 1965.7,1346.21 1967.9,1346.46 1970.1,1346.71 1972.3,1346.96 1974.5,1347.21 1976.69,1347.46 1978.89,1347.71 1981.09,1347.95 1983.29,1348.2 1985.49,1348.44 1987.69,1348.69 1989.89,1348.93 1992.09,1349.18 1994.29,1349.42 1996.49,1349.66 1998.69,1349.91 2000.89,1350.15 2003.08,1350.39 2005.28,1350.63 2007.48,1350.87 2009.68,1351.11 2011.88,1351.36 2014.08,1351.6 2016.28,1351.84 2018.48,1352.08 2020.68,1352.32 2022.88,1352.56 2025.08,1352.8 2027.28,1353.04 2029.47,1353.28 2031.67,1353.52 2033.87,1353.75 2036.07,1353.99 2038.27,1354.22 2040.47,1354.46 2042.67,1354.69 2044.87,1354.92 2047.07,1355.15 2049.27,1355.38 2051.47,1355.61 2053.67,1355.84 2055.87,1356.07 2058.06,1356.3 2060.26,1356.53 2062.46,1356.76 2064.66,1356.99 2066.86,1357.22 2069.06,1357.46 2071.26,1357.69 2073.46,1357.93 2075.66,1358.16 2077.86,1358.39 2080.06,1358.62 2082.26,1358.86 2084.45,1359.09 2086.65,1359.31 2088.85,1359.54 2091.05,1359.77 2093.25,1359.99 2095.45,1360.22 2097.65,1360.44 2099.85,1360.66 2102.05,1360.88 2104.25,1361.1 2106.45,1361.32 2108.65,1361.54 2110.84,1361.76 2113.04,1361.98 2115.24,1362.2 2117.44,1362.42 2119.64,1362.64 2121.84,1362.87 2124.04,1363.1 2126.24,1363.33 2128.44,1363.55 2130.64,1363.78 2132.84,1364.01 2135.04,1364.23 2137.24,1364.46 2139.43,1364.68 2141.63,1364.9 2143.83,1365.12 2146.03,1365.34 2148.23,1365.56 2150.43,1365.77 2152.63,1365.98 2154.83,1366.19 2157.03,1366.4 2159.23,1366.61 2161.43,1366.82 2163.63,1367.02 2165.82,1367.23 2168.02,1367.43 2170.22,1367.64 2172.42,1367.85 2174.62,1368.06 2176.82,1368.27 2179.02,1368.49 2181.22,1368.71 2183.42,1368.93 2185.62,1369.16 2187.82,1369.38 2190.02,1369.61 2192.22,1369.83 2194.41,1370.05 2196.61,1370.27 2198.81,1370.49 2201.01,1370.71 2203.21,1370.92 2205.41,1371.13 2207.61,1371.33 2209.81,1371.54 2212.01,1371.74 2214.21,1371.93 2216.41,1372.13 2218.61,1372.32 2220.8,1372.51 2223,1372.7 2225.2,1372.89 2227.4,1373.08 2229.6,1373.28 2231.8,1373.47 2234,1373.67 2236.2,1373.87 2238.4,1374.08 2240.6,1374.3 2242.8,1374.52 2245,1374.75 2247.19,1374.97 2249.39,1375.19 2251.59,1375.42 2253.79,1375.64 2255.99,1375.85 2258.19,1376.07 2260.39,1376.28 2262.59,1376.48 2264.79,1376.68 2266.99,1376.88 2269.19,1377.07 2271.39,1377.26 2273.59,1377.44 2275.78,1377.62 2277.98,1377.79 2280.18,1377.97 2282.38,1378.14 2284.58,1378.32 2286.78,1378.49 2288.98,1378.67 2291.18,1378.86 2293.38,1379.05 2295.58,1379.25 2297.78,1379.46 2299.98,1379.68 2302.17,1379.9 2304.37,1380.12 2306.57,1380.34 2308.77,1380.57 2310.97,1380.79 2313.17,1381 2315.37,1381.21 2317.57,1381.42 2319.77,1381.62 2321.97,1381.82 2324.17,1382 2326.37,1382.18 2328.56,1382.36 2330.76,1382.53 2332.96,1382.7 2335.16,1382.86 2337.36,1383.02 2339.56,1383.18 2341.76,1383.34 2343.96,1383.51 2346.16,1383.68 2348.36,1383.85 2350.56,1384.04 2352.76,1384.24 "/>
<path clip-path="url(#clip160)" d="M228.998 248.629 L529.947 248.629 L529.947 93.1086 L228.998 93.1086  Z" fill="#ffffff" fill-rule="evenodd" fill-opacity="1"/>
<polyline clip-path="url(#clip160)" style="stroke:#000000; stroke-linecap:round; stroke-linejoin:round; stroke-width:4; stroke-opacity:1; fill:none" points="228.998,248.629 529.947,248.629 529.947,93.1086 228.998,93.1086 228.998,248.629 "/>
<polyline clip-path="url(#clip160)" style="stroke:#009af9; stroke-linecap:round; stroke-linejoin:round; stroke-width:12; stroke-opacity:1; fill:none" points="253.409,144.949 399.875,144.949 "/>
<path clip-path="url(#clip160)" d="M452.156 130.331 L452.156 135.261 Q449.795 133.062 447.11 131.974 Q444.448 130.886 441.439 130.886 Q435.513 130.886 432.365 134.52 Q429.217 138.132 429.217 144.983 Q429.217 151.812 432.365 155.446 Q435.513 159.057 441.439 159.057 Q444.448 159.057 447.11 157.969 Q449.795 156.881 452.156 154.682 L452.156 159.567 Q449.703 161.233 446.948 162.067 Q444.216 162.9 441.161 162.9 Q433.314 162.9 428.8 158.108 Q424.286 153.293 424.286 144.983 Q424.286 136.65 428.8 131.858 Q433.314 127.044 441.161 127.044 Q444.263 127.044 446.994 127.877 Q449.749 128.687 452.156 130.331 Z" fill="#000000" fill-rule="nonzero" fill-opacity="1" /><path clip-path="url(#clip160)" d="M468.452 145.585 L468.452 152.807 L476.577 152.807 L476.577 155.006 L468.452 155.006 L468.452 162.229 L466.022 162.229 L466.022 155.006 L457.897 155.006 L457.897 152.807 L466.022 152.807 L466.022 145.585 L468.452 145.585 Z" fill="#000000" fill-rule="nonzero" fill-opacity="1" /><path clip-path="url(#clip160)" d="M486.763 149.289 Q486.763 153.988 488.684 156.673 Q490.628 159.335 494.008 159.335 Q497.387 159.335 499.332 156.673 Q501.276 153.988 501.276 149.289 Q501.276 144.59 499.332 141.928 Q497.387 139.243 494.008 139.243 Q490.628 139.243 488.684 141.928 Q486.763 144.59 486.763 149.289 M501.276 158.34 Q499.934 160.655 497.874 161.789 Q495.837 162.9 492.966 162.9 Q488.267 162.9 485.304 159.15 Q482.364 155.4 482.364 149.289 Q482.364 143.178 485.304 139.428 Q488.267 135.678 492.966 135.678 Q495.837 135.678 497.874 136.812 Q499.934 137.923 501.276 140.238 L501.276 136.303 L505.536 136.303 L505.536 172.09 L501.276 172.09 L501.276 158.34 Z" fill="#000000" fill-rule="nonzero" fill-opacity="1" /><polyline clip-path="url(#clip160)" style="stroke:#e26f46; stroke-linecap:round; stroke-linejoin:round; stroke-width:12; stroke-opacity:1; fill:none" points="253.409,196.789 399.875,196.789 "/>
<path clip-path="url(#clip160)" d="M424.286 179.509 L446.138 179.509 L446.138 183.444 L428.962 183.444 L428.962 193.675 L445.42 193.675 L445.42 197.61 L428.962 197.61 L428.962 210.133 L446.554 210.133 L446.554 214.069 L424.286 214.069 L424.286 179.509 Z" fill="#000000" fill-rule="nonzero" fill-opacity="1" /><path clip-path="url(#clip160)" d="M463.314 197.425 L463.314 204.647 L471.439 204.647 L471.439 206.846 L463.314 206.846 L463.314 214.069 L460.883 214.069 L460.883 206.846 L452.758 206.846 L452.758 204.647 L460.883 204.647 L460.883 197.425 L463.314 197.425 Z" fill="#000000" fill-rule="nonzero" fill-opacity="1" /><path clip-path="url(#clip160)" d="M481.624 201.129 Q481.624 205.828 483.545 208.513 Q485.489 211.175 488.869 211.175 Q492.249 211.175 494.193 208.513 Q496.137 205.828 496.137 201.129 Q496.137 196.43 494.193 193.768 Q492.249 191.083 488.869 191.083 Q485.489 191.083 483.545 193.768 Q481.624 196.43 481.624 201.129 M496.137 210.18 Q494.795 212.495 492.735 213.629 Q490.698 214.74 487.827 214.74 Q483.128 214.74 480.165 210.99 Q477.226 207.24 477.226 201.129 Q477.226 195.018 480.165 191.268 Q483.128 187.518 487.827 187.518 Q490.698 187.518 492.735 188.652 Q494.795 189.763 496.137 192.078 L496.137 188.143 L500.397 188.143 L500.397 223.93 L496.137 223.93 L496.137 210.18 Z" fill="#000000" fill-rule="nonzero" fill-opacity="1" /></svg>
