<?xml version="1.0" encoding="utf-8"?>
<svg xmlns="http://www.w3.org/2000/svg" xmlns:xlink="http://www.w3.org/1999/xlink" width="600" height="400" viewBox="0 0 2400 1600">
<defs>
  <clipPath id="clip250">
    <rect x="0" y="0" width="2400" height="1600"/>
  </clipPath>
</defs>
<path clip-path="url(#clip250)" d="M0 1600 L2400 1600 L2400 0 L0 0  Z" fill="#ffffff" fill-rule="evenodd" fill-opacity="1"/>
<defs>
  <clipPath id="clip251">
    <rect x="485" y="123" width="1430" height="1430"/>
  </clipPath>
</defs>
<path clip-path="url(#clip250)" d="M485.358 1552.76 L1914.64 1552.76 L1914.64 123.472 L485.358 123.472  Z" fill="#ffffff" fill-rule="evenodd" fill-opacity="1"/>
<path clip-path="url(#clip250)" d="M846.822 12.096 L855.005 12.096 L855.005 72.576 L846.822 72.576 L846.822 12.096 Z" fill="#000000" fill-rule="nonzero" fill-opacity="1" /><path clip-path="url(#clip250)" d="M888.546 32.4315 Q882.551 32.4315 879.067 37.1306 Q875.583 41.7891 875.583 49.9314 Q875.583 58.0738 879.027 62.7728 Q882.51 67.4314 888.546 67.4314 Q894.501 67.4314 897.985 62.7323 Q901.469 58.0333 901.469 49.9314 Q901.469 41.8701 897.985 37.1711 Q894.501 32.4315 888.546 32.4315 M888.546 26.1121 Q898.268 26.1121 903.818 32.4315 Q909.368 38.7509 909.368 49.9314 Q909.368 61.0714 903.818 67.4314 Q898.268 73.7508 888.546 73.7508 Q878.784 73.7508 873.234 67.4314 Q867.725 61.0714 867.725 49.9314 Q867.725 38.7509 873.234 32.4315 Q878.784 26.1121 888.546 26.1121 Z" fill="#000000" fill-rule="nonzero" fill-opacity="1" /><path clip-path="url(#clip250)" d="M959.437 45.1919 L959.437 72.576 L951.983 72.576 L951.983 45.4349 Q951.983 38.994 949.472 35.7938 Q946.96 32.5936 941.937 32.5936 Q935.901 32.5936 932.418 36.4419 Q928.934 40.2903 928.934 46.9338 L928.934 72.576 L921.44 72.576 L921.44 27.2059 L928.934 27.2059 L928.934 34.2544 Q931.607 30.163 935.213 28.1376 Q938.858 26.1121 943.598 26.1121 Q951.416 26.1121 955.427 30.9732 Q959.437 35.7938 959.437 45.1919 Z" fill="#000000" fill-rule="nonzero" fill-opacity="1" /><path clip-path="url(#clip250)" d="M1009.18 18.8205 L1009.18 41.5461 L1019.47 41.5461 Q1025.18 41.5461 1028.3 38.5889 Q1031.42 35.6318 1031.42 30.163 Q1031.42 24.7348 1028.3 21.7777 Q1025.18 18.8205 1019.47 18.8205 L1009.18 18.8205 M1001 12.096 L1019.47 12.096 Q1029.64 12.096 1034.82 16.714 Q1040.05 21.2916 1040.05 30.163 Q1040.05 39.1155 1034.82 43.6931 Q1029.64 48.2706 1019.47 48.2706 L1009.18 48.2706 L1009.18 72.576 L1001 72.576 L1001 12.096 Z" fill="#000000" fill-rule="nonzero" fill-opacity="1" /><path clip-path="url(#clip250)" d="M1065.33 32.4315 Q1059.33 32.4315 1055.85 37.1306 Q1052.36 41.7891 1052.36 49.9314 Q1052.36 58.0738 1055.81 62.7728 Q1059.29 67.4314 1065.33 67.4314 Q1071.28 67.4314 1074.77 62.7323 Q1078.25 58.0333 1078.25 49.9314 Q1078.25 41.8701 1074.77 37.1711 Q1071.28 32.4315 1065.33 32.4315 M1065.33 26.1121 Q1075.05 26.1121 1080.6 32.4315 Q1086.15 38.7509 1086.15 49.9314 Q1086.15 61.0714 1080.6 67.4314 Q1075.05 73.7508 1065.33 73.7508 Q1055.57 73.7508 1050.02 67.4314 Q1044.51 61.0714 1044.51 49.9314 Q1044.51 38.7509 1050.02 32.4315 Q1055.57 26.1121 1065.33 26.1121 Z" fill="#000000" fill-rule="nonzero" fill-opacity="1" /><path clip-path="url(#clip250)" d="M1124.79 34.1734 Q1123.54 33.4443 1122.04 33.1202 Q1120.58 32.7556 1118.8 32.7556 Q1112.48 32.7556 1109.08 36.8875 Q1105.72 40.9789 1105.72 48.6757 L1105.72 72.576 L1098.22 72.576 L1098.22 27.2059 L1105.72 27.2059 L1105.72 34.2544 Q1108.06 30.1225 1111.83 28.1376 Q1115.6 26.1121 1120.99 26.1121 Q1121.76 26.1121 1122.69 26.2337 Q1123.62 26.3147 1124.75 26.5172 L1124.79 34.1734 Z" fill="#000000" fill-rule="nonzero" fill-opacity="1" /><path clip-path="url(#clip250)" d="M1169.6 48.0275 L1169.6 51.6733 L1135.33 51.6733 Q1135.81 59.3701 1139.95 63.421 Q1144.12 67.4314 1151.53 67.4314 Q1155.82 67.4314 1159.84 66.3781 Q1163.89 65.3249 1167.86 63.2184 L1167.86 70.267 Q1163.85 71.9684 1159.63 72.8596 Q1155.42 73.7508 1151.09 73.7508 Q1140.23 73.7508 1133.87 67.4314 Q1127.55 61.1119 1127.55 50.3365 Q1127.55 39.1965 1133.54 32.6746 Q1139.58 26.1121 1149.79 26.1121 Q1158.94 26.1121 1164.25 32.0264 Q1169.6 37.9003 1169.6 48.0275 M1162.14 45.84 Q1162.06 39.7232 1158.7 36.0774 Q1155.38 32.4315 1149.87 32.4315 Q1143.63 32.4315 1139.86 35.9558 Q1136.14 39.4801 1135.57 45.8805 L1162.14 45.84 Z" fill="#000000" fill-rule="nonzero" fill-opacity="1" /><path clip-path="url(#clip250)" d="M1200.14 12.096 L1251.3 12.096 L1251.3 18.9825 L1229.83 18.9825 L1229.83 72.576 L1221.61 72.576 L1221.61 18.9825 L1200.14 18.9825 L1200.14 12.096 Z" fill="#000000" fill-rule="nonzero" fill-opacity="1" /><path clip-path="url(#clip250)" d="M1272.98 34.1734 Q1271.72 33.4443 1270.22 33.1202 Q1268.76 32.7556 1266.98 32.7556 Q1260.66 32.7556 1257.26 36.8875 Q1253.9 40.9789 1253.9 48.6757 L1253.9 72.576 L1246.4 72.576 L1246.4 27.2059 L1253.9 27.2059 L1253.9 34.2544 Q1256.25 30.1225 1260.01 28.1376 Q1263.78 26.1121 1269.17 26.1121 Q1269.94 26.1121 1270.87 26.2337 Q1271.8 26.3147 1272.94 26.5172 L1272.98 34.1734 Z" fill="#000000" fill-rule="nonzero" fill-opacity="1" /><path clip-path="url(#clip250)" d="M1301.41 49.7694 Q1292.38 49.7694 1288.9 51.8354 Q1285.41 53.9013 1285.41 58.8839 Q1285.41 62.8538 1288.01 65.2034 Q1290.64 67.5124 1295.14 67.5124 Q1301.33 67.5124 1305.06 63.1374 Q1308.83 58.7219 1308.83 51.4303 L1308.83 49.7694 L1301.41 49.7694 M1316.28 46.6907 L1316.28 72.576 L1308.83 72.576 L1308.83 65.6895 Q1306.28 69.8214 1302.47 71.8063 Q1298.66 73.7508 1293.15 73.7508 Q1286.18 73.7508 1282.05 69.8619 Q1277.96 65.9325 1277.96 59.3701 Q1277.96 51.7138 1283.06 47.825 Q1288.21 43.9361 1298.38 43.9361 L1308.83 43.9361 L1308.83 43.2069 Q1308.83 38.0623 1305.42 35.2672 Q1302.06 32.4315 1295.95 32.4315 Q1292.06 32.4315 1288.37 33.3632 Q1284.68 34.295 1281.28 36.1584 L1281.28 29.2718 Q1285.37 27.692 1289.22 26.9223 Q1293.07 26.1121 1296.72 26.1121 Q1306.56 26.1121 1311.42 31.2163 Q1316.28 36.3204 1316.28 46.6907 Z" fill="#000000" fill-rule="nonzero" fill-opacity="1" /><path clip-path="url(#clip250)" d="M1369.35 45.1919 L1369.35 72.576 L1361.89 72.576 L1361.89 45.4349 Q1361.89 38.994 1359.38 35.7938 Q1356.87 32.5936 1351.85 32.5936 Q1345.81 32.5936 1342.33 36.4419 Q1338.84 40.2903 1338.84 46.9338 L1338.84 72.576 L1331.35 72.576 L1331.35 27.2059 L1338.84 27.2059 L1338.84 34.2544 Q1341.52 30.163 1345.12 28.1376 Q1348.77 26.1121 1353.51 26.1121 Q1361.33 26.1121 1365.34 30.9732 Q1369.35 35.7938 1369.35 45.1919 Z" fill="#000000" fill-rule="nonzero" fill-opacity="1" /><path clip-path="url(#clip250)" d="M1413.14 28.5427 L1413.14 35.5912 Q1409.98 33.9709 1406.58 33.1607 Q1403.17 32.3505 1399.53 32.3505 Q1393.98 32.3505 1391.18 34.0519 Q1388.43 35.7533 1388.43 39.156 Q1388.43 41.7486 1390.41 43.2475 Q1392.4 44.7058 1398.39 46.0426 L1400.95 46.6097 Q1408.88 48.3111 1412.21 51.4303 Q1415.57 54.509 1415.57 60.0587 Q1415.57 66.3781 1410.55 70.0644 Q1405.56 73.7508 1396.81 73.7508 Q1393.17 73.7508 1389.2 73.0216 Q1385.27 72.3329 1380.89 70.9151 L1380.89 63.2184 Q1385.03 65.3654 1389.04 66.4591 Q1393.05 67.5124 1396.98 67.5124 Q1402.24 67.5124 1405.08 65.73 Q1407.91 63.9071 1407.91 60.6258 Q1407.91 57.5877 1405.85 55.9673 Q1403.82 54.3469 1396.89 52.8481 L1394.3 52.2405 Q1387.37 50.7821 1384.3 47.7845 Q1381.22 44.7463 1381.22 39.4801 Q1381.22 33.0797 1385.75 29.5959 Q1390.29 26.1121 1398.64 26.1121 Q1402.77 26.1121 1406.41 26.7198 Q1410.06 27.3274 1413.14 28.5427 Z" fill="#000000" fill-rule="nonzero" fill-opacity="1" /><path clip-path="url(#clip250)" d="M1434.65 65.7705 L1434.65 89.8329 L1427.15 89.8329 L1427.15 27.2059 L1434.65 27.2059 L1434.65 34.0924 Q1437 30.0415 1440.56 28.0971 Q1444.17 26.1121 1449.15 26.1121 Q1457.41 26.1121 1462.56 32.6746 Q1467.74 39.2371 1467.74 49.9314 Q1467.74 60.6258 1462.56 67.1883 Q1457.41 73.7508 1449.15 73.7508 Q1444.17 73.7508 1440.56 71.8063 Q1437 69.8214 1434.65 65.7705 M1460.01 49.9314 Q1460.01 41.7081 1456.6 37.0496 Q1453.24 32.3505 1447.33 32.3505 Q1441.41 32.3505 1438.01 37.0496 Q1434.65 41.7081 1434.65 49.9314 Q1434.65 58.1548 1438.01 62.8538 Q1441.41 67.5124 1447.33 67.5124 Q1453.24 67.5124 1456.6 62.8538 Q1460.01 58.1548 1460.01 49.9314 Z" fill="#000000" fill-rule="nonzero" fill-opacity="1" /><path clip-path="url(#clip250)" d="M1497.68 32.4315 Q1491.69 32.4315 1488.2 37.1306 Q1484.72 41.7891 1484.72 49.9314 Q1484.72 58.0738 1488.16 62.7728 Q1491.64 67.4314 1497.68 67.4314 Q1503.64 67.4314 1507.12 62.7323 Q1510.6 58.0333 1510.6 49.9314 Q1510.6 41.8701 1507.12 37.1711 Q1503.64 32.4315 1497.68 32.4315 M1497.68 26.1121 Q1507.4 26.1121 1512.95 32.4315 Q1518.5 38.7509 1518.5 49.9314 Q1518.5 61.0714 1512.95 67.4314 Q1507.4 73.7508 1497.68 73.7508 Q1487.92 73.7508 1482.37 67.4314 Q1476.86 61.0714 1476.86 49.9314 Q1476.86 38.7509 1482.37 32.4315 Q1487.92 26.1121 1497.68 26.1121 Z" fill="#000000" fill-rule="nonzero" fill-opacity="1" /><path clip-path="url(#clip250)" d="M1557.15 34.1734 Q1555.89 33.4443 1554.39 33.1202 Q1552.94 32.7556 1551.15 32.7556 Q1544.83 32.7556 1541.43 36.8875 Q1538.07 40.9789 1538.07 48.6757 L1538.07 72.576 L1530.57 72.576 L1530.57 27.2059 L1538.07 27.2059 L1538.07 34.2544 Q1540.42 30.1225 1544.19 28.1376 Q1547.95 26.1121 1553.34 26.1121 Q1554.11 26.1121 1555.04 26.2337 Q1555.97 26.3147 1557.11 26.5172 L1557.15 34.1734 Z" fill="#000000" fill-rule="nonzero" fill-opacity="1" /><path clip-path="url(#clip250)" d="M1572.34 14.324 L1572.34 27.2059 L1587.69 27.2059 L1587.69 32.9987 L1572.34 32.9987 L1572.34 57.6282 Q1572.34 63.1779 1573.84 64.7578 Q1575.38 66.3376 1580.04 66.3376 L1587.69 66.3376 L1587.69 72.576 L1580.04 72.576 Q1571.41 72.576 1568.13 69.3758 Q1564.84 66.1351 1564.84 57.6282 L1564.84 32.9987 L1559.38 32.9987 L1559.38 27.2059 L1564.84 27.2059 L1564.84 14.324 L1572.34 14.324 Z" fill="#000000" fill-rule="nonzero" fill-opacity="1" /><polyline clip-path="url(#clip251)" style="stroke:#000000; stroke-linecap:round; stroke-linejoin:round; stroke-width:4; stroke-opacity:1; fill:none" points="689.542,584.356 887.148,689.087 "/>
<polyline clip-path="url(#clip251)" style="stroke:#000000; stroke-linecap:round; stroke-linejoin:round; stroke-width:4; stroke-opacity:1; fill:none" points="863.768,656.325 887.148,689.087 846.91,688.133 "/>
<polyline clip-path="url(#clip251)" style="stroke:#000000; stroke-linecap:round; stroke-linejoin:round; stroke-width:4; stroke-opacity:1; fill:none" points="887.148,689.087 689.542,584.356 "/>
<polyline clip-path="url(#clip251)" style="stroke:#000000; stroke-linecap:round; stroke-linejoin:round; stroke-width:4; stroke-opacity:1; fill:none" points="904.274,690.014 910.77,922.606 "/>
<polyline clip-path="url(#clip251)" style="stroke:#000000; stroke-linecap:round; stroke-linejoin:round; stroke-width:4; stroke-opacity:1; fill:none" points="927.758,886.118 910.77,922.606 891.772,887.123 "/>
<polyline clip-path="url(#clip251)" style="stroke:#000000; stroke-linecap:round; stroke-linejoin:round; stroke-width:4; stroke-opacity:1; fill:none" points="910.77,922.606 904.274,690.014 "/>
<polyline clip-path="url(#clip251)" style="stroke:#000000; stroke-linecap:round; stroke-linejoin:round; stroke-width:4; stroke-opacity:1; fill:none" points="933.525,969.356 1149.14,1072.54 "/>
<polyline clip-path="url(#clip251)" style="stroke:#000000; stroke-linecap:round; stroke-linejoin:round; stroke-width:4; stroke-opacity:1; fill:none" points="1124.43,1040.76 1149.14,1072.54 1108.89,1073.23 "/>
<polyline clip-path="url(#clip251)" style="stroke:#000000; stroke-linecap:round; stroke-linejoin:round; stroke-width:4; stroke-opacity:1; fill:none" points="1149.14,1072.54 933.525,969.356 "/>
<polyline clip-path="url(#clip251)" style="stroke:#000000; stroke-linecap:round; stroke-linejoin:round; stroke-width:4; stroke-opacity:1; fill:none" points="1160.4,1085.47 1192.69,1319.85 "/>
<polyline clip-path="url(#clip251)" style="stroke:#000000; stroke-linecap:round; stroke-linejoin:round; stroke-width:4; stroke-opacity:1; fill:none" points="1205.61,1281.73 1192.69,1319.85 1169.94,1286.64 "/>
<polyline clip-path="url(#clip251)" style="stroke:#000000; stroke-linecap:round; stroke-linejoin:round; stroke-width:4; stroke-opacity:1; fill:none" points="1192.69,1319.85 1160.4,1085.47 "/>
<polyline clip-path="url(#clip251)" style="stroke:#000000; stroke-linecap:round; stroke-linejoin:round; stroke-width:4; stroke-opacity:1; fill:none" points="1160.4,1085.47 1337.25,950.514 "/>
<polyline clip-path="url(#clip251)" style="stroke:#000000; stroke-linecap:round; stroke-linejoin:round; stroke-width:4; stroke-opacity:1; fill:none" points="1297.71,958.045 1337.25,950.514 1319.55,986.663 "/>
<polyline clip-path="url(#clip251)" style="stroke:#000000; stroke-linecap:round; stroke-linejoin:round; stroke-width:4; stroke-opacity:1; fill:none" points="1337.25,950.514 1160.4,1085.47 "/>
<polyline clip-path="url(#clip251)" style="stroke:#000000; stroke-linecap:round; stroke-linejoin:round; stroke-width:4; stroke-opacity:1; fill:none" points="1356.23,913.829 1348.36,648.033 "/>
<polyline clip-path="url(#clip251)" style="stroke:#000000; stroke-linecap:round; stroke-linejoin:round; stroke-width:4; stroke-opacity:1; fill:none" points="1331.43,684.549 1348.36,648.033 1367.42,683.484 "/>
<polyline clip-path="url(#clip251)" style="stroke:#000000; stroke-linecap:round; stroke-linejoin:round; stroke-width:4; stroke-opacity:1; fill:none" points="1348.36,648.033 1356.23,913.829 "/>
<polyline clip-path="url(#clip251)" style="stroke:#000000; stroke-linecap:round; stroke-linejoin:round; stroke-width:4; stroke-opacity:1; fill:none" points="1341.7,632.228 1145.03,568.222 "/>
<polyline clip-path="url(#clip251)" style="stroke:#000000; stroke-linecap:round; stroke-linejoin:round; stroke-width:4; stroke-opacity:1; fill:none" points="1173.7,596.48 1145.03,568.222 1184.84,562.247 "/>
<polyline clip-path="url(#clip251)" style="stroke:#000000; stroke-linecap:round; stroke-linejoin:round; stroke-width:4; stroke-opacity:1; fill:none" points="1145.03,568.222 1341.7,632.228 "/>
<polyline clip-path="url(#clip251)" style="stroke:#000000; stroke-linecap:round; stroke-linejoin:round; stroke-width:4; stroke-opacity:1; fill:none" points="1108.45,531.272 913.004,675.25 "/>
<polyline clip-path="url(#clip251)" style="stroke:#000000; stroke-linecap:round; stroke-linejoin:round; stroke-width:4; stroke-opacity:1; fill:none" points="952.664,668.391 913.004,675.25 931.313,639.406 "/>
<polyline clip-path="url(#clip251)" style="stroke:#000000; stroke-linecap:round; stroke-linejoin:round; stroke-width:4; stroke-opacity:1; fill:none" points="913.004,675.25 1108.45,531.272 "/>
<polyline clip-path="url(#clip251)" style="stroke:#000000; stroke-linecap:round; stroke-linejoin:round; stroke-width:4; stroke-opacity:1; fill:none" points="1341.7,632.228 1522.99,491.035 "/>
<polyline clip-path="url(#clip251)" style="stroke:#000000; stroke-linecap:round; stroke-linejoin:round; stroke-width:4; stroke-opacity:1; fill:none" points="1483.53,498.954 1522.99,491.035 1505.65,527.356 "/>
<polyline clip-path="url(#clip251)" style="stroke:#000000; stroke-linecap:round; stroke-linejoin:round; stroke-width:4; stroke-opacity:1; fill:none" points="1522.99,491.035 1341.7,632.228 "/>
<polyline clip-path="url(#clip251)" style="stroke:#000000; stroke-linecap:round; stroke-linejoin:round; stroke-width:4; stroke-opacity:1; fill:none" points="1531.01,475.873 1670.73,338.951 "/>
<polyline clip-path="url(#clip251)" style="stroke:#000000; stroke-linecap:round; stroke-linejoin:round; stroke-width:4; stroke-opacity:1; fill:none" points="1632.42,351.291 1670.73,338.951 1657.61,377.004 "/>
<polyline clip-path="url(#clip251)" style="stroke:#000000; stroke-linecap:round; stroke-linejoin:round; stroke-width:4; stroke-opacity:1; fill:none" points="1670.73,338.951 1531.01,475.873 "/>
<path clip-path="url(#clip251)" d="M1751.76 327.656 L1751.63 324.374 L1751.24 321.113 L1750.59 317.893 L1749.69 314.736 L1748.54 311.66 L1747.15 308.685 L1745.53 305.829 L1743.68 303.112 L1741.63 300.55 L1739.37 298.16 L1736.94 295.956 L1734.34 293.952 L1731.58 292.162 L1728.7 290.596 L1725.69 289.264 L1722.6 288.175 L1719.42 287.335 L1716.19 286.751 L1712.92 286.425 L1709.64 286.359 L1706.36 286.555 L1703.11 287.011 L1699.9 287.723 L1696.76 288.688 L1693.71 289.9 L1690.76 291.35 L1687.94 293.03 L1685.26 294.928 L1682.74 297.034 L1680.39 299.333 L1678.24 301.811 L1676.29 304.453 L1674.55 307.241 L1673.04 310.158 L1671.77 313.186 L1670.74 316.306 L1669.97 319.497 L1669.45 322.74 L1669.19 326.013 L1669.19 329.298 L1669.45 332.572 L1669.97 335.814 L1670.74 339.005 L1671.77 342.125 L1673.04 345.153 L1674.55 348.07 L1676.29 350.858 L1678.24 353.5 L1680.39 355.978 L1682.74 358.277 L1685.26 360.383 L1687.94 362.281 L1690.76 363.961 L1693.71 365.411 L1696.76 366.623 L1699.9 367.588 L1703.11 368.3 L1706.36 368.756 L1709.64 368.952 L1712.92 368.886 L1716.19 368.561 L1719.42 367.976 L1722.6 367.136 L1725.69 366.047 L1728.7 364.715 L1731.58 363.149 L1734.34 361.359 L1736.94 359.355 L1739.37 357.151 L1741.63 354.761 L1743.68 352.199 L1745.53 349.482 L1747.15 346.627 L1748.54 343.652 L1749.69 340.575 L1750.59 337.418 L1751.24 334.198 L1751.63 330.937 L1751.76 327.656 L1751.76 327.656  Z" fill="#add8e6" fill-rule="evenodd" fill-opacity="1"/>
<polyline clip-path="url(#clip251)" style="stroke:#000000; stroke-linecap:round; stroke-linejoin:round; stroke-width:4; stroke-opacity:1; fill:none" points="1751.76,327.656 1751.63,324.374 1751.24,321.113 1750.59,317.893 1749.69,314.736 1748.54,311.66 1747.15,308.685 1745.53,305.829 1743.68,303.112 1741.63,300.55 1739.37,298.16 1736.94,295.956 1734.34,293.952 1731.58,292.162 1728.7,290.596 1725.69,289.264 1722.6,288.175 1719.42,287.335 1716.19,286.751 1712.92,286.425 1709.64,286.359 1706.36,286.555 1703.11,287.011 1699.9,287.723 1696.76,288.688 1693.71,289.9 1690.76,291.35 1687.94,293.03 1685.26,294.928 1682.74,297.034 1680.39,299.333 1678.24,301.811 1676.29,304.453 1674.55,307.241 1673.04,310.158 1671.77,313.186 1670.74,316.306 1669.97,319.497 1669.45,322.74 1669.19,326.013 1669.19,329.298 1669.45,332.572 1669.97,335.814 1670.74,339.005 1671.77,342.125 1673.04,345.153 1674.55,348.07 1676.29,350.858 1678.24,353.5 1680.39,355.978 1682.74,358.277 1685.26,360.383 1687.94,362.281 1690.76,363.961 1693.71,365.411 1696.76,366.623 1699.9,367.588 1703.11,368.3 1706.36,368.756 1709.64,368.952 1712.92,368.886 1716.19,368.561 1719.42,367.976 1722.6,367.136 1725.69,366.047 1728.7,364.715 1731.58,363.149 1734.34,361.359 1736.94,359.355 1739.37,357.151 1741.63,354.761 1743.68,352.199 1745.53,349.482 1747.15,346.627 1748.54,343.652 1749.69,340.575 1750.59,337.418 1751.24,334.198 1751.63,330.937 1751.76,327.656 "/>
<path clip-path="url(#clip251)" d="M719.404 584.356 L719.309 581.984 L719.027 579.626 L718.558 577.299 L717.905 575.016 L717.074 572.792 L716.068 570.641 L714.894 568.577 L713.56 566.612 L712.075 564.76 L710.446 563.032 L708.686 561.438 L706.805 559.99 L704.814 558.695 L702.727 557.563 L700.557 556.6 L698.317 555.813 L696.021 555.206 L693.684 554.783 L691.322 554.547 L688.948 554.5 L686.578 554.642 L684.226 554.971 L681.908 555.486 L679.639 556.184 L677.432 557.06 L675.301 558.108 L673.261 559.323 L671.323 560.695 L669.501 562.217 L667.805 563.88 L666.247 565.671 L664.836 567.581 L663.582 569.597 L662.491 571.706 L661.571 573.895 L660.829 576.151 L660.268 578.458 L659.891 580.802 L659.703 583.169 L659.703 585.544 L659.891 587.911 L660.268 590.255 L660.829 592.562 L661.571 594.818 L662.491 597.007 L663.582 599.116 L664.836 601.132 L666.247 603.042 L667.805 604.833 L669.501 606.495 L671.323 608.018 L673.261 609.39 L675.301 610.605 L677.432 611.653 L679.639 612.529 L681.908 613.227 L684.226 613.742 L686.578 614.071 L688.948 614.213 L691.322 614.166 L693.684 613.93 L696.021 613.507 L698.317 612.9 L700.557 612.113 L702.727 611.15 L704.814 610.018 L706.805 608.723 L708.686 607.275 L710.446 605.681 L712.075 603.953 L713.56 602.101 L714.894 600.136 L716.068 598.072 L717.074 595.921 L717.905 593.697 L718.558 591.414 L719.027 589.087 L719.309 586.729 L719.404 584.356 L719.404 584.356  Z" fill="#90ee90" fill-rule="evenodd" fill-opacity="1"/>
<polyline clip-path="url(#clip251)" style="stroke:#000000; stroke-linecap:round; stroke-linejoin:round; stroke-width:4; stroke-opacity:1; fill:none" points="719.404,584.356 719.309,581.984 719.027,579.626 718.558,577.299 717.905,575.016 717.074,572.792 716.068,570.641 714.894,568.577 713.56,566.612 712.075,564.76 710.446,563.032 708.686,561.438 706.805,559.99 704.814,558.695 702.727,557.563 700.557,556.6 698.317,555.813 696.021,555.206 693.684,554.783 691.322,554.547 688.948,554.5 686.578,554.642 684.226,554.971 681.908,555.486 679.639,556.184 677.432,557.06 675.301,558.108 673.261,559.323 671.323,560.695 669.501,562.217 667.805,563.88 666.247,565.671 664.836,567.581 663.582,569.597 662.491,571.706 661.571,573.895 660.829,576.151 660.268,578.458 659.891,580.802 659.703,583.169 659.703,585.544 659.891,587.911 660.268,590.255 660.829,592.562 661.571,594.818 662.491,597.007 663.582,599.116 664.836,601.132 666.247,603.042 667.805,604.833 669.501,606.495 671.323,608.018 673.261,609.39 675.301,610.605 677.432,611.653 679.639,612.529 681.908,613.227 684.226,613.742 686.578,614.071 688.948,614.213 691.322,614.166 693.684,613.93 696.021,613.507 698.317,612.9 700.557,612.113 702.727,611.15 704.814,610.018 706.805,608.723 708.686,607.275 710.446,605.681 712.075,603.953 713.56,602.101 714.894,600.136 716.068,598.072 717.074,595.921 717.905,593.697 718.558,591.414 719.027,589.087 719.309,586.729 719.404,584.356 "/>
<path clip-path="url(#clip251)" d="M1214.37 1348.57 L1214.28 1346.2 L1214 1343.84 L1213.53 1341.51 L1212.87 1339.23 L1212.04 1337.01 L1211.04 1334.86 L1209.86 1332.79 L1208.53 1330.83 L1207.04 1328.98 L1205.41 1327.25 L1203.65 1325.65 L1201.77 1324.21 L1199.78 1322.91 L1197.7 1321.78 L1195.52 1320.82 L1193.28 1320.03 L1190.99 1319.42 L1188.65 1319 L1186.29 1318.76 L1183.92 1318.72 L1181.55 1318.86 L1179.19 1319.19 L1176.88 1319.7 L1174.61 1320.4 L1172.4 1321.28 L1170.27 1322.32 L1168.23 1323.54 L1166.29 1324.91 L1164.47 1326.43 L1162.77 1328.1 L1161.22 1329.89 L1159.8 1331.8 L1158.55 1333.81 L1157.46 1335.92 L1156.54 1338.11 L1155.8 1340.37 L1155.24 1342.67 L1154.86 1345.02 L1154.67 1347.39 L1154.67 1349.76 L1154.86 1352.13 L1155.24 1354.47 L1155.8 1356.78 L1156.54 1359.03 L1157.46 1361.22 L1158.55 1363.33 L1159.8 1365.35 L1161.22 1367.26 L1162.77 1369.05 L1164.47 1370.71 L1166.29 1372.23 L1168.23 1373.61 L1170.27 1374.82 L1172.4 1375.87 L1174.61 1376.75 L1176.88 1377.44 L1179.19 1377.96 L1181.55 1378.29 L1183.92 1378.43 L1186.29 1378.38 L1188.65 1378.15 L1190.99 1377.72 L1193.28 1377.12 L1195.52 1376.33 L1197.7 1375.37 L1199.78 1374.23 L1201.77 1372.94 L1203.65 1371.49 L1205.41 1369.9 L1207.04 1368.17 L1208.53 1366.32 L1209.86 1364.35 L1211.04 1362.29 L1212.04 1360.14 L1212.87 1357.91 L1213.53 1355.63 L1214 1353.3 L1214.28 1350.95 L1214.37 1348.57 L1214.37 1348.57  Z" fill="#90ee90" fill-rule="evenodd" fill-opacity="1"/>
<polyline clip-path="url(#clip251)" style="stroke:#000000; stroke-linecap:round; stroke-linejoin:round; stroke-width:4; stroke-opacity:1; fill:none" points="1214.37,1348.57 1214.28,1346.2 1214,1343.84 1213.53,1341.51 1212.87,1339.23 1212.04,1337.01 1211.04,1334.86 1209.86,1332.79 1208.53,1330.83 1207.04,1328.98 1205.41,1327.25 1203.65,1325.65 1201.77,1324.21 1199.78,1322.91 1197.7,1321.78 1195.52,1320.82 1193.28,1320.03 1190.99,1319.42 1188.65,1319 1186.29,1318.76 1183.92,1318.72 1181.55,1318.86 1179.19,1319.19 1176.88,1319.7 1174.61,1320.4 1172.4,1321.28 1170.27,1322.32 1168.23,1323.54 1166.29,1324.91 1164.47,1326.43 1162.77,1328.1 1161.22,1329.89 1159.8,1331.8 1158.55,1333.81 1157.46,1335.92 1156.54,1338.11 1155.8,1340.37 1155.24,1342.67 1154.86,1345.02 1154.67,1347.39 1154.67,1349.76 1154.86,1352.13 1155.24,1354.47 1155.8,1356.78 1156.54,1359.03 1157.46,1361.22 1158.55,1363.33 1159.8,1365.35 1161.22,1367.26 1162.77,1369.05 1164.47,1370.71 1166.29,1372.23 1168.23,1373.61 1170.27,1374.82 1172.4,1375.87 1174.61,1376.75 1176.88,1377.44 1179.19,1377.96 1181.55,1378.29 1183.92,1378.43 1186.29,1378.38 1188.65,1378.15 1190.99,1377.72 1193.28,1377.12 1195.52,1376.33 1197.7,1375.37 1199.78,1374.23 1201.77,1372.94 1203.65,1371.49 1205.41,1369.9 1207.04,1368.17 1208.53,1366.32 1209.86,1364.35 1211.04,1362.29 1212.04,1360.14 1212.87,1357.91 1213.53,1355.63 1214,1353.3 1214.28,1350.95 1214.37,1348.57 "/>
<path clip-path="url(#clip251)" d="M1358.85 632.228 L1358.8 630.865 L1358.63 629.511 L1358.36 628.174 L1357.99 626.863 L1357.51 625.586 L1356.93 624.35 L1356.26 623.165 L1355.49 622.037 L1354.64 620.973 L1353.71 619.98 L1352.69 619.065 L1351.61 618.233 L1350.47 617.489 L1349.27 616.839 L1348.03 616.286 L1346.74 615.834 L1345.42 615.485 L1344.08 615.242 L1342.72 615.107 L1341.36 615.08 L1340 615.161 L1338.65 615.35 L1337.32 615.646 L1336.01 616.047 L1334.74 616.55 L1333.52 617.152 L1332.35 617.85 L1331.24 618.638 L1330.19 619.512 L1329.22 620.467 L1328.32 621.496 L1327.51 622.593 L1326.79 623.751 L1326.16 624.962 L1325.63 626.22 L1325.21 627.515 L1324.89 628.84 L1324.67 630.187 L1324.56 631.546 L1324.56 632.91 L1324.67 634.269 L1324.89 635.616 L1325.21 636.941 L1325.63 638.236 L1326.16 639.494 L1326.79 640.705 L1327.51 641.863 L1328.32 642.96 L1329.22 643.989 L1330.19 644.943 L1331.24 645.818 L1332.35 646.606 L1333.52 647.304 L1334.74 647.906 L1336.01 648.409 L1337.32 648.81 L1338.65 649.105 L1340 649.295 L1341.36 649.376 L1342.72 649.349 L1344.08 649.213 L1345.42 648.971 L1346.74 648.622 L1348.03 648.17 L1349.27 647.617 L1350.47 646.967 L1351.61 646.223 L1352.69 645.391 L1353.71 644.476 L1354.64 643.483 L1355.49 642.419 L1356.26 641.291 L1356.93 640.106 L1357.51 638.87 L1357.99 637.593 L1358.36 636.282 L1358.63 634.945 L1358.8 633.591 L1358.85 632.228 L1358.85 632.228  Z" fill="#ffffff" fill-rule="evenodd" fill-opacity="1"/>
<polyline clip-path="url(#clip251)" style="stroke:#000000; stroke-linecap:round; stroke-linejoin:round; stroke-width:4; stroke-opacity:1; fill:none" points="1358.85,632.228 1358.8,630.865 1358.63,629.511 1358.36,628.174 1357.99,626.863 1357.51,625.586 1356.93,624.35 1356.26,623.165 1355.49,622.037 1354.64,620.973 1353.71,619.98 1352.69,619.065 1351.61,618.233 1350.47,617.489 1349.27,616.839 1348.03,616.286 1346.74,615.834 1345.42,615.485 1344.08,615.242 1342.72,615.107 1341.36,615.08 1340,615.161 1338.65,615.35 1337.32,615.646 1336.01,616.047 1334.74,616.55 1333.52,617.152 1332.35,617.85 1331.24,618.638 1330.19,619.512 1329.22,620.467 1328.32,621.496 1327.51,622.593 1326.79,623.751 1326.16,624.962 1325.63,626.22 1325.21,627.515 1324.89,628.84 1324.67,630.187 1324.56,631.546 1324.56,632.91 1324.67,634.269 1324.89,635.616 1325.21,636.941 1325.63,638.236 1326.16,639.494 1326.79,640.705 1327.51,641.863 1328.32,642.96 1329.22,643.989 1330.19,644.943 1331.24,645.818 1332.35,646.606 1333.52,647.304 1334.74,647.906 1336.01,648.409 1337.32,648.81 1338.65,649.105 1340,649.295 1341.36,649.376 1342.72,649.349 1344.08,649.213 1345.42,648.971 1346.74,648.622 1348.03,648.17 1349.27,647.617 1350.47,646.967 1351.61,646.223 1352.69,645.391 1353.71,644.476 1354.64,643.483 1355.49,642.419 1356.26,641.291 1356.93,640.106 1357.51,638.87 1357.99,637.593 1358.36,636.282 1358.63,634.945 1358.8,633.591 1358.85,632.228 "/>
<path clip-path="url(#clip251)" d="M921.425 690.014 L921.371 688.651 L921.209 687.297 L920.939 685.96 L920.565 684.649 L920.087 683.372 L919.509 682.136 L918.835 680.951 L918.069 679.822 L917.216 678.759 L916.281 677.766 L915.27 676.851 L914.189 676.019 L913.046 675.275 L911.847 674.625 L910.601 674.072 L909.314 673.62 L907.995 673.271 L906.654 673.028 L905.296 672.893 L903.933 672.866 L902.572 672.947 L901.221 673.136 L899.89 673.432 L898.586 673.833 L897.319 674.336 L896.095 674.938 L894.923 675.636 L893.81 676.424 L892.764 677.298 L891.79 678.253 L890.895 679.282 L890.085 680.379 L889.364 681.537 L888.738 682.748 L888.209 684.006 L887.783 685.301 L887.461 686.626 L887.244 687.973 L887.136 689.332 L887.136 690.696 L887.244 692.055 L887.461 693.402 L887.783 694.727 L888.209 696.022 L888.738 697.28 L889.364 698.491 L890.085 699.649 L890.895 700.746 L891.79 701.775 L892.764 702.729 L893.81 703.604 L894.923 704.392 L896.095 705.09 L897.319 705.692 L898.586 706.195 L899.89 706.595 L901.221 706.891 L902.572 707.081 L903.933 707.162 L905.296 707.135 L906.654 706.999 L907.995 706.757 L909.314 706.408 L910.601 705.956 L911.847 705.403 L913.046 704.752 L914.189 704.009 L915.27 703.177 L916.281 702.262 L917.216 701.269 L918.069 700.205 L918.835 699.077 L919.509 697.891 L920.087 696.656 L920.565 695.379 L920.939 694.067 L921.209 692.731 L921.371 691.377 L921.425 690.014 L921.425 690.014  Z" fill="#ffffff" fill-rule="evenodd" fill-opacity="1"/>
<polyline clip-path="url(#clip251)" style="stroke:#000000; stroke-linecap:round; stroke-linejoin:round; stroke-width:4; stroke-opacity:1; fill:none" points="921.425,690.014 921.371,688.651 921.209,687.297 920.939,685.96 920.565,684.649 920.087,683.372 919.509,682.136 918.835,680.951 918.069,679.822 917.216,678.759 916.281,677.766 915.27,676.851 914.189,676.019 913.046,675.275 911.847,674.625 910.601,674.072 909.314,673.62 907.995,673.271 906.654,673.028 905.296,672.893 903.933,672.866 902.572,672.947 901.221,673.136 899.89,673.432 898.586,673.833 897.319,674.336 896.095,674.938 894.923,675.636 893.81,676.424 892.764,677.298 891.79,678.253 890.895,679.282 890.085,680.379 889.364,681.537 888.738,682.748 888.209,684.006 887.783,685.301 887.461,686.626 887.244,687.973 887.136,689.332 887.136,690.696 887.244,692.055 887.461,693.402 887.783,694.727 888.209,696.022 888.738,697.28 889.364,698.491 890.085,699.649 890.895,700.746 891.79,701.775 892.764,702.729 893.81,703.604 894.923,704.392 896.095,705.09 897.319,705.692 898.586,706.195 899.89,706.595 901.221,706.891 902.572,707.081 903.933,707.162 905.296,707.135 906.654,706.999 907.995,706.757 909.314,706.408 910.601,705.956 911.847,705.403 913.046,704.752 914.189,704.009 915.27,703.177 916.281,702.262 917.216,701.269 918.069,700.205 918.835,699.077 919.509,697.891 920.087,696.656 920.565,695.379 920.939,694.067 921.209,692.731 921.371,691.377 921.425,690.014 "/>
<path clip-path="url(#clip251)" d="M1177.55 1085.47 L1177.5 1084.11 L1177.34 1082.75 L1177.07 1081.42 L1176.69 1080.1 L1176.22 1078.83 L1175.64 1077.59 L1174.96 1076.41 L1174.2 1075.28 L1173.34 1074.21 L1172.41 1073.22 L1171.4 1072.31 L1170.32 1071.47 L1169.17 1070.73 L1167.98 1070.08 L1166.73 1069.53 L1165.44 1069.08 L1164.12 1068.73 L1162.78 1068.48 L1161.43 1068.35 L1160.06 1068.32 L1158.7 1068.4 L1157.35 1068.59 L1156.02 1068.89 L1154.72 1069.29 L1153.45 1069.79 L1152.22 1070.39 L1151.05 1071.09 L1149.94 1071.88 L1148.89 1072.75 L1147.92 1073.71 L1147.02 1074.74 L1146.21 1075.83 L1145.49 1076.99 L1144.87 1078.2 L1144.34 1079.46 L1143.91 1080.76 L1143.59 1082.08 L1143.37 1083.43 L1143.27 1084.79 L1143.27 1086.15 L1143.37 1087.51 L1143.59 1088.86 L1143.91 1090.18 L1144.34 1091.48 L1144.87 1092.74 L1145.49 1093.95 L1146.21 1095.1 L1147.02 1096.2 L1147.92 1097.23 L1148.89 1098.18 L1149.94 1099.06 L1151.05 1099.85 L1152.22 1100.55 L1153.45 1101.15 L1154.72 1101.65 L1156.02 1102.05 L1157.35 1102.35 L1158.7 1102.54 L1160.06 1102.62 L1161.43 1102.59 L1162.78 1102.46 L1164.12 1102.21 L1165.44 1101.86 L1166.73 1101.41 L1167.98 1100.86 L1169.17 1100.21 L1170.32 1099.46 L1171.4 1098.63 L1172.41 1097.72 L1173.34 1096.72 L1174.2 1095.66 L1174.96 1094.53 L1175.64 1093.35 L1176.22 1092.11 L1176.69 1090.83 L1177.07 1089.52 L1177.34 1088.19 L1177.5 1086.83 L1177.55 1085.47 L1177.55 1085.47  Z" fill="#ffffff" fill-rule="evenodd" fill-opacity="1"/>
<polyline clip-path="url(#clip251)" style="stroke:#000000; stroke-linecap:round; stroke-linejoin:round; stroke-width:4; stroke-opacity:1; fill:none" points="1177.55,1085.47 1177.5,1084.11 1177.34,1082.75 1177.07,1081.42 1176.69,1080.1 1176.22,1078.83 1175.64,1077.59 1174.96,1076.41 1174.2,1075.28 1173.34,1074.21 1172.41,1073.22 1171.4,1072.31 1170.32,1071.47 1169.17,1070.73 1167.98,1070.08 1166.73,1069.53 1165.44,1069.08 1164.12,1068.73 1162.78,1068.48 1161.43,1068.35 1160.06,1068.32 1158.7,1068.4 1157.35,1068.59 1156.02,1068.89 1154.72,1069.29 1153.45,1069.79 1152.22,1070.39 1151.05,1071.09 1149.94,1071.88 1148.89,1072.75 1147.92,1073.71 1147.02,1074.74 1146.21,1075.83 1145.49,1076.99 1144.87,1078.2 1144.34,1079.46 1143.91,1080.76 1143.59,1082.08 1143.37,1083.43 1143.27,1084.79 1143.27,1086.15 1143.37,1087.51 1143.59,1088.86 1143.91,1090.18 1144.34,1091.48 1144.87,1092.74 1145.49,1093.95 1146.21,1095.1 1147.02,1096.2 1147.92,1097.23 1148.89,1098.18 1149.94,1099.06 1151.05,1099.85 1152.22,1100.55 1153.45,1101.15 1154.72,1101.65 1156.02,1102.05 1157.35,1102.35 1158.7,1102.54 1160.06,1102.62 1161.43,1102.59 1162.78,1102.46 1164.12,1102.21 1165.44,1101.86 1166.73,1101.41 1167.98,1100.86 1169.17,1100.21 1170.32,1099.46 1171.4,1098.63 1172.41,1097.72 1173.34,1096.72 1174.2,1095.66 1174.96,1094.53 1175.64,1093.35 1176.22,1092.11 1176.69,1090.83 1177.07,1089.52 1177.34,1088.19 1177.5,1086.83 1177.55,1085.47 "/>
<path clip-path="url(#clip251)" d="M1548.16 475.873 L1548.1 474.51 L1547.94 473.156 L1547.67 471.819 L1547.3 470.508 L1546.82 469.23 L1546.24 467.995 L1545.57 466.809 L1544.8 465.681 L1543.95 464.617 L1543.01 463.625 L1542 462.709 L1540.92 461.877 L1539.78 461.134 L1538.58 460.484 L1537.33 459.931 L1536.05 459.478 L1534.73 459.13 L1533.38 458.887 L1532.03 458.752 L1530.66 458.724 L1529.3 458.806 L1527.95 458.995 L1526.62 459.291 L1525.32 459.692 L1524.05 460.195 L1522.83 460.797 L1521.65 461.494 L1520.54 462.283 L1519.49 463.157 L1518.52 464.112 L1517.63 465.141 L1516.82 466.238 L1516.1 467.395 L1515.47 468.607 L1514.94 469.864 L1514.51 471.16 L1514.19 472.485 L1513.98 473.831 L1513.87 475.191 L1513.87 476.554 L1513.98 477.914 L1514.19 479.26 L1514.51 480.586 L1514.94 481.881 L1515.47 483.138 L1516.1 484.35 L1516.82 485.507 L1517.63 486.604 L1518.52 487.633 L1519.49 488.588 L1520.54 489.462 L1521.65 490.251 L1522.83 490.948 L1524.05 491.55 L1525.32 492.053 L1526.62 492.454 L1527.95 492.75 L1529.3 492.939 L1530.66 493.021 L1532.03 492.993 L1533.38 492.858 L1534.73 492.615 L1536.05 492.267 L1537.33 491.814 L1538.58 491.261 L1539.78 490.611 L1540.92 489.868 L1542 489.036 L1543.01 488.12 L1543.95 487.128 L1544.8 486.064 L1545.57 484.936 L1546.24 483.75 L1546.82 482.515 L1547.3 481.237 L1547.67 479.926 L1547.94 478.589 L1548.1 477.235 L1548.16 475.873 L1548.16 475.873  Z" fill="#ff7f50" fill-rule="evenodd" fill-opacity="1"/>
<polyline clip-path="url(#clip251)" style="stroke:#000000; stroke-linecap:round; stroke-linejoin:round; stroke-width:4; stroke-opacity:1; fill:none" points="1548.16,475.873 1548.1,474.51 1547.94,473.156 1547.67,471.819 1547.3,470.508 1546.82,469.23 1546.24,467.995 1545.57,466.809 1544.8,465.681 1543.95,464.617 1543.01,463.625 1542,462.709 1540.92,461.877 1539.78,461.134 1538.58,460.484 1537.33,459.931 1536.05,459.478 1534.73,459.13 1533.38,458.887 1532.03,458.752 1530.66,458.724 1529.3,458.806 1527.95,458.995 1526.62,459.291 1525.32,459.692 1524.05,460.195 1522.83,460.797 1521.65,461.494 1520.54,462.283 1519.49,463.157 1518.52,464.112 1517.63,465.141 1516.82,466.238 1516.1,467.395 1515.47,468.607 1514.94,469.864 1514.51,471.16 1514.19,472.485 1513.98,473.831 1513.87,475.191 1513.87,476.554 1513.98,477.914 1514.19,479.26 1514.51,480.586 1514.94,481.881 1515.47,483.138 1516.1,484.35 1516.82,485.507 1517.63,486.604 1518.52,487.633 1519.49,488.588 1520.54,489.462 1521.65,490.251 1522.83,490.948 1524.05,491.55 1525.32,492.053 1526.62,492.454 1527.95,492.75 1529.3,492.939 1530.66,493.021 1532.03,492.993 1533.38,492.858 1534.73,492.615 1536.05,492.267 1537.33,491.814 1538.58,491.261 1539.78,490.611 1540.92,489.868 1542,489.036 1543.01,488.12 1543.95,487.128 1544.8,486.064 1545.57,484.936 1546.24,483.75 1546.82,482.515 1547.3,481.237 1547.67,479.926 1547.94,478.589 1548.1,477.235 1548.16,475.873 "/>
<path clip-path="url(#clip251)" d="M1397.53 913.829 L1397.4 910.548 L1397.01 907.287 L1396.36 904.067 L1395.46 900.909 L1394.31 897.833 L1392.92 894.858 L1391.3 892.003 L1389.45 889.286 L1387.4 886.724 L1385.14 884.334 L1382.71 882.13 L1380.11 880.126 L1377.35 878.336 L1374.47 876.769 L1371.46 875.438 L1368.37 874.348 L1365.19 873.509 L1361.96 872.924 L1358.69 872.598 L1355.41 872.533 L1352.13 872.729 L1348.88 873.185 L1345.67 873.897 L1342.53 874.862 L1339.48 876.074 L1336.53 877.524 L1333.71 879.203 L1331.03 881.102 L1328.51 883.208 L1326.16 885.507 L1324.01 887.985 L1322.06 890.626 L1320.32 893.415 L1318.81 896.332 L1317.54 899.36 L1316.51 902.479 L1315.74 905.671 L1315.22 908.913 L1314.96 912.187 L1314.96 915.472 L1315.22 918.745 L1315.74 921.988 L1316.51 925.179 L1317.54 928.299 L1318.81 931.327 L1320.32 934.244 L1322.06 937.032 L1324.01 939.674 L1326.16 942.152 L1328.51 944.451 L1331.03 946.557 L1333.71 948.455 L1336.53 950.135 L1339.48 951.585 L1342.53 952.797 L1345.67 953.762 L1348.88 954.474 L1352.13 954.93 L1355.41 955.126 L1358.69 955.06 L1361.96 954.734 L1365.19 954.15 L1368.37 953.31 L1371.46 952.221 L1374.47 950.889 L1377.35 949.323 L1380.11 947.533 L1382.71 945.529 L1385.14 943.325 L1387.4 940.934 L1389.45 938.373 L1391.3 935.655 L1392.92 932.8 L1394.31 929.825 L1395.46 926.749 L1396.36 923.591 L1397.01 920.372 L1397.4 917.111 L1397.53 913.829 L1397.53 913.829  Z" fill="#ff7f50" fill-rule="evenodd" fill-opacity="1"/>
<polyline clip-path="url(#clip251)" style="stroke:#000000; stroke-linecap:round; stroke-linejoin:round; stroke-width:4; stroke-opacity:1; fill:none" points="1397.53,913.829 1397.4,910.548 1397.01,907.287 1396.36,904.067 1395.46,900.909 1394.31,897.833 1392.92,894.858 1391.3,892.003 1389.45,889.286 1387.4,886.724 1385.14,884.334 1382.71,882.13 1380.11,880.126 1377.35,878.336 1374.47,876.769 1371.46,875.438 1368.37,874.348 1365.19,873.509 1361.96,872.924 1358.69,872.598 1355.41,872.533 1352.13,872.729 1348.88,873.185 1345.67,873.897 1342.53,874.862 1339.48,876.074 1336.53,877.524 1333.71,879.203 1331.03,881.102 1328.51,883.208 1326.16,885.507 1324.01,887.985 1322.06,890.626 1320.32,893.415 1318.81,896.332 1317.54,899.36 1316.51,902.479 1315.74,905.671 1315.22,908.913 1314.96,912.187 1314.96,915.472 1315.22,918.745 1315.74,921.988 1316.51,925.179 1317.54,928.299 1318.81,931.327 1320.32,934.244 1322.06,937.032 1324.01,939.674 1326.16,942.152 1328.51,944.451 1331.03,946.557 1333.71,948.455 1336.53,950.135 1339.48,951.585 1342.53,952.797 1345.67,953.762 1348.88,954.474 1352.13,954.93 1355.41,955.126 1358.69,955.06 1361.96,954.734 1365.19,954.15 1368.37,953.31 1371.46,952.221 1374.47,950.889 1377.35,949.323 1380.11,947.533 1382.71,945.529 1385.14,943.325 1387.4,940.934 1389.45,938.373 1391.3,935.655 1392.92,932.8 1394.31,929.825 1395.46,926.749 1396.36,923.591 1397.01,920.372 1397.4,917.111 1397.53,913.829 "/>
<path clip-path="url(#clip251)" d="M1160.45 531.272 L1160.28 527.142 L1159.79 523.037 L1158.97 518.984 L1157.84 515.009 L1156.39 511.137 L1154.64 507.392 L1152.6 503.798 L1150.27 500.378 L1147.69 497.153 L1144.85 494.144 L1141.79 491.37 L1138.51 488.847 L1135.05 486.593 L1131.41 484.622 L1127.63 482.946 L1123.73 481.575 L1119.74 480.518 L1115.67 479.782 L1111.55 479.372 L1107.42 479.289 L1103.29 479.536 L1099.2 480.109 L1095.16 481.006 L1091.21 482.221 L1087.37 483.746 L1083.66 485.572 L1080.11 487.686 L1076.73 490.076 L1073.56 492.726 L1070.61 495.62 L1067.9 498.74 L1065.44 502.065 L1063.26 505.575 L1061.36 509.247 L1059.76 513.059 L1058.46 516.985 L1057.49 521.002 L1056.83 525.084 L1056.5 529.205 L1056.5 533.34 L1056.83 537.461 L1057.49 541.543 L1058.46 545.56 L1059.76 549.486 L1061.36 553.298 L1063.26 556.97 L1065.44 560.48 L1067.9 563.805 L1070.61 566.925 L1073.56 569.819 L1076.73 572.469 L1080.11 574.859 L1083.66 576.973 L1087.37 578.799 L1091.21 580.324 L1095.16 581.538 L1099.2 582.436 L1103.29 583.009 L1107.42 583.256 L1111.55 583.173 L1115.67 582.763 L1119.74 582.027 L1123.73 580.97 L1127.63 579.599 L1131.41 577.923 L1135.05 575.951 L1138.51 573.698 L1141.79 571.175 L1144.85 568.401 L1147.69 565.392 L1150.27 562.167 L1152.6 558.747 L1154.64 555.153 L1156.39 551.408 L1157.84 547.536 L1158.97 543.561 L1159.79 539.508 L1160.28 535.403 L1160.45 531.272 L1160.45 531.272  Z" fill="#ff7f50" fill-rule="evenodd" fill-opacity="1"/>
<polyline clip-path="url(#clip251)" style="stroke:#000000; stroke-linecap:round; stroke-linejoin:round; stroke-width:4; stroke-opacity:1; fill:none" points="1160.45,531.272 1160.28,527.142 1159.79,523.037 1158.97,518.984 1157.84,515.009 1156.39,511.137 1154.64,507.392 1152.6,503.798 1150.27,500.378 1147.69,497.153 1144.85,494.144 1141.79,491.37 1138.51,488.847 1135.05,486.593 1131.41,484.622 1127.63,482.946 1123.73,481.575 1119.74,480.518 1115.67,479.782 1111.55,479.372 1107.42,479.289 1103.29,479.536 1099.2,480.109 1095.16,481.006 1091.21,482.221 1087.37,483.746 1083.66,485.572 1080.11,487.686 1076.73,490.076 1073.56,492.726 1070.61,495.62 1067.9,498.74 1065.44,502.065 1063.26,505.575 1061.36,509.247 1059.76,513.059 1058.46,516.985 1057.49,521.002 1056.83,525.084 1056.5,529.205 1056.5,533.34 1056.83,537.461 1057.49,541.543 1058.46,545.56 1059.76,549.486 1061.36,553.298 1063.26,556.97 1065.44,560.48 1067.9,563.805 1070.61,566.925 1073.56,569.819 1076.73,572.469 1080.11,574.859 1083.66,576.973 1087.37,578.799 1091.21,580.324 1095.16,581.538 1099.2,582.436 1103.29,583.009 1107.42,583.256 1111.55,583.173 1115.67,582.763 1119.74,582.027 1123.73,580.97 1127.63,579.599 1131.41,577.923 1135.05,575.951 1138.51,573.698 1141.79,571.175 1144.85,568.401 1147.69,565.392 1150.27,562.167 1152.6,558.747 1154.64,555.153 1156.39,551.408 1157.84,547.536 1158.97,543.561 1159.79,539.508 1160.28,535.403 1160.45,531.272 "/>
<path clip-path="url(#clip251)" d="M985.518 969.356 L985.353 965.225 L984.861 961.121 L984.045 957.068 L982.909 953.093 L981.461 949.221 L979.709 945.476 L977.666 941.882 L975.344 938.462 L972.757 935.237 L969.922 932.228 L966.857 929.453 L963.581 926.931 L960.116 924.677 L956.482 922.706 L952.703 921.029 L948.803 919.658 L944.806 918.602 L940.738 917.866 L936.624 917.455 L932.491 917.373 L928.364 917.62 L924.27 918.193 L920.234 919.09 L916.283 920.305 L912.44 921.83 L908.731 923.655 L905.178 925.77 L901.805 928.16 L898.632 930.81 L895.68 933.704 L892.967 936.824 L890.51 940.149 L888.326 943.659 L886.427 947.331 L884.826 951.142 L883.533 955.069 L882.556 959.086 L881.901 963.168 L881.572 967.289 L881.572 971.423 L881.901 975.544 L882.556 979.626 L883.533 983.643 L884.826 987.57 L886.427 991.382 L888.326 995.054 L890.51 998.564 L892.967 1001.89 L895.68 1005.01 L898.632 1007.9 L901.805 1010.55 L905.178 1012.94 L908.731 1015.06 L912.44 1016.88 L916.283 1018.41 L920.234 1019.62 L924.27 1020.52 L928.364 1021.09 L932.491 1021.34 L936.624 1021.26 L940.738 1020.85 L944.806 1020.11 L948.803 1019.05 L952.703 1017.68 L956.482 1016.01 L960.116 1014.04 L963.581 1011.78 L966.857 1009.26 L969.922 1006.48 L972.757 1003.48 L975.344 1000.25 L977.666 996.83 L979.709 993.237 L981.461 989.492 L982.909 985.62 L984.045 981.645 L984.861 977.592 L985.353 973.487 L985.518 969.356 L985.518 969.356  Z" fill="#ff7f50" fill-rule="evenodd" fill-opacity="1"/>
<polyline clip-path="url(#clip251)" style="stroke:#000000; stroke-linecap:round; stroke-linejoin:round; stroke-width:4; stroke-opacity:1; fill:none" points="985.518,969.356 985.353,965.225 984.861,961.121 984.045,957.068 982.909,953.093 981.461,949.221 979.709,945.476 977.666,941.882 975.344,938.462 972.757,935.237 969.922,932.228 966.857,929.453 963.581,926.931 960.116,924.677 956.482,922.706 952.703,921.029 948.803,919.658 944.806,918.602 940.738,917.866 936.624,917.455 932.491,917.373 928.364,917.62 924.27,918.193 920.234,919.09 916.283,920.305 912.44,921.83 908.731,923.655 905.178,925.77 901.805,928.16 898.632,930.81 895.68,933.704 892.967,936.824 890.51,940.149 888.326,943.659 886.427,947.331 884.826,951.142 883.533,955.069 882.556,959.086 881.901,963.168 881.572,967.289 881.572,971.423 881.901,975.544 882.556,979.626 883.533,983.643 884.826,987.57 886.427,991.382 888.326,995.054 890.51,998.564 892.967,1001.89 895.68,1005.01 898.632,1007.9 901.805,1010.55 905.178,1012.94 908.731,1015.06 912.44,1016.88 916.283,1018.41 920.234,1019.62 924.27,1020.52 928.364,1021.09 932.491,1021.34 936.624,1021.26 940.738,1020.85 944.806,1020.11 948.803,1019.05 952.703,1017.68 956.482,1016.01 960.116,1014.04 963.581,1011.78 966.857,1009.26 969.922,1006.48 972.757,1003.48 975.344,1000.25 977.666,996.83 979.709,993.237 981.461,989.492 982.909,985.62 984.045,981.645 984.861,977.592 985.353,973.487 985.518,969.356 "/>
<circle clip-path="url(#clip251)" style="fill:#add8e6; stroke:none; fill-opacity:0" cx="1710.46" cy="327.656" r="2"/>
<circle clip-path="url(#clip251)" style="fill:#add8e6; stroke:none; fill-opacity:0" cx="689.542" cy="584.356" r="2"/>
<circle clip-path="url(#clip251)" style="fill:#add8e6; stroke:none; fill-opacity:0" cx="1184.51" cy="1348.57" r="2"/>
<circle clip-path="url(#clip251)" style="fill:#add8e6; stroke:none; fill-opacity:0" cx="1341.7" cy="632.228" r="2"/>
<circle clip-path="url(#clip251)" style="fill:#add8e6; stroke:none; fill-opacity:0" cx="904.274" cy="690.014" r="2"/>
<circle clip-path="url(#clip251)" style="fill:#add8e6; stroke:none; fill-opacity:0" cx="1160.4" cy="1085.47" r="2"/>
<circle clip-path="url(#clip251)" style="fill:#add8e6; stroke:none; fill-opacity:0" cx="1531.01" cy="475.873" r="2"/>
<circle clip-path="url(#clip251)" style="fill:#add8e6; stroke:none; fill-opacity:0" cx="1356.23" cy="913.829" r="2"/>
<circle clip-path="url(#clip251)" style="fill:#add8e6; stroke:none; fill-opacity:0" cx="1108.45" cy="531.272" r="2"/>
<circle clip-path="url(#clip251)" style="fill:#add8e6; stroke:none; fill-opacity:0" cx="933.525" cy="969.356" r="2"/>
<path clip-path="url(#clip250)" d="M1678.74 324.445 Q1680.14 321.934 1682.08 320.739 Q1684.03 319.544 1686.66 319.544 Q1690.2 319.544 1692.13 322.035 Q1694.05 324.506 1694.05 329.083 L1694.05 342.776 L1690.31 342.776 L1690.31 329.205 Q1690.31 325.944 1689.15 324.364 Q1688 322.784 1685.63 322.784 Q1682.73 322.784 1681.05 324.708 Q1679.37 326.633 1679.37 329.954 L1679.37 342.776 L1675.62 342.776 L1675.62 329.205 Q1675.62 325.924 1674.47 324.364 Q1673.31 322.784 1670.9 322.784 Q1668.05 322.784 1666.36 324.729 Q1664.68 326.653 1664.68 329.954 L1664.68 342.776 L1660.94 342.776 L1660.94 320.09 L1664.68 320.09 L1664.68 323.615 Q1665.96 321.529 1667.74 320.536 Q1669.52 319.544 1671.97 319.544 Q1674.45 319.544 1676.17 320.799 Q1677.91 322.055 1678.74 324.445 Z" fill="#000000" fill-rule="nonzero" fill-opacity="1" /><path clip-path="url(#clip250)" d="M1720.89 330.501 L1720.89 332.324 L1703.75 332.324 Q1704 336.173 1706.06 338.198 Q1708.15 340.203 1711.86 340.203 Q1714 340.203 1716.01 339.677 Q1718.03 339.15 1720.02 338.097 L1720.02 341.621 Q1718.01 342.472 1715.91 342.917 Q1713.8 343.363 1711.63 343.363 Q1706.21 343.363 1703.03 340.203 Q1699.87 337.043 1699.87 331.656 Q1699.87 326.086 1702.86 322.825 Q1705.88 319.544 1710.99 319.544 Q1715.56 319.544 1718.22 322.501 Q1720.89 325.438 1720.89 330.501 M1717.16 329.408 Q1717.12 326.349 1715.44 324.526 Q1713.78 322.703 1711.03 322.703 Q1707.91 322.703 1706.02 324.465 Q1704.16 326.228 1703.88 329.428 L1717.16 329.408 Z" fill="#000000" fill-rule="nonzero" fill-opacity="1" /><path clip-path="url(#clip250)" d="M1744.67 324.445 Q1746.07 321.934 1748.01 320.739 Q1749.95 319.544 1752.59 319.544 Q1756.13 319.544 1758.06 322.035 Q1759.98 324.506 1759.98 329.083 L1759.98 342.776 L1756.23 342.776 L1756.23 329.205 Q1756.23 325.944 1755.08 324.364 Q1753.92 322.784 1751.55 322.784 Q1748.66 322.784 1746.98 324.708 Q1745.3 326.633 1745.3 329.954 L1745.3 342.776 L1741.55 342.776 L1741.55 329.205 Q1741.55 325.924 1740.39 324.364 Q1739.24 322.784 1736.83 322.784 Q1733.97 322.784 1732.29 324.729 Q1730.61 326.653 1730.61 329.954 L1730.61 342.776 L1726.86 342.776 L1726.86 320.09 L1730.61 320.09 L1730.61 323.615 Q1731.89 321.529 1733.67 320.536 Q1735.45 319.544 1737.9 319.544 Q1740.37 319.544 1742.1 320.799 Q1743.84 322.055 1744.67 324.445 Z" fill="#000000" fill-rule="nonzero" fill-opacity="1" /><path clip-path="url(#clip250)" d="M673.804 569.236 L677.895 569.236 L677.895 599.476 L673.804 599.476 L673.804 569.236 Z" fill="#000000" fill-rule="nonzero" fill-opacity="1" /><path clip-path="url(#clip250)" d="M705.279 587.202 L705.279 589.025 L688.144 589.025 Q688.387 592.874 690.453 594.899 Q692.539 596.904 696.246 596.904 Q698.393 596.904 700.398 596.378 Q702.423 595.851 704.408 594.798 L704.408 598.322 Q702.403 599.173 700.297 599.618 Q698.19 600.064 696.023 600.064 Q690.595 600.064 687.415 596.904 Q684.255 593.744 684.255 588.357 Q684.255 582.787 687.253 579.526 Q690.271 576.245 695.375 576.245 Q699.952 576.245 702.606 579.202 Q705.279 582.139 705.279 587.202 M701.552 586.108 Q701.512 583.05 699.831 581.227 Q698.17 579.404 695.415 579.404 Q692.296 579.404 690.412 581.166 Q688.549 582.929 688.265 586.129 L701.552 586.108 Z" fill="#000000" fill-rule="nonzero" fill-opacity="1" /><path clip-path="url(#clip250)" d="M1176.61 1333.45 L1180.7 1333.45 L1180.7 1363.69 L1176.61 1363.69 L1176.61 1333.45 Z" fill="#000000" fill-rule="nonzero" fill-opacity="1" /><path clip-path="url(#clip250)" d="M1188.68 1341.01 L1192.41 1341.01 L1192.41 1363.69 L1188.68 1363.69 L1188.68 1341.01 M1188.68 1332.18 L1192.41 1332.18 L1192.41 1336.9 L1188.68 1336.9 L1188.68 1332.18 Z" fill="#000000" fill-rule="nonzero" fill-opacity="1" /><path clip-path="url(#clip250)" d="M1341.7 619.802 Q1338.54 619.802 1336.94 622.921 Q1335.36 626.02 1335.36 632.258 Q1335.36 638.476 1336.94 641.596 Q1338.54 644.695 1341.7 644.695 Q1344.88 644.695 1346.46 641.596 Q1348.06 638.476 1348.06 632.258 Q1348.06 626.02 1346.46 622.921 Q1344.88 619.802 1341.7 619.802 M1341.7 616.561 Q1346.78 616.561 1349.46 620.592 Q1352.15 624.602 1352.15 632.258 Q1352.15 639.894 1349.46 643.925 Q1346.78 647.935 1341.7 647.935 Q1336.62 647.935 1333.92 643.925 Q1331.25 639.894 1331.25 632.258 Q1331.25 624.602 1333.92 620.592 Q1336.62 616.561 1341.7 616.561 Z" fill="#000000" fill-rule="nonzero" fill-opacity="1" /><path clip-path="url(#clip250)" d="M895.858 701.691 L902.542 701.691 L902.542 678.621 L895.271 680.079 L895.271 676.352 L902.502 674.894 L906.593 674.894 L906.593 701.691 L913.277 701.691 L913.277 705.134 L895.858 705.134 L895.858 701.691 Z" fill="#000000" fill-rule="nonzero" fill-opacity="1" /><path clip-path="url(#clip250)" d="M1151.99 1097.15 L1158.67 1097.15 L1158.67 1074.08 L1151.4 1075.53 L1151.4 1071.81 L1158.63 1070.35 L1162.72 1070.35 L1162.72 1097.15 L1169.41 1097.15 L1169.41 1100.59 L1151.99 1100.59 L1151.99 1097.15 Z" fill="#000000" fill-rule="nonzero" fill-opacity="1" /><path clip-path="url(#clip250)" d="M1522.32 460.753 L1539.69 460.753 L1539.69 464.196 L1526.41 464.196 L1526.41 473.108 L1538.4 473.108 L1538.4 476.551 L1526.41 476.551 L1526.41 490.993 L1522.32 490.993 L1522.32 460.753 Z" fill="#000000" fill-rule="nonzero" fill-opacity="1" /><path clip-path="url(#clip250)" d="M1328.63 906.264 L1346.33 906.264 L1346.33 909.667 L1332.32 925.972 L1346.33 925.972 L1346.33 928.949 L1328.13 928.949 L1328.13 925.547 L1342.14 909.242 L1328.63 909.242 L1328.63 906.264 Z" fill="#000000" fill-rule="nonzero" fill-opacity="1" /><path clip-path="url(#clip250)" d="M1358.65 898.709 L1362.09 898.709 L1351.56 932.798 L1348.12 932.798 L1358.65 898.709 Z" fill="#000000" fill-rule="nonzero" fill-opacity="1" /><path clip-path="url(#clip250)" d="M1370.05 925.506 L1384.33 925.506 L1384.33 928.949 L1365.13 928.949 L1365.13 925.506 Q1367.46 923.096 1371.47 919.045 Q1375.5 914.974 1376.53 913.799 Q1378.5 911.591 1379.27 910.072 Q1380.06 908.533 1380.06 907.054 Q1380.06 904.644 1378.36 903.125 Q1376.68 901.606 1373.96 901.606 Q1372.04 901.606 1369.89 902.274 Q1367.76 902.943 1365.33 904.3 L1365.33 900.168 Q1367.8 899.175 1369.95 898.669 Q1372.1 898.163 1373.88 898.163 Q1378.58 898.163 1381.37 900.512 Q1384.17 902.862 1384.17 906.791 Q1384.17 908.654 1383.46 910.335 Q1382.77 911.996 1380.93 914.265 Q1380.42 914.852 1377.71 917.668 Q1374.99 920.463 1370.05 925.506 Z" fill="#000000" fill-rule="nonzero" fill-opacity="1" /><path clip-path="url(#clip250)" d="M1072.99 533.369 L1083.91 533.369 L1083.91 536.691 L1072.99 536.691 L1072.99 533.369 Z" fill="#000000" fill-rule="nonzero" fill-opacity="1" /><path clip-path="url(#clip250)" d="M1088.22 523.707 L1105.92 523.707 L1105.92 527.11 L1091.91 543.415 L1105.92 543.415 L1105.92 546.392 L1087.71 546.392 L1087.71 542.99 L1101.73 526.685 L1088.22 526.685 L1088.22 523.707 Z" fill="#000000" fill-rule="nonzero" fill-opacity="1" /><path clip-path="url(#clip250)" d="M1118.24 516.152 L1121.68 516.152 L1111.15 550.241 L1107.7 550.241 L1118.24 516.152 Z" fill="#000000" fill-rule="nonzero" fill-opacity="1" /><path clip-path="url(#clip250)" d="M1129.64 542.949 L1143.92 542.949 L1143.92 546.392 L1124.72 546.392 L1124.72 542.949 Q1127.05 540.539 1131.06 536.488 Q1135.09 532.417 1136.12 531.242 Q1138.09 529.034 1138.86 527.515 Q1139.65 525.976 1139.65 524.497 Q1139.65 522.087 1137.94 520.568 Q1136.26 519.049 1133.55 519.049 Q1131.63 519.049 1129.48 519.717 Q1127.35 520.386 1124.92 521.743 L1124.92 517.611 Q1127.39 516.618 1129.54 516.112 Q1131.69 515.606 1133.47 515.606 Q1138.17 515.606 1140.96 517.955 Q1143.76 520.305 1143.76 524.234 Q1143.76 526.097 1143.05 527.779 Q1142.36 529.439 1140.52 531.708 Q1140.01 532.295 1137.3 535.111 Q1134.58 537.906 1129.64 542.949 Z" fill="#000000" fill-rule="nonzero" fill-opacity="1" /><path clip-path="url(#clip250)" d="M893.572 981.073 L893.572 993.105 L889.825 993.105 L889.825 961.791 L893.572 961.791 L893.572 965.234 Q894.747 963.209 896.53 962.237 Q898.332 961.244 900.824 961.244 Q904.956 961.244 907.528 964.525 Q910.12 967.807 910.12 973.154 Q910.12 978.501 907.528 981.782 Q904.956 985.064 900.824 985.064 Q898.332 985.064 896.53 984.091 Q894.747 983.099 893.572 981.073 M906.252 973.154 Q906.252 969.042 904.55 966.713 Q902.869 964.363 899.912 964.363 Q896.955 964.363 895.254 966.713 Q893.572 969.042 893.572 973.154 Q893.572 977.266 895.254 979.615 Q896.955 981.944 899.912 981.944 Q902.869 981.944 904.55 979.615 Q906.252 977.266 906.252 973.154 Z" fill="#000000" fill-rule="nonzero" fill-opacity="1" /><path clip-path="url(#clip250)" d="M925.089 964.404 Q922.091 964.404 920.349 966.753 Q918.607 969.083 918.607 973.154 Q918.607 977.225 920.329 979.575 Q922.071 981.904 925.089 981.904 Q928.066 981.904 929.808 979.554 Q931.55 977.205 931.55 973.154 Q931.55 969.123 929.808 966.774 Q928.066 964.404 925.089 964.404 M925.089 961.244 Q929.95 961.244 932.724 964.404 Q935.499 967.564 935.499 973.154 Q935.499 978.724 932.724 981.904 Q929.95 985.064 925.089 985.064 Q920.207 985.064 917.432 981.904 Q914.678 978.724 914.678 973.154 Q914.678 967.564 917.432 964.404 Q920.207 961.244 925.089 961.244 Z" fill="#000000" fill-rule="nonzero" fill-opacity="1" /><path clip-path="url(#clip250)" d="M954.822 965.275 Q954.194 964.91 953.445 964.748 Q952.716 964.566 951.824 964.566 Q948.665 964.566 946.963 966.632 Q945.282 968.678 945.282 972.526 L945.282 984.476 L941.535 984.476 L941.535 961.791 L945.282 961.791 L945.282 965.315 Q946.457 963.249 948.341 962.257 Q950.224 961.244 952.918 961.244 Q953.303 961.244 953.769 961.305 Q954.235 961.346 954.802 961.447 L954.822 965.275 Z" fill="#000000" fill-rule="nonzero" fill-opacity="1" /><path clip-path="url(#clip250)" d="M977.224 972.202 L977.224 974.025 L960.088 974.025 Q960.331 977.873 962.397 979.899 Q964.484 981.904 968.19 981.904 Q970.337 981.904 972.342 981.377 Q974.368 980.851 976.353 979.797 L976.353 983.322 Q974.347 984.172 972.241 984.618 Q970.135 985.064 967.967 985.064 Q962.539 985.064 959.359 981.904 Q956.199 978.744 956.199 973.356 Q956.199 967.786 959.197 964.525 Q962.215 961.244 967.319 961.244 Q971.897 961.244 974.55 964.201 Q977.224 967.138 977.224 972.202 M973.497 971.108 Q973.456 968.05 971.775 966.227 Q970.114 964.404 967.36 964.404 Q964.24 964.404 962.357 966.166 Q960.493 967.928 960.21 971.128 L973.497 971.108 Z" fill="#000000" fill-rule="nonzero" fill-opacity="1" /></svg>
